M48
;GenerationSoftware,Autodesk,EAGLE,9.6.2*%
;CreationDate,2023-11-08T14:29:04Z*%
FMAT,2
ICI,OFF
METRIC,TZ,000.000
T5C0.254
T4C0.350
T3C0.800
T2C1.016
T1C1.300
%
G90
M71
T1
X-12262Y-1631
X-7931Y869
X24777Y2436
X16117Y-2563
X20447Y-63
T2
X7620Y38179
X7620Y35639
X7620Y33099
X-11112Y39291
T3
X-26185Y8706
X-22685Y8706
X-23226Y162
X-19726Y162
T4
X-4246Y46746
X-2619Y47307
X-9820Y44691
X10729Y40326
X-6667Y42291
X9525Y30353
X2080Y47536
X10512Y44285
X12087Y39688
X-9401Y34201
X-11179Y32957
X-943Y41491
X784Y41440
X-29Y39357
X733Y43320
X6267Y40201
X-3715Y36259
X6495Y33839
X4128Y47704
X15037Y19025
X9195Y19533
X15037Y20193
X10541Y21768
X5524Y32067
X10608Y41859
X-401Y30397
X-17526Y3302
X-15748Y3302
X-14376Y2896
X-13208Y4572
X-14732Y4572
X-16510Y4572
X-18288Y4572
X-17526Y5842
X-15748Y5842
X-13970Y5842
X-18288Y7112
X-16510Y7112
X-14732Y7112
X-5080Y8636
X-5080Y7112
X-4064Y7874
X-4064Y6604
X-2794Y7112
X-2794Y5588
X-1524Y6604
X-254Y7112
X-254Y5588
X-1016Y8128
X508Y8128
X-254Y9144
X-1016Y10160
X508Y10160
X8712Y8534
X8636Y7036
X9525Y7747
X9525Y6477
X10795Y6985
X10795Y5715
X12065Y6477
X13335Y6985
X13437Y5740
X12573Y8001
X14097Y8001
X13335Y9017
X12573Y10033
X14097Y10033
X-4242Y25527
X-14199Y10820
X-13462Y9982
X-14173Y9042
X-20828Y19863
X-20853Y12852
X-15875Y15037
X-14707Y15062
X-13564Y15011
X-15367Y15900
X-14148Y15900
X-15850Y16688
X-14732Y16688
X-13538Y16662
X-12090Y10617
X-12065Y9220
X-11252Y9906
X-11227Y8687
X-10185Y9373
X-1905Y15265
X-737Y15291
X483Y15265
X-1397Y16129
X-178Y16129
X-1880Y16916
X-762Y16916
X432Y16891
X1880Y10846
X1905Y9449
X2718Y10135
X2743Y8915
X3785Y9601
X11811Y15240
X12979Y15265
X14199Y15240
X12319Y16104
X13538Y16104
X11836Y16891
X12954Y16891
X14148Y16866
X15443Y10820
X15469Y9423
X16281Y10109
X16307Y8890
X17348Y9576
X-12040Y14757
X-16815Y13513
X-6597Y40243
X349Y25225
X1524Y24257
X1524Y26225
X-8534Y9017
X-7315Y9017
X-7899Y8153
X-6553Y8128
X-6299Y9423
X5588Y9347
X6909Y9423
X6274Y8611
X7468Y8611
X19482Y9398
X20726Y9423
X20218Y8534
X21641Y8534
X22301Y9449
X23241Y8636
X-4267Y11074
X-3251Y12243
X-18034Y10897
X-17932Y12217
X9322Y11049
X10008Y12192
X-25400Y17224
X-24460Y18694
X-25451Y15824
X-24130Y13945
X-20701Y21336
X-22327Y20422
X12319Y24384
X11112Y27813
X12014Y30607
X8992Y20676
X22276Y20549
X18466Y22631
X-7188Y30683
X4369Y31813
X2083Y15037
X-2667Y13284
X15367Y14986
X10668Y13691
X8230Y23597
X3612Y36820
X4547Y36906
X13868Y26772
X12903Y29794
X13894Y24206
X15037Y21336
X8738Y29667
X11379Y18923
T5
X10617Y37770
X-1930Y37109
X-9449Y35738
X-11121Y34661
X-3226Y37821
X-9627Y36627
X-19406Y12827
X-27940Y2032
X-27940Y6096
X-27229Y7341
X-26416Y5080
X-27940Y4318
X-26416Y3048
X-24384Y3048
X3048Y25908
X-17120Y23952
X-14300Y25552
X24130Y19609
X26238Y18415
X28626Y17094
X28727Y14859
X28600Y12802
X28321Y10592
X28829Y8611
X25476Y11684
X25425Y15265
X6350Y25883
X-9169Y18517
X22657Y11151
X24257Y17551
X9347Y15926
X-17526Y15494
X-15088Y20345
X-9550Y14681
X-8712Y17069
X20142Y17780
X-5740Y21107
X-11811Y20168
X8306Y30886
X-11176Y29261
X4369Y29743
X3759Y14961
X17348Y15088
X-4420Y23444
X-4953Y24181
X-5448Y26937
X-4242Y22479
X22758Y14427
X3399Y30160
X3099Y26968
X8001Y17729
X4000Y28791
X-4801Y19660
X-5486Y28016
X2558Y29865
X5029Y27140
X-4531Y27321
X10262Y17805
X21374Y17488
X5359Y23089
X4572Y42951
X-3327Y34417
X5372Y23990
X4648Y40185
X51Y36805
X-7518Y26213
X10363Y30912
X-5207Y25679
X-4826Y16002
X8458Y27711
X-3251Y29997
X-5182Y29286
X7836Y28397
X-29210Y8636
X-29210Y6858
X-29210Y5080
X-29210Y3048
X-29210Y1016
X-27432Y-254
X-25908Y-1270
X-8687Y26111
X-24384Y-2286
X-15620Y22225
X-19660Y15519
X-16383Y19888
X-11125Y19228
X-24384Y-508
X5385Y21184
X5080Y21996
X5005Y24791
X-10414Y20142
X6299Y18440
X-914Y20523
X10922Y16027
X-3264Y21425
X-3378Y20295
X1295Y22682
X-25Y22784
X315Y20041
X-4775Y18669
X1702Y20625
X-4458Y13398
X2573Y20295
X-26162Y0
M30