G04 EAGLE Gerber RS-274X export*
G75*
%MOMM*%
%FSLAX34Y34*%
%LPD*%
%INCopper Layer 2*%
%IPPOS*%
%AMOC8*
5,1,8,0,0,1.08239X$1,22.5*%
G01*
%ADD10C,1.524000*%
%ADD11C,1.950000*%
%ADD12C,0.756400*%
%ADD13C,0.660400*%
%ADD14C,0.508000*%
%ADD15C,0.635000*%
%ADD16C,0.381000*%
%ADD17C,0.254000*%
%ADD18C,0.177800*%
%ADD19C,0.203200*%

G36*
X-149942Y-83044D02*
X-149942Y-83044D01*
X-149886Y-83046D01*
X-149821Y-83027D01*
X-149754Y-83018D01*
X-149682Y-82986D01*
X-149650Y-82977D01*
X-149633Y-82965D01*
X-149601Y-82950D01*
X-2384Y2043D01*
X-2294Y2116D01*
X-2205Y2186D01*
X-2199Y2194D01*
X-2193Y2199D01*
X-2182Y2218D01*
X-2105Y2321D01*
X-1985Y2530D01*
X-1252Y2726D01*
X-1237Y2733D01*
X-1222Y2735D01*
X-1068Y2802D01*
X-411Y3182D01*
X-178Y3120D01*
X-64Y3108D01*
X50Y3094D01*
X60Y3096D01*
X66Y3095D01*
X88Y3100D01*
X216Y3120D01*
X448Y3182D01*
X1106Y2802D01*
X1120Y2797D01*
X1133Y2787D01*
X1289Y2726D01*
X2022Y2530D01*
X2143Y2321D01*
X2216Y2232D01*
X2286Y2142D01*
X2294Y2136D01*
X2298Y2131D01*
X2318Y2119D01*
X2421Y2043D01*
X142938Y-79082D01*
X142979Y-79098D01*
X143016Y-79122D01*
X143094Y-79141D01*
X143168Y-79169D01*
X143212Y-79171D01*
X143255Y-79182D01*
X143334Y-79175D01*
X143414Y-79178D01*
X143456Y-79166D01*
X143500Y-79163D01*
X143573Y-79131D01*
X143650Y-79109D01*
X143686Y-79083D01*
X143726Y-79066D01*
X143840Y-78975D01*
X143851Y-78967D01*
X143853Y-78965D01*
X143857Y-78961D01*
X146080Y-76738D01*
X146122Y-76680D01*
X146170Y-76629D01*
X146179Y-76612D01*
X146193Y-76595D01*
X146205Y-76565D01*
X146224Y-76539D01*
X146246Y-76466D01*
X146274Y-76406D01*
X146276Y-76389D01*
X146285Y-76367D01*
X146289Y-76326D01*
X146296Y-76303D01*
X146295Y-76271D01*
X146303Y-76200D01*
X146303Y112776D01*
X146289Y112866D01*
X146281Y112957D01*
X146269Y112987D01*
X146264Y113019D01*
X146221Y113099D01*
X146185Y113183D01*
X146159Y113216D01*
X146148Y113236D01*
X146125Y113258D01*
X146080Y113314D01*
X143032Y116362D01*
X142958Y116415D01*
X142889Y116475D01*
X142859Y116487D01*
X142833Y116506D01*
X142745Y116533D01*
X142661Y116567D01*
X142620Y116571D01*
X142597Y116578D01*
X142565Y116577D01*
X142494Y116585D01*
X121412Y116585D01*
X121322Y116571D01*
X121231Y116563D01*
X121201Y116551D01*
X121169Y116546D01*
X121089Y116503D01*
X121005Y116467D01*
X120973Y116441D01*
X120952Y116430D01*
X120930Y116407D01*
X120874Y116362D01*
X119604Y115092D01*
X119551Y115018D01*
X119491Y114949D01*
X119479Y114919D01*
X119460Y114893D01*
X119433Y114806D01*
X119399Y114721D01*
X119395Y114680D01*
X119388Y114657D01*
X119389Y114625D01*
X119381Y114554D01*
X119381Y102169D01*
X116017Y98805D01*
X84074Y98805D01*
X83984Y98791D01*
X83893Y98783D01*
X83863Y98771D01*
X83831Y98766D01*
X83751Y98723D01*
X83667Y98687D01*
X83635Y98661D01*
X83614Y98650D01*
X83592Y98627D01*
X83536Y98582D01*
X81504Y96550D01*
X81451Y96476D01*
X81391Y96407D01*
X81379Y96377D01*
X81360Y96351D01*
X81333Y96264D01*
X81299Y96179D01*
X81295Y96138D01*
X81288Y96115D01*
X81289Y96083D01*
X81281Y96012D01*
X81281Y78547D01*
X77663Y74929D01*
X17333Y74929D01*
X9651Y82611D01*
X9651Y105664D01*
X9637Y105754D01*
X9629Y105845D01*
X9617Y105875D01*
X9612Y105907D01*
X9569Y105987D01*
X9533Y106071D01*
X9507Y106103D01*
X9496Y106124D01*
X9473Y106146D01*
X9428Y106202D01*
X5872Y109758D01*
X5798Y109811D01*
X5729Y109871D01*
X5699Y109883D01*
X5673Y109902D01*
X5586Y109929D01*
X5501Y109963D01*
X5460Y109967D01*
X5437Y109974D01*
X5405Y109973D01*
X5334Y109981D01*
X-15240Y109981D01*
X-15330Y109967D01*
X-15421Y109959D01*
X-15451Y109947D01*
X-15483Y109942D01*
X-15563Y109899D01*
X-15647Y109863D01*
X-15679Y109837D01*
X-15700Y109826D01*
X-15722Y109803D01*
X-15778Y109758D01*
X-23175Y102361D01*
X-45720Y102361D01*
X-45810Y102347D01*
X-45901Y102339D01*
X-45931Y102327D01*
X-45963Y102322D01*
X-46043Y102279D01*
X-46127Y102243D01*
X-46159Y102217D01*
X-46180Y102206D01*
X-46202Y102183D01*
X-46258Y102138D01*
X-56418Y91978D01*
X-56471Y91904D01*
X-56531Y91835D01*
X-56543Y91805D01*
X-56562Y91779D01*
X-56589Y91692D01*
X-56623Y91607D01*
X-56627Y91566D01*
X-56634Y91543D01*
X-56633Y91511D01*
X-56641Y91440D01*
X-56641Y76515D01*
X-61275Y71881D01*
X-86045Y71881D01*
X-91584Y77421D01*
X-91600Y77432D01*
X-91613Y77448D01*
X-91700Y77504D01*
X-91784Y77564D01*
X-91803Y77570D01*
X-91820Y77581D01*
X-91920Y77606D01*
X-92019Y77637D01*
X-92039Y77636D01*
X-92058Y77641D01*
X-92161Y77633D01*
X-92265Y77630D01*
X-92284Y77623D01*
X-92303Y77622D01*
X-92398Y77581D01*
X-92496Y77546D01*
X-92511Y77533D01*
X-92530Y77525D01*
X-92661Y77421D01*
X-96930Y73151D01*
X-120748Y73151D01*
X-129541Y81944D01*
X-129541Y115062D01*
X-129555Y115152D01*
X-129563Y115243D01*
X-129575Y115273D01*
X-129580Y115305D01*
X-129623Y115385D01*
X-129659Y115469D01*
X-129685Y115501D01*
X-129696Y115522D01*
X-129719Y115544D01*
X-129764Y115600D01*
X-135098Y120934D01*
X-135172Y120987D01*
X-135241Y121047D01*
X-135271Y121059D01*
X-135297Y121078D01*
X-135384Y121105D01*
X-135469Y121139D01*
X-135510Y121143D01*
X-135533Y121150D01*
X-135565Y121149D01*
X-135636Y121157D01*
X-170434Y121157D01*
X-170524Y121143D01*
X-170615Y121135D01*
X-170645Y121123D01*
X-170677Y121118D01*
X-170757Y121075D01*
X-170841Y121039D01*
X-170873Y121013D01*
X-170894Y121002D01*
X-170916Y120979D01*
X-170972Y120934D01*
X-176631Y115275D01*
X-176643Y115259D01*
X-176658Y115247D01*
X-176714Y115159D01*
X-176775Y115076D01*
X-176781Y115057D01*
X-176791Y115040D01*
X-176817Y114939D01*
X-176847Y114841D01*
X-176847Y114821D01*
X-176851Y114801D01*
X-176843Y114698D01*
X-176841Y114595D01*
X-176834Y114576D01*
X-176832Y114556D01*
X-176792Y114461D01*
X-176756Y114364D01*
X-176744Y114348D01*
X-176736Y114330D01*
X-176631Y114199D01*
X-174980Y112548D01*
X-174017Y110224D01*
X-174017Y107708D01*
X-174980Y105384D01*
X-176758Y103606D01*
X-179082Y102643D01*
X-181598Y102643D01*
X-183922Y103606D01*
X-185573Y105257D01*
X-185589Y105269D01*
X-185601Y105284D01*
X-185689Y105340D01*
X-185773Y105401D01*
X-185792Y105407D01*
X-185808Y105417D01*
X-185909Y105443D01*
X-186008Y105473D01*
X-186028Y105473D01*
X-186047Y105477D01*
X-186150Y105469D01*
X-186254Y105467D01*
X-186272Y105460D01*
X-186292Y105458D01*
X-186387Y105418D01*
X-186485Y105382D01*
X-186500Y105370D01*
X-186518Y105362D01*
X-186649Y105257D01*
X-200182Y91724D01*
X-200235Y91650D01*
X-200295Y91581D01*
X-200307Y91551D01*
X-200326Y91525D01*
X-200353Y91438D01*
X-200387Y91353D01*
X-200391Y91312D01*
X-200398Y91289D01*
X-200397Y91257D01*
X-200405Y91186D01*
X-200405Y-53619D01*
X-200394Y-53686D01*
X-200393Y-53753D01*
X-200375Y-53807D01*
X-200366Y-53862D01*
X-200334Y-53922D01*
X-200311Y-53985D01*
X-200277Y-54030D01*
X-200250Y-54079D01*
X-200201Y-54126D01*
X-200160Y-54179D01*
X-200096Y-54226D01*
X-200072Y-54249D01*
X-200053Y-54257D01*
X-200025Y-54278D01*
X-150362Y-82950D01*
X-150299Y-82974D01*
X-150240Y-83007D01*
X-150184Y-83018D01*
X-150132Y-83037D01*
X-150064Y-83040D01*
X-149998Y-83052D01*
X-149942Y-83044D01*
G37*
G36*
X146394Y313957D02*
X146394Y313957D01*
X146446Y313958D01*
X146514Y313983D01*
X146584Y313998D01*
X146628Y314025D01*
X146677Y314043D01*
X146733Y314088D01*
X146795Y314124D01*
X146829Y314164D01*
X146869Y314196D01*
X146908Y314257D01*
X146955Y314311D01*
X146974Y314359D01*
X147002Y314403D01*
X147020Y314473D01*
X147047Y314539D01*
X147055Y314611D01*
X147063Y314642D01*
X147061Y314665D01*
X147065Y314706D01*
X147065Y431038D01*
X147054Y431104D01*
X147054Y431170D01*
X147035Y431224D01*
X147026Y431281D01*
X146994Y431340D01*
X146972Y431403D01*
X146937Y431448D01*
X146910Y431498D01*
X146862Y431544D01*
X146821Y431597D01*
X146756Y431645D01*
X146732Y431668D01*
X146714Y431676D01*
X146686Y431696D01*
X128Y516786D01*
X64Y516811D01*
X4Y516844D01*
X-50Y516854D01*
X-102Y516874D01*
X-170Y516877D01*
X-238Y516889D01*
X-293Y516881D01*
X-347Y516884D01*
X-414Y516864D01*
X-482Y516854D01*
X-552Y516824D01*
X-583Y516814D01*
X-601Y516802D01*
X-635Y516787D01*
X-147701Y431697D01*
X-147753Y431654D01*
X-147811Y431620D01*
X-147848Y431577D01*
X-147891Y431541D01*
X-147927Y431484D01*
X-147971Y431433D01*
X-147992Y431380D01*
X-148022Y431333D01*
X-148038Y431267D01*
X-148063Y431205D01*
X-148072Y431125D01*
X-148079Y431093D01*
X-148077Y431073D01*
X-148081Y431038D01*
X-148081Y315976D01*
X-148067Y315886D01*
X-148059Y315795D01*
X-148047Y315765D01*
X-148042Y315733D01*
X-147999Y315653D01*
X-147963Y315569D01*
X-147937Y315537D01*
X-147926Y315516D01*
X-147903Y315494D01*
X-147858Y315438D01*
X-146842Y314422D01*
X-146768Y314369D01*
X-146699Y314309D01*
X-146669Y314297D01*
X-146643Y314278D01*
X-146556Y314251D01*
X-146471Y314217D01*
X-146430Y314213D01*
X-146407Y314206D01*
X-146375Y314207D01*
X-146304Y314199D01*
X-118064Y314199D01*
X-117974Y314214D01*
X-117883Y314221D01*
X-117853Y314233D01*
X-117821Y314239D01*
X-117741Y314281D01*
X-117657Y314317D01*
X-117625Y314343D01*
X-117604Y314354D01*
X-117582Y314377D01*
X-117526Y314422D01*
X-98318Y333630D01*
X-26664Y333630D01*
X-23539Y330505D01*
X-7456Y314422D01*
X-7382Y314369D01*
X-7313Y314309D01*
X-7283Y314297D01*
X-7256Y314278D01*
X-7169Y314251D01*
X-7085Y314217D01*
X-7044Y314213D01*
X-7021Y314206D01*
X-6989Y314207D01*
X-6918Y314199D01*
X15794Y314199D01*
X15884Y314214D01*
X15975Y314221D01*
X16005Y314233D01*
X16037Y314239D01*
X16117Y314281D01*
X16201Y314317D01*
X16233Y314343D01*
X16254Y314354D01*
X16276Y314377D01*
X16332Y314422D01*
X18522Y316612D01*
X37366Y316612D01*
X37386Y316615D01*
X37405Y316613D01*
X37507Y316635D01*
X37609Y316651D01*
X37626Y316661D01*
X37646Y316665D01*
X37735Y316718D01*
X37826Y316767D01*
X37840Y316781D01*
X37857Y316791D01*
X37924Y316870D01*
X37996Y316945D01*
X38004Y316963D01*
X38017Y316978D01*
X38056Y317074D01*
X38099Y317168D01*
X38101Y317188D01*
X38109Y317206D01*
X38127Y317373D01*
X38127Y319241D01*
X38974Y321285D01*
X40538Y322849D01*
X42582Y323696D01*
X44794Y323696D01*
X46838Y322849D01*
X48385Y321302D01*
X48443Y321260D01*
X48495Y321211D01*
X48542Y321189D01*
X48584Y321159D01*
X48653Y321138D01*
X48718Y321107D01*
X48770Y321102D01*
X48820Y321086D01*
X48891Y321088D01*
X48962Y321080D01*
X49013Y321091D01*
X49065Y321093D01*
X49133Y321117D01*
X49203Y321133D01*
X49248Y321159D01*
X49296Y321177D01*
X49352Y321222D01*
X49414Y321259D01*
X49448Y321298D01*
X49488Y321331D01*
X49527Y321391D01*
X49574Y321446D01*
X49593Y321494D01*
X49621Y321538D01*
X49639Y321607D01*
X49666Y321674D01*
X49674Y321745D01*
X49680Y321772D01*
X50531Y323825D01*
X52095Y325389D01*
X54139Y326236D01*
X56351Y326236D01*
X58395Y325389D01*
X59959Y323825D01*
X60806Y321781D01*
X60806Y319569D01*
X59959Y317525D01*
X58395Y315961D01*
X57677Y315663D01*
X57594Y315612D01*
X57508Y315566D01*
X57490Y315548D01*
X57468Y315534D01*
X57405Y315459D01*
X57338Y315388D01*
X57327Y315364D01*
X57311Y315344D01*
X57276Y315253D01*
X57235Y315165D01*
X57232Y315139D01*
X57222Y315115D01*
X57218Y315017D01*
X57208Y314921D01*
X57213Y314895D01*
X57212Y314869D01*
X57239Y314775D01*
X57260Y314680D01*
X57273Y314658D01*
X57281Y314633D01*
X57336Y314553D01*
X57386Y314469D01*
X57406Y314452D01*
X57421Y314431D01*
X57499Y314372D01*
X57573Y314309D01*
X57597Y314299D01*
X57618Y314284D01*
X57711Y314254D01*
X57801Y314217D01*
X57834Y314214D01*
X57852Y314208D01*
X57885Y314208D01*
X57968Y314199D01*
X105387Y314199D01*
X105457Y314210D01*
X105529Y314212D01*
X105578Y314230D01*
X105629Y314239D01*
X105693Y314272D01*
X105760Y314297D01*
X105801Y314329D01*
X105847Y314354D01*
X105896Y314406D01*
X105952Y314450D01*
X105980Y314494D01*
X106016Y314532D01*
X106046Y314597D01*
X106085Y314657D01*
X106098Y314708D01*
X106120Y314755D01*
X106128Y314826D01*
X106145Y314896D01*
X106141Y314948D01*
X106147Y314999D01*
X106132Y315070D01*
X106126Y315141D01*
X106106Y315189D01*
X106095Y315240D01*
X106058Y315301D01*
X106030Y315367D01*
X105985Y315423D01*
X105968Y315451D01*
X105951Y315466D01*
X105925Y315498D01*
X90550Y330873D01*
X90550Y383898D01*
X90536Y383988D01*
X90528Y384079D01*
X90516Y384108D01*
X90511Y384140D01*
X90468Y384221D01*
X90432Y384305D01*
X90406Y384337D01*
X90395Y384358D01*
X90372Y384380D01*
X90327Y384436D01*
X83954Y390809D01*
X83880Y390862D01*
X83811Y390922D01*
X83780Y390934D01*
X83754Y390953D01*
X83667Y390980D01*
X83582Y391014D01*
X83541Y391018D01*
X83519Y391025D01*
X83487Y391024D01*
X83416Y391032D01*
X82091Y391032D01*
X82020Y391021D01*
X81949Y391019D01*
X81900Y391001D01*
X81848Y390993D01*
X81785Y390959D01*
X81718Y390934D01*
X81677Y390902D01*
X81631Y390877D01*
X81582Y390825D01*
X81526Y390781D01*
X81497Y390737D01*
X81462Y390699D01*
X81431Y390634D01*
X81393Y390574D01*
X81380Y390523D01*
X81358Y390476D01*
X81350Y390405D01*
X81333Y390335D01*
X81337Y390283D01*
X81331Y390232D01*
X81346Y390161D01*
X81352Y390090D01*
X81372Y390042D01*
X81383Y389991D01*
X81420Y389930D01*
X81448Y389864D01*
X81493Y389808D01*
X81509Y389780D01*
X81527Y389765D01*
X81553Y389733D01*
X84168Y387118D01*
X85599Y383663D01*
X85599Y379924D01*
X84168Y376470D01*
X81524Y373826D01*
X78070Y372395D01*
X74330Y372395D01*
X70876Y373826D01*
X68232Y376470D01*
X66801Y379924D01*
X66801Y383663D01*
X68232Y387118D01*
X70847Y389733D01*
X70889Y389791D01*
X70938Y389843D01*
X70960Y389890D01*
X70991Y389932D01*
X71012Y390001D01*
X71042Y390066D01*
X71048Y390118D01*
X71063Y390168D01*
X71061Y390239D01*
X71069Y390310D01*
X71058Y390361D01*
X71057Y390413D01*
X71032Y390481D01*
X71017Y390551D01*
X70990Y390596D01*
X70972Y390644D01*
X70927Y390700D01*
X70891Y390762D01*
X70851Y390796D01*
X70819Y390836D01*
X70758Y390875D01*
X70704Y390922D01*
X70655Y390941D01*
X70612Y390969D01*
X70542Y390987D01*
X70476Y391014D01*
X70404Y391022D01*
X70373Y391030D01*
X70350Y391028D01*
X70309Y391032D01*
X53527Y391032D01*
X51741Y392818D01*
X49433Y395126D01*
X49375Y395168D01*
X49323Y395217D01*
X49276Y395239D01*
X49234Y395270D01*
X49165Y395291D01*
X49100Y395321D01*
X49048Y395327D01*
X48998Y395342D01*
X48927Y395340D01*
X48856Y395348D01*
X48805Y395337D01*
X48753Y395336D01*
X48685Y395311D01*
X48615Y395296D01*
X48570Y395269D01*
X48522Y395251D01*
X48466Y395206D01*
X48404Y395170D01*
X48370Y395130D01*
X48330Y395097D01*
X48291Y395037D01*
X48244Y394983D01*
X48225Y394934D01*
X48197Y394890D01*
X48179Y394821D01*
X48152Y394754D01*
X48144Y394683D01*
X48136Y394652D01*
X48138Y394629D01*
X48134Y394588D01*
X48134Y374485D01*
X48153Y374369D01*
X48170Y374254D01*
X48172Y374248D01*
X48173Y374242D01*
X48228Y374139D01*
X48281Y374034D01*
X48286Y374030D01*
X48289Y374024D01*
X48373Y373945D01*
X48457Y373862D01*
X48463Y373858D01*
X48467Y373855D01*
X48484Y373847D01*
X48604Y373781D01*
X48616Y373776D01*
X50180Y372212D01*
X51027Y370168D01*
X51027Y367956D01*
X50180Y365912D01*
X48616Y364348D01*
X46572Y363501D01*
X44360Y363501D01*
X42316Y364348D01*
X41764Y364900D01*
X41748Y364911D01*
X41736Y364927D01*
X41648Y364983D01*
X41565Y365043D01*
X41546Y365049D01*
X41529Y365060D01*
X41428Y365085D01*
X41329Y365116D01*
X41310Y365115D01*
X41290Y365120D01*
X41187Y365112D01*
X41084Y365109D01*
X41065Y365102D01*
X41045Y365101D01*
X40950Y365060D01*
X40853Y365025D01*
X40837Y365012D01*
X40819Y365004D01*
X40688Y364900D01*
X39274Y363486D01*
X37230Y362639D01*
X35018Y362639D01*
X32974Y363486D01*
X31410Y365050D01*
X30563Y367094D01*
X30563Y369306D01*
X31410Y371350D01*
X32974Y372914D01*
X32986Y372919D01*
X33085Y372981D01*
X33186Y373041D01*
X33190Y373045D01*
X33195Y373049D01*
X33270Y373139D01*
X33346Y373228D01*
X33348Y373233D01*
X33352Y373238D01*
X33394Y373347D01*
X33438Y373456D01*
X33439Y373463D01*
X33440Y373468D01*
X33441Y373486D01*
X33456Y373623D01*
X33456Y418483D01*
X40973Y425999D01*
X40984Y426016D01*
X41000Y426028D01*
X41056Y426115D01*
X41116Y426199D01*
X41122Y426218D01*
X41133Y426235D01*
X41158Y426335D01*
X41189Y426434D01*
X41188Y426454D01*
X41193Y426474D01*
X41185Y426577D01*
X41182Y426680D01*
X41175Y426699D01*
X41174Y426719D01*
X41133Y426814D01*
X41098Y426911D01*
X41085Y426927D01*
X41078Y426945D01*
X40973Y427076D01*
X40639Y427410D01*
X40639Y431619D01*
X43615Y434595D01*
X47825Y434595D01*
X50801Y431619D01*
X50801Y428521D01*
X50815Y428431D01*
X50823Y428340D01*
X50835Y428311D01*
X50840Y428279D01*
X50883Y428198D01*
X50919Y428114D01*
X50945Y428082D01*
X50956Y428061D01*
X50979Y428039D01*
X51024Y427983D01*
X64382Y414625D01*
X64456Y414572D01*
X64525Y414512D01*
X64556Y414500D01*
X64582Y414481D01*
X64669Y414454D01*
X64754Y414420D01*
X64795Y414416D01*
X64817Y414409D01*
X64849Y414410D01*
X64920Y414402D01*
X76035Y414402D01*
X101728Y388709D01*
X101728Y333652D01*
X101742Y333562D01*
X101750Y333471D01*
X101762Y333442D01*
X101767Y333410D01*
X101810Y333329D01*
X101846Y333245D01*
X101872Y333213D01*
X101883Y333192D01*
X101906Y333170D01*
X101951Y333114D01*
X116206Y318859D01*
X116206Y314960D01*
X116209Y314940D01*
X116207Y314921D01*
X116229Y314819D01*
X116245Y314717D01*
X116255Y314700D01*
X116259Y314680D01*
X116312Y314591D01*
X116361Y314500D01*
X116375Y314486D01*
X116385Y314469D01*
X116464Y314402D01*
X116539Y314331D01*
X116557Y314322D01*
X116572Y314309D01*
X116668Y314270D01*
X116762Y314227D01*
X116782Y314225D01*
X116800Y314217D01*
X116967Y314199D01*
X145735Y314199D01*
X145766Y314168D01*
X145824Y314126D01*
X145876Y314077D01*
X145923Y314055D01*
X145965Y314024D01*
X146034Y314003D01*
X146099Y313973D01*
X146151Y313967D01*
X146201Y313952D01*
X146272Y313954D01*
X146343Y313946D01*
X146394Y313957D01*
G37*
G36*
X150058Y-83044D02*
X150058Y-83044D01*
X150114Y-83046D01*
X150179Y-83027D01*
X150246Y-83018D01*
X150318Y-82986D01*
X150350Y-82977D01*
X150367Y-82965D01*
X150399Y-82950D01*
X296597Y1455D01*
X296650Y1497D01*
X296708Y1532D01*
X296744Y1575D01*
X296788Y1610D01*
X296824Y1668D01*
X296868Y1719D01*
X296889Y1771D01*
X296918Y1819D01*
X296934Y1884D01*
X296960Y1947D01*
X296968Y2026D01*
X296976Y2058D01*
X296974Y2079D01*
X296978Y2114D01*
X296978Y170924D01*
X296967Y170990D01*
X296966Y171058D01*
X296947Y171111D01*
X296938Y171166D01*
X296907Y171226D01*
X296884Y171290D01*
X296849Y171334D01*
X296823Y171384D01*
X296774Y171430D01*
X296733Y171484D01*
X296669Y171530D01*
X296645Y171553D01*
X296626Y171562D01*
X296597Y171583D01*
X149381Y256576D01*
X149273Y256617D01*
X149167Y256660D01*
X149157Y256661D01*
X149151Y256663D01*
X149128Y256664D01*
X149000Y256678D01*
X148759Y256678D01*
X148223Y257215D01*
X148210Y257224D01*
X148200Y257236D01*
X148065Y257336D01*
X147408Y257715D01*
X147345Y257948D01*
X147298Y258053D01*
X147253Y258158D01*
X147247Y258166D01*
X147244Y258172D01*
X147229Y258188D01*
X147148Y258289D01*
X146978Y258459D01*
X146978Y259218D01*
X146975Y259234D01*
X146977Y259249D01*
X146952Y259415D01*
X146756Y260148D01*
X146876Y260357D01*
X146916Y260464D01*
X146960Y260571D01*
X146961Y260581D01*
X146963Y260587D01*
X146964Y260609D01*
X146978Y260737D01*
X146978Y292862D01*
X146975Y292882D01*
X146977Y292901D01*
X146955Y293003D01*
X146938Y293105D01*
X146929Y293122D01*
X146925Y293142D01*
X146872Y293231D01*
X146823Y293322D01*
X146809Y293336D01*
X146799Y293353D01*
X146720Y293420D01*
X146645Y293492D01*
X146627Y293500D01*
X146612Y293513D01*
X146515Y293552D01*
X146422Y293595D01*
X146402Y293597D01*
X146383Y293605D01*
X146217Y293623D01*
X134874Y293623D01*
X134854Y293620D01*
X134835Y293622D01*
X134733Y293600D01*
X134631Y293584D01*
X134614Y293574D01*
X134594Y293570D01*
X134505Y293517D01*
X134414Y293468D01*
X134400Y293454D01*
X134383Y293444D01*
X134316Y293365D01*
X134244Y293290D01*
X134236Y293272D01*
X134223Y293257D01*
X134184Y293161D01*
X134141Y293067D01*
X134139Y293047D01*
X134131Y293029D01*
X134113Y292862D01*
X134113Y275009D01*
X130914Y271810D01*
X102084Y242981D01*
X102043Y242923D01*
X101993Y242871D01*
X101971Y242824D01*
X101941Y242782D01*
X101920Y242713D01*
X101890Y242648D01*
X101884Y242596D01*
X101869Y242546D01*
X101870Y242475D01*
X101863Y242404D01*
X101874Y242353D01*
X101875Y242301D01*
X101900Y242233D01*
X101915Y242163D01*
X101941Y242119D01*
X101959Y242070D01*
X102004Y242014D01*
X102041Y241952D01*
X102081Y241918D01*
X102113Y241878D01*
X102173Y241839D01*
X102228Y241792D01*
X102276Y241773D01*
X102320Y241745D01*
X102389Y241727D01*
X102456Y241700D01*
X102527Y241692D01*
X102559Y241684D01*
X102582Y241686D01*
X102623Y241682D01*
X108071Y241682D01*
X110172Y240812D01*
X119747Y231237D01*
X119821Y231184D01*
X119890Y231124D01*
X119920Y231112D01*
X119946Y231093D01*
X120033Y231066D01*
X120118Y231032D01*
X120159Y231028D01*
X120181Y231021D01*
X120214Y231022D01*
X120285Y231014D01*
X135196Y231014D01*
X135292Y231029D01*
X135389Y231039D01*
X135413Y231049D01*
X135439Y231053D01*
X135525Y231099D01*
X135614Y231139D01*
X135633Y231156D01*
X135657Y231169D01*
X135723Y231239D01*
X135795Y231305D01*
X135808Y231328D01*
X135826Y231347D01*
X135867Y231435D01*
X135914Y231521D01*
X135919Y231546D01*
X135930Y231570D01*
X135940Y231666D01*
X135958Y231763D01*
X135954Y231789D01*
X135957Y231814D01*
X135936Y231909D01*
X135922Y232006D01*
X135910Y232029D01*
X135904Y232055D01*
X135854Y232138D01*
X135810Y232225D01*
X135792Y232244D01*
X135778Y232266D01*
X135704Y232329D01*
X135635Y232397D01*
X135606Y232413D01*
X135591Y232426D01*
X135560Y232438D01*
X135488Y232478D01*
X135102Y232638D01*
X133324Y234416D01*
X132361Y236740D01*
X132361Y239256D01*
X133324Y241580D01*
X135102Y243358D01*
X137426Y244321D01*
X139942Y244321D01*
X142266Y243358D01*
X144044Y241580D01*
X145007Y239256D01*
X145007Y236740D01*
X144044Y234416D01*
X142266Y232638D01*
X141880Y232478D01*
X141797Y232427D01*
X141711Y232381D01*
X141694Y232362D01*
X141671Y232349D01*
X141609Y232274D01*
X141542Y232203D01*
X141531Y232179D01*
X141514Y232159D01*
X141480Y232068D01*
X141438Y231980D01*
X141436Y231954D01*
X141426Y231930D01*
X141422Y231832D01*
X141411Y231736D01*
X141417Y231710D01*
X141416Y231684D01*
X141443Y231590D01*
X141464Y231495D01*
X141477Y231473D01*
X141484Y231448D01*
X141540Y231368D01*
X141590Y231284D01*
X141610Y231267D01*
X141625Y231246D01*
X141703Y231188D01*
X141777Y231124D01*
X141801Y231114D01*
X141822Y231099D01*
X141914Y231069D01*
X142005Y231032D01*
X142037Y231029D01*
X142056Y231023D01*
X142089Y231023D01*
X142172Y231014D01*
X155061Y231014D01*
X157162Y230144D01*
X158877Y228429D01*
X204318Y182987D01*
X204371Y182949D01*
X204418Y182903D01*
X204491Y182863D01*
X204518Y182844D01*
X204536Y182838D01*
X204565Y182822D01*
X204732Y182753D01*
X206375Y181110D01*
X207265Y178962D01*
X207265Y178339D01*
X207280Y178243D01*
X207290Y178146D01*
X207300Y178122D01*
X207304Y178096D01*
X207350Y178010D01*
X207390Y177921D01*
X207407Y177902D01*
X207420Y177879D01*
X207490Y177811D01*
X207556Y177740D01*
X207579Y177727D01*
X207598Y177709D01*
X207686Y177668D01*
X207772Y177621D01*
X207797Y177617D01*
X207821Y177606D01*
X207918Y177595D01*
X208014Y177578D01*
X208040Y177581D01*
X208065Y177578D01*
X208161Y177599D01*
X208257Y177613D01*
X208280Y177625D01*
X208306Y177631D01*
X208389Y177681D01*
X208476Y177725D01*
X208495Y177744D01*
X208517Y177757D01*
X208580Y177831D01*
X208648Y177900D01*
X208664Y177929D01*
X208677Y177944D01*
X208689Y177975D01*
X208729Y178047D01*
X208788Y178189D01*
X210431Y179832D01*
X212579Y180722D01*
X214903Y180722D01*
X217051Y179832D01*
X218694Y178189D01*
X219584Y176041D01*
X219584Y173717D01*
X218694Y171569D01*
X217051Y169926D01*
X214903Y169036D01*
X212579Y169036D01*
X210431Y169926D01*
X208788Y171569D01*
X207898Y173717D01*
X207898Y174340D01*
X207883Y174436D01*
X207873Y174533D01*
X207863Y174557D01*
X207859Y174583D01*
X207813Y174669D01*
X207773Y174758D01*
X207756Y174777D01*
X207743Y174800D01*
X207673Y174868D01*
X207607Y174939D01*
X207584Y174952D01*
X207565Y174970D01*
X207477Y175011D01*
X207391Y175058D01*
X207366Y175062D01*
X207342Y175073D01*
X207245Y175084D01*
X207149Y175101D01*
X207123Y175098D01*
X207098Y175101D01*
X207002Y175080D01*
X206906Y175066D01*
X206883Y175054D01*
X206857Y175048D01*
X206774Y174998D01*
X206687Y174954D01*
X206668Y174935D01*
X206646Y174922D01*
X206583Y174848D01*
X206515Y174779D01*
X206499Y174750D01*
X206486Y174735D01*
X206474Y174704D01*
X206434Y174632D01*
X206375Y174490D01*
X204732Y172847D01*
X202584Y171957D01*
X200260Y171957D01*
X198112Y172847D01*
X196469Y174490D01*
X196400Y174657D01*
X196365Y174713D01*
X196340Y174773D01*
X196288Y174838D01*
X196270Y174866D01*
X196255Y174879D01*
X196235Y174904D01*
X157990Y213148D01*
X157932Y213190D01*
X157880Y213240D01*
X157833Y213262D01*
X157791Y213292D01*
X157722Y213313D01*
X157657Y213343D01*
X157605Y213349D01*
X157555Y213364D01*
X157484Y213363D01*
X157413Y213370D01*
X157362Y213359D01*
X157310Y213358D01*
X157242Y213333D01*
X157172Y213318D01*
X157128Y213291D01*
X157079Y213274D01*
X157023Y213229D01*
X156961Y213192D01*
X156927Y213152D01*
X156887Y213120D01*
X156848Y213060D01*
X156801Y213005D01*
X156782Y212957D01*
X156754Y212913D01*
X156736Y212843D01*
X156709Y212777D01*
X156701Y212706D01*
X156693Y212674D01*
X156695Y212651D01*
X156691Y212610D01*
X156691Y212102D01*
X155728Y209778D01*
X154133Y208183D01*
X154121Y208167D01*
X154106Y208155D01*
X154050Y208067D01*
X153989Y207984D01*
X153984Y207965D01*
X153973Y207948D01*
X153948Y207847D01*
X153917Y207748D01*
X153918Y207729D01*
X153913Y207709D01*
X153921Y207606D01*
X153923Y207503D01*
X153930Y207484D01*
X153932Y207464D01*
X153972Y207369D01*
X154008Y207272D01*
X154020Y207256D01*
X154028Y207238D01*
X154133Y207107D01*
X155728Y205512D01*
X156691Y203188D01*
X156691Y200672D01*
X155728Y198348D01*
X154006Y196626D01*
X153994Y196610D01*
X153979Y196598D01*
X153923Y196510D01*
X153862Y196427D01*
X153857Y196408D01*
X153846Y196391D01*
X153820Y196290D01*
X153790Y196191D01*
X153791Y196172D01*
X153786Y196152D01*
X153794Y196049D01*
X153796Y195946D01*
X153803Y195927D01*
X153805Y195907D01*
X153845Y195812D01*
X153881Y195715D01*
X153893Y195699D01*
X153901Y195681D01*
X154006Y195550D01*
X155728Y193828D01*
X156691Y191504D01*
X156691Y188988D01*
X155728Y186664D01*
X154006Y184942D01*
X153964Y184884D01*
X153915Y184832D01*
X153893Y184785D01*
X153862Y184743D01*
X153841Y184674D01*
X153811Y184609D01*
X153805Y184557D01*
X153790Y184507D01*
X153792Y184436D01*
X153784Y184365D01*
X153795Y184314D01*
X153796Y184262D01*
X153821Y184194D01*
X153836Y184124D01*
X153863Y184079D01*
X153881Y184031D01*
X153926Y183975D01*
X153962Y183913D01*
X154002Y183879D01*
X154035Y183839D01*
X154095Y183800D01*
X154149Y183753D01*
X154198Y183734D01*
X154241Y183706D01*
X154311Y183688D01*
X154378Y183661D01*
X154449Y183653D01*
X154480Y183645D01*
X154503Y183647D01*
X154544Y183643D01*
X181559Y183643D01*
X217404Y147798D01*
X217478Y147745D01*
X217548Y147685D01*
X217578Y147673D01*
X217604Y147654D01*
X217691Y147627D01*
X217776Y147593D01*
X217817Y147589D01*
X217839Y147582D01*
X217871Y147583D01*
X217943Y147575D01*
X222309Y147575D01*
X222399Y147589D01*
X222490Y147597D01*
X222519Y147609D01*
X222551Y147614D01*
X222632Y147657D01*
X222716Y147693D01*
X222748Y147719D01*
X222769Y147730D01*
X222791Y147753D01*
X222847Y147798D01*
X224274Y149225D01*
X226422Y150115D01*
X228746Y150115D01*
X230894Y149225D01*
X232537Y147582D01*
X233427Y145434D01*
X233427Y143110D01*
X232537Y140962D01*
X230894Y139319D01*
X228746Y138429D01*
X226422Y138429D01*
X224274Y139319D01*
X223355Y140238D01*
X223281Y140291D01*
X223211Y140351D01*
X223181Y140363D01*
X223155Y140382D01*
X223068Y140409D01*
X222983Y140443D01*
X222942Y140447D01*
X222920Y140454D01*
X222888Y140453D01*
X222817Y140461D01*
X214681Y140461D01*
X188752Y166390D01*
X188694Y166432D01*
X188642Y166481D01*
X188595Y166503D01*
X188553Y166533D01*
X188484Y166554D01*
X188419Y166585D01*
X188367Y166590D01*
X188317Y166606D01*
X188246Y166604D01*
X188175Y166612D01*
X188124Y166601D01*
X188072Y166599D01*
X188004Y166575D01*
X187934Y166559D01*
X187889Y166533D01*
X187841Y166515D01*
X187785Y166470D01*
X187723Y166433D01*
X187689Y166394D01*
X187649Y166361D01*
X187610Y166301D01*
X187563Y166246D01*
X187544Y166198D01*
X187516Y166154D01*
X187498Y166085D01*
X187471Y166018D01*
X187463Y165947D01*
X187455Y165916D01*
X187457Y165892D01*
X187453Y165851D01*
X187453Y83722D01*
X178914Y75183D01*
X155096Y75183D01*
X152938Y77341D01*
X150144Y80135D01*
X150086Y80177D01*
X150034Y80226D01*
X149987Y80248D01*
X149945Y80279D01*
X149876Y80300D01*
X149811Y80330D01*
X149759Y80336D01*
X149709Y80351D01*
X149638Y80349D01*
X149567Y80357D01*
X149516Y80346D01*
X149464Y80345D01*
X149396Y80320D01*
X149326Y80305D01*
X149281Y80278D01*
X149233Y80260D01*
X149177Y80215D01*
X149115Y80178D01*
X149081Y80139D01*
X149041Y80106D01*
X149002Y80046D01*
X148955Y79992D01*
X148936Y79943D01*
X148908Y79899D01*
X148890Y79830D01*
X148863Y79763D01*
X148855Y79692D01*
X148847Y79661D01*
X148849Y79638D01*
X148845Y79597D01*
X148845Y-19443D01*
X148860Y-19539D01*
X148870Y-19636D01*
X148880Y-19660D01*
X148884Y-19686D01*
X148930Y-19772D01*
X148970Y-19861D01*
X148987Y-19881D01*
X149000Y-19904D01*
X149070Y-19971D01*
X149136Y-20042D01*
X149159Y-20055D01*
X149178Y-20073D01*
X149266Y-20114D01*
X149352Y-20161D01*
X149377Y-20166D01*
X149401Y-20177D01*
X149498Y-20187D01*
X149594Y-20205D01*
X149620Y-20201D01*
X149645Y-20204D01*
X149741Y-20183D01*
X149837Y-20169D01*
X149860Y-20157D01*
X149886Y-20151D01*
X149969Y-20101D01*
X150056Y-20057D01*
X150075Y-20039D01*
X150097Y-20025D01*
X150160Y-19951D01*
X150228Y-19882D01*
X150244Y-19853D01*
X150257Y-19838D01*
X150269Y-19808D01*
X150309Y-19735D01*
X150749Y-18673D01*
X154207Y-15215D01*
X158724Y-13344D01*
X163613Y-13344D01*
X168131Y-15215D01*
X171588Y-18673D01*
X173459Y-23190D01*
X173459Y-28080D01*
X171588Y-32597D01*
X168131Y-36055D01*
X163613Y-37926D01*
X158724Y-37926D01*
X154207Y-36055D01*
X150749Y-32597D01*
X150309Y-31535D01*
X150258Y-31452D01*
X150212Y-31366D01*
X150194Y-31348D01*
X150180Y-31326D01*
X150104Y-31264D01*
X150034Y-31197D01*
X150010Y-31186D01*
X149990Y-31169D01*
X149899Y-31134D01*
X149811Y-31093D01*
X149785Y-31091D01*
X149761Y-31081D01*
X149663Y-31077D01*
X149567Y-31066D01*
X149541Y-31072D01*
X149515Y-31071D01*
X149421Y-31098D01*
X149326Y-31119D01*
X149304Y-31132D01*
X149279Y-31139D01*
X149199Y-31195D01*
X149115Y-31245D01*
X149098Y-31265D01*
X149077Y-31280D01*
X149018Y-31358D01*
X148955Y-31432D01*
X148945Y-31456D01*
X148930Y-31477D01*
X148900Y-31569D01*
X148863Y-31660D01*
X148860Y-31692D01*
X148854Y-31711D01*
X148854Y-31744D01*
X148845Y-31827D01*
X148845Y-77568D01*
X146424Y-79988D01*
X146355Y-80084D01*
X146284Y-80181D01*
X146283Y-80185D01*
X146281Y-80188D01*
X146246Y-80300D01*
X146210Y-80415D01*
X146210Y-80419D01*
X146208Y-80423D01*
X146211Y-80542D01*
X146213Y-80661D01*
X146215Y-80665D01*
X146215Y-80669D01*
X146256Y-80781D01*
X146295Y-80893D01*
X146298Y-80896D01*
X146299Y-80900D01*
X146373Y-80993D01*
X146447Y-81087D01*
X146451Y-81090D01*
X146453Y-81092D01*
X146464Y-81100D01*
X146582Y-81186D01*
X149638Y-82950D01*
X149701Y-82974D01*
X149760Y-83007D01*
X149816Y-83018D01*
X149868Y-83037D01*
X149936Y-83040D01*
X150002Y-83052D01*
X150058Y-83044D01*
G37*
G36*
X-203641Y-52027D02*
X-203641Y-52027D01*
X-203613Y-52028D01*
X-203521Y-52001D01*
X-203428Y-51981D01*
X-203404Y-51966D01*
X-203377Y-51958D01*
X-203299Y-51904D01*
X-203217Y-51855D01*
X-203199Y-51833D01*
X-203176Y-51817D01*
X-203119Y-51740D01*
X-203057Y-51668D01*
X-203047Y-51642D01*
X-203030Y-51619D01*
X-203001Y-51528D01*
X-202965Y-51440D01*
X-202961Y-51404D01*
X-202955Y-51385D01*
X-202955Y-51352D01*
X-202947Y-51273D01*
X-202947Y92554D01*
X-171802Y123699D01*
X-151543Y123699D01*
X-151473Y123710D01*
X-151401Y123712D01*
X-151352Y123730D01*
X-151301Y123738D01*
X-151237Y123772D01*
X-151170Y123797D01*
X-151129Y123829D01*
X-151083Y123854D01*
X-151034Y123906D01*
X-150978Y123950D01*
X-150950Y123994D01*
X-150914Y124032D01*
X-150884Y124097D01*
X-150845Y124157D01*
X-150832Y124208D01*
X-150810Y124255D01*
X-150802Y124326D01*
X-150785Y124396D01*
X-150789Y124448D01*
X-150783Y124499D01*
X-150798Y124570D01*
X-150804Y124641D01*
X-150824Y124689D01*
X-150835Y124740D01*
X-150872Y124801D01*
X-150900Y124867D01*
X-150945Y124923D01*
X-150962Y124951D01*
X-150979Y124966D01*
X-151005Y124998D01*
X-152370Y126363D01*
X-160526Y134519D01*
X-160584Y134561D01*
X-160636Y134610D01*
X-160683Y134632D01*
X-160725Y134663D01*
X-160794Y134684D01*
X-160859Y134714D01*
X-160911Y134720D01*
X-160961Y134735D01*
X-161032Y134733D01*
X-161103Y134741D01*
X-161154Y134730D01*
X-161206Y134729D01*
X-161274Y134704D01*
X-161344Y134689D01*
X-161389Y134662D01*
X-161437Y134644D01*
X-161493Y134599D01*
X-161555Y134562D01*
X-161589Y134523D01*
X-161629Y134490D01*
X-161668Y134430D01*
X-161715Y134376D01*
X-161734Y134327D01*
X-161762Y134283D01*
X-161780Y134214D01*
X-161807Y134147D01*
X-161815Y134076D01*
X-161823Y134045D01*
X-161821Y134022D01*
X-161825Y133981D01*
X-161825Y133870D01*
X-162788Y131546D01*
X-164566Y129768D01*
X-166890Y128805D01*
X-169406Y128805D01*
X-171730Y129768D01*
X-173508Y131546D01*
X-174471Y133870D01*
X-174471Y136386D01*
X-173508Y138710D01*
X-171730Y140488D01*
X-169406Y141451D01*
X-167386Y141451D01*
X-167366Y141454D01*
X-167347Y141452D01*
X-167245Y141474D01*
X-167143Y141490D01*
X-167126Y141500D01*
X-167106Y141504D01*
X-167017Y141557D01*
X-166926Y141606D01*
X-166912Y141620D01*
X-166895Y141630D01*
X-166828Y141709D01*
X-166756Y141784D01*
X-166748Y141802D01*
X-166735Y141817D01*
X-166696Y141913D01*
X-166653Y142007D01*
X-166651Y142027D01*
X-166643Y142045D01*
X-166625Y142212D01*
X-166625Y165846D01*
X-166636Y165917D01*
X-166638Y165989D01*
X-166656Y166038D01*
X-166664Y166089D01*
X-166698Y166152D01*
X-166723Y166220D01*
X-166755Y166260D01*
X-166780Y166306D01*
X-166832Y166356D01*
X-166876Y166412D01*
X-166920Y166440D01*
X-166958Y166476D01*
X-167023Y166506D01*
X-167083Y166545D01*
X-167134Y166557D01*
X-167181Y166579D01*
X-167252Y166587D01*
X-167322Y166605D01*
X-167374Y166601D01*
X-167425Y166606D01*
X-167496Y166591D01*
X-167567Y166586D01*
X-167615Y166565D01*
X-167666Y166554D01*
X-167727Y166517D01*
X-167793Y166489D01*
X-167849Y166445D01*
X-167877Y166428D01*
X-167892Y166410D01*
X-167924Y166384D01*
X-180243Y154065D01*
X-180296Y153991D01*
X-180356Y153922D01*
X-180368Y153892D01*
X-180387Y153866D01*
X-180414Y153779D01*
X-180448Y153694D01*
X-180452Y153653D01*
X-180459Y153631D01*
X-180458Y153598D01*
X-180466Y153527D01*
X-180466Y135007D01*
X-181336Y132906D01*
X-188869Y125374D01*
X-188907Y125321D01*
X-188953Y125274D01*
X-188993Y125201D01*
X-189012Y125174D01*
X-189018Y125156D01*
X-189034Y125127D01*
X-189103Y124960D01*
X-190746Y123317D01*
X-192894Y122427D01*
X-195218Y122427D01*
X-197366Y123317D01*
X-199009Y124960D01*
X-199899Y127108D01*
X-199899Y129432D01*
X-199009Y131580D01*
X-197366Y133223D01*
X-197199Y133292D01*
X-197143Y133327D01*
X-197083Y133352D01*
X-197018Y133404D01*
X-196990Y133422D01*
X-196977Y133437D01*
X-196952Y133457D01*
X-192121Y138289D01*
X-192068Y138363D01*
X-192008Y138432D01*
X-191996Y138462D01*
X-191977Y138488D01*
X-191950Y138575D01*
X-191916Y138660D01*
X-191912Y138701D01*
X-191905Y138723D01*
X-191906Y138756D01*
X-191898Y138827D01*
X-191898Y149792D01*
X-191909Y149862D01*
X-191911Y149934D01*
X-191929Y149983D01*
X-191937Y150034D01*
X-191971Y150098D01*
X-191996Y150165D01*
X-192028Y150206D01*
X-192053Y150252D01*
X-192104Y150301D01*
X-192149Y150357D01*
X-192193Y150385D01*
X-192231Y150421D01*
X-192296Y150451D01*
X-192356Y150490D01*
X-192407Y150503D01*
X-192454Y150525D01*
X-192525Y150533D01*
X-192595Y150550D01*
X-192647Y150546D01*
X-192698Y150552D01*
X-192769Y150537D01*
X-192840Y150531D01*
X-192888Y150511D01*
X-192939Y150500D01*
X-193000Y150463D01*
X-193066Y150435D01*
X-193122Y150390D01*
X-193150Y150373D01*
X-193165Y150356D01*
X-193197Y150330D01*
X-193286Y150241D01*
X-195434Y149351D01*
X-197758Y149351D01*
X-199906Y150241D01*
X-201549Y151884D01*
X-201735Y152332D01*
X-201786Y152415D01*
X-201832Y152501D01*
X-201851Y152519D01*
X-201864Y152541D01*
X-201939Y152603D01*
X-202010Y152670D01*
X-202034Y152681D01*
X-202054Y152698D01*
X-202145Y152733D01*
X-202233Y152774D01*
X-202259Y152777D01*
X-202283Y152786D01*
X-202381Y152790D01*
X-202477Y152801D01*
X-202503Y152796D01*
X-202529Y152797D01*
X-202623Y152770D01*
X-202718Y152749D01*
X-202740Y152735D01*
X-202765Y152728D01*
X-202845Y152673D01*
X-202929Y152623D01*
X-202946Y152603D01*
X-202967Y152588D01*
X-203025Y152510D01*
X-203089Y152436D01*
X-203099Y152411D01*
X-203114Y152391D01*
X-203144Y152298D01*
X-203181Y152208D01*
X-203184Y152175D01*
X-203190Y152157D01*
X-203190Y152124D01*
X-203199Y152041D01*
X-203199Y132318D01*
X-203189Y132254D01*
X-203188Y132188D01*
X-203165Y132108D01*
X-203160Y132076D01*
X-203150Y132058D01*
X-203141Y132027D01*
X-202211Y129782D01*
X-202211Y127266D01*
X-203174Y124942D01*
X-204952Y123164D01*
X-207276Y122201D01*
X-209792Y122201D01*
X-212116Y123164D01*
X-213894Y124942D01*
X-214857Y127266D01*
X-214857Y129782D01*
X-213894Y132106D01*
X-213584Y132416D01*
X-213531Y132490D01*
X-213471Y132559D01*
X-213459Y132590D01*
X-213440Y132616D01*
X-213413Y132703D01*
X-213379Y132788D01*
X-213375Y132829D01*
X-213368Y132851D01*
X-213369Y132883D01*
X-213361Y132954D01*
X-213361Y194452D01*
X-213375Y194542D01*
X-213383Y194633D01*
X-213395Y194662D01*
X-213400Y194694D01*
X-213443Y194775D01*
X-213479Y194859D01*
X-213505Y194891D01*
X-213516Y194912D01*
X-213539Y194934D01*
X-213584Y194990D01*
X-213640Y195046D01*
X-214603Y197370D01*
X-214603Y199886D01*
X-213640Y202210D01*
X-211862Y203988D01*
X-209538Y204951D01*
X-207022Y204951D01*
X-204698Y203988D01*
X-202920Y202210D01*
X-201957Y199886D01*
X-201957Y197370D01*
X-202920Y195046D01*
X-202976Y194990D01*
X-203029Y194916D01*
X-203089Y194847D01*
X-203101Y194816D01*
X-203120Y194790D01*
X-203147Y194703D01*
X-203181Y194618D01*
X-203185Y194577D01*
X-203192Y194555D01*
X-203191Y194523D01*
X-203199Y194452D01*
X-203199Y168937D01*
X-203184Y168841D01*
X-203174Y168744D01*
X-203164Y168720D01*
X-203160Y168694D01*
X-203114Y168609D01*
X-203074Y168519D01*
X-203057Y168500D01*
X-203044Y168477D01*
X-202974Y168410D01*
X-202908Y168338D01*
X-202885Y168326D01*
X-202866Y168308D01*
X-202778Y168267D01*
X-202692Y168220D01*
X-202667Y168215D01*
X-202643Y168204D01*
X-202546Y168193D01*
X-202450Y168176D01*
X-202424Y168180D01*
X-202399Y168177D01*
X-202304Y168198D01*
X-202207Y168212D01*
X-202184Y168224D01*
X-202158Y168229D01*
X-202074Y168279D01*
X-201988Y168323D01*
X-201970Y168342D01*
X-201947Y168355D01*
X-201884Y168430D01*
X-201816Y168499D01*
X-201800Y168527D01*
X-201787Y168542D01*
X-201775Y168573D01*
X-201735Y168646D01*
X-201442Y169354D01*
X-169769Y201027D01*
X-169716Y201101D01*
X-169656Y201170D01*
X-169644Y201200D01*
X-169625Y201226D01*
X-169598Y201313D01*
X-169564Y201398D01*
X-169560Y201439D01*
X-169553Y201461D01*
X-169554Y201494D01*
X-169546Y201565D01*
X-169546Y215250D01*
X-168676Y217351D01*
X-166961Y219066D01*
X-147164Y238862D01*
X-147126Y238915D01*
X-147080Y238962D01*
X-147040Y239035D01*
X-147021Y239062D01*
X-147015Y239080D01*
X-146999Y239109D01*
X-146930Y239276D01*
X-145287Y240919D01*
X-143139Y241809D01*
X-140815Y241809D01*
X-138667Y240919D01*
X-138587Y240839D01*
X-138529Y240797D01*
X-138477Y240748D01*
X-138430Y240726D01*
X-138388Y240696D01*
X-138319Y240674D01*
X-138254Y240644D01*
X-138202Y240639D01*
X-138153Y240623D01*
X-138081Y240625D01*
X-138010Y240617D01*
X-137959Y240628D01*
X-137907Y240630D01*
X-137839Y240654D01*
X-137769Y240669D01*
X-137724Y240696D01*
X-137676Y240714D01*
X-137620Y240759D01*
X-137558Y240796D01*
X-137524Y240835D01*
X-137484Y240868D01*
X-137445Y240928D01*
X-137398Y240983D01*
X-137379Y241031D01*
X-137351Y241075D01*
X-137333Y241144D01*
X-137306Y241211D01*
X-137298Y241282D01*
X-137290Y241313D01*
X-137292Y241336D01*
X-137288Y241377D01*
X-137288Y263519D01*
X-136418Y265620D01*
X-131161Y270877D01*
X-131108Y270951D01*
X-131048Y271020D01*
X-131036Y271050D01*
X-131017Y271076D01*
X-130990Y271163D01*
X-130956Y271248D01*
X-130952Y271289D01*
X-130945Y271311D01*
X-130946Y271344D01*
X-130938Y271415D01*
X-130938Y292862D01*
X-130941Y292882D01*
X-130939Y292901D01*
X-130961Y293003D01*
X-130977Y293105D01*
X-130987Y293122D01*
X-130991Y293142D01*
X-131044Y293231D01*
X-131093Y293322D01*
X-131107Y293336D01*
X-131117Y293353D01*
X-131196Y293420D01*
X-131271Y293492D01*
X-131289Y293500D01*
X-131304Y293513D01*
X-131400Y293552D01*
X-131494Y293595D01*
X-131514Y293597D01*
X-131532Y293605D01*
X-131699Y293623D01*
X-146171Y293623D01*
X-146191Y293620D01*
X-146211Y293622D01*
X-146312Y293600D01*
X-146414Y293584D01*
X-146432Y293574D01*
X-146451Y293570D01*
X-146540Y293517D01*
X-146631Y293468D01*
X-146645Y293454D01*
X-146662Y293444D01*
X-146730Y293365D01*
X-146801Y293290D01*
X-146809Y293272D01*
X-146822Y293257D01*
X-146861Y293161D01*
X-146904Y293067D01*
X-146907Y293047D01*
X-146914Y293029D01*
X-146933Y292862D01*
X-146933Y260724D01*
X-146914Y260611D01*
X-146898Y260497D01*
X-146894Y260487D01*
X-146893Y260481D01*
X-146882Y260461D01*
X-146831Y260343D01*
X-146718Y260148D01*
X-146907Y259445D01*
X-146908Y259429D01*
X-146914Y259415D01*
X-146933Y259248D01*
X-146933Y258456D01*
X-147115Y258274D01*
X-147182Y258181D01*
X-147251Y258088D01*
X-147255Y258079D01*
X-147258Y258074D01*
X-147265Y258053D01*
X-147312Y257932D01*
X-147370Y257715D01*
X-148001Y257351D01*
X-148013Y257341D01*
X-148027Y257335D01*
X-148158Y257230D01*
X-148718Y256670D01*
X-148976Y256670D01*
X-149090Y256651D01*
X-149203Y256635D01*
X-149213Y256631D01*
X-149219Y256630D01*
X-149239Y256620D01*
X-149357Y256568D01*
X-296560Y171583D01*
X-296612Y171540D01*
X-296670Y171505D01*
X-296707Y171463D01*
X-296750Y171427D01*
X-296786Y171370D01*
X-296830Y171319D01*
X-296851Y171266D01*
X-296881Y171219D01*
X-296897Y171153D01*
X-296922Y171090D01*
X-296931Y171012D01*
X-296938Y170980D01*
X-296937Y170959D01*
X-296941Y170924D01*
X-296941Y2114D01*
X-296930Y2047D01*
X-296929Y1980D01*
X-296910Y1927D01*
X-296901Y1871D01*
X-296869Y1811D01*
X-296847Y1748D01*
X-296812Y1703D01*
X-296786Y1654D01*
X-296737Y1607D01*
X-296695Y1554D01*
X-296631Y1507D01*
X-296607Y1484D01*
X-296588Y1476D01*
X-296560Y1455D01*
X-204089Y-51932D01*
X-203999Y-51966D01*
X-203913Y-52006D01*
X-203885Y-52009D01*
X-203859Y-52019D01*
X-203763Y-52023D01*
X-203669Y-52033D01*
X-203641Y-52027D01*
G37*
G36*
X-62553Y74437D02*
X-62553Y74437D01*
X-62462Y74445D01*
X-62433Y74457D01*
X-62401Y74462D01*
X-62320Y74505D01*
X-62236Y74541D01*
X-62204Y74567D01*
X-62183Y74578D01*
X-62161Y74601D01*
X-62105Y74646D01*
X-59406Y77345D01*
X-59353Y77419D01*
X-59293Y77488D01*
X-59281Y77519D01*
X-59262Y77545D01*
X-59235Y77632D01*
X-59201Y77717D01*
X-59197Y77758D01*
X-59190Y77780D01*
X-59191Y77812D01*
X-59183Y77883D01*
X-59183Y92808D01*
X-47088Y104903D01*
X-24543Y104903D01*
X-24453Y104917D01*
X-24362Y104925D01*
X-24333Y104937D01*
X-24301Y104942D01*
X-24220Y104985D01*
X-24136Y105021D01*
X-24104Y105047D01*
X-24083Y105058D01*
X-24061Y105081D01*
X-24005Y105126D01*
X-18766Y110365D01*
X-17401Y111730D01*
X-17389Y111746D01*
X-17374Y111758D01*
X-17318Y111846D01*
X-17258Y111929D01*
X-17252Y111948D01*
X-17241Y111965D01*
X-17216Y112066D01*
X-17185Y112165D01*
X-17186Y112184D01*
X-17181Y112204D01*
X-17189Y112307D01*
X-17192Y112410D01*
X-17198Y112429D01*
X-17200Y112449D01*
X-17240Y112544D01*
X-17276Y112641D01*
X-17288Y112657D01*
X-17296Y112675D01*
X-17401Y112806D01*
X-26417Y121822D01*
X-26417Y125758D01*
X-26420Y125778D01*
X-26418Y125797D01*
X-26440Y125899D01*
X-26456Y126001D01*
X-26466Y126018D01*
X-26470Y126038D01*
X-26523Y126127D01*
X-26572Y126218D01*
X-26586Y126232D01*
X-26596Y126249D01*
X-26675Y126316D01*
X-26750Y126388D01*
X-26768Y126396D01*
X-26783Y126409D01*
X-26879Y126448D01*
X-26973Y126491D01*
X-26993Y126493D01*
X-27011Y126501D01*
X-27178Y126519D01*
X-27928Y126519D01*
X-30252Y127482D01*
X-32030Y129260D01*
X-32993Y131584D01*
X-32993Y134100D01*
X-32030Y136424D01*
X-30252Y138202D01*
X-27928Y139165D01*
X-27178Y139165D01*
X-27158Y139168D01*
X-27139Y139166D01*
X-27037Y139188D01*
X-26935Y139204D01*
X-26918Y139214D01*
X-26898Y139218D01*
X-26809Y139271D01*
X-26718Y139320D01*
X-26704Y139334D01*
X-26687Y139344D01*
X-26620Y139423D01*
X-26548Y139498D01*
X-26540Y139516D01*
X-26527Y139531D01*
X-26488Y139627D01*
X-26445Y139721D01*
X-26443Y139741D01*
X-26435Y139759D01*
X-26417Y139926D01*
X-26417Y172310D01*
X-21434Y177293D01*
X-2055Y177293D01*
X-2036Y177296D01*
X-2016Y177294D01*
X-1915Y177316D01*
X-1813Y177332D01*
X-1795Y177342D01*
X-1776Y177346D01*
X-1687Y177399D01*
X-1595Y177448D01*
X-1582Y177462D01*
X-1565Y177472D01*
X-1497Y177551D01*
X-1426Y177626D01*
X-1418Y177644D01*
X-1405Y177659D01*
X-1366Y177755D01*
X-1322Y177849D01*
X-1320Y177869D01*
X-1313Y177887D01*
X-1294Y178054D01*
X-1294Y196274D01*
X-1309Y196363D01*
X-1316Y196454D01*
X-1329Y196484D01*
X-1334Y196516D01*
X-1377Y196597D01*
X-1412Y196681D01*
X-1438Y196713D01*
X-1449Y196734D01*
X-1472Y196756D01*
X-1517Y196812D01*
X-1751Y197046D01*
X-1767Y197057D01*
X-1780Y197073D01*
X-1867Y197129D01*
X-1951Y197189D01*
X-1970Y197195D01*
X-1987Y197206D01*
X-2087Y197231D01*
X-2186Y197262D01*
X-2206Y197261D01*
X-2225Y197266D01*
X-2328Y197258D01*
X-2432Y197255D01*
X-2451Y197249D01*
X-2470Y197247D01*
X-2566Y197207D01*
X-2663Y197171D01*
X-2679Y197158D01*
X-2697Y197151D01*
X-2828Y197046D01*
X-7596Y192277D01*
X-24268Y192277D01*
X-24358Y192263D01*
X-24449Y192255D01*
X-24479Y192243D01*
X-24511Y192238D01*
X-24592Y192195D01*
X-24676Y192159D01*
X-24708Y192133D01*
X-24728Y192122D01*
X-24751Y192099D01*
X-24806Y192054D01*
X-24965Y191896D01*
X-28121Y191896D01*
X-33106Y196880D01*
X-33179Y196933D01*
X-33249Y196993D01*
X-33279Y197005D01*
X-33305Y197024D01*
X-33392Y197051D01*
X-33477Y197085D01*
X-33518Y197089D01*
X-33540Y197096D01*
X-33573Y197095D01*
X-33644Y197103D01*
X-34944Y197103D01*
X-37092Y197993D01*
X-38735Y199636D01*
X-39625Y201784D01*
X-39625Y204108D01*
X-38735Y206256D01*
X-37092Y207899D01*
X-36348Y208207D01*
X-36309Y208231D01*
X-36266Y208247D01*
X-36206Y208296D01*
X-36139Y208337D01*
X-36110Y208372D01*
X-36074Y208401D01*
X-36032Y208466D01*
X-35983Y208526D01*
X-35966Y208569D01*
X-35941Y208608D01*
X-35922Y208683D01*
X-35894Y208756D01*
X-35892Y208802D01*
X-35881Y208846D01*
X-35887Y208924D01*
X-35884Y209002D01*
X-35897Y209046D01*
X-35900Y209091D01*
X-35931Y209163D01*
X-35953Y209238D01*
X-35979Y209275D01*
X-35997Y209318D01*
X-36082Y209424D01*
X-36093Y209440D01*
X-36097Y209443D01*
X-36101Y209449D01*
X-37592Y210939D01*
X-38482Y213087D01*
X-38482Y215411D01*
X-37592Y217559D01*
X-35949Y219202D01*
X-34581Y219769D01*
X-34498Y219820D01*
X-34412Y219866D01*
X-34394Y219884D01*
X-34372Y219898D01*
X-34310Y219974D01*
X-34243Y220044D01*
X-34232Y220068D01*
X-34215Y220088D01*
X-34180Y220179D01*
X-34139Y220267D01*
X-34136Y220293D01*
X-34127Y220317D01*
X-34123Y220415D01*
X-34112Y220511D01*
X-34118Y220537D01*
X-34117Y220563D01*
X-34144Y220657D01*
X-34164Y220752D01*
X-34178Y220774D01*
X-34185Y220799D01*
X-34241Y220879D01*
X-34291Y220963D01*
X-34310Y220980D01*
X-34325Y221001D01*
X-34403Y221060D01*
X-34477Y221123D01*
X-34502Y221133D01*
X-34523Y221148D01*
X-34615Y221178D01*
X-34706Y221215D01*
X-34738Y221218D01*
X-34757Y221224D01*
X-34790Y221224D01*
X-34872Y221233D01*
X-37397Y221233D01*
X-37487Y221219D01*
X-37578Y221211D01*
X-37607Y221199D01*
X-37639Y221194D01*
X-37720Y221151D01*
X-37804Y221115D01*
X-37836Y221089D01*
X-37857Y221078D01*
X-37879Y221055D01*
X-37935Y221010D01*
X-39108Y219837D01*
X-41256Y218947D01*
X-43053Y218947D01*
X-43073Y218944D01*
X-43092Y218946D01*
X-43194Y218924D01*
X-43296Y218908D01*
X-43313Y218898D01*
X-43333Y218894D01*
X-43422Y218841D01*
X-43513Y218792D01*
X-43527Y218778D01*
X-43544Y218768D01*
X-43611Y218689D01*
X-43683Y218614D01*
X-43691Y218596D01*
X-43704Y218581D01*
X-43743Y218485D01*
X-43786Y218391D01*
X-43788Y218371D01*
X-43796Y218353D01*
X-43814Y218186D01*
X-43814Y200982D01*
X-43800Y200892D01*
X-43792Y200801D01*
X-43780Y200772D01*
X-43775Y200740D01*
X-43732Y200659D01*
X-43696Y200575D01*
X-43670Y200543D01*
X-43659Y200522D01*
X-43636Y200500D01*
X-43591Y200444D01*
X-43053Y199906D01*
X-42163Y197758D01*
X-42163Y195434D01*
X-43053Y193286D01*
X-44031Y192308D01*
X-44042Y192292D01*
X-44058Y192280D01*
X-44114Y192192D01*
X-44174Y192109D01*
X-44180Y192090D01*
X-44191Y192073D01*
X-44216Y191972D01*
X-44247Y191873D01*
X-44246Y191854D01*
X-44251Y191834D01*
X-44243Y191731D01*
X-44240Y191628D01*
X-44234Y191609D01*
X-44232Y191589D01*
X-44194Y191499D01*
X-44189Y191479D01*
X-44181Y191465D01*
X-44156Y191397D01*
X-44143Y191381D01*
X-44136Y191363D01*
X-44073Y191285D01*
X-44063Y191268D01*
X-44052Y191259D01*
X-44031Y191232D01*
X-42799Y190000D01*
X-41909Y187852D01*
X-41909Y185528D01*
X-42799Y183380D01*
X-44442Y181737D01*
X-46590Y180847D01*
X-48914Y180847D01*
X-51062Y181737D01*
X-52705Y183380D01*
X-53595Y185528D01*
X-53595Y187852D01*
X-52705Y190000D01*
X-51727Y190978D01*
X-51716Y190994D01*
X-51700Y191006D01*
X-51644Y191094D01*
X-51584Y191177D01*
X-51578Y191196D01*
X-51567Y191213D01*
X-51542Y191314D01*
X-51511Y191413D01*
X-51512Y191432D01*
X-51507Y191452D01*
X-51515Y191555D01*
X-51518Y191658D01*
X-51524Y191677D01*
X-51526Y191697D01*
X-51566Y191792D01*
X-51602Y191889D01*
X-51615Y191905D01*
X-51622Y191923D01*
X-51727Y192054D01*
X-52959Y193286D01*
X-53849Y195434D01*
X-53849Y197758D01*
X-52959Y199906D01*
X-51316Y201549D01*
X-51144Y201620D01*
X-51044Y201682D01*
X-50944Y201742D01*
X-50940Y201747D01*
X-50935Y201750D01*
X-50860Y201840D01*
X-50784Y201929D01*
X-50782Y201935D01*
X-50778Y201940D01*
X-50736Y202048D01*
X-50692Y202157D01*
X-50691Y202165D01*
X-50690Y202169D01*
X-50689Y202187D01*
X-50674Y202324D01*
X-50674Y207378D01*
X-50681Y207424D01*
X-50679Y207469D01*
X-50701Y207544D01*
X-50713Y207621D01*
X-50735Y207662D01*
X-50748Y207706D01*
X-50792Y207770D01*
X-50829Y207838D01*
X-50862Y207870D01*
X-50888Y207908D01*
X-50950Y207954D01*
X-51007Y208008D01*
X-51049Y208027D01*
X-51085Y208054D01*
X-51159Y208079D01*
X-51230Y208111D01*
X-51276Y208116D01*
X-51319Y208131D01*
X-51397Y208130D01*
X-51474Y208138D01*
X-51519Y208129D01*
X-51565Y208128D01*
X-51697Y208090D01*
X-51715Y208086D01*
X-51719Y208084D01*
X-51726Y208082D01*
X-53702Y207263D01*
X-56026Y207263D01*
X-56193Y207332D01*
X-56257Y207347D01*
X-56318Y207372D01*
X-56400Y207381D01*
X-56432Y207388D01*
X-56452Y207387D01*
X-56484Y207390D01*
X-71882Y207390D01*
X-71902Y207387D01*
X-71921Y207389D01*
X-72023Y207367D01*
X-72125Y207351D01*
X-72142Y207341D01*
X-72162Y207337D01*
X-72251Y207284D01*
X-72342Y207235D01*
X-72356Y207221D01*
X-72373Y207211D01*
X-72440Y207132D01*
X-72512Y207057D01*
X-72520Y207039D01*
X-72533Y207024D01*
X-72572Y206928D01*
X-72615Y206834D01*
X-72617Y206814D01*
X-72625Y206796D01*
X-72643Y206629D01*
X-72643Y177981D01*
X-81300Y169325D01*
X-81338Y169272D01*
X-81384Y169225D01*
X-81424Y169152D01*
X-81443Y169125D01*
X-81449Y169107D01*
X-81465Y169078D01*
X-82169Y167378D01*
X-83812Y165735D01*
X-85960Y164845D01*
X-87630Y164845D01*
X-87650Y164842D01*
X-87669Y164844D01*
X-87771Y164822D01*
X-87873Y164806D01*
X-87890Y164796D01*
X-87910Y164792D01*
X-87999Y164739D01*
X-88090Y164690D01*
X-88104Y164676D01*
X-88121Y164666D01*
X-88188Y164587D01*
X-88260Y164512D01*
X-88268Y164494D01*
X-88281Y164479D01*
X-88320Y164383D01*
X-88363Y164289D01*
X-88365Y164269D01*
X-88373Y164251D01*
X-88391Y164084D01*
X-88391Y81690D01*
X-89787Y80294D01*
X-89799Y80278D01*
X-89814Y80266D01*
X-89870Y80178D01*
X-89930Y80095D01*
X-89936Y80076D01*
X-89947Y80059D01*
X-89972Y79958D01*
X-90003Y79859D01*
X-90002Y79840D01*
X-90007Y79820D01*
X-89999Y79717D01*
X-89996Y79614D01*
X-89990Y79595D01*
X-89988Y79575D01*
X-89948Y79480D01*
X-89912Y79383D01*
X-89900Y79367D01*
X-89892Y79349D01*
X-89787Y79218D01*
X-85215Y74646D01*
X-85141Y74593D01*
X-85072Y74533D01*
X-85041Y74521D01*
X-85015Y74502D01*
X-84928Y74475D01*
X-84843Y74441D01*
X-84802Y74437D01*
X-84780Y74430D01*
X-84748Y74431D01*
X-84677Y74423D01*
X-62643Y74423D01*
X-62553Y74437D01*
G37*
G36*
X42000Y77740D02*
X42000Y77740D01*
X42091Y77747D01*
X42121Y77759D01*
X42153Y77765D01*
X42233Y77807D01*
X42317Y77843D01*
X42349Y77869D01*
X42370Y77880D01*
X42392Y77903D01*
X42448Y77948D01*
X49052Y84552D01*
X49105Y84626D01*
X49165Y84695D01*
X49177Y84725D01*
X49196Y84751D01*
X49223Y84838D01*
X49257Y84923D01*
X49261Y84964D01*
X49268Y84987D01*
X49267Y85019D01*
X49275Y85090D01*
X49275Y170688D01*
X49261Y170778D01*
X49253Y170869D01*
X49241Y170899D01*
X49236Y170931D01*
X49193Y171011D01*
X49157Y171095D01*
X49131Y171127D01*
X49120Y171148D01*
X49097Y171170D01*
X49052Y171226D01*
X45750Y174528D01*
X45676Y174581D01*
X45607Y174641D01*
X45577Y174653D01*
X45551Y174672D01*
X45464Y174699D01*
X45379Y174733D01*
X45338Y174737D01*
X45315Y174744D01*
X45283Y174743D01*
X45212Y174751D01*
X-20066Y174751D01*
X-20156Y174737D01*
X-20247Y174729D01*
X-20277Y174717D01*
X-20309Y174712D01*
X-20389Y174669D01*
X-20473Y174633D01*
X-20505Y174607D01*
X-20526Y174596D01*
X-20548Y174573D01*
X-20604Y174528D01*
X-23652Y171480D01*
X-23705Y171406D01*
X-23765Y171337D01*
X-23777Y171307D01*
X-23796Y171281D01*
X-23823Y171194D01*
X-23857Y171109D01*
X-23861Y171068D01*
X-23868Y171045D01*
X-23867Y171013D01*
X-23875Y170942D01*
X-23875Y139037D01*
X-23857Y138922D01*
X-23839Y138806D01*
X-23837Y138800D01*
X-23836Y138794D01*
X-23781Y138691D01*
X-23728Y138586D01*
X-23723Y138582D01*
X-23720Y138577D01*
X-23636Y138496D01*
X-23552Y138414D01*
X-23546Y138411D01*
X-23542Y138407D01*
X-23525Y138399D01*
X-23405Y138333D01*
X-23088Y138202D01*
X-21310Y136424D01*
X-20347Y134100D01*
X-20347Y131584D01*
X-21310Y129260D01*
X-23088Y127482D01*
X-23405Y127351D01*
X-23504Y127289D01*
X-23605Y127229D01*
X-23609Y127224D01*
X-23614Y127221D01*
X-23688Y127132D01*
X-23765Y127042D01*
X-23767Y127036D01*
X-23771Y127032D01*
X-23813Y126924D01*
X-23857Y126814D01*
X-23858Y126807D01*
X-23859Y126802D01*
X-23860Y126784D01*
X-23875Y126647D01*
X-23875Y123190D01*
X-23861Y123100D01*
X-23853Y123009D01*
X-23841Y122979D01*
X-23836Y122947D01*
X-23793Y122867D01*
X-23757Y122783D01*
X-23731Y122751D01*
X-23720Y122730D01*
X-23697Y122708D01*
X-23652Y122652D01*
X-14762Y113762D01*
X-14688Y113709D01*
X-14619Y113649D01*
X-14589Y113637D01*
X-14563Y113618D01*
X-14476Y113591D01*
X-14391Y113557D01*
X-14350Y113553D01*
X-14327Y113546D01*
X-14295Y113547D01*
X-14224Y113539D01*
X7051Y113539D01*
X13209Y107381D01*
X13209Y85344D01*
X13224Y85254D01*
X13231Y85163D01*
X13243Y85133D01*
X13249Y85101D01*
X13267Y85067D01*
X13269Y85057D01*
X13292Y85018D01*
X13327Y84937D01*
X13353Y84905D01*
X13364Y84884D01*
X13384Y84864D01*
X13395Y84846D01*
X13409Y84835D01*
X13432Y84806D01*
X20290Y77948D01*
X20364Y77895D01*
X20433Y77835D01*
X20463Y77823D01*
X20489Y77804D01*
X20576Y77777D01*
X20661Y77743D01*
X20702Y77739D01*
X20725Y77732D01*
X20757Y77733D01*
X20828Y77725D01*
X41910Y77725D01*
X42000Y77740D01*
G37*
G36*
X177636Y77740D02*
X177636Y77740D01*
X177727Y77747D01*
X177757Y77759D01*
X177789Y77765D01*
X177869Y77807D01*
X177953Y77843D01*
X177985Y77869D01*
X178006Y77880D01*
X178028Y77903D01*
X178084Y77948D01*
X184688Y84552D01*
X184741Y84626D01*
X184801Y84695D01*
X184813Y84725D01*
X184832Y84751D01*
X184859Y84838D01*
X184893Y84923D01*
X184897Y84964D01*
X184904Y84987D01*
X184903Y85019D01*
X184911Y85090D01*
X184911Y169915D01*
X184897Y170006D01*
X184889Y170096D01*
X184877Y170126D01*
X184872Y170158D01*
X184829Y170239D01*
X184793Y170323D01*
X184767Y170355D01*
X184756Y170376D01*
X184733Y170398D01*
X184688Y170454D01*
X180614Y174528D01*
X180540Y174581D01*
X180470Y174641D01*
X180440Y174653D01*
X180414Y174672D01*
X180327Y174699D01*
X180242Y174733D01*
X180201Y174737D01*
X180179Y174744D01*
X180147Y174743D01*
X180075Y174751D01*
X115570Y174751D01*
X115480Y174737D01*
X115389Y174729D01*
X115359Y174717D01*
X115327Y174712D01*
X115247Y174669D01*
X115163Y174633D01*
X115131Y174607D01*
X115110Y174596D01*
X115088Y174573D01*
X115032Y174528D01*
X112746Y172242D01*
X112693Y172168D01*
X112633Y172099D01*
X112621Y172069D01*
X112602Y172043D01*
X112575Y171956D01*
X112541Y171871D01*
X112537Y171830D01*
X112530Y171807D01*
X112531Y171775D01*
X112523Y171704D01*
X112523Y165549D01*
X112538Y165459D01*
X112545Y165368D01*
X112557Y165339D01*
X112563Y165307D01*
X112605Y165226D01*
X112641Y165142D01*
X112667Y165110D01*
X112678Y165089D01*
X112701Y165067D01*
X112746Y165011D01*
X114173Y163584D01*
X115063Y161436D01*
X115063Y159112D01*
X114173Y156964D01*
X112746Y155537D01*
X112693Y155463D01*
X112633Y155393D01*
X112621Y155363D01*
X112602Y155337D01*
X112575Y155250D01*
X112541Y155165D01*
X112537Y155124D01*
X112530Y155102D01*
X112531Y155070D01*
X112523Y154999D01*
X112523Y139474D01*
X112533Y139409D01*
X112534Y139344D01*
X112557Y139264D01*
X112563Y139231D01*
X112572Y139214D01*
X112581Y139183D01*
X113003Y138164D01*
X113003Y135648D01*
X112581Y134629D01*
X112566Y134566D01*
X112541Y134505D01*
X112532Y134422D01*
X112525Y134390D01*
X112526Y134371D01*
X112523Y134338D01*
X112523Y129032D01*
X112538Y128942D01*
X112545Y128851D01*
X112557Y128821D01*
X112563Y128789D01*
X112605Y128709D01*
X112641Y128625D01*
X112667Y128593D01*
X112678Y128572D01*
X112701Y128550D01*
X112746Y128494D01*
X121890Y119350D01*
X121964Y119297D01*
X122033Y119237D01*
X122063Y119225D01*
X122089Y119206D01*
X122176Y119179D01*
X122261Y119145D01*
X122302Y119141D01*
X122325Y119134D01*
X122357Y119135D01*
X122428Y119127D01*
X144465Y119127D01*
X148845Y114747D01*
X148845Y85344D01*
X148860Y85254D01*
X148867Y85163D01*
X148879Y85133D01*
X148885Y85101D01*
X148903Y85067D01*
X148905Y85057D01*
X148928Y85018D01*
X148963Y84937D01*
X148989Y84905D01*
X149000Y84884D01*
X149020Y84864D01*
X149031Y84846D01*
X149045Y84835D01*
X149068Y84806D01*
X155926Y77948D01*
X156000Y77895D01*
X156069Y77835D01*
X156099Y77823D01*
X156125Y77804D01*
X156212Y77777D01*
X156297Y77743D01*
X156338Y77739D01*
X156361Y77732D01*
X156393Y77733D01*
X156464Y77725D01*
X177546Y77725D01*
X177636Y77740D01*
G37*
G36*
X-98208Y75708D02*
X-98208Y75708D01*
X-98117Y75715D01*
X-98087Y75727D01*
X-98055Y75733D01*
X-97975Y75775D01*
X-97891Y75811D01*
X-97859Y75837D01*
X-97838Y75848D01*
X-97816Y75871D01*
X-97760Y75916D01*
X-91156Y82520D01*
X-91103Y82594D01*
X-91043Y82663D01*
X-91031Y82693D01*
X-91012Y82719D01*
X-90985Y82806D01*
X-90951Y82891D01*
X-90947Y82932D01*
X-90940Y82955D01*
X-90941Y82987D01*
X-90933Y83058D01*
X-90933Y86989D01*
X-90943Y87054D01*
X-90944Y87119D01*
X-90967Y87199D01*
X-90973Y87232D01*
X-90982Y87249D01*
X-90991Y87280D01*
X-91667Y88912D01*
X-91667Y91428D01*
X-90991Y93060D01*
X-90976Y93124D01*
X-90951Y93184D01*
X-90942Y93267D01*
X-90935Y93299D01*
X-90936Y93319D01*
X-90933Y93351D01*
X-90933Y141283D01*
X-90944Y141353D01*
X-90946Y141425D01*
X-90964Y141474D01*
X-90973Y141525D01*
X-91006Y141589D01*
X-91031Y141656D01*
X-91063Y141697D01*
X-91088Y141743D01*
X-91140Y141792D01*
X-91184Y141848D01*
X-91228Y141876D01*
X-91266Y141912D01*
X-91331Y141942D01*
X-91391Y141981D01*
X-91442Y141994D01*
X-91489Y142016D01*
X-91560Y142024D01*
X-91630Y142041D01*
X-91682Y142037D01*
X-91733Y142043D01*
X-91804Y142028D01*
X-91875Y142022D01*
X-91923Y142002D01*
X-91974Y141991D01*
X-92036Y141954D01*
X-92101Y141926D01*
X-92157Y141881D01*
X-92185Y141864D01*
X-92187Y141862D01*
X-94342Y140969D01*
X-96666Y140969D01*
X-98814Y141859D01*
X-100457Y143502D01*
X-101347Y145650D01*
X-101347Y147974D01*
X-100457Y150122D01*
X-98814Y151765D01*
X-96666Y152655D01*
X-94342Y152655D01*
X-92166Y151753D01*
X-92122Y151712D01*
X-92075Y151690D01*
X-92033Y151660D01*
X-91964Y151639D01*
X-91899Y151608D01*
X-91847Y151603D01*
X-91798Y151587D01*
X-91726Y151589D01*
X-91655Y151581D01*
X-91604Y151592D01*
X-91552Y151594D01*
X-91484Y151618D01*
X-91414Y151633D01*
X-91370Y151660D01*
X-91321Y151678D01*
X-91265Y151723D01*
X-91203Y151760D01*
X-91169Y151799D01*
X-91129Y151832D01*
X-91090Y151892D01*
X-91043Y151947D01*
X-91024Y151995D01*
X-90996Y152039D01*
X-90978Y152108D01*
X-90951Y152175D01*
X-90943Y152246D01*
X-90935Y152277D01*
X-90937Y152300D01*
X-90933Y152341D01*
X-90933Y165921D01*
X-90948Y166011D01*
X-90955Y166102D01*
X-90967Y166131D01*
X-90973Y166163D01*
X-91015Y166244D01*
X-91051Y166328D01*
X-91077Y166360D01*
X-91088Y166381D01*
X-91111Y166403D01*
X-91156Y166459D01*
X-92075Y167378D01*
X-92965Y169526D01*
X-92965Y170688D01*
X-92979Y170778D01*
X-92987Y170869D01*
X-92999Y170899D01*
X-93004Y170931D01*
X-93047Y171011D01*
X-93083Y171095D01*
X-93109Y171127D01*
X-93120Y171148D01*
X-93143Y171170D01*
X-93188Y171226D01*
X-94458Y172496D01*
X-94532Y172549D01*
X-94601Y172609D01*
X-94631Y172621D01*
X-94657Y172640D01*
X-94744Y172667D01*
X-94829Y172701D01*
X-94870Y172705D01*
X-94893Y172712D01*
X-94925Y172711D01*
X-94996Y172719D01*
X-160274Y172719D01*
X-160364Y172705D01*
X-160455Y172697D01*
X-160485Y172685D01*
X-160517Y172680D01*
X-160597Y172637D01*
X-160681Y172601D01*
X-160713Y172575D01*
X-160734Y172564D01*
X-160756Y172541D01*
X-160812Y172496D01*
X-163860Y169448D01*
X-163913Y169374D01*
X-163973Y169305D01*
X-163985Y169275D01*
X-164004Y169249D01*
X-164031Y169162D01*
X-164065Y169077D01*
X-164069Y169036D01*
X-164076Y169013D01*
X-164075Y168981D01*
X-164083Y168910D01*
X-164083Y141986D01*
X-164069Y141896D01*
X-164061Y141805D01*
X-164049Y141775D01*
X-164044Y141743D01*
X-164001Y141663D01*
X-163965Y141579D01*
X-163939Y141547D01*
X-163928Y141526D01*
X-163905Y141504D01*
X-163860Y141448D01*
X-149382Y126970D01*
X-149308Y126917D01*
X-149239Y126857D01*
X-149209Y126845D01*
X-149183Y126826D01*
X-149096Y126799D01*
X-149011Y126765D01*
X-148970Y126761D01*
X-148947Y126754D01*
X-148915Y126755D01*
X-148844Y126747D01*
X-134427Y126747D01*
X-126999Y119319D01*
X-126999Y83312D01*
X-126985Y83222D01*
X-126977Y83131D01*
X-126965Y83101D01*
X-126960Y83069D01*
X-126941Y83035D01*
X-126939Y83025D01*
X-126916Y82986D01*
X-126881Y82905D01*
X-126855Y82873D01*
X-126844Y82852D01*
X-126824Y82832D01*
X-126813Y82814D01*
X-126800Y82803D01*
X-126776Y82774D01*
X-119918Y75916D01*
X-119844Y75863D01*
X-119775Y75803D01*
X-119745Y75791D01*
X-119719Y75772D01*
X-119632Y75745D01*
X-119547Y75711D01*
X-119506Y75707D01*
X-119483Y75700D01*
X-119451Y75701D01*
X-119380Y75693D01*
X-98298Y75693D01*
X-98208Y75708D01*
G37*
G36*
X76385Y77485D02*
X76385Y77485D01*
X76476Y77493D01*
X76505Y77505D01*
X76537Y77510D01*
X76618Y77553D01*
X76702Y77589D01*
X76734Y77615D01*
X76755Y77626D01*
X76777Y77649D01*
X76833Y77694D01*
X78516Y79377D01*
X78569Y79451D01*
X78629Y79520D01*
X78641Y79551D01*
X78660Y79577D01*
X78687Y79664D01*
X78721Y79749D01*
X78725Y79790D01*
X78732Y79812D01*
X78731Y79844D01*
X78739Y79915D01*
X78739Y97380D01*
X82706Y101347D01*
X114649Y101347D01*
X114739Y101361D01*
X114830Y101369D01*
X114859Y101381D01*
X114891Y101386D01*
X114972Y101429D01*
X115056Y101465D01*
X115088Y101491D01*
X115109Y101502D01*
X115131Y101525D01*
X115187Y101570D01*
X116616Y102999D01*
X116669Y103073D01*
X116729Y103142D01*
X116741Y103173D01*
X116760Y103199D01*
X116787Y103286D01*
X116821Y103371D01*
X116825Y103412D01*
X116832Y103434D01*
X116831Y103466D01*
X116839Y103537D01*
X116839Y115922D01*
X118743Y117826D01*
X118755Y117842D01*
X118770Y117854D01*
X118826Y117942D01*
X118886Y118025D01*
X118892Y118044D01*
X118903Y118061D01*
X118928Y118162D01*
X118959Y118261D01*
X118958Y118280D01*
X118963Y118300D01*
X118955Y118403D01*
X118952Y118506D01*
X118946Y118525D01*
X118944Y118545D01*
X118904Y118640D01*
X118868Y118737D01*
X118856Y118753D01*
X118848Y118771D01*
X118743Y118902D01*
X112139Y125506D01*
X109981Y127664D01*
X109981Y130290D01*
X109974Y130336D01*
X109976Y130382D01*
X109954Y130457D01*
X109942Y130533D01*
X109920Y130574D01*
X109907Y130618D01*
X109863Y130682D01*
X109826Y130751D01*
X109793Y130782D01*
X109767Y130820D01*
X109705Y130866D01*
X109648Y130920D01*
X109606Y130939D01*
X109570Y130967D01*
X109496Y130991D01*
X109425Y131024D01*
X109379Y131029D01*
X109336Y131043D01*
X109258Y131042D01*
X109181Y131051D01*
X109136Y131041D01*
X109090Y131041D01*
X108959Y131002D01*
X108940Y130998D01*
X108936Y130996D01*
X108929Y130994D01*
X107938Y130583D01*
X105422Y130583D01*
X103098Y131546D01*
X101320Y133324D01*
X100357Y135648D01*
X100357Y138164D01*
X101320Y140488D01*
X103098Y142266D01*
X105422Y143229D01*
X107938Y143229D01*
X108929Y142818D01*
X108973Y142808D01*
X109015Y142788D01*
X109092Y142780D01*
X109168Y142762D01*
X109214Y142766D01*
X109259Y142761D01*
X109336Y142778D01*
X109413Y142785D01*
X109455Y142804D01*
X109500Y142814D01*
X109567Y142853D01*
X109638Y142885D01*
X109672Y142916D01*
X109711Y142940D01*
X109762Y142999D01*
X109819Y143052D01*
X109841Y143092D01*
X109871Y143127D01*
X109900Y143199D01*
X109937Y143267D01*
X109946Y143312D01*
X109963Y143355D01*
X109978Y143491D01*
X109981Y143509D01*
X109980Y143514D01*
X109981Y143522D01*
X109981Y145796D01*
X109978Y145816D01*
X109980Y145835D01*
X109958Y145937D01*
X109942Y146039D01*
X109932Y146056D01*
X109928Y146076D01*
X109875Y146165D01*
X109826Y146256D01*
X109812Y146270D01*
X109802Y146287D01*
X109723Y146354D01*
X109648Y146426D01*
X109630Y146434D01*
X109615Y146447D01*
X109519Y146486D01*
X109425Y146529D01*
X109405Y146531D01*
X109387Y146539D01*
X109220Y146557D01*
X79956Y146557D01*
X43179Y183334D01*
X43179Y183557D01*
X43165Y183647D01*
X43157Y183738D01*
X43145Y183768D01*
X43140Y183800D01*
X43097Y183880D01*
X43061Y183964D01*
X43035Y183996D01*
X43024Y184017D01*
X43001Y184039D01*
X42956Y184095D01*
X35378Y191673D01*
X35304Y191726D01*
X35235Y191786D01*
X35205Y191798D01*
X35179Y191817D01*
X35092Y191844D01*
X35007Y191878D01*
X34966Y191882D01*
X34943Y191889D01*
X34911Y191888D01*
X34840Y191896D01*
X16867Y191896D01*
X14635Y194128D01*
X9954Y198810D01*
X9917Y198837D01*
X9885Y198870D01*
X9817Y198908D01*
X9754Y198953D01*
X9710Y198967D01*
X9670Y198989D01*
X9593Y199003D01*
X9519Y199026D01*
X9473Y199025D01*
X9428Y199033D01*
X9351Y199021D01*
X9273Y199019D01*
X9230Y199004D01*
X9185Y198997D01*
X9115Y198962D01*
X9042Y198935D01*
X9006Y198906D01*
X8965Y198885D01*
X8911Y198830D01*
X8850Y198781D01*
X8825Y198743D01*
X8793Y198710D01*
X8727Y198590D01*
X8717Y198574D01*
X8716Y198569D01*
X8712Y198563D01*
X8105Y197096D01*
X7820Y196812D01*
X7767Y196738D01*
X7708Y196668D01*
X7695Y196638D01*
X7677Y196612D01*
X7650Y196525D01*
X7616Y196440D01*
X7611Y196399D01*
X7604Y196377D01*
X7605Y196345D01*
X7597Y196274D01*
X7597Y178054D01*
X7600Y178035D01*
X7598Y178017D01*
X7598Y178016D01*
X7598Y178015D01*
X7620Y177913D01*
X7637Y177811D01*
X7646Y177794D01*
X7651Y177774D01*
X7704Y177685D01*
X7752Y177594D01*
X7766Y177580D01*
X7777Y177563D01*
X7855Y177496D01*
X7930Y177424D01*
X7948Y177416D01*
X7964Y177403D01*
X8060Y177364D01*
X8153Y177321D01*
X8173Y177319D01*
X8192Y177311D01*
X8358Y177293D01*
X46580Y177293D01*
X51817Y172056D01*
X51817Y83722D01*
X49659Y81564D01*
X46865Y78770D01*
X46823Y78712D01*
X46774Y78660D01*
X46752Y78613D01*
X46721Y78571D01*
X46700Y78502D01*
X46670Y78437D01*
X46664Y78385D01*
X46649Y78335D01*
X46651Y78264D01*
X46643Y78193D01*
X46654Y78142D01*
X46655Y78090D01*
X46680Y78022D01*
X46695Y77952D01*
X46722Y77907D01*
X46740Y77859D01*
X46785Y77803D01*
X46822Y77741D01*
X46861Y77707D01*
X46894Y77667D01*
X46954Y77628D01*
X47008Y77581D01*
X47057Y77562D01*
X47101Y77534D01*
X47170Y77516D01*
X47237Y77489D01*
X47308Y77481D01*
X47339Y77473D01*
X47362Y77475D01*
X47403Y77471D01*
X76295Y77471D01*
X76385Y77485D01*
G37*
G36*
X47334Y210843D02*
X47334Y210843D01*
X47386Y210845D01*
X47454Y210869D01*
X47524Y210885D01*
X47569Y210911D01*
X47617Y210929D01*
X47673Y210974D01*
X47735Y211011D01*
X47769Y211050D01*
X47809Y211083D01*
X47848Y211143D01*
X47895Y211198D01*
X47914Y211246D01*
X47942Y211290D01*
X47960Y211359D01*
X47987Y211426D01*
X47995Y211497D01*
X48003Y211528D01*
X48001Y211552D01*
X48005Y211593D01*
X48005Y212998D01*
X48350Y213831D01*
X48355Y213850D01*
X48364Y213868D01*
X48383Y213970D01*
X48406Y214070D01*
X48404Y214090D01*
X48408Y214110D01*
X48393Y214212D01*
X48383Y214315D01*
X48375Y214333D01*
X48372Y214353D01*
X48325Y214445D01*
X48283Y214540D01*
X48270Y214554D01*
X48261Y214572D01*
X48187Y214645D01*
X48117Y214721D01*
X48099Y214731D01*
X48085Y214744D01*
X47938Y214825D01*
X47490Y215011D01*
X45847Y216654D01*
X44957Y218802D01*
X44957Y221126D01*
X45847Y223274D01*
X47490Y224917D01*
X49132Y225597D01*
X49171Y225621D01*
X49214Y225637D01*
X49274Y225686D01*
X49341Y225727D01*
X49370Y225762D01*
X49406Y225791D01*
X49448Y225856D01*
X49497Y225916D01*
X49514Y225959D01*
X49539Y225998D01*
X49558Y226073D01*
X49586Y226146D01*
X49588Y226192D01*
X49599Y226236D01*
X49593Y226314D01*
X49596Y226391D01*
X49583Y226436D01*
X49580Y226481D01*
X49549Y226553D01*
X49528Y226628D01*
X49501Y226665D01*
X49483Y226708D01*
X49398Y226814D01*
X49387Y226830D01*
X49383Y226833D01*
X49379Y226839D01*
X48641Y227576D01*
X47751Y229724D01*
X47751Y232048D01*
X48641Y234196D01*
X49365Y234920D01*
X49376Y234936D01*
X49392Y234948D01*
X49448Y235036D01*
X49508Y235119D01*
X49514Y235138D01*
X49525Y235155D01*
X49550Y235256D01*
X49581Y235355D01*
X49580Y235374D01*
X49585Y235394D01*
X49577Y235497D01*
X49574Y235600D01*
X49568Y235619D01*
X49566Y235639D01*
X49526Y235734D01*
X49490Y235831D01*
X49477Y235847D01*
X49470Y235865D01*
X49365Y235996D01*
X48768Y236593D01*
X47878Y238741D01*
X47878Y241065D01*
X48089Y241574D01*
X48093Y241593D01*
X48103Y241611D01*
X48122Y241713D01*
X48145Y241813D01*
X48143Y241833D01*
X48147Y241853D01*
X48132Y241955D01*
X48122Y242058D01*
X48114Y242076D01*
X48111Y242096D01*
X48064Y242188D01*
X48022Y242283D01*
X48009Y242298D01*
X48000Y242315D01*
X47926Y242388D01*
X47856Y242464D01*
X47838Y242474D01*
X47824Y242488D01*
X47677Y242568D01*
X46736Y242958D01*
X45092Y244602D01*
X44203Y246749D01*
X44203Y249074D01*
X45092Y251221D01*
X46736Y252865D01*
X48883Y253754D01*
X51208Y253754D01*
X53355Y252865D01*
X54999Y251221D01*
X55888Y249074D01*
X55888Y248758D01*
X55900Y248688D01*
X55902Y248616D01*
X55920Y248567D01*
X55928Y248516D01*
X55961Y248452D01*
X55986Y248385D01*
X56019Y248344D01*
X56043Y248298D01*
X56095Y248249D01*
X56140Y248193D01*
X56184Y248165D01*
X56221Y248129D01*
X56286Y248099D01*
X56347Y248060D01*
X56397Y248047D01*
X56444Y248025D01*
X56516Y248017D01*
X56585Y248000D01*
X56637Y248004D01*
X56689Y247998D01*
X56759Y248013D01*
X56830Y248019D01*
X56878Y248039D01*
X56929Y248050D01*
X56991Y248087D01*
X57057Y248115D01*
X57113Y248160D01*
X57140Y248177D01*
X57156Y248194D01*
X57188Y248220D01*
X64111Y255144D01*
X66590Y255144D01*
X66680Y255158D01*
X66771Y255166D01*
X66801Y255178D01*
X66833Y255183D01*
X66913Y255226D01*
X66997Y255262D01*
X67029Y255288D01*
X67050Y255299D01*
X67072Y255322D01*
X67128Y255367D01*
X80844Y269083D01*
X80886Y269141D01*
X80936Y269193D01*
X80958Y269240D01*
X80988Y269282D01*
X81009Y269351D01*
X81039Y269416D01*
X81045Y269468D01*
X81060Y269518D01*
X81058Y269589D01*
X81066Y269660D01*
X81055Y269711D01*
X81054Y269763D01*
X81029Y269831D01*
X81014Y269901D01*
X80987Y269945D01*
X80969Y269994D01*
X80925Y270050D01*
X80888Y270112D01*
X80848Y270146D01*
X80816Y270186D01*
X80755Y270225D01*
X80701Y270272D01*
X80653Y270291D01*
X80609Y270319D01*
X80539Y270337D01*
X80473Y270364D01*
X80401Y270372D01*
X80370Y270380D01*
X80347Y270378D01*
X80306Y270382D01*
X57761Y270382D01*
X57434Y270709D01*
X57376Y270751D01*
X57324Y270801D01*
X57305Y270810D01*
X57294Y270818D01*
X57267Y270829D01*
X57235Y270853D01*
X57166Y270874D01*
X57101Y270904D01*
X57074Y270907D01*
X57066Y270910D01*
X57037Y270914D01*
X56999Y270925D01*
X56945Y270924D01*
X56899Y270929D01*
X56896Y270929D01*
X56889Y270928D01*
X56857Y270931D01*
X56806Y270920D01*
X56754Y270919D01*
X56687Y270895D01*
X56653Y270889D01*
X56647Y270886D01*
X56616Y270879D01*
X56571Y270852D01*
X56523Y270834D01*
X56469Y270792D01*
X56436Y270774D01*
X56430Y270768D01*
X56405Y270753D01*
X56371Y270713D01*
X56331Y270681D01*
X56296Y270626D01*
X56266Y270596D01*
X56262Y270585D01*
X56245Y270566D01*
X56226Y270517D01*
X56198Y270474D01*
X56183Y270416D01*
X56163Y270373D01*
X56161Y270358D01*
X56153Y270338D01*
X56145Y270266D01*
X56143Y270256D01*
X55245Y268089D01*
X53602Y266446D01*
X51454Y265556D01*
X49130Y265556D01*
X46982Y266446D01*
X45339Y268089D01*
X44449Y270237D01*
X44449Y272561D01*
X44794Y273394D01*
X44805Y273438D01*
X44824Y273480D01*
X44833Y273557D01*
X44850Y273633D01*
X44846Y273679D01*
X44851Y273724D01*
X44835Y273801D01*
X44827Y273878D01*
X44809Y273920D01*
X44799Y273965D01*
X44759Y274032D01*
X44727Y274103D01*
X44696Y274137D01*
X44673Y274176D01*
X44613Y274227D01*
X44561Y274284D01*
X44521Y274306D01*
X44486Y274336D01*
X44413Y274365D01*
X44345Y274402D01*
X44300Y274411D01*
X44258Y274428D01*
X44122Y274443D01*
X44103Y274446D01*
X44098Y274445D01*
X44091Y274446D01*
X36318Y274446D01*
X36247Y274435D01*
X36175Y274433D01*
X36126Y274415D01*
X36075Y274407D01*
X36012Y274373D01*
X35944Y274348D01*
X35904Y274316D01*
X35858Y274291D01*
X35808Y274240D01*
X35752Y274195D01*
X35724Y274151D01*
X35688Y274113D01*
X35658Y274048D01*
X35619Y273988D01*
X35607Y273937D01*
X35585Y273890D01*
X35577Y273819D01*
X35559Y273749D01*
X35563Y273697D01*
X35558Y273646D01*
X35573Y273575D01*
X35578Y273504D01*
X35599Y273456D01*
X35610Y273405D01*
X35647Y273344D01*
X35675Y273278D01*
X35720Y273222D01*
X35736Y273194D01*
X35754Y273179D01*
X35780Y273147D01*
X35941Y272985D01*
X36831Y270838D01*
X36831Y268513D01*
X35941Y266366D01*
X34298Y264722D01*
X32150Y263833D01*
X29826Y263833D01*
X27678Y264722D01*
X26035Y266366D01*
X25145Y268513D01*
X25145Y270838D01*
X26035Y272985D01*
X26196Y273147D01*
X26238Y273205D01*
X26288Y273257D01*
X26310Y273304D01*
X26340Y273346D01*
X26361Y273415D01*
X26391Y273480D01*
X26397Y273532D01*
X26412Y273582D01*
X26410Y273653D01*
X26418Y273724D01*
X26407Y273775D01*
X26406Y273827D01*
X26381Y273895D01*
X26366Y273965D01*
X26339Y274010D01*
X26321Y274058D01*
X26277Y274114D01*
X26240Y274176D01*
X26200Y274210D01*
X26168Y274250D01*
X26108Y274289D01*
X26053Y274336D01*
X26005Y274355D01*
X25961Y274383D01*
X25891Y274401D01*
X25825Y274428D01*
X25754Y274436D01*
X25722Y274444D01*
X25699Y274442D01*
X25658Y274446D01*
X10372Y274446D01*
X10282Y274432D01*
X10191Y274424D01*
X10161Y274412D01*
X10129Y274407D01*
X10049Y274364D01*
X9965Y274328D01*
X9933Y274302D01*
X9912Y274291D01*
X9890Y274268D01*
X9834Y274223D01*
X-10825Y253564D01*
X-13057Y251332D01*
X-37099Y251332D01*
X-37189Y251318D01*
X-37280Y251310D01*
X-37309Y251298D01*
X-37341Y251293D01*
X-37422Y251250D01*
X-37506Y251214D01*
X-37538Y251188D01*
X-37559Y251177D01*
X-37581Y251154D01*
X-37637Y251109D01*
X-38836Y249910D01*
X-41160Y248947D01*
X-43676Y248947D01*
X-46000Y249910D01*
X-47814Y251724D01*
X-47909Y251792D01*
X-48003Y251862D01*
X-48009Y251864D01*
X-48014Y251868D01*
X-48125Y251902D01*
X-48236Y251938D01*
X-48243Y251938D01*
X-48249Y251940D01*
X-48365Y251937D01*
X-48482Y251936D01*
X-48490Y251934D01*
X-48495Y251934D01*
X-48512Y251927D01*
X-48643Y251889D01*
X-50908Y250951D01*
X-53232Y250951D01*
X-55380Y251841D01*
X-57023Y253484D01*
X-57913Y255632D01*
X-57913Y257725D01*
X-57924Y257796D01*
X-57926Y257868D01*
X-57944Y257916D01*
X-57952Y257968D01*
X-57986Y258031D01*
X-58011Y258099D01*
X-58043Y258139D01*
X-58068Y258185D01*
X-58120Y258235D01*
X-58164Y258291D01*
X-58208Y258319D01*
X-58246Y258355D01*
X-58311Y258385D01*
X-58371Y258424D01*
X-58422Y258436D01*
X-58469Y258458D01*
X-58540Y258466D01*
X-58610Y258484D01*
X-58662Y258480D01*
X-58713Y258485D01*
X-58784Y258470D01*
X-58855Y258464D01*
X-58903Y258444D01*
X-58954Y258433D01*
X-59015Y258396D01*
X-59081Y258368D01*
X-59137Y258323D01*
X-59165Y258307D01*
X-59180Y258289D01*
X-59212Y258263D01*
X-63149Y254326D01*
X-63202Y254252D01*
X-63262Y254183D01*
X-63274Y254153D01*
X-63293Y254127D01*
X-63320Y254039D01*
X-63354Y253955D01*
X-63358Y253914D01*
X-63365Y253891D01*
X-63364Y253859D01*
X-63372Y253788D01*
X-63372Y238718D01*
X-63358Y238628D01*
X-63350Y238537D01*
X-63338Y238507D01*
X-63333Y238475D01*
X-63290Y238395D01*
X-63254Y238311D01*
X-63228Y238279D01*
X-63217Y238258D01*
X-63194Y238236D01*
X-63149Y238180D01*
X-49560Y224591D01*
X-49502Y224549D01*
X-49450Y224499D01*
X-49403Y224477D01*
X-49361Y224447D01*
X-49292Y224426D01*
X-49227Y224396D01*
X-49175Y224390D01*
X-49125Y224375D01*
X-49054Y224377D01*
X-48983Y224369D01*
X-48932Y224380D01*
X-48880Y224381D01*
X-48812Y224406D01*
X-48742Y224421D01*
X-48698Y224448D01*
X-48649Y224466D01*
X-48593Y224510D01*
X-48531Y224547D01*
X-48497Y224587D01*
X-48457Y224619D01*
X-48418Y224680D01*
X-48371Y224734D01*
X-48352Y224782D01*
X-48324Y224826D01*
X-48306Y224896D01*
X-48279Y224962D01*
X-48271Y225034D01*
X-48263Y225065D01*
X-48265Y225088D01*
X-48261Y225129D01*
X-48261Y225952D01*
X-47371Y228100D01*
X-47234Y228237D01*
X-47207Y228274D01*
X-47173Y228305D01*
X-47136Y228374D01*
X-47090Y228437D01*
X-47077Y228481D01*
X-47055Y228521D01*
X-47041Y228597D01*
X-47018Y228672D01*
X-47019Y228718D01*
X-47011Y228763D01*
X-47022Y228840D01*
X-47024Y228918D01*
X-47040Y228961D01*
X-47047Y229006D01*
X-47082Y229076D01*
X-47109Y229149D01*
X-47137Y229184D01*
X-47158Y229226D01*
X-47214Y229280D01*
X-47262Y229341D01*
X-47301Y229366D01*
X-47334Y229398D01*
X-47454Y229464D01*
X-47469Y229474D01*
X-47474Y229475D01*
X-47481Y229479D01*
X-47506Y229489D01*
X-49149Y231132D01*
X-50039Y233280D01*
X-50039Y235204D01*
X-50042Y235224D01*
X-50040Y235243D01*
X-50062Y235344D01*
X-50078Y235447D01*
X-50088Y235464D01*
X-50092Y235484D01*
X-50145Y235573D01*
X-50194Y235664D01*
X-50208Y235678D01*
X-50218Y235695D01*
X-50297Y235762D01*
X-50372Y235834D01*
X-50390Y235842D01*
X-50405Y235855D01*
X-50501Y235894D01*
X-50595Y235937D01*
X-50615Y235939D01*
X-50633Y235947D01*
X-50653Y235949D01*
X-52840Y236855D01*
X-54483Y238498D01*
X-55373Y240646D01*
X-55373Y242970D01*
X-54483Y245118D01*
X-52840Y246761D01*
X-50692Y247651D01*
X-48368Y247651D01*
X-46220Y246761D01*
X-44577Y245118D01*
X-43687Y242970D01*
X-43687Y241046D01*
X-43684Y241026D01*
X-43686Y241007D01*
X-43664Y240905D01*
X-43648Y240803D01*
X-43638Y240786D01*
X-43634Y240766D01*
X-43581Y240677D01*
X-43532Y240586D01*
X-43518Y240572D01*
X-43508Y240555D01*
X-43429Y240488D01*
X-43354Y240416D01*
X-43336Y240408D01*
X-43321Y240395D01*
X-43225Y240356D01*
X-43131Y240313D01*
X-43111Y240311D01*
X-43093Y240303D01*
X-43073Y240301D01*
X-40886Y239395D01*
X-39243Y237752D01*
X-38353Y235604D01*
X-38353Y233280D01*
X-39243Y231132D01*
X-39380Y230995D01*
X-39407Y230958D01*
X-39441Y230927D01*
X-39478Y230858D01*
X-39524Y230795D01*
X-39537Y230751D01*
X-39559Y230711D01*
X-39573Y230635D01*
X-39596Y230560D01*
X-39595Y230514D01*
X-39603Y230469D01*
X-39592Y230392D01*
X-39590Y230314D01*
X-39574Y230271D01*
X-39567Y230226D01*
X-39532Y230156D01*
X-39505Y230083D01*
X-39477Y230048D01*
X-39456Y230006D01*
X-39400Y229952D01*
X-39352Y229891D01*
X-39313Y229866D01*
X-39280Y229834D01*
X-39160Y229768D01*
X-39145Y229758D01*
X-39140Y229757D01*
X-39133Y229753D01*
X-39108Y229743D01*
X-37935Y228570D01*
X-37861Y228517D01*
X-37791Y228457D01*
X-37761Y228445D01*
X-37735Y228426D01*
X-37648Y228399D01*
X-37563Y228365D01*
X-37522Y228361D01*
X-37500Y228354D01*
X-37468Y228355D01*
X-37397Y228347D01*
X-18085Y228347D01*
X-13990Y224252D01*
X-13916Y224199D01*
X-13846Y224139D01*
X-13816Y224127D01*
X-13790Y224108D01*
X-13703Y224081D01*
X-13618Y224047D01*
X-13577Y224043D01*
X-13555Y224036D01*
X-13523Y224037D01*
X-13451Y224029D01*
X-6140Y224029D01*
X-6094Y224036D01*
X-6048Y224034D01*
X-5974Y224056D01*
X-5897Y224068D01*
X-5856Y224090D01*
X-5812Y224103D01*
X-5748Y224147D01*
X-5679Y224184D01*
X-5648Y224217D01*
X-5610Y224243D01*
X-5564Y224305D01*
X-5510Y224362D01*
X-5491Y224404D01*
X-5463Y224440D01*
X-5439Y224514D01*
X-5406Y224585D01*
X-5401Y224631D01*
X-5387Y224674D01*
X-5388Y224752D01*
X-5379Y224829D01*
X-5389Y224874D01*
X-5390Y224920D01*
X-5428Y225052D01*
X-5432Y225070D01*
X-5434Y225074D01*
X-5436Y225081D01*
X-6097Y226676D01*
X-6097Y229000D01*
X-5207Y231148D01*
X-3564Y232791D01*
X-1416Y233681D01*
X908Y233681D01*
X3056Y232791D01*
X4699Y231148D01*
X5589Y229000D01*
X5589Y226676D01*
X4928Y225081D01*
X4918Y225037D01*
X4898Y224995D01*
X4890Y224918D01*
X4872Y224842D01*
X4876Y224796D01*
X4871Y224751D01*
X4888Y224674D01*
X4895Y224597D01*
X4914Y224555D01*
X4924Y224510D01*
X4964Y224443D01*
X4995Y224372D01*
X5026Y224338D01*
X5050Y224299D01*
X5109Y224248D01*
X5162Y224191D01*
X5202Y224169D01*
X5237Y224139D01*
X5309Y224110D01*
X5377Y224073D01*
X5422Y224064D01*
X5465Y224047D01*
X5601Y224032D01*
X5619Y224029D01*
X5624Y224030D01*
X5632Y224029D01*
X6648Y224029D01*
X6693Y224036D01*
X6739Y224034D01*
X6814Y224056D01*
X6890Y224068D01*
X6931Y224090D01*
X6975Y224103D01*
X7039Y224147D01*
X7108Y224184D01*
X7139Y224217D01*
X7177Y224243D01*
X7224Y224306D01*
X7277Y224362D01*
X7296Y224404D01*
X7324Y224440D01*
X7348Y224514D01*
X7381Y224585D01*
X7386Y224631D01*
X7400Y224674D01*
X7399Y224752D01*
X7408Y224829D01*
X7398Y224874D01*
X7398Y224920D01*
X7360Y225051D01*
X7356Y225070D01*
X7353Y225074D01*
X7351Y225081D01*
X7111Y225660D01*
X7111Y227984D01*
X8001Y230132D01*
X9644Y231775D01*
X11792Y232665D01*
X14116Y232665D01*
X16264Y231775D01*
X17907Y230132D01*
X18797Y227984D01*
X18797Y225660D01*
X18557Y225081D01*
X18547Y225037D01*
X18527Y224995D01*
X18519Y224918D01*
X18501Y224842D01*
X18505Y224796D01*
X18500Y224751D01*
X18517Y224674D01*
X18524Y224597D01*
X18543Y224555D01*
X18552Y224510D01*
X18592Y224443D01*
X18624Y224372D01*
X18655Y224338D01*
X18679Y224299D01*
X18738Y224248D01*
X18790Y224191D01*
X18831Y224169D01*
X18866Y224139D01*
X18938Y224110D01*
X19006Y224073D01*
X19051Y224064D01*
X19094Y224047D01*
X19230Y224032D01*
X19248Y224029D01*
X19253Y224030D01*
X19260Y224029D01*
X33731Y224029D01*
X46706Y211054D01*
X46764Y211012D01*
X46816Y210963D01*
X46863Y210941D01*
X46905Y210911D01*
X46974Y210890D01*
X47039Y210859D01*
X47091Y210854D01*
X47141Y210838D01*
X47212Y210840D01*
X47283Y210832D01*
X47334Y210843D01*
G37*
G36*
X-56420Y218832D02*
X-56420Y218832D01*
X-56354Y218833D01*
X-56274Y218856D01*
X-56241Y218861D01*
X-56224Y218871D01*
X-56193Y218880D01*
X-56026Y218949D01*
X-55457Y218949D01*
X-55386Y218960D01*
X-55314Y218962D01*
X-55265Y218980D01*
X-55214Y218988D01*
X-55151Y219022D01*
X-55083Y219047D01*
X-55043Y219079D01*
X-54997Y219104D01*
X-54947Y219155D01*
X-54891Y219200D01*
X-54863Y219244D01*
X-54827Y219282D01*
X-54797Y219347D01*
X-54758Y219407D01*
X-54746Y219458D01*
X-54724Y219505D01*
X-54716Y219576D01*
X-54698Y219646D01*
X-54702Y219698D01*
X-54697Y219749D01*
X-54712Y219820D01*
X-54718Y219891D01*
X-54738Y219939D01*
X-54749Y219990D01*
X-54786Y220051D01*
X-54814Y220117D01*
X-54859Y220173D01*
X-54875Y220201D01*
X-54893Y220216D01*
X-54919Y220248D01*
X-68000Y233329D01*
X-70232Y235561D01*
X-70232Y256945D01*
X-60566Y266610D01*
X-60547Y266613D01*
X-60506Y266635D01*
X-60462Y266648D01*
X-60398Y266692D01*
X-60329Y266729D01*
X-60298Y266762D01*
X-60260Y266788D01*
X-60213Y266851D01*
X-60160Y266907D01*
X-60141Y266949D01*
X-60113Y266985D01*
X-60089Y267059D01*
X-60056Y267130D01*
X-60051Y267176D01*
X-60037Y267219D01*
X-60038Y267297D01*
X-60029Y267374D01*
X-60039Y267419D01*
X-60039Y267465D01*
X-60077Y267596D01*
X-60081Y267615D01*
X-60084Y267619D01*
X-60086Y267626D01*
X-60326Y268205D01*
X-60326Y270529D01*
X-59436Y272677D01*
X-58077Y274036D01*
X-58066Y274052D01*
X-58050Y274064D01*
X-57994Y274152D01*
X-57934Y274235D01*
X-57928Y274254D01*
X-57917Y274271D01*
X-57892Y274372D01*
X-57861Y274471D01*
X-57862Y274490D01*
X-57857Y274510D01*
X-57865Y274613D01*
X-57868Y274716D01*
X-57874Y274735D01*
X-57876Y274755D01*
X-57916Y274850D01*
X-57952Y274947D01*
X-57965Y274963D01*
X-57972Y274981D01*
X-58077Y275112D01*
X-59817Y276852D01*
X-60707Y279000D01*
X-60707Y281324D01*
X-59817Y283472D01*
X-58174Y285115D01*
X-56026Y286005D01*
X-54356Y286005D01*
X-54260Y286020D01*
X-54163Y286030D01*
X-54139Y286040D01*
X-54113Y286044D01*
X-54027Y286090D01*
X-53938Y286130D01*
X-53919Y286147D01*
X-53896Y286160D01*
X-53829Y286230D01*
X-53757Y286296D01*
X-53744Y286319D01*
X-53726Y286338D01*
X-53685Y286426D01*
X-53638Y286512D01*
X-53634Y286537D01*
X-53623Y286561D01*
X-53612Y286658D01*
X-53595Y286754D01*
X-53599Y286780D01*
X-53596Y286805D01*
X-53616Y286901D01*
X-53631Y286997D01*
X-53642Y287020D01*
X-53648Y287046D01*
X-53698Y287129D01*
X-53742Y287216D01*
X-53761Y287235D01*
X-53774Y287257D01*
X-53848Y287320D01*
X-53918Y287388D01*
X-53946Y287404D01*
X-53961Y287417D01*
X-53992Y287429D01*
X-54065Y287469D01*
X-55126Y287909D01*
X-56769Y289552D01*
X-57659Y291700D01*
X-57659Y292862D01*
X-57662Y292882D01*
X-57660Y292901D01*
X-57682Y293003D01*
X-57698Y293105D01*
X-57708Y293122D01*
X-57712Y293142D01*
X-57765Y293231D01*
X-57814Y293322D01*
X-57828Y293336D01*
X-57838Y293353D01*
X-57917Y293420D01*
X-57992Y293492D01*
X-58010Y293500D01*
X-58025Y293513D01*
X-58121Y293552D01*
X-58215Y293595D01*
X-58235Y293597D01*
X-58253Y293605D01*
X-58420Y293623D01*
X-102346Y293623D01*
X-102436Y293609D01*
X-102527Y293601D01*
X-102557Y293589D01*
X-102589Y293584D01*
X-102670Y293541D01*
X-102753Y293505D01*
X-102786Y293479D01*
X-102806Y293468D01*
X-102828Y293445D01*
X-102884Y293400D01*
X-105821Y290463D01*
X-105869Y290398D01*
X-105878Y290388D01*
X-105880Y290383D01*
X-105934Y290320D01*
X-105946Y290290D01*
X-105965Y290264D01*
X-105992Y290177D01*
X-106026Y290092D01*
X-106030Y290051D01*
X-106037Y290029D01*
X-106036Y289996D01*
X-106044Y289925D01*
X-106044Y240417D01*
X-106914Y238316D01*
X-112171Y233059D01*
X-112224Y232985D01*
X-112284Y232916D01*
X-112296Y232886D01*
X-112315Y232860D01*
X-112342Y232773D01*
X-112376Y232688D01*
X-112380Y232647D01*
X-112387Y232625D01*
X-112386Y232592D01*
X-112394Y232521D01*
X-112394Y226187D01*
X-112391Y226167D01*
X-112393Y226148D01*
X-112371Y226046D01*
X-112355Y225944D01*
X-112345Y225927D01*
X-112341Y225907D01*
X-112288Y225818D01*
X-112239Y225727D01*
X-112225Y225713D01*
X-112215Y225696D01*
X-112136Y225629D01*
X-112061Y225557D01*
X-112043Y225549D01*
X-112028Y225536D01*
X-111932Y225497D01*
X-111838Y225454D01*
X-111818Y225452D01*
X-111800Y225444D01*
X-111633Y225426D01*
X-83191Y225426D01*
X-81090Y224556D01*
X-75579Y219045D01*
X-75505Y218992D01*
X-75436Y218932D01*
X-75406Y218920D01*
X-75380Y218901D01*
X-75293Y218874D01*
X-75208Y218840D01*
X-75167Y218836D01*
X-75145Y218829D01*
X-75112Y218830D01*
X-75041Y218822D01*
X-56484Y218822D01*
X-56420Y218832D01*
G37*
G36*
X84954Y194051D02*
X84954Y194051D01*
X85006Y194053D01*
X85072Y194077D01*
X85107Y194082D01*
X85114Y194086D01*
X85144Y194093D01*
X85189Y194119D01*
X85237Y194137D01*
X85291Y194180D01*
X85324Y194197D01*
X85330Y194204D01*
X85355Y194219D01*
X85389Y194258D01*
X85429Y194291D01*
X85464Y194345D01*
X85494Y194376D01*
X85498Y194387D01*
X85515Y194406D01*
X85534Y194454D01*
X85562Y194498D01*
X85577Y194556D01*
X85597Y194599D01*
X85599Y194614D01*
X85607Y194634D01*
X85615Y194705D01*
X85623Y194736D01*
X85621Y194760D01*
X85625Y194801D01*
X85625Y196584D01*
X86588Y198908D01*
X88366Y200686D01*
X90690Y201649D01*
X93105Y201649D01*
X93195Y201663D01*
X93286Y201671D01*
X93316Y201683D01*
X93348Y201688D01*
X93428Y201731D01*
X93512Y201767D01*
X93544Y201793D01*
X93565Y201804D01*
X93571Y201810D01*
X93572Y201810D01*
X93589Y201828D01*
X93643Y201872D01*
X94899Y203128D01*
X97131Y205360D01*
X144541Y205360D01*
X144631Y205374D01*
X144722Y205382D01*
X144751Y205394D01*
X144783Y205399D01*
X144864Y205442D01*
X144948Y205478D01*
X144980Y205504D01*
X145001Y205515D01*
X145023Y205538D01*
X145079Y205583D01*
X146603Y207107D01*
X146615Y207123D01*
X146630Y207135D01*
X146686Y207223D01*
X146747Y207306D01*
X146752Y207325D01*
X146763Y207342D01*
X146789Y207443D01*
X146819Y207542D01*
X146818Y207561D01*
X146823Y207581D01*
X146815Y207684D01*
X146813Y207787D01*
X146806Y207806D01*
X146804Y207826D01*
X146764Y207921D01*
X146728Y208018D01*
X146716Y208034D01*
X146708Y208052D01*
X146603Y208183D01*
X145008Y209778D01*
X144045Y212102D01*
X144045Y214618D01*
X145008Y216942D01*
X146349Y218283D01*
X146391Y218341D01*
X146440Y218393D01*
X146462Y218440D01*
X146493Y218482D01*
X146514Y218551D01*
X146544Y218616D01*
X146550Y218668D01*
X146565Y218718D01*
X146563Y218789D01*
X146571Y218860D01*
X146560Y218911D01*
X146559Y218963D01*
X146534Y219031D01*
X146519Y219101D01*
X146492Y219146D01*
X146474Y219194D01*
X146429Y219250D01*
X146393Y219312D01*
X146353Y219346D01*
X146320Y219386D01*
X146260Y219425D01*
X146206Y219472D01*
X146157Y219491D01*
X146114Y219519D01*
X146044Y219537D01*
X145977Y219564D01*
X145906Y219572D01*
X145875Y219580D01*
X145852Y219578D01*
X145811Y219582D01*
X116465Y219582D01*
X114364Y220452D01*
X104789Y230027D01*
X104715Y230080D01*
X104646Y230140D01*
X104616Y230152D01*
X104590Y230171D01*
X104503Y230198D01*
X104418Y230232D01*
X104377Y230236D01*
X104355Y230243D01*
X104322Y230242D01*
X104251Y230250D01*
X94981Y230250D01*
X94911Y230239D01*
X94839Y230237D01*
X94790Y230219D01*
X94738Y230211D01*
X94675Y230177D01*
X94608Y230152D01*
X94567Y230120D01*
X94521Y230095D01*
X94472Y230043D01*
X94416Y229999D01*
X94388Y229955D01*
X94352Y229917D01*
X94322Y229852D01*
X94283Y229792D01*
X94270Y229741D01*
X94248Y229694D01*
X94240Y229623D01*
X94223Y229553D01*
X94227Y229501D01*
X94221Y229450D01*
X94236Y229379D01*
X94242Y229308D01*
X94262Y229260D01*
X94273Y229209D01*
X94310Y229148D01*
X94338Y229082D01*
X94383Y229026D01*
X94399Y228998D01*
X94417Y228983D01*
X94443Y228951D01*
X95276Y228118D01*
X96239Y225794D01*
X96239Y223278D01*
X95276Y220954D01*
X93498Y219176D01*
X91174Y218213D01*
X88658Y218213D01*
X86334Y219176D01*
X84556Y220954D01*
X83593Y223278D01*
X83593Y225794D01*
X84556Y228118D01*
X85436Y228997D01*
X85462Y229035D01*
X85496Y229066D01*
X85534Y229134D01*
X85579Y229197D01*
X85593Y229241D01*
X85615Y229281D01*
X85629Y229358D01*
X85651Y229432D01*
X85650Y229478D01*
X85658Y229523D01*
X85647Y229600D01*
X85645Y229678D01*
X85629Y229721D01*
X85623Y229766D01*
X85587Y229836D01*
X85561Y229909D01*
X85532Y229945D01*
X85511Y229986D01*
X85456Y230040D01*
X85407Y230101D01*
X85368Y230126D01*
X85336Y230158D01*
X85216Y230224D01*
X85200Y230234D01*
X85195Y230235D01*
X85189Y230239D01*
X84302Y230606D01*
X82524Y232384D01*
X81561Y234708D01*
X81561Y237224D01*
X82524Y239548D01*
X84302Y241326D01*
X86626Y242289D01*
X86706Y242289D01*
X86796Y242303D01*
X86887Y242311D01*
X86917Y242323D01*
X86949Y242328D01*
X87030Y242371D01*
X87114Y242407D01*
X87146Y242433D01*
X87166Y242444D01*
X87189Y242467D01*
X87244Y242512D01*
X123728Y278996D01*
X123781Y279069D01*
X123841Y279139D01*
X123853Y279169D01*
X123872Y279195D01*
X123899Y279282D01*
X123933Y279367D01*
X123937Y279408D01*
X123944Y279430D01*
X123943Y279463D01*
X123951Y279534D01*
X123951Y292862D01*
X123948Y292882D01*
X123950Y292901D01*
X123928Y293003D01*
X123912Y293105D01*
X123902Y293122D01*
X123898Y293142D01*
X123845Y293231D01*
X123796Y293322D01*
X123782Y293336D01*
X123772Y293353D01*
X123693Y293420D01*
X123618Y293492D01*
X123600Y293500D01*
X123585Y293513D01*
X123489Y293552D01*
X123395Y293595D01*
X123375Y293597D01*
X123357Y293605D01*
X123190Y293623D01*
X117729Y293623D01*
X117709Y293620D01*
X117690Y293622D01*
X117588Y293600D01*
X117486Y293584D01*
X117469Y293574D01*
X117449Y293570D01*
X117360Y293517D01*
X117269Y293468D01*
X117255Y293454D01*
X117238Y293444D01*
X117171Y293365D01*
X117099Y293290D01*
X117091Y293272D01*
X117078Y293257D01*
X117039Y293161D01*
X116996Y293067D01*
X116994Y293047D01*
X116986Y293029D01*
X116968Y292862D01*
X116968Y289409D01*
X59660Y232101D01*
X59607Y232027D01*
X59547Y231958D01*
X59535Y231928D01*
X59516Y231902D01*
X59489Y231815D01*
X59455Y231730D01*
X59451Y231689D01*
X59444Y231666D01*
X59445Y231634D01*
X59437Y231563D01*
X59437Y229724D01*
X58547Y227576D01*
X56904Y225933D01*
X55262Y225253D01*
X55223Y225229D01*
X55180Y225213D01*
X55120Y225164D01*
X55053Y225123D01*
X55024Y225088D01*
X54988Y225059D01*
X54946Y224994D01*
X54897Y224934D01*
X54880Y224891D01*
X54855Y224852D01*
X54836Y224777D01*
X54808Y224704D01*
X54806Y224658D01*
X54795Y224614D01*
X54801Y224536D01*
X54798Y224459D01*
X54811Y224414D01*
X54814Y224369D01*
X54845Y224297D01*
X54866Y224222D01*
X54893Y224185D01*
X54911Y224142D01*
X54996Y224036D01*
X55007Y224020D01*
X55011Y224017D01*
X55015Y224011D01*
X55753Y223274D01*
X56643Y221126D01*
X56643Y218802D01*
X56298Y217969D01*
X56293Y217950D01*
X56284Y217932D01*
X56265Y217830D01*
X56242Y217730D01*
X56244Y217710D01*
X56240Y217690D01*
X56255Y217588D01*
X56265Y217485D01*
X56273Y217467D01*
X56276Y217447D01*
X56323Y217355D01*
X56365Y217260D01*
X56378Y217246D01*
X56387Y217228D01*
X56461Y217155D01*
X56531Y217079D01*
X56549Y217069D01*
X56563Y217056D01*
X56710Y216975D01*
X57158Y216789D01*
X58801Y215146D01*
X59691Y212998D01*
X59691Y210674D01*
X58801Y208526D01*
X57569Y207294D01*
X57527Y207236D01*
X57478Y207184D01*
X57456Y207137D01*
X57426Y207095D01*
X57404Y207026D01*
X57374Y206961D01*
X57369Y206909D01*
X57353Y206859D01*
X57355Y206788D01*
X57347Y206717D01*
X57358Y206666D01*
X57360Y206614D01*
X57384Y206546D01*
X57399Y206476D01*
X57426Y206431D01*
X57444Y206383D01*
X57489Y206327D01*
X57526Y206265D01*
X57565Y206231D01*
X57598Y206191D01*
X57658Y206152D01*
X57713Y206105D01*
X57761Y206086D01*
X57805Y206058D01*
X57874Y206040D01*
X57941Y206013D01*
X58012Y206005D01*
X58043Y205997D01*
X58066Y205999D01*
X58107Y205995D01*
X72593Y205995D01*
X84326Y194262D01*
X84384Y194220D01*
X84436Y194171D01*
X84455Y194162D01*
X84466Y194153D01*
X84493Y194142D01*
X84525Y194119D01*
X84594Y194098D01*
X84659Y194067D01*
X84686Y194064D01*
X84694Y194061D01*
X84723Y194058D01*
X84761Y194046D01*
X84815Y194048D01*
X84861Y194043D01*
X84864Y194043D01*
X84872Y194044D01*
X84903Y194040D01*
X84954Y194051D01*
G37*
G36*
X-92181Y174179D02*
X-92181Y174179D01*
X-92078Y174182D01*
X-92059Y174188D01*
X-92039Y174190D01*
X-91944Y174230D01*
X-91847Y174266D01*
X-91831Y174278D01*
X-91813Y174286D01*
X-91682Y174391D01*
X-90432Y175641D01*
X-88732Y176345D01*
X-88676Y176380D01*
X-88616Y176405D01*
X-88551Y176457D01*
X-88523Y176475D01*
X-88510Y176490D01*
X-88485Y176510D01*
X-83028Y181968D01*
X-82975Y182041D01*
X-82915Y182111D01*
X-82903Y182141D01*
X-82884Y182167D01*
X-82857Y182254D01*
X-82823Y182339D01*
X-82819Y182380D01*
X-82812Y182402D01*
X-82813Y182435D01*
X-82805Y182506D01*
X-82805Y209788D01*
X-82819Y209878D01*
X-82827Y209969D01*
X-82839Y209999D01*
X-82844Y210031D01*
X-82887Y210112D01*
X-82923Y210195D01*
X-82949Y210228D01*
X-82960Y210248D01*
X-82983Y210270D01*
X-83028Y210326D01*
X-86473Y213771D01*
X-86547Y213824D01*
X-86616Y213884D01*
X-86646Y213896D01*
X-86672Y213915D01*
X-86759Y213942D01*
X-86844Y213976D01*
X-86885Y213980D01*
X-86907Y213987D01*
X-86940Y213986D01*
X-87011Y213994D01*
X-111633Y213994D01*
X-111653Y213991D01*
X-111672Y213993D01*
X-111774Y213971D01*
X-111876Y213955D01*
X-111893Y213945D01*
X-111913Y213941D01*
X-112002Y213888D01*
X-112093Y213839D01*
X-112107Y213825D01*
X-112124Y213815D01*
X-112191Y213736D01*
X-112263Y213661D01*
X-112271Y213643D01*
X-112284Y213628D01*
X-112323Y213532D01*
X-112366Y213438D01*
X-112368Y213418D01*
X-112376Y213400D01*
X-112394Y213233D01*
X-112394Y203296D01*
X-112384Y203232D01*
X-112383Y203166D01*
X-112360Y203086D01*
X-112355Y203053D01*
X-112345Y203036D01*
X-112336Y203005D01*
X-112267Y202838D01*
X-112267Y200514D01*
X-112823Y199173D01*
X-112833Y199129D01*
X-112852Y199087D01*
X-112861Y199010D01*
X-112879Y198934D01*
X-112874Y198888D01*
X-112879Y198843D01*
X-112863Y198766D01*
X-112856Y198689D01*
X-112837Y198647D01*
X-112827Y198602D01*
X-112787Y198535D01*
X-112756Y198464D01*
X-112725Y198430D01*
X-112701Y198391D01*
X-112642Y198340D01*
X-112589Y198283D01*
X-112549Y198261D01*
X-112514Y198231D01*
X-112442Y198202D01*
X-112374Y198165D01*
X-112329Y198156D01*
X-112286Y198139D01*
X-112150Y198124D01*
X-112132Y198121D01*
X-112127Y198122D01*
X-112119Y198121D01*
X-110236Y198121D01*
X-110191Y198128D01*
X-110145Y198126D01*
X-110070Y198148D01*
X-109993Y198160D01*
X-109953Y198182D01*
X-109909Y198195D01*
X-109845Y198239D01*
X-109776Y198276D01*
X-109744Y198309D01*
X-109707Y198335D01*
X-109660Y198397D01*
X-109606Y198454D01*
X-109587Y198496D01*
X-109560Y198532D01*
X-109536Y198606D01*
X-109503Y198677D01*
X-109498Y198723D01*
X-109484Y198766D01*
X-109484Y198844D01*
X-109476Y198921D01*
X-109486Y198966D01*
X-109486Y199012D01*
X-109524Y199144D01*
X-109528Y199162D01*
X-109531Y199166D01*
X-109533Y199173D01*
X-109983Y200260D01*
X-109983Y202584D01*
X-109093Y204732D01*
X-107450Y206375D01*
X-105302Y207265D01*
X-102978Y207265D01*
X-100830Y206375D01*
X-99187Y204732D01*
X-98297Y202584D01*
X-98297Y200260D01*
X-99187Y198112D01*
X-100830Y196469D01*
X-102978Y195579D01*
X-105156Y195579D01*
X-105201Y195572D01*
X-105247Y195574D01*
X-105322Y195552D01*
X-105399Y195540D01*
X-105439Y195518D01*
X-105483Y195505D01*
X-105547Y195461D01*
X-105616Y195424D01*
X-105648Y195391D01*
X-105685Y195365D01*
X-105732Y195303D01*
X-105786Y195246D01*
X-105805Y195204D01*
X-105832Y195168D01*
X-105856Y195094D01*
X-105889Y195023D01*
X-105894Y194977D01*
X-105908Y194934D01*
X-105908Y194856D01*
X-105916Y194779D01*
X-105906Y194734D01*
X-105906Y194688D01*
X-105868Y194556D01*
X-105864Y194538D01*
X-105861Y194534D01*
X-105859Y194527D01*
X-105409Y193440D01*
X-105409Y191116D01*
X-106299Y188968D01*
X-107942Y187325D01*
X-110090Y186435D01*
X-112414Y186435D01*
X-114562Y187325D01*
X-116205Y188968D01*
X-117095Y191116D01*
X-117095Y193440D01*
X-116539Y194781D01*
X-116529Y194825D01*
X-116510Y194867D01*
X-116501Y194944D01*
X-116483Y195020D01*
X-116488Y195066D01*
X-116483Y195111D01*
X-116499Y195188D01*
X-116506Y195265D01*
X-116525Y195307D01*
X-116535Y195352D01*
X-116575Y195419D01*
X-116606Y195490D01*
X-116637Y195524D01*
X-116661Y195563D01*
X-116720Y195614D01*
X-116773Y195671D01*
X-116813Y195693D01*
X-116848Y195723D01*
X-116920Y195752D01*
X-116988Y195789D01*
X-117033Y195798D01*
X-117076Y195815D01*
X-117212Y195830D01*
X-117230Y195833D01*
X-117235Y195832D01*
X-117243Y195833D01*
X-119272Y195833D01*
X-121420Y196723D01*
X-123063Y198366D01*
X-123953Y200514D01*
X-123953Y202838D01*
X-123884Y203005D01*
X-123869Y203069D01*
X-123844Y203129D01*
X-123835Y203212D01*
X-123828Y203244D01*
X-123829Y203264D01*
X-123826Y203296D01*
X-123826Y236341D01*
X-122956Y238442D01*
X-117699Y243699D01*
X-117646Y243773D01*
X-117586Y243842D01*
X-117574Y243872D01*
X-117555Y243898D01*
X-117528Y243985D01*
X-117494Y244070D01*
X-117490Y244111D01*
X-117483Y244133D01*
X-117484Y244166D01*
X-117476Y244237D01*
X-117476Y290988D01*
X-117486Y291052D01*
X-117487Y291118D01*
X-117510Y291198D01*
X-117515Y291231D01*
X-117525Y291248D01*
X-117534Y291279D01*
X-117603Y291446D01*
X-117603Y292862D01*
X-117606Y292882D01*
X-117604Y292901D01*
X-117626Y293003D01*
X-117642Y293105D01*
X-117652Y293122D01*
X-117656Y293142D01*
X-117709Y293231D01*
X-117758Y293322D01*
X-117772Y293336D01*
X-117782Y293353D01*
X-117861Y293420D01*
X-117936Y293492D01*
X-117954Y293500D01*
X-117969Y293513D01*
X-118065Y293552D01*
X-118159Y293595D01*
X-118179Y293597D01*
X-118197Y293605D01*
X-118364Y293623D01*
X-118745Y293623D01*
X-118765Y293620D01*
X-118784Y293622D01*
X-118886Y293600D01*
X-118988Y293584D01*
X-119005Y293574D01*
X-119025Y293570D01*
X-119114Y293517D01*
X-119205Y293468D01*
X-119219Y293454D01*
X-119236Y293444D01*
X-119303Y293365D01*
X-119375Y293290D01*
X-119383Y293272D01*
X-119396Y293257D01*
X-119435Y293161D01*
X-119478Y293067D01*
X-119480Y293047D01*
X-119488Y293029D01*
X-119506Y292862D01*
X-119506Y267595D01*
X-120376Y265494D01*
X-125633Y260237D01*
X-125686Y260163D01*
X-125746Y260094D01*
X-125758Y260064D01*
X-125777Y260038D01*
X-125804Y259951D01*
X-125838Y259866D01*
X-125842Y259825D01*
X-125849Y259803D01*
X-125848Y259770D01*
X-125856Y259699D01*
X-125856Y209683D01*
X-126726Y207582D01*
X-157748Y176560D01*
X-157790Y176502D01*
X-157840Y176450D01*
X-157862Y176403D01*
X-157892Y176361D01*
X-157913Y176292D01*
X-157943Y176227D01*
X-157949Y176175D01*
X-157964Y176125D01*
X-157963Y176054D01*
X-157970Y175983D01*
X-157959Y175932D01*
X-157958Y175880D01*
X-157933Y175812D01*
X-157918Y175742D01*
X-157891Y175697D01*
X-157874Y175649D01*
X-157829Y175593D01*
X-157792Y175531D01*
X-157752Y175497D01*
X-157720Y175457D01*
X-157660Y175418D01*
X-157605Y175371D01*
X-157557Y175352D01*
X-157513Y175324D01*
X-157443Y175306D01*
X-157377Y175279D01*
X-157306Y175271D01*
X-157274Y175263D01*
X-157251Y175265D01*
X-157210Y175261D01*
X-93628Y175261D01*
X-92758Y174391D01*
X-92742Y174379D01*
X-92730Y174364D01*
X-92642Y174308D01*
X-92559Y174248D01*
X-92540Y174242D01*
X-92523Y174231D01*
X-92422Y174206D01*
X-92324Y174175D01*
X-92304Y174176D01*
X-92284Y174171D01*
X-92181Y174179D01*
G37*
G36*
X105285Y154190D02*
X105285Y154190D01*
X105357Y154192D01*
X105406Y154210D01*
X105457Y154218D01*
X105521Y154252D01*
X105588Y154277D01*
X105629Y154309D01*
X105675Y154334D01*
X105724Y154386D01*
X105780Y154430D01*
X105808Y154474D01*
X105844Y154512D01*
X105874Y154577D01*
X105913Y154637D01*
X105926Y154688D01*
X105948Y154735D01*
X105956Y154806D01*
X105973Y154876D01*
X105969Y154928D01*
X105975Y154979D01*
X105960Y155050D01*
X105954Y155121D01*
X105934Y155169D01*
X105923Y155220D01*
X105886Y155281D01*
X105858Y155347D01*
X105813Y155403D01*
X105796Y155431D01*
X105779Y155446D01*
X105753Y155478D01*
X104267Y156964D01*
X103377Y159112D01*
X103377Y159681D01*
X103363Y159771D01*
X103355Y159862D01*
X103343Y159892D01*
X103338Y159924D01*
X103295Y160004D01*
X103259Y160088D01*
X103233Y160120D01*
X103222Y160141D01*
X103199Y160163D01*
X103154Y160219D01*
X87066Y176308D01*
X87029Y176335D01*
X86997Y176368D01*
X86929Y176406D01*
X86866Y176451D01*
X86822Y176465D01*
X86782Y176487D01*
X86705Y176501D01*
X86631Y176524D01*
X86585Y176523D01*
X86540Y176531D01*
X86463Y176519D01*
X86385Y176517D01*
X86342Y176502D01*
X86297Y176495D01*
X86227Y176460D01*
X86154Y176433D01*
X86118Y176404D01*
X86077Y176383D01*
X86023Y176328D01*
X85962Y176279D01*
X85937Y176241D01*
X85905Y176208D01*
X85839Y176088D01*
X85829Y176072D01*
X85828Y176067D01*
X85824Y176061D01*
X84963Y173982D01*
X83320Y172339D01*
X81172Y171449D01*
X78848Y171449D01*
X76700Y172339D01*
X75057Y173982D01*
X74167Y176130D01*
X74167Y178454D01*
X75057Y180602D01*
X76700Y182245D01*
X78779Y183106D01*
X78818Y183130D01*
X78861Y183146D01*
X78922Y183195D01*
X78988Y183236D01*
X79017Y183271D01*
X79053Y183300D01*
X79095Y183365D01*
X79145Y183425D01*
X79161Y183468D01*
X79186Y183507D01*
X79205Y183582D01*
X79233Y183655D01*
X79235Y183701D01*
X79246Y183745D01*
X79240Y183823D01*
X79243Y183901D01*
X79231Y183945D01*
X79227Y183990D01*
X79197Y184062D01*
X79175Y184137D01*
X79149Y184175D01*
X79131Y184217D01*
X79045Y184323D01*
X79035Y184339D01*
X79030Y184342D01*
X79026Y184348D01*
X70684Y192689D01*
X70610Y192742D01*
X70541Y192802D01*
X70511Y192814D01*
X70485Y192833D01*
X70398Y192860D01*
X70313Y192894D01*
X70272Y192898D01*
X70249Y192905D01*
X70217Y192904D01*
X70146Y192912D01*
X53732Y192912D01*
X53661Y192901D01*
X53589Y192899D01*
X53540Y192881D01*
X53489Y192873D01*
X53425Y192839D01*
X53358Y192814D01*
X53317Y192782D01*
X53271Y192757D01*
X53222Y192705D01*
X53166Y192661D01*
X53138Y192617D01*
X53102Y192579D01*
X53072Y192514D01*
X53033Y192454D01*
X53020Y192403D01*
X52998Y192356D01*
X52990Y192285D01*
X52973Y192215D01*
X52977Y192163D01*
X52971Y192112D01*
X52987Y192041D01*
X52992Y191970D01*
X53012Y191922D01*
X53024Y191871D01*
X53060Y191810D01*
X53088Y191744D01*
X53133Y191688D01*
X53150Y191660D01*
X53168Y191645D01*
X53193Y191613D01*
X56622Y188184D01*
X56696Y188131D01*
X56766Y188071D01*
X56796Y188059D01*
X56822Y188040D01*
X56909Y188013D01*
X56994Y187979D01*
X57035Y187975D01*
X57057Y187968D01*
X57089Y187969D01*
X57161Y187961D01*
X57971Y187961D01*
X58061Y187975D01*
X58152Y187983D01*
X58181Y187995D01*
X58213Y188000D01*
X58294Y188043D01*
X58378Y188079D01*
X58410Y188105D01*
X58431Y188116D01*
X58453Y188139D01*
X58509Y188184D01*
X59682Y189357D01*
X61830Y190247D01*
X64154Y190247D01*
X66302Y189357D01*
X67945Y187714D01*
X68835Y185566D01*
X68835Y183242D01*
X67945Y181094D01*
X66302Y179451D01*
X64154Y178561D01*
X61830Y178561D01*
X60074Y179289D01*
X59979Y179311D01*
X59886Y179340D01*
X59860Y179339D01*
X59834Y179345D01*
X59737Y179336D01*
X59640Y179333D01*
X59615Y179324D01*
X59589Y179322D01*
X59500Y179282D01*
X59409Y179249D01*
X59389Y179232D01*
X59365Y179222D01*
X59293Y179156D01*
X59217Y179095D01*
X59203Y179073D01*
X59183Y179055D01*
X59137Y178970D01*
X59084Y178888D01*
X59078Y178863D01*
X59065Y178840D01*
X59048Y178744D01*
X59024Y178650D01*
X59026Y178624D01*
X59021Y178598D01*
X59035Y178501D01*
X59043Y178404D01*
X59053Y178380D01*
X59057Y178354D01*
X59101Y178267D01*
X59139Y178178D01*
X59160Y178153D01*
X59168Y178135D01*
X59192Y178112D01*
X59244Y178047D01*
X82890Y154402D01*
X82963Y154349D01*
X83033Y154289D01*
X83063Y154277D01*
X83089Y154258D01*
X83176Y154231D01*
X83261Y154197D01*
X83302Y154193D01*
X83324Y154186D01*
X83357Y154187D01*
X83428Y154179D01*
X105215Y154179D01*
X105285Y154190D01*
G37*
G36*
X-190009Y160688D02*
X-190009Y160688D01*
X-189938Y160693D01*
X-189890Y160714D01*
X-189839Y160725D01*
X-189778Y160762D01*
X-189712Y160790D01*
X-189656Y160834D01*
X-189628Y160851D01*
X-189613Y160869D01*
X-189581Y160895D01*
X-137511Y212965D01*
X-137458Y213039D01*
X-137398Y213108D01*
X-137386Y213138D01*
X-137367Y213164D01*
X-137340Y213251D01*
X-137306Y213336D01*
X-137302Y213377D01*
X-137295Y213399D01*
X-137296Y213432D01*
X-137288Y213503D01*
X-137288Y230555D01*
X-137299Y230625D01*
X-137301Y230697D01*
X-137319Y230746D01*
X-137327Y230797D01*
X-137361Y230861D01*
X-137386Y230928D01*
X-137418Y230969D01*
X-137443Y231015D01*
X-137494Y231064D01*
X-137539Y231120D01*
X-137583Y231148D01*
X-137621Y231184D01*
X-137686Y231214D01*
X-137746Y231253D01*
X-137797Y231266D01*
X-137844Y231288D01*
X-137915Y231296D01*
X-137985Y231313D01*
X-138037Y231309D01*
X-138088Y231315D01*
X-138159Y231300D01*
X-138230Y231294D01*
X-138278Y231274D01*
X-138329Y231263D01*
X-138390Y231226D01*
X-138456Y231198D01*
X-138512Y231153D01*
X-138540Y231136D01*
X-138555Y231119D01*
X-138587Y231093D01*
X-138667Y231013D01*
X-138834Y230944D01*
X-138890Y230909D01*
X-138950Y230884D01*
X-139015Y230832D01*
X-139043Y230814D01*
X-139056Y230799D01*
X-139081Y230779D01*
X-157891Y211968D01*
X-157944Y211894D01*
X-158004Y211825D01*
X-158016Y211795D01*
X-158035Y211769D01*
X-158062Y211682D01*
X-158096Y211597D01*
X-158100Y211556D01*
X-158107Y211534D01*
X-158106Y211501D01*
X-158114Y211430D01*
X-158114Y200502D01*
X-158104Y200438D01*
X-158103Y200372D01*
X-158080Y200292D01*
X-158075Y200259D01*
X-158065Y200242D01*
X-158056Y200211D01*
X-157987Y200044D01*
X-157987Y197720D01*
X-158877Y195572D01*
X-160520Y193929D01*
X-160687Y193860D01*
X-160743Y193825D01*
X-160803Y193800D01*
X-160868Y193748D01*
X-160896Y193730D01*
X-160909Y193715D01*
X-160934Y193695D01*
X-190657Y163971D01*
X-190710Y163897D01*
X-190770Y163828D01*
X-190782Y163798D01*
X-190801Y163772D01*
X-190828Y163685D01*
X-190862Y163600D01*
X-190866Y163559D01*
X-190873Y163537D01*
X-190872Y163504D01*
X-190880Y163433D01*
X-190880Y161433D01*
X-190869Y161362D01*
X-190867Y161290D01*
X-190849Y161241D01*
X-190841Y161190D01*
X-190807Y161127D01*
X-190782Y161059D01*
X-190750Y161019D01*
X-190725Y160973D01*
X-190673Y160923D01*
X-190629Y160867D01*
X-190585Y160839D01*
X-190547Y160803D01*
X-190482Y160773D01*
X-190422Y160734D01*
X-190371Y160722D01*
X-190324Y160700D01*
X-190253Y160692D01*
X-190183Y160674D01*
X-190131Y160678D01*
X-190080Y160673D01*
X-190009Y160688D01*
G37*
%LPC*%
G36*
X245326Y12074D02*
X245326Y12074D01*
X240809Y13945D01*
X237352Y17403D01*
X235481Y21920D01*
X235481Y26810D01*
X237352Y31327D01*
X240809Y34785D01*
X245326Y36656D01*
X250216Y36656D01*
X254733Y34785D01*
X258191Y31327D01*
X260062Y26810D01*
X260062Y21920D01*
X258191Y17403D01*
X254733Y13945D01*
X250216Y12074D01*
X245326Y12074D01*
G37*
%LPD*%
%LPC*%
G36*
X-81759Y-3601D02*
X-81759Y-3601D01*
X-86277Y-1730D01*
X-89734Y1728D01*
X-91605Y6245D01*
X-91605Y11135D01*
X-89734Y15652D01*
X-86277Y19110D01*
X-81759Y20981D01*
X-76870Y20981D01*
X-72352Y19110D01*
X-68895Y15652D01*
X-67024Y11135D01*
X-67024Y6245D01*
X-68895Y1728D01*
X-72352Y-1730D01*
X-76870Y-3601D01*
X-81759Y-3601D01*
G37*
%LPD*%
%LPC*%
G36*
X202025Y-12926D02*
X202025Y-12926D01*
X197508Y-11055D01*
X194050Y-7597D01*
X192179Y-3080D01*
X192179Y1810D01*
X194050Y6327D01*
X197508Y9785D01*
X202025Y11656D01*
X206915Y11656D01*
X211432Y9785D01*
X214890Y6327D01*
X216761Y1810D01*
X216761Y-3080D01*
X214890Y-7597D01*
X211432Y-11055D01*
X206915Y-12926D01*
X202025Y-12926D01*
G37*
%LPD*%
%LPC*%
G36*
X74330Y321595D02*
X74330Y321595D01*
X70876Y323026D01*
X68232Y325670D01*
X66801Y329124D01*
X66801Y332066D01*
X66798Y332085D01*
X66800Y332105D01*
X66778Y332206D01*
X66762Y332309D01*
X66752Y332326D01*
X66748Y332346D01*
X66695Y332435D01*
X66646Y332526D01*
X66632Y332540D01*
X66622Y332557D01*
X66543Y332624D01*
X66468Y332695D01*
X66450Y332704D01*
X66435Y332717D01*
X66339Y332755D01*
X66245Y332799D01*
X66225Y332801D01*
X66207Y332809D01*
X66040Y332827D01*
X63849Y332827D01*
X61805Y333674D01*
X60240Y335238D01*
X59394Y337282D01*
X59394Y339494D01*
X60240Y341538D01*
X61805Y343102D01*
X63849Y343948D01*
X66061Y343948D01*
X68105Y343102D01*
X69669Y341538D01*
X70465Y339615D01*
X70476Y339598D01*
X70481Y339579D01*
X70540Y339494D01*
X70595Y339406D01*
X70610Y339394D01*
X70621Y339377D01*
X70704Y339315D01*
X70784Y339249D01*
X70803Y339242D01*
X70819Y339230D01*
X70917Y339198D01*
X71014Y339161D01*
X71034Y339160D01*
X71053Y339154D01*
X71156Y339155D01*
X71259Y339151D01*
X71279Y339156D01*
X71299Y339157D01*
X71460Y339203D01*
X74330Y340392D01*
X78070Y340392D01*
X81524Y338962D01*
X84168Y336318D01*
X85599Y332863D01*
X85599Y329124D01*
X84168Y325670D01*
X81524Y323026D01*
X78070Y321595D01*
X74330Y321595D01*
G37*
%LPD*%
%LPC*%
G36*
X74330Y346995D02*
X74330Y346995D01*
X70876Y348426D01*
X68232Y351070D01*
X66801Y354524D01*
X66801Y358263D01*
X68232Y361718D01*
X70876Y364362D01*
X74330Y365792D01*
X78070Y365792D01*
X81524Y364362D01*
X84168Y361718D01*
X85599Y358263D01*
X85599Y354524D01*
X84168Y351070D01*
X81524Y348426D01*
X78070Y346995D01*
X74330Y346995D01*
G37*
%LPD*%
%LPC*%
G36*
X-112995Y383508D02*
X-112995Y383508D01*
X-116449Y384938D01*
X-119093Y387582D01*
X-120524Y391037D01*
X-120524Y394776D01*
X-119093Y398230D01*
X-116449Y400874D01*
X-112995Y402305D01*
X-109255Y402305D01*
X-105801Y400874D01*
X-103157Y398230D01*
X-101726Y394776D01*
X-101726Y391037D01*
X-103157Y387582D01*
X-105801Y384938D01*
X-109255Y383508D01*
X-112995Y383508D01*
G37*
%LPD*%
G36*
X77998Y277245D02*
X77998Y277245D01*
X78017Y277243D01*
X78119Y277265D01*
X78221Y277281D01*
X78238Y277291D01*
X78258Y277295D01*
X78347Y277348D01*
X78438Y277397D01*
X78452Y277411D01*
X78469Y277421D01*
X78536Y277500D01*
X78608Y277575D01*
X78616Y277593D01*
X78629Y277608D01*
X78668Y277704D01*
X78711Y277798D01*
X78713Y277818D01*
X78721Y277836D01*
X78739Y278003D01*
X78739Y278276D01*
X79629Y280424D01*
X81272Y282067D01*
X83420Y282957D01*
X85744Y282957D01*
X87892Y282067D01*
X89535Y280424D01*
X89875Y279602D01*
X89900Y279563D01*
X89915Y279520D01*
X89964Y279459D01*
X90005Y279393D01*
X90040Y279364D01*
X90069Y279328D01*
X90135Y279286D01*
X90194Y279236D01*
X90237Y279220D01*
X90276Y279195D01*
X90351Y279176D01*
X90424Y279148D01*
X90470Y279146D01*
X90514Y279135D01*
X90592Y279141D01*
X90670Y279138D01*
X90714Y279151D01*
X90760Y279154D01*
X90831Y279185D01*
X90906Y279206D01*
X90944Y279233D01*
X90986Y279251D01*
X91093Y279336D01*
X91108Y279347D01*
X91111Y279351D01*
X91117Y279355D01*
X97100Y285339D01*
X97142Y285397D01*
X97192Y285449D01*
X97214Y285496D01*
X97244Y285538D01*
X97265Y285607D01*
X97295Y285672D01*
X97301Y285724D01*
X97316Y285774D01*
X97314Y285845D01*
X97322Y285916D01*
X97311Y285967D01*
X97310Y286019D01*
X97285Y286087D01*
X97270Y286157D01*
X97243Y286201D01*
X97225Y286250D01*
X97181Y286306D01*
X97144Y286368D01*
X97104Y286402D01*
X97072Y286442D01*
X97011Y286481D01*
X96957Y286528D01*
X96909Y286547D01*
X96865Y286575D01*
X96795Y286593D01*
X96729Y286620D01*
X96657Y286628D01*
X96626Y286636D01*
X96603Y286634D01*
X96562Y286638D01*
X65744Y286638D01*
X65654Y286624D01*
X65563Y286616D01*
X65533Y286604D01*
X65501Y286599D01*
X65421Y286556D01*
X65337Y286520D01*
X65305Y286494D01*
X65284Y286483D01*
X65262Y286460D01*
X65206Y286415D01*
X59279Y280488D01*
X58856Y280065D01*
X58844Y280049D01*
X58828Y280037D01*
X58772Y279949D01*
X58712Y279866D01*
X58706Y279847D01*
X58695Y279830D01*
X58670Y279729D01*
X58640Y279631D01*
X58640Y279611D01*
X58635Y279591D01*
X58643Y279488D01*
X58646Y279385D01*
X58653Y279366D01*
X58655Y279346D01*
X58695Y279251D01*
X58731Y279154D01*
X58743Y279138D01*
X58751Y279120D01*
X58856Y278989D01*
X60380Y277465D01*
X60454Y277412D01*
X60523Y277352D01*
X60553Y277340D01*
X60579Y277321D01*
X60666Y277294D01*
X60751Y277260D01*
X60792Y277256D01*
X60815Y277249D01*
X60847Y277250D01*
X60918Y277242D01*
X77978Y277242D01*
X77998Y277245D01*
G37*
%LPC*%
G36*
X-96593Y352297D02*
X-96593Y352297D01*
X-99569Y355273D01*
X-99569Y359483D01*
X-98656Y360396D01*
X-98644Y360412D01*
X-98628Y360424D01*
X-98572Y360512D01*
X-98512Y360595D01*
X-98506Y360614D01*
X-98495Y360631D01*
X-98470Y360732D01*
X-98440Y360831D01*
X-98440Y360850D01*
X-98435Y360870D01*
X-98443Y360973D01*
X-98446Y361076D01*
X-98453Y361095D01*
X-98454Y361115D01*
X-98495Y361210D01*
X-98530Y361307D01*
X-98543Y361323D01*
X-98551Y361341D01*
X-98656Y361472D01*
X-101347Y364163D01*
X-101347Y368373D01*
X-98371Y371349D01*
X-94161Y371349D01*
X-91185Y368373D01*
X-91185Y364163D01*
X-92098Y363250D01*
X-92110Y363234D01*
X-92126Y363222D01*
X-92182Y363134D01*
X-92242Y363051D01*
X-92248Y363032D01*
X-92259Y363015D01*
X-92284Y362914D01*
X-92314Y362815D01*
X-92314Y362796D01*
X-92319Y362776D01*
X-92311Y362673D01*
X-92308Y362570D01*
X-92301Y362551D01*
X-92300Y362531D01*
X-92259Y362436D01*
X-92224Y362339D01*
X-92211Y362323D01*
X-92203Y362305D01*
X-92098Y362174D01*
X-89407Y359483D01*
X-89407Y355273D01*
X-92383Y352297D01*
X-96593Y352297D01*
G37*
%LPD*%
%LPC*%
G36*
X137426Y261393D02*
X137426Y261393D01*
X135102Y262356D01*
X133324Y264134D01*
X132361Y266458D01*
X132361Y268974D01*
X133324Y271298D01*
X135102Y273076D01*
X137426Y274039D01*
X139942Y274039D01*
X142266Y273076D01*
X144044Y271298D01*
X145007Y268974D01*
X145007Y266458D01*
X144044Y264134D01*
X142266Y262356D01*
X139942Y261393D01*
X137426Y261393D01*
G37*
%LPD*%
%LPC*%
G36*
X19570Y144045D02*
X19570Y144045D01*
X17246Y145008D01*
X15468Y146786D01*
X14505Y149110D01*
X14505Y151626D01*
X15468Y153950D01*
X17246Y155728D01*
X19570Y156691D01*
X22086Y156691D01*
X24410Y155728D01*
X26188Y153950D01*
X27151Y151626D01*
X27151Y149110D01*
X26188Y146786D01*
X24410Y145008D01*
X22086Y144045D01*
X19570Y144045D01*
G37*
%LPD*%
%LPC*%
G36*
X152412Y143537D02*
X152412Y143537D01*
X150088Y144500D01*
X148310Y146278D01*
X147347Y148602D01*
X147347Y151118D01*
X148310Y153442D01*
X150088Y155220D01*
X152412Y156183D01*
X154928Y156183D01*
X157252Y155220D01*
X159030Y153442D01*
X159993Y151118D01*
X159993Y148602D01*
X159030Y146278D01*
X157252Y144500D01*
X154928Y143537D01*
X152412Y143537D01*
G37*
%LPD*%
%LPC*%
G36*
X-121654Y141251D02*
X-121654Y141251D01*
X-123978Y142214D01*
X-125756Y143992D01*
X-126719Y146316D01*
X-126719Y148832D01*
X-125756Y151156D01*
X-123978Y152934D01*
X-121654Y153897D01*
X-119138Y153897D01*
X-116814Y152934D01*
X-115036Y151156D01*
X-114073Y148832D01*
X-114073Y146316D01*
X-115036Y143992D01*
X-116814Y142214D01*
X-119138Y141251D01*
X-121654Y141251D01*
G37*
%LPD*%
%LPC*%
G36*
X-88030Y255269D02*
X-88030Y255269D01*
X-90178Y256159D01*
X-91821Y257802D01*
X-92711Y259950D01*
X-92711Y262274D01*
X-91821Y264422D01*
X-90178Y266065D01*
X-88030Y266955D01*
X-85706Y266955D01*
X-83558Y266065D01*
X-81915Y264422D01*
X-81025Y262274D01*
X-81025Y259950D01*
X-81915Y257802D01*
X-83558Y256159D01*
X-85706Y255269D01*
X-88030Y255269D01*
G37*
%LPD*%
%LPC*%
G36*
X172320Y145033D02*
X172320Y145033D01*
X170172Y145923D01*
X168529Y147566D01*
X167639Y149714D01*
X167639Y152038D01*
X168529Y154186D01*
X170172Y155829D01*
X172320Y156719D01*
X174644Y156719D01*
X176792Y155829D01*
X178435Y154186D01*
X179325Y152038D01*
X179325Y149714D01*
X178435Y147566D01*
X176792Y145923D01*
X174644Y145033D01*
X172320Y145033D01*
G37*
%LPD*%
%LPC*%
G36*
X36430Y143763D02*
X36430Y143763D01*
X34282Y144653D01*
X32639Y146296D01*
X31749Y148444D01*
X31749Y150768D01*
X32639Y152916D01*
X34282Y154559D01*
X36430Y155449D01*
X38754Y155449D01*
X40902Y154559D01*
X42545Y152916D01*
X43435Y150768D01*
X43435Y148444D01*
X42545Y146296D01*
X40902Y144653D01*
X38754Y143763D01*
X36430Y143763D01*
G37*
%LPD*%
%LPC*%
G36*
X-45739Y128142D02*
X-45739Y128142D01*
X-47887Y129032D01*
X-49530Y130675D01*
X-50420Y132823D01*
X-50420Y135147D01*
X-49530Y137295D01*
X-47887Y138938D01*
X-45739Y139828D01*
X-43415Y139828D01*
X-41267Y138938D01*
X-39624Y137295D01*
X-38734Y135147D01*
X-38734Y132823D01*
X-39624Y130675D01*
X-41267Y129032D01*
X-43415Y128142D01*
X-45739Y128142D01*
G37*
%LPD*%
%LPC*%
G36*
X40169Y471483D02*
X40169Y471483D01*
X38125Y472330D01*
X36561Y473894D01*
X35714Y475938D01*
X35714Y478150D01*
X36561Y480194D01*
X38125Y481758D01*
X40169Y482604D01*
X42381Y482604D01*
X44425Y481758D01*
X45989Y480194D01*
X46836Y478150D01*
X46836Y475938D01*
X45989Y473894D01*
X44425Y472330D01*
X42381Y471483D01*
X40169Y471483D01*
G37*
%LPD*%
%LPC*%
G36*
X-43567Y461897D02*
X-43567Y461897D01*
X-45611Y462744D01*
X-47175Y464308D01*
X-48022Y466352D01*
X-48022Y468564D01*
X-47175Y470608D01*
X-45611Y472172D01*
X-43567Y473019D01*
X-41355Y473019D01*
X-39311Y472172D01*
X-37747Y470608D01*
X-36900Y468564D01*
X-36900Y466352D01*
X-37747Y464308D01*
X-39311Y462744D01*
X-41355Y461897D01*
X-43567Y461897D01*
G37*
%LPD*%
%LPC*%
G36*
X104971Y413031D02*
X104971Y413031D01*
X102927Y413878D01*
X101363Y415442D01*
X100516Y417486D01*
X100516Y419698D01*
X101363Y421742D01*
X102927Y423306D01*
X104971Y424153D01*
X107183Y424153D01*
X109227Y423306D01*
X110791Y421742D01*
X111637Y419698D01*
X111637Y417486D01*
X110791Y415442D01*
X109227Y413878D01*
X107183Y413031D01*
X104971Y413031D01*
G37*
%LPD*%
%LPC*%
G36*
X-38254Y357024D02*
X-38254Y357024D01*
X-40297Y357871D01*
X-41862Y359435D01*
X-42708Y361479D01*
X-42708Y363691D01*
X-41862Y365735D01*
X-40297Y367299D01*
X-38254Y368146D01*
X-36041Y368146D01*
X-33998Y367299D01*
X-32433Y365735D01*
X-31587Y363691D01*
X-31587Y361479D01*
X-32433Y359435D01*
X-33998Y357871D01*
X-36041Y357024D01*
X-38254Y357024D01*
G37*
%LPD*%
%LPC*%
G36*
X-67072Y396872D02*
X-67072Y396872D01*
X-69116Y397719D01*
X-70680Y399283D01*
X-71526Y401327D01*
X-71526Y403539D01*
X-70680Y405583D01*
X-69116Y407147D01*
X-67072Y407994D01*
X-64860Y407994D01*
X-62816Y407147D01*
X-61252Y405583D01*
X-60405Y403539D01*
X-60405Y401327D01*
X-61252Y399283D01*
X-62816Y397719D01*
X-64860Y396872D01*
X-67072Y396872D01*
G37*
%LPD*%
%LPC*%
G36*
X-35379Y339089D02*
X-35379Y339089D01*
X-38355Y342065D01*
X-38355Y346275D01*
X-35379Y349251D01*
X-31169Y349251D01*
X-28193Y346275D01*
X-28193Y342065D01*
X-31169Y339089D01*
X-35379Y339089D01*
G37*
%LPD*%
%LPC*%
G36*
X-113315Y341530D02*
X-113315Y341530D01*
X-116291Y344506D01*
X-116291Y348715D01*
X-113315Y351691D01*
X-109106Y351691D01*
X-106129Y348715D01*
X-106129Y344506D01*
X-109106Y341530D01*
X-113315Y341530D01*
G37*
%LPD*%
%LPC*%
G36*
X-21409Y366013D02*
X-21409Y366013D01*
X-24385Y368989D01*
X-24385Y373199D01*
X-21409Y376175D01*
X-17199Y376175D01*
X-14223Y373199D01*
X-14223Y368989D01*
X-17199Y366013D01*
X-21409Y366013D01*
G37*
%LPD*%
%LPC*%
G36*
X-34363Y373125D02*
X-34363Y373125D01*
X-37339Y376101D01*
X-37339Y380311D01*
X-34363Y383287D01*
X-30153Y383287D01*
X-27177Y380311D01*
X-27177Y376101D01*
X-30153Y373125D01*
X-34363Y373125D01*
G37*
%LPD*%
%LPC*%
G36*
X-1597Y362965D02*
X-1597Y362965D01*
X-4573Y365941D01*
X-4573Y370151D01*
X-1597Y373127D01*
X2613Y373127D01*
X5589Y370151D01*
X5589Y365941D01*
X2613Y362965D01*
X-1597Y362965D01*
G37*
%LPD*%
D10*
X76200Y330994D03*
X76200Y356394D03*
X76200Y381794D03*
X-111125Y392906D03*
D11*
X204470Y-635D03*
X161169Y-25635D03*
X247771Y24365D03*
X-79314Y8690D03*
X-122616Y-16310D03*
D12*
X-42461Y467458D03*
X-26194Y473075D03*
X-98203Y446913D03*
X107294Y403257D03*
X-66675Y422910D03*
D13*
X106172Y377698D03*
D12*
X20796Y475361D03*
X105124Y442849D03*
X120872Y396875D03*
X-94012Y342011D03*
X-111792Y329565D03*
X-9430Y414909D03*
X7842Y414401D03*
X-286Y393573D03*
X7334Y433197D03*
X62675Y402012D03*
X-37148Y362585D03*
X64955Y338388D03*
X41275Y477044D03*
D13*
X-19304Y371094D03*
X-94488Y357378D03*
X-111210Y346610D03*
X-32258Y378206D03*
X-96266Y366268D03*
D12*
X106077Y418592D03*
X-4008Y303968D03*
X-175260Y33020D03*
X-157480Y33020D03*
X-139700Y33020D03*
X-132080Y45720D03*
X-147320Y45720D03*
X-165100Y45720D03*
X-182880Y45720D03*
X-175260Y58420D03*
X-157480Y58420D03*
X-139700Y58420D03*
X-182880Y71120D03*
X-165100Y71120D03*
X-147320Y71120D03*
X-50800Y86360D03*
X-50800Y71120D03*
X-40640Y78740D03*
X-40640Y66040D03*
X-27940Y71120D03*
X-27940Y55880D03*
X-15240Y66040D03*
X-2540Y71120D03*
X-2540Y55880D03*
X-10160Y81280D03*
X5080Y81280D03*
X-2540Y91440D03*
X-10160Y101600D03*
X5080Y101600D03*
X87122Y85344D03*
X86360Y70358D03*
X95250Y77470D03*
X95250Y64770D03*
X107950Y69850D03*
X107950Y57150D03*
X120650Y64770D03*
X133350Y69850D03*
X134366Y57404D03*
X125730Y80010D03*
X140970Y80010D03*
X133350Y90170D03*
X125730Y100330D03*
X140970Y100330D03*
X-208280Y198628D03*
D14*
X-208280Y128778D01*
X-208534Y128524D01*
D12*
X-208534Y128524D03*
D15*
X-28716Y328676D02*
X-4008Y303968D01*
X-125222Y268732D02*
X-131572Y262382D01*
X-186182Y156210D02*
X-186182Y136144D01*
X-194056Y128270D01*
D13*
X-194056Y128270D03*
D15*
X-96266Y328676D02*
X-28716Y328676D01*
X-96266Y328676D02*
X-125222Y299720D01*
X-125222Y268732D01*
D12*
X-141986Y108204D03*
X-134620Y99822D03*
X-141732Y90424D03*
D15*
X-131572Y210820D02*
X-131572Y262382D01*
X-131572Y210820D02*
X-186182Y156210D01*
D12*
X-158750Y150368D03*
X-147066Y150622D03*
X-135636Y150114D03*
X-153670Y159004D03*
X-141478Y159004D03*
X-158496Y166878D03*
X-147320Y166878D03*
X-135382Y166624D03*
X-120904Y106172D03*
X-120650Y92202D03*
X-112522Y99060D03*
X-112268Y86868D03*
X-101854Y93726D03*
D13*
X25727Y202946D03*
X-44577Y133985D03*
X17018Y206248D03*
X-47752Y186690D03*
D12*
X-19050Y152654D03*
X-7366Y152908D03*
X4826Y152654D03*
X-13970Y161290D03*
X-1778Y161290D03*
X-18796Y169164D03*
X-7620Y169164D03*
X4318Y168910D03*
X18796Y108458D03*
X19050Y94488D03*
X27178Y101346D03*
X27432Y89154D03*
X37846Y96012D03*
D13*
X3152Y200406D03*
D16*
X3152Y166220D01*
X-1778Y161290D01*
D13*
X-254Y227838D03*
X12954Y226822D03*
D12*
X118110Y152400D03*
X129794Y152654D03*
X141986Y152400D03*
X123190Y161036D03*
X135382Y161036D03*
X118364Y168910D03*
X129540Y168910D03*
X141478Y168656D03*
X154432Y108204D03*
X154686Y94234D03*
X162814Y101092D03*
X163068Y88900D03*
X173482Y95758D03*
D13*
X-33782Y202946D03*
D17*
X-26543Y195707D01*
X81534Y150368D02*
X116078Y150368D01*
X118110Y152400D01*
X81534Y150368D02*
X46990Y184912D01*
D18*
X-9017Y195707D02*
X-26543Y195707D01*
X-2818Y201907D02*
X-2818Y202879D01*
X-2794Y202902D01*
X-2794Y205232D01*
X0Y208026D01*
X36576Y195326D02*
X46990Y184912D01*
X-2818Y201907D02*
X-9017Y195707D01*
X0Y208026D02*
X5588Y208026D01*
X18288Y195326D01*
X36576Y195326D01*
D13*
X-32639Y214249D03*
D18*
X-30353Y216535D01*
X29083Y216535D01*
X49276Y196342D01*
X71882Y196342D01*
X107950Y160274D02*
X109220Y160274D01*
D13*
X109220Y160274D03*
D18*
X107950Y160274D02*
X71882Y196342D01*
D13*
X-9144Y205232D03*
D18*
X-1397Y212979D01*
X26797Y212979D01*
X47498Y192278D01*
D19*
X55372Y184404D01*
X62992Y184404D01*
D13*
X62992Y184404D03*
D12*
X-120396Y147574D03*
X-168148Y135128D03*
D13*
X-95504Y146812D03*
D12*
X-65966Y402433D03*
X3493Y252254D03*
X15240Y242570D03*
X15240Y262255D03*
X-85344Y90170D03*
X-73152Y90170D03*
X-78994Y81534D03*
X-65532Y81280D03*
X-62992Y94234D03*
X55880Y93472D03*
X69088Y94234D03*
X62738Y86106D03*
X74676Y86106D03*
X194818Y93980D03*
X207264Y94234D03*
X202184Y85344D03*
X216408Y85344D03*
X223012Y94488D03*
X232410Y86360D03*
X-42672Y110744D03*
X-32512Y122428D03*
X-180340Y108966D03*
X-179324Y122174D03*
X93218Y110490D03*
X100076Y121920D03*
X-254000Y172244D03*
X-244602Y186944D03*
X-254508Y158242D03*
X-241300Y139446D03*
X-207010Y213360D03*
X-223266Y204216D03*
X127254Y243332D03*
X111125Y278130D03*
X120142Y306070D03*
X89916Y206756D03*
X222758Y205486D03*
X168910Y234950D03*
D13*
X30480Y259080D03*
X-91694Y185166D03*
X226568Y111506D03*
X226314Y164338D03*
X93472Y159258D03*
X-175260Y154940D03*
X-150876Y203454D03*
X-33274Y344170D03*
X508Y368046D03*
X-75184Y262128D03*
X-48260Y160020D03*
X78359Y283972D03*
X-292100Y86360D03*
X-292100Y68580D03*
X-292100Y50800D03*
X-292100Y30480D03*
X-292100Y10160D03*
X-274320Y-2540D03*
X-259080Y-12700D03*
X-243840Y-22860D03*
X-243840Y-5080D03*
X-261620Y0D03*
X-279400Y20320D03*
X-279400Y60960D03*
X-264160Y68580D03*
X-264160Y50800D03*
X-279400Y43180D03*
X-264160Y30480D03*
X-243840Y30480D03*
D12*
X-71882Y306832D03*
D13*
X-171196Y239522D03*
X-139446Y286258D03*
X-143002Y255524D03*
X241300Y196088D03*
X262382Y184150D03*
X286258Y170942D03*
X287274Y148590D03*
X287274Y127000D03*
X287274Y104394D03*
X286766Y84074D03*
X254762Y116840D03*
X254254Y152654D03*
X63500Y258826D03*
D12*
X43688Y318135D03*
X20828Y150368D03*
X-26670Y132842D03*
X153670Y149860D03*
X106680Y136906D03*
X87884Y235966D03*
X129032Y297942D03*
D13*
X-87122Y170688D03*
X201422Y177800D03*
X-54864Y213106D03*
X-118110Y201676D03*
X83058Y308864D03*
X-111760Y292608D03*
X43688Y297434D03*
D15*
X-86106Y318262D02*
X-111760Y292608D01*
X-86106Y318262D02*
X-37338Y318262D01*
X-13208Y294132D01*
X39922Y308864D02*
X43688Y308864D01*
X83058Y308864D01*
X39922Y308864D02*
X37128Y311658D01*
X3048Y294132D02*
X-13208Y294132D01*
X3048Y294132D02*
X20574Y311658D01*
X37128Y311658D01*
X43688Y308864D02*
X43688Y297434D01*
X-111760Y292608D02*
X-111760Y241554D01*
X-118110Y235204D02*
X-118110Y219710D01*
X-118110Y201676D01*
X-118110Y235204D02*
X-111760Y241554D01*
D14*
X87884Y235966D02*
X129032Y277114D01*
X129032Y297942D01*
D15*
X106934Y235966D02*
X87884Y235966D01*
X153924Y225298D02*
X201422Y177800D01*
X117602Y225298D02*
X106934Y235966D01*
X117602Y225298D02*
X153924Y225298D01*
X-84328Y219710D02*
X-118110Y219710D01*
X-77724Y213106D02*
X-54864Y213106D01*
X-77724Y213106D02*
X-84328Y219710D01*
D14*
X-77724Y213106D02*
X-77724Y180086D01*
X-87122Y170688D01*
D13*
X37592Y149606D03*
X173482Y150876D03*
X-44196Y234442D03*
X-49530Y241808D03*
X-54483Y269367D03*
X-42418Y224790D03*
D19*
X-19558Y224790D01*
X216154Y144018D02*
X227584Y144018D01*
X227584Y144272D01*
D13*
X227584Y144272D03*
D19*
X-15240Y220472D02*
X-19558Y224790D01*
X-15240Y220472D02*
X32258Y220472D01*
X50292Y202438D01*
X71120Y202438D01*
X84963Y188595D01*
X110236Y180086D02*
X180086Y180086D01*
X216154Y144018D01*
D18*
X101727Y188595D02*
X84963Y188595D01*
X101727Y188595D02*
X110236Y180086D01*
D13*
X33987Y301600D03*
X30988Y269676D03*
X80010Y177292D03*
X40005Y287909D03*
D18*
X4699Y287909D01*
X-16256Y266954D01*
X-47244Y217424D02*
X-66802Y236982D01*
X-47498Y266954D02*
X-16256Y266954D01*
X-47498Y266954D02*
X-51308Y263144D01*
X-59182Y263144D01*
X-66802Y255524D01*
X-66802Y236982D01*
X-47244Y217424D02*
X-47244Y197358D01*
X-48006Y196596D01*
D13*
X-48006Y196596D03*
X-54864Y280162D03*
X25579Y298652D03*
X50292Y271399D03*
X-45309Y273207D03*
X102616Y178054D03*
X213741Y174879D03*
X53594Y230886D03*
X45720Y429514D03*
D18*
X113538Y290830D02*
X53594Y230886D01*
X63500Y411734D02*
X46990Y428244D01*
X45720Y429514D01*
X113538Y317754D02*
X113538Y290830D01*
X113538Y317754D02*
X99060Y332232D01*
X99060Y387604D01*
X74930Y411734D01*
X63500Y411734D01*
D12*
X36124Y368200D03*
D18*
X36124Y417378D01*
X46990Y428244D01*
D13*
X53721Y239903D03*
X46482Y401850D03*
D18*
X54632Y393700D01*
X84836Y393700D01*
X93218Y385318D01*
X93218Y331978D01*
X109982Y315214D01*
X109982Y293370D01*
X68326Y251714D01*
X65532Y251714D01*
X53721Y239903D01*
D12*
X45466Y369062D03*
D18*
X45466Y400834D01*
X46482Y401850D01*
D12*
X138684Y267716D03*
D13*
X103632Y309118D03*
D18*
X103632Y293878D01*
X99822Y290068D01*
X64008Y290068D01*
X-13462Y262382D02*
X-46482Y262382D01*
X-52070Y256794D01*
X55626Y281686D02*
X64008Y290068D01*
X55626Y281686D02*
X5842Y281686D01*
X-13462Y262382D01*
D13*
X-52070Y256794D03*
D18*
X8636Y277876D02*
X55118Y277876D01*
X-41910Y254762D02*
X-42418Y255270D01*
D12*
X-42418Y255270D03*
D18*
X-14478Y254762D02*
X8636Y277876D01*
X-14478Y254762D02*
X-41910Y254762D01*
X55118Y277876D02*
X59182Y273812D01*
D13*
X84582Y277114D03*
D18*
X81280Y273812D01*
X59182Y273812D01*
D13*
X-32512Y299974D03*
X-51816Y292862D03*
D12*
X138684Y237998D03*
X150368Y213360D03*
X87376Y296672D03*
X110744Y189484D03*
X95250Y303530D03*
X150368Y190246D03*
X91948Y195326D03*
X150368Y201930D03*
D18*
X98552Y201930D02*
X91948Y195326D01*
X98552Y201930D02*
X150368Y201930D01*
D13*
X-86868Y261112D03*
D12*
X89916Y224536D03*
D13*
X-141977Y235966D03*
X-196596Y155194D03*
D15*
X-196596Y166116D01*
X-163830Y214113D02*
X-141977Y235966D01*
X-163830Y198882D02*
X-196596Y166116D01*
X-163830Y198882D02*
X-163830Y214113D01*
D13*
X-163830Y198882D03*
X-111252Y192278D03*
D12*
X55245Y320675D03*
D13*
X53848Y211836D03*
X50800Y219964D03*
X50045Y247911D03*
X-104140Y201422D03*
M02*
