G04 EAGLE Gerber RS-274X export*
G75*
%MOMM*%
%FSLAX34Y34*%
%LPD*%
%INCopper Layer 15*%
%IPPOS*%
%AMOC8*
5,1,8,0,0,1.08239X$1,22.5*%
G01*
%ADD10C,1.524000*%
%ADD11C,1.308000*%
%ADD12C,1.950000*%
%ADD13C,0.756400*%
%ADD14C,0.660400*%
%ADD15C,0.635000*%

G36*
X-149942Y-83044D02*
X-149942Y-83044D01*
X-149886Y-83046D01*
X-149821Y-83027D01*
X-149754Y-83018D01*
X-149682Y-82986D01*
X-149650Y-82977D01*
X-149633Y-82965D01*
X-149601Y-82950D01*
X-37011Y-17949D01*
X-36899Y-17857D01*
X-36821Y-17793D01*
X-36741Y-17666D01*
X-36690Y-17585D01*
X-36660Y-17460D01*
X-36633Y-17346D01*
X-36633Y-17345D01*
X-36641Y-17252D01*
X-36654Y-17101D01*
X-36654Y-17100D01*
X-36703Y-16990D01*
X-36753Y-16876D01*
X-36753Y-16875D01*
X-36754Y-16874D01*
X-36859Y-16746D01*
X-52904Y-1020D01*
X-52944Y-992D01*
X-52978Y-957D01*
X-53044Y-922D01*
X-53106Y-879D01*
X-53152Y-865D01*
X-53196Y-842D01*
X-53300Y-820D01*
X-54026Y72D01*
X-54047Y91D01*
X-54083Y135D01*
X-54905Y940D01*
X-54904Y976D01*
X-54926Y1047D01*
X-54939Y1121D01*
X-54962Y1164D01*
X-54977Y1210D01*
X-55045Y1316D01*
X-55056Y1337D01*
X-55061Y1342D01*
X-55068Y1351D01*
X-65168Y13756D01*
X-65189Y13774D01*
X-65220Y13813D01*
X-69019Y17612D01*
X-69037Y17625D01*
X-69063Y17653D01*
X-70874Y19199D01*
X-70902Y19216D01*
X-70970Y19270D01*
X-71519Y19606D01*
X-72761Y20367D01*
X-72864Y20430D01*
X-72894Y20442D01*
X-72970Y20484D01*
X-75022Y21334D01*
X-75054Y21342D01*
X-75136Y21371D01*
X-77295Y21889D01*
X-77328Y21892D01*
X-77413Y21908D01*
X-79787Y22095D01*
X-79809Y22093D01*
X-79847Y22097D01*
X-81720Y22097D01*
X-81742Y22094D01*
X-81780Y22095D01*
X-83030Y21997D01*
X-83062Y21989D01*
X-83148Y21978D01*
X-84212Y21722D01*
X-84242Y21710D01*
X-84326Y21686D01*
X-85336Y21267D01*
X-85364Y21249D01*
X-85443Y21213D01*
X-86376Y20641D01*
X-86400Y20620D01*
X-86472Y20571D01*
X-87426Y19756D01*
X-87440Y19740D01*
X-87470Y19716D01*
X-88343Y18842D01*
X-88374Y18832D01*
X-88436Y18822D01*
X-88490Y18793D01*
X-88548Y18773D01*
X-88564Y18762D01*
X-89792Y18859D01*
X-89814Y18857D01*
X-89852Y18861D01*
X-91087Y18861D01*
X-91117Y18876D01*
X-91167Y18912D01*
X-91226Y18930D01*
X-91281Y18958D01*
X-91300Y18961D01*
X-92100Y19898D01*
X-92117Y19912D01*
X-92140Y19942D01*
X-127763Y55564D01*
X-127763Y96028D01*
X-127778Y96124D01*
X-127788Y96221D01*
X-127798Y96245D01*
X-127802Y96271D01*
X-127848Y96356D01*
X-127888Y96446D01*
X-127905Y96465D01*
X-127918Y96488D01*
X-127988Y96555D01*
X-128054Y96627D01*
X-128077Y96639D01*
X-128096Y96657D01*
X-128184Y96698D01*
X-128270Y96745D01*
X-128295Y96750D01*
X-128319Y96761D01*
X-128416Y96772D01*
X-128512Y96789D01*
X-128538Y96785D01*
X-128563Y96788D01*
X-128659Y96767D01*
X-128755Y96753D01*
X-128778Y96741D01*
X-128804Y96736D01*
X-128888Y96686D01*
X-128974Y96642D01*
X-128993Y96623D01*
X-129015Y96610D01*
X-129078Y96535D01*
X-129146Y96466D01*
X-129162Y96438D01*
X-129175Y96423D01*
X-129187Y96392D01*
X-129227Y96319D01*
X-129260Y96240D01*
X-131038Y94462D01*
X-133362Y93499D01*
X-135023Y93499D01*
X-135068Y93492D01*
X-135114Y93494D01*
X-135189Y93472D01*
X-135266Y93460D01*
X-135306Y93438D01*
X-135350Y93425D01*
X-135414Y93381D01*
X-135483Y93344D01*
X-135515Y93311D01*
X-135552Y93285D01*
X-135599Y93223D01*
X-135652Y93166D01*
X-135672Y93124D01*
X-135699Y93088D01*
X-135723Y93014D01*
X-135756Y92943D01*
X-135761Y92897D01*
X-135775Y92854D01*
X-135775Y92776D01*
X-135783Y92699D01*
X-135773Y92654D01*
X-135773Y92608D01*
X-135735Y92476D01*
X-135731Y92458D01*
X-135728Y92454D01*
X-135726Y92447D01*
X-135409Y91682D01*
X-135409Y89166D01*
X-136372Y86842D01*
X-138150Y85064D01*
X-140474Y84101D01*
X-142990Y84101D01*
X-145314Y85064D01*
X-147092Y86842D01*
X-148055Y89166D01*
X-148055Y91682D01*
X-147092Y94006D01*
X-145314Y95784D01*
X-142990Y96747D01*
X-141329Y96747D01*
X-141284Y96754D01*
X-141238Y96752D01*
X-141163Y96774D01*
X-141086Y96786D01*
X-141046Y96808D01*
X-141002Y96821D01*
X-140938Y96865D01*
X-140869Y96902D01*
X-140837Y96935D01*
X-140800Y96961D01*
X-140753Y97023D01*
X-140700Y97080D01*
X-140680Y97122D01*
X-140653Y97158D01*
X-140629Y97232D01*
X-140596Y97303D01*
X-140591Y97349D01*
X-140577Y97392D01*
X-140577Y97470D01*
X-140569Y97547D01*
X-140579Y97592D01*
X-140579Y97638D01*
X-140617Y97770D01*
X-140621Y97788D01*
X-140624Y97792D01*
X-140626Y97799D01*
X-140943Y98564D01*
X-140943Y101120D01*
X-140946Y101140D01*
X-140944Y101159D01*
X-140966Y101261D01*
X-140982Y101363D01*
X-140992Y101380D01*
X-140996Y101400D01*
X-141049Y101489D01*
X-141098Y101580D01*
X-141112Y101594D01*
X-141122Y101611D01*
X-141201Y101678D01*
X-141276Y101750D01*
X-141294Y101758D01*
X-141309Y101771D01*
X-141405Y101810D01*
X-141499Y101853D01*
X-141519Y101855D01*
X-141537Y101863D01*
X-141704Y101881D01*
X-143244Y101881D01*
X-145568Y102844D01*
X-147346Y104622D01*
X-148309Y106946D01*
X-148309Y109462D01*
X-147346Y111786D01*
X-145568Y113564D01*
X-143244Y114527D01*
X-140728Y114527D01*
X-138404Y113564D01*
X-136626Y111786D01*
X-135663Y109462D01*
X-135663Y106906D01*
X-135660Y106886D01*
X-135662Y106867D01*
X-135640Y106765D01*
X-135624Y106663D01*
X-135614Y106646D01*
X-135610Y106626D01*
X-135557Y106537D01*
X-135508Y106446D01*
X-135494Y106432D01*
X-135484Y106415D01*
X-135405Y106348D01*
X-135330Y106276D01*
X-135312Y106268D01*
X-135297Y106255D01*
X-135201Y106216D01*
X-135107Y106173D01*
X-135087Y106171D01*
X-135069Y106163D01*
X-134902Y106145D01*
X-133362Y106145D01*
X-131038Y105182D01*
X-129260Y103404D01*
X-129227Y103325D01*
X-129176Y103242D01*
X-129130Y103156D01*
X-129112Y103138D01*
X-129098Y103116D01*
X-129023Y103054D01*
X-128952Y102987D01*
X-128928Y102976D01*
X-128908Y102959D01*
X-128817Y102924D01*
X-128729Y102883D01*
X-128703Y102880D01*
X-128679Y102871D01*
X-128581Y102867D01*
X-128485Y102856D01*
X-128459Y102862D01*
X-128433Y102860D01*
X-128339Y102888D01*
X-128244Y102908D01*
X-128222Y102922D01*
X-128197Y102929D01*
X-128117Y102984D01*
X-128033Y103034D01*
X-128016Y103054D01*
X-127995Y103069D01*
X-127936Y103147D01*
X-127873Y103221D01*
X-127863Y103246D01*
X-127848Y103267D01*
X-127818Y103359D01*
X-127781Y103449D01*
X-127778Y103482D01*
X-127772Y103500D01*
X-127772Y103533D01*
X-127763Y103616D01*
X-127763Y121510D01*
X-125828Y123445D01*
X-101248Y123445D01*
X-93725Y115922D01*
X-93725Y79661D01*
X-93711Y79571D01*
X-93703Y79480D01*
X-93691Y79451D01*
X-93686Y79419D01*
X-93643Y79338D01*
X-93607Y79254D01*
X-93581Y79222D01*
X-93570Y79201D01*
X-93547Y79179D01*
X-93502Y79123D01*
X-92327Y77948D01*
X-92253Y77895D01*
X-92184Y77835D01*
X-92153Y77823D01*
X-92127Y77804D01*
X-92040Y77777D01*
X-91955Y77743D01*
X-91914Y77739D01*
X-91892Y77732D01*
X-91860Y77733D01*
X-91789Y77725D01*
X-66958Y77725D01*
X-64800Y75567D01*
X-58422Y69189D01*
X-58364Y69147D01*
X-58312Y69098D01*
X-58265Y69076D01*
X-58223Y69045D01*
X-58154Y69024D01*
X-58089Y68994D01*
X-58037Y68988D01*
X-57987Y68973D01*
X-57916Y68975D01*
X-57845Y68967D01*
X-57794Y68978D01*
X-57742Y68979D01*
X-57674Y69004D01*
X-57604Y69019D01*
X-57559Y69046D01*
X-57511Y69064D01*
X-57455Y69109D01*
X-57393Y69146D01*
X-57359Y69185D01*
X-57319Y69218D01*
X-57280Y69278D01*
X-57233Y69332D01*
X-57214Y69381D01*
X-57186Y69425D01*
X-57168Y69494D01*
X-57141Y69561D01*
X-57133Y69632D01*
X-57125Y69663D01*
X-57127Y69686D01*
X-57123Y69727D01*
X-57123Y72378D01*
X-56160Y74702D01*
X-54382Y76480D01*
X-52058Y77443D01*
X-49542Y77443D01*
X-48015Y76810D01*
X-47971Y76800D01*
X-47929Y76780D01*
X-47852Y76772D01*
X-47776Y76754D01*
X-47730Y76758D01*
X-47685Y76753D01*
X-47608Y76770D01*
X-47531Y76777D01*
X-47489Y76796D01*
X-47444Y76806D01*
X-47377Y76846D01*
X-47306Y76877D01*
X-47272Y76908D01*
X-47233Y76932D01*
X-47182Y76991D01*
X-47125Y77044D01*
X-47103Y77084D01*
X-47073Y77119D01*
X-47044Y77191D01*
X-47007Y77259D01*
X-46998Y77304D01*
X-46981Y77347D01*
X-46966Y77483D01*
X-46963Y77501D01*
X-46964Y77506D01*
X-46963Y77514D01*
X-46963Y79966D01*
X-46970Y80012D01*
X-46968Y80058D01*
X-46990Y80133D01*
X-47002Y80209D01*
X-47024Y80250D01*
X-47037Y80294D01*
X-47081Y80358D01*
X-47118Y80427D01*
X-47151Y80458D01*
X-47177Y80496D01*
X-47240Y80542D01*
X-47296Y80596D01*
X-47338Y80615D01*
X-47374Y80643D01*
X-47448Y80667D01*
X-47519Y80700D01*
X-47565Y80705D01*
X-47608Y80719D01*
X-47686Y80718D01*
X-47763Y80727D01*
X-47808Y80717D01*
X-47854Y80717D01*
X-47986Y80678D01*
X-48004Y80674D01*
X-48008Y80672D01*
X-48015Y80670D01*
X-49542Y80037D01*
X-52058Y80037D01*
X-54382Y81000D01*
X-56160Y82778D01*
X-57123Y85102D01*
X-57123Y87618D01*
X-56160Y89942D01*
X-54382Y91720D01*
X-52058Y92683D01*
X-49542Y92683D01*
X-47218Y91720D01*
X-45440Y89942D01*
X-44477Y87618D01*
X-44477Y85134D01*
X-44470Y85088D01*
X-44472Y85042D01*
X-44450Y84967D01*
X-44438Y84891D01*
X-44416Y84850D01*
X-44403Y84806D01*
X-44359Y84742D01*
X-44322Y84673D01*
X-44289Y84642D01*
X-44263Y84604D01*
X-44200Y84558D01*
X-44144Y84504D01*
X-44102Y84485D01*
X-44066Y84457D01*
X-43992Y84433D01*
X-43921Y84400D01*
X-43875Y84395D01*
X-43832Y84381D01*
X-43754Y84382D01*
X-43677Y84373D01*
X-43632Y84383D01*
X-43586Y84383D01*
X-43454Y84422D01*
X-43436Y84426D01*
X-43432Y84428D01*
X-43425Y84430D01*
X-41898Y85063D01*
X-39382Y85063D01*
X-37058Y84100D01*
X-35280Y82322D01*
X-34317Y79998D01*
X-34317Y77482D01*
X-35280Y75158D01*
X-37058Y73380D01*
X-37750Y73093D01*
X-37811Y73056D01*
X-37877Y73026D01*
X-37915Y72991D01*
X-37959Y72964D01*
X-38005Y72909D01*
X-38058Y72860D01*
X-38083Y72814D01*
X-38116Y72774D01*
X-38142Y72707D01*
X-38176Y72644D01*
X-38186Y72593D01*
X-38204Y72545D01*
X-38207Y72473D01*
X-38220Y72402D01*
X-38213Y72351D01*
X-38215Y72299D01*
X-38195Y72230D01*
X-38184Y72159D01*
X-38161Y72113D01*
X-38146Y72063D01*
X-38105Y72004D01*
X-38073Y71940D01*
X-38036Y71903D01*
X-38006Y71861D01*
X-37948Y71818D01*
X-37897Y71768D01*
X-37834Y71733D01*
X-37809Y71714D01*
X-37786Y71707D01*
X-37750Y71687D01*
X-37058Y71400D01*
X-35562Y69904D01*
X-35504Y69862D01*
X-35452Y69813D01*
X-35405Y69791D01*
X-35363Y69760D01*
X-35294Y69739D01*
X-35229Y69709D01*
X-35177Y69703D01*
X-35127Y69688D01*
X-35056Y69690D01*
X-34985Y69682D01*
X-34934Y69693D01*
X-34882Y69694D01*
X-34814Y69719D01*
X-34744Y69734D01*
X-34699Y69761D01*
X-34651Y69779D01*
X-34595Y69824D01*
X-34533Y69860D01*
X-34499Y69900D01*
X-34459Y69933D01*
X-34420Y69993D01*
X-34373Y70047D01*
X-34354Y70096D01*
X-34326Y70139D01*
X-34308Y70209D01*
X-34281Y70276D01*
X-34273Y70347D01*
X-34265Y70378D01*
X-34267Y70401D01*
X-34263Y70442D01*
X-34263Y72378D01*
X-33300Y74702D01*
X-31522Y76480D01*
X-29198Y77443D01*
X-26682Y77443D01*
X-24358Y76480D01*
X-22580Y74702D01*
X-21617Y72378D01*
X-21617Y70442D01*
X-21606Y70372D01*
X-21604Y70300D01*
X-21586Y70251D01*
X-21578Y70199D01*
X-21544Y70136D01*
X-21519Y70069D01*
X-21487Y70028D01*
X-21462Y69982D01*
X-21410Y69933D01*
X-21366Y69877D01*
X-21322Y69849D01*
X-21284Y69813D01*
X-21219Y69783D01*
X-21159Y69744D01*
X-21108Y69731D01*
X-21061Y69709D01*
X-20990Y69701D01*
X-20920Y69684D01*
X-20868Y69688D01*
X-20817Y69682D01*
X-20746Y69697D01*
X-20675Y69703D01*
X-20627Y69723D01*
X-20576Y69734D01*
X-20515Y69771D01*
X-20449Y69799D01*
X-20393Y69844D01*
X-20365Y69860D01*
X-20350Y69878D01*
X-20318Y69904D01*
X-18822Y71400D01*
X-16498Y72363D01*
X-13982Y72363D01*
X-11658Y71400D01*
X-10162Y69904D01*
X-10104Y69862D01*
X-10052Y69813D01*
X-10005Y69791D01*
X-9963Y69760D01*
X-9894Y69739D01*
X-9829Y69709D01*
X-9777Y69703D01*
X-9727Y69688D01*
X-9656Y69690D01*
X-9585Y69682D01*
X-9534Y69693D01*
X-9482Y69694D01*
X-9414Y69719D01*
X-9344Y69734D01*
X-9299Y69761D01*
X-9251Y69779D01*
X-9195Y69824D01*
X-9133Y69860D01*
X-9099Y69900D01*
X-9059Y69933D01*
X-9020Y69993D01*
X-8973Y70047D01*
X-8954Y70096D01*
X-8926Y70139D01*
X-8908Y70209D01*
X-8881Y70276D01*
X-8873Y70347D01*
X-8865Y70378D01*
X-8867Y70401D01*
X-8863Y70442D01*
X-8863Y72378D01*
X-8230Y73905D01*
X-8220Y73949D01*
X-8200Y73991D01*
X-8192Y74068D01*
X-8174Y74144D01*
X-8178Y74190D01*
X-8173Y74235D01*
X-8190Y74312D01*
X-8197Y74389D01*
X-8216Y74431D01*
X-8226Y74476D01*
X-8266Y74543D01*
X-8297Y74614D01*
X-8328Y74648D01*
X-8352Y74687D01*
X-8411Y74738D01*
X-8464Y74795D01*
X-8504Y74817D01*
X-8539Y74847D01*
X-8611Y74876D01*
X-8679Y74913D01*
X-8724Y74922D01*
X-8767Y74939D01*
X-8903Y74954D01*
X-8921Y74957D01*
X-8926Y74956D01*
X-8934Y74957D01*
X-11418Y74957D01*
X-13742Y75920D01*
X-15520Y77698D01*
X-16483Y80022D01*
X-16483Y82538D01*
X-15520Y84862D01*
X-13742Y86640D01*
X-11418Y87603D01*
X-8934Y87603D01*
X-8888Y87610D01*
X-8842Y87608D01*
X-8767Y87630D01*
X-8691Y87642D01*
X-8650Y87664D01*
X-8606Y87677D01*
X-8542Y87721D01*
X-8473Y87758D01*
X-8442Y87791D01*
X-8404Y87817D01*
X-8358Y87880D01*
X-8304Y87936D01*
X-8285Y87978D01*
X-8257Y88014D01*
X-8233Y88088D01*
X-8200Y88159D01*
X-8195Y88205D01*
X-8181Y88248D01*
X-8182Y88326D01*
X-8173Y88403D01*
X-8183Y88448D01*
X-8183Y88494D01*
X-8222Y88626D01*
X-8226Y88644D01*
X-8228Y88648D01*
X-8230Y88655D01*
X-8863Y90182D01*
X-8863Y92698D01*
X-8230Y94225D01*
X-8220Y94269D01*
X-8200Y94311D01*
X-8192Y94388D01*
X-8174Y94464D01*
X-8178Y94510D01*
X-8173Y94555D01*
X-8190Y94632D01*
X-8197Y94709D01*
X-8216Y94751D01*
X-8226Y94796D01*
X-8266Y94863D01*
X-8297Y94934D01*
X-8328Y94968D01*
X-8352Y95007D01*
X-8411Y95058D01*
X-8464Y95115D01*
X-8504Y95137D01*
X-8539Y95167D01*
X-8611Y95196D01*
X-8679Y95233D01*
X-8724Y95242D01*
X-8767Y95259D01*
X-8903Y95274D01*
X-8921Y95277D01*
X-8926Y95276D01*
X-8934Y95277D01*
X-11418Y95277D01*
X-13742Y96240D01*
X-15520Y98018D01*
X-16483Y100342D01*
X-16483Y102858D01*
X-15520Y105182D01*
X-13742Y106960D01*
X-11418Y107923D01*
X-8902Y107923D01*
X-6578Y106960D01*
X-4800Y105182D01*
X-3837Y102858D01*
X-3837Y100342D01*
X-4470Y98815D01*
X-4480Y98771D01*
X-4500Y98729D01*
X-4508Y98652D01*
X-4526Y98576D01*
X-4522Y98530D01*
X-4527Y98485D01*
X-4510Y98408D01*
X-4503Y98331D01*
X-4484Y98289D01*
X-4474Y98244D01*
X-4434Y98177D01*
X-4403Y98106D01*
X-4372Y98072D01*
X-4348Y98033D01*
X-4289Y97982D01*
X-4236Y97925D01*
X-4196Y97903D01*
X-4161Y97873D01*
X-4089Y97844D01*
X-4021Y97807D01*
X-3976Y97798D01*
X-3933Y97781D01*
X-3797Y97766D01*
X-3779Y97763D01*
X-3774Y97764D01*
X-3766Y97763D01*
X-1314Y97763D01*
X-1268Y97770D01*
X-1222Y97768D01*
X-1147Y97790D01*
X-1071Y97802D01*
X-1030Y97824D01*
X-986Y97837D01*
X-922Y97881D01*
X-853Y97918D01*
X-822Y97951D01*
X-784Y97977D01*
X-738Y98040D01*
X-684Y98096D01*
X-665Y98138D01*
X-637Y98174D01*
X-613Y98248D01*
X-580Y98319D01*
X-575Y98365D01*
X-561Y98408D01*
X-562Y98486D01*
X-553Y98563D01*
X-563Y98608D01*
X-563Y98654D01*
X-602Y98786D01*
X-606Y98804D01*
X-608Y98808D01*
X-610Y98815D01*
X-1243Y100342D01*
X-1243Y102858D01*
X-280Y105182D01*
X1498Y106960D01*
X3822Y107923D01*
X6338Y107923D01*
X8662Y106960D01*
X10440Y105182D01*
X10473Y105103D01*
X10524Y105020D01*
X10570Y104934D01*
X10588Y104916D01*
X10602Y104894D01*
X10677Y104832D01*
X10748Y104765D01*
X10772Y104754D01*
X10792Y104737D01*
X10883Y104702D01*
X10971Y104661D01*
X10997Y104658D01*
X11021Y104649D01*
X11119Y104645D01*
X11215Y104634D01*
X11241Y104640D01*
X11267Y104638D01*
X11361Y104666D01*
X11456Y104686D01*
X11478Y104700D01*
X11503Y104707D01*
X11583Y104762D01*
X11667Y104812D01*
X11684Y104832D01*
X11705Y104847D01*
X11764Y104925D01*
X11827Y104999D01*
X11837Y105024D01*
X11852Y105045D01*
X11882Y105137D01*
X11919Y105227D01*
X11922Y105260D01*
X11928Y105278D01*
X11928Y105311D01*
X11937Y105394D01*
X11937Y123034D01*
X13872Y124969D01*
X41246Y124969D01*
X47499Y118716D01*
X47499Y87281D01*
X47513Y87191D01*
X47521Y87100D01*
X47533Y87071D01*
X47538Y87039D01*
X47581Y86958D01*
X47617Y86874D01*
X47643Y86842D01*
X47654Y86821D01*
X47677Y86799D01*
X47722Y86743D01*
X53215Y81250D01*
X53289Y81197D01*
X53358Y81137D01*
X53389Y81125D01*
X53415Y81106D01*
X53502Y81079D01*
X53587Y81045D01*
X53628Y81041D01*
X53650Y81034D01*
X53682Y81035D01*
X53753Y81027D01*
X74520Y81027D01*
X80765Y74782D01*
X80781Y74770D01*
X80794Y74754D01*
X80881Y74698D01*
X80965Y74638D01*
X80984Y74632D01*
X81001Y74621D01*
X81101Y74596D01*
X81200Y74566D01*
X81220Y74566D01*
X81239Y74561D01*
X81342Y74569D01*
X81446Y74572D01*
X81465Y74579D01*
X81485Y74580D01*
X81579Y74621D01*
X81677Y74656D01*
X81693Y74669D01*
X81711Y74677D01*
X81842Y74782D01*
X82778Y75718D01*
X85102Y76681D01*
X87618Y76681D01*
X87875Y76574D01*
X87919Y76564D01*
X87961Y76544D01*
X88038Y76536D01*
X88114Y76518D01*
X88160Y76522D01*
X88205Y76517D01*
X88282Y76534D01*
X88359Y76541D01*
X88401Y76560D01*
X88446Y76570D01*
X88513Y76610D01*
X88584Y76641D01*
X88618Y76672D01*
X88657Y76696D01*
X88708Y76755D01*
X88765Y76808D01*
X88787Y76848D01*
X88817Y76883D01*
X88846Y76955D01*
X88883Y77023D01*
X88892Y77068D01*
X88909Y77111D01*
X88924Y77247D01*
X88927Y77265D01*
X88926Y77270D01*
X88927Y77278D01*
X88927Y78260D01*
X88924Y78280D01*
X88926Y78299D01*
X88904Y78401D01*
X88888Y78503D01*
X88878Y78520D01*
X88874Y78540D01*
X88821Y78629D01*
X88772Y78720D01*
X88758Y78734D01*
X88748Y78751D01*
X88669Y78818D01*
X88594Y78890D01*
X88576Y78898D01*
X88561Y78911D01*
X88465Y78950D01*
X88371Y78993D01*
X88351Y78995D01*
X88333Y79003D01*
X88166Y79021D01*
X85864Y79021D01*
X83540Y79984D01*
X81762Y81762D01*
X80799Y84086D01*
X80799Y86602D01*
X81762Y88926D01*
X83540Y90704D01*
X85864Y91667D01*
X88380Y91667D01*
X90704Y90704D01*
X92482Y88926D01*
X93445Y86602D01*
X93445Y84554D01*
X93448Y84534D01*
X93446Y84515D01*
X93468Y84413D01*
X93484Y84311D01*
X93494Y84294D01*
X93498Y84274D01*
X93551Y84185D01*
X93600Y84094D01*
X93614Y84080D01*
X93624Y84063D01*
X93703Y83996D01*
X93778Y83924D01*
X93796Y83916D01*
X93811Y83903D01*
X93907Y83864D01*
X94001Y83821D01*
X94021Y83819D01*
X94039Y83811D01*
X94206Y83793D01*
X96508Y83793D01*
X98832Y82830D01*
X100610Y81052D01*
X101573Y78728D01*
X101573Y76212D01*
X100610Y73888D01*
X98832Y72110D01*
X98140Y71823D01*
X98079Y71786D01*
X98013Y71756D01*
X97975Y71721D01*
X97931Y71694D01*
X97885Y71638D01*
X97832Y71590D01*
X97807Y71544D01*
X97774Y71504D01*
X97748Y71437D01*
X97714Y71374D01*
X97704Y71323D01*
X97686Y71275D01*
X97683Y71203D01*
X97670Y71132D01*
X97677Y71081D01*
X97675Y71029D01*
X97695Y70960D01*
X97706Y70889D01*
X97729Y70843D01*
X97744Y70793D01*
X97785Y70734D01*
X97817Y70670D01*
X97854Y70633D01*
X97884Y70591D01*
X97941Y70548D01*
X97993Y70498D01*
X98056Y70463D01*
X98081Y70444D01*
X98104Y70437D01*
X98140Y70417D01*
X98832Y70130D01*
X100328Y68634D01*
X100386Y68592D01*
X100438Y68543D01*
X100485Y68521D01*
X100527Y68490D01*
X100596Y68469D01*
X100661Y68439D01*
X100713Y68433D01*
X100763Y68418D01*
X100834Y68420D01*
X100905Y68412D01*
X100956Y68423D01*
X101008Y68424D01*
X101076Y68449D01*
X101146Y68464D01*
X101191Y68491D01*
X101239Y68509D01*
X101295Y68554D01*
X101357Y68590D01*
X101391Y68630D01*
X101431Y68663D01*
X101470Y68723D01*
X101517Y68777D01*
X101536Y68826D01*
X101564Y68869D01*
X101582Y68939D01*
X101609Y69006D01*
X101617Y69077D01*
X101625Y69108D01*
X101623Y69131D01*
X101627Y69172D01*
X101627Y71108D01*
X102590Y73432D01*
X104368Y75210D01*
X106692Y76173D01*
X109208Y76173D01*
X111532Y75210D01*
X113310Y73432D01*
X114273Y71108D01*
X114273Y69172D01*
X114274Y69163D01*
X114274Y69158D01*
X114279Y69134D01*
X114284Y69102D01*
X114286Y69030D01*
X114304Y68981D01*
X114312Y68929D01*
X114346Y68866D01*
X114371Y68799D01*
X114403Y68758D01*
X114428Y68712D01*
X114480Y68663D01*
X114524Y68607D01*
X114568Y68579D01*
X114606Y68543D01*
X114671Y68513D01*
X114731Y68474D01*
X114782Y68461D01*
X114829Y68439D01*
X114900Y68431D01*
X114970Y68414D01*
X115022Y68418D01*
X115073Y68412D01*
X115144Y68427D01*
X115215Y68433D01*
X115263Y68453D01*
X115314Y68464D01*
X115375Y68501D01*
X115441Y68529D01*
X115497Y68574D01*
X115525Y68590D01*
X115540Y68608D01*
X115572Y68634D01*
X117068Y70130D01*
X119392Y71093D01*
X121908Y71093D01*
X124232Y70130D01*
X125728Y68634D01*
X125786Y68592D01*
X125838Y68543D01*
X125885Y68521D01*
X125927Y68490D01*
X125996Y68469D01*
X126061Y68439D01*
X126113Y68433D01*
X126163Y68418D01*
X126234Y68420D01*
X126305Y68412D01*
X126356Y68423D01*
X126408Y68424D01*
X126476Y68449D01*
X126546Y68464D01*
X126591Y68491D01*
X126639Y68509D01*
X126695Y68554D01*
X126757Y68590D01*
X126791Y68630D01*
X126831Y68663D01*
X126870Y68723D01*
X126917Y68777D01*
X126936Y68826D01*
X126964Y68869D01*
X126982Y68939D01*
X127009Y69006D01*
X127017Y69077D01*
X127025Y69108D01*
X127023Y69131D01*
X127027Y69172D01*
X127027Y71108D01*
X127660Y72635D01*
X127670Y72679D01*
X127690Y72721D01*
X127698Y72798D01*
X127716Y72874D01*
X127712Y72920D01*
X127717Y72965D01*
X127700Y73042D01*
X127693Y73119D01*
X127674Y73161D01*
X127664Y73206D01*
X127624Y73273D01*
X127593Y73344D01*
X127562Y73378D01*
X127538Y73417D01*
X127479Y73468D01*
X127426Y73525D01*
X127386Y73547D01*
X127351Y73577D01*
X127279Y73606D01*
X127211Y73643D01*
X127166Y73652D01*
X127123Y73669D01*
X126987Y73684D01*
X126969Y73687D01*
X126964Y73686D01*
X126956Y73687D01*
X124472Y73687D01*
X122148Y74650D01*
X120370Y76428D01*
X119407Y78752D01*
X119407Y81268D01*
X120370Y83592D01*
X122148Y85370D01*
X124472Y86333D01*
X126956Y86333D01*
X127002Y86340D01*
X127048Y86338D01*
X127123Y86360D01*
X127199Y86372D01*
X127240Y86394D01*
X127284Y86407D01*
X127348Y86451D01*
X127417Y86488D01*
X127448Y86521D01*
X127486Y86547D01*
X127532Y86610D01*
X127586Y86666D01*
X127605Y86708D01*
X127633Y86744D01*
X127657Y86818D01*
X127690Y86889D01*
X127695Y86935D01*
X127709Y86978D01*
X127708Y87056D01*
X127717Y87133D01*
X127707Y87178D01*
X127707Y87224D01*
X127668Y87356D01*
X127664Y87374D01*
X127662Y87378D01*
X127660Y87385D01*
X127027Y88912D01*
X127027Y91428D01*
X127660Y92955D01*
X127670Y92999D01*
X127690Y93041D01*
X127698Y93118D01*
X127716Y93194D01*
X127712Y93240D01*
X127717Y93285D01*
X127700Y93362D01*
X127693Y93439D01*
X127674Y93481D01*
X127664Y93526D01*
X127624Y93593D01*
X127593Y93664D01*
X127562Y93698D01*
X127538Y93737D01*
X127479Y93788D01*
X127426Y93845D01*
X127386Y93867D01*
X127351Y93897D01*
X127279Y93926D01*
X127211Y93963D01*
X127166Y93972D01*
X127123Y93989D01*
X126987Y94004D01*
X126969Y94007D01*
X126964Y94006D01*
X126956Y94007D01*
X124472Y94007D01*
X122148Y94970D01*
X120370Y96748D01*
X119407Y99072D01*
X119407Y101588D01*
X120370Y103912D01*
X122148Y105690D01*
X124472Y106653D01*
X126988Y106653D01*
X129312Y105690D01*
X131090Y103912D01*
X132053Y101588D01*
X132053Y99072D01*
X131420Y97545D01*
X131410Y97501D01*
X131390Y97459D01*
X131382Y97382D01*
X131364Y97306D01*
X131368Y97260D01*
X131363Y97215D01*
X131380Y97138D01*
X131387Y97061D01*
X131406Y97019D01*
X131416Y96974D01*
X131456Y96907D01*
X131487Y96836D01*
X131518Y96802D01*
X131542Y96763D01*
X131601Y96712D01*
X131654Y96655D01*
X131694Y96633D01*
X131729Y96603D01*
X131801Y96574D01*
X131869Y96537D01*
X131914Y96528D01*
X131957Y96511D01*
X132093Y96496D01*
X132111Y96493D01*
X132116Y96494D01*
X132124Y96493D01*
X134576Y96493D01*
X134622Y96500D01*
X134668Y96498D01*
X134743Y96520D01*
X134819Y96532D01*
X134860Y96554D01*
X134904Y96567D01*
X134968Y96611D01*
X135037Y96648D01*
X135068Y96681D01*
X135106Y96707D01*
X135152Y96770D01*
X135206Y96826D01*
X135225Y96868D01*
X135253Y96904D01*
X135277Y96978D01*
X135310Y97049D01*
X135315Y97095D01*
X135329Y97138D01*
X135328Y97216D01*
X135337Y97293D01*
X135327Y97338D01*
X135327Y97384D01*
X135288Y97516D01*
X135284Y97534D01*
X135282Y97538D01*
X135280Y97545D01*
X134647Y99072D01*
X134647Y101588D01*
X135610Y103912D01*
X137388Y105690D01*
X139712Y106653D01*
X142228Y106653D01*
X144552Y105690D01*
X145766Y104476D01*
X145824Y104434D01*
X145876Y104385D01*
X145923Y104363D01*
X145965Y104332D01*
X146034Y104311D01*
X146099Y104281D01*
X146151Y104275D01*
X146201Y104260D01*
X146272Y104262D01*
X146343Y104254D01*
X146394Y104265D01*
X146446Y104266D01*
X146514Y104291D01*
X146584Y104306D01*
X146629Y104333D01*
X146677Y104351D01*
X146733Y104396D01*
X146795Y104432D01*
X146829Y104472D01*
X146869Y104505D01*
X146908Y104565D01*
X146955Y104619D01*
X146974Y104668D01*
X147002Y104711D01*
X147020Y104781D01*
X147047Y104848D01*
X147055Y104919D01*
X147063Y104950D01*
X147061Y104973D01*
X147065Y105014D01*
X147065Y122272D01*
X151032Y126239D01*
X176882Y126239D01*
X184405Y118716D01*
X184405Y93377D01*
X184419Y93287D01*
X184427Y93196D01*
X184439Y93167D01*
X184444Y93135D01*
X184487Y93054D01*
X184523Y92970D01*
X184549Y92938D01*
X184560Y92917D01*
X184583Y92895D01*
X184628Y92839D01*
X196725Y80742D01*
X196799Y80689D01*
X196868Y80629D01*
X196899Y80617D01*
X196925Y80598D01*
X197012Y80571D01*
X197097Y80537D01*
X197138Y80533D01*
X197160Y80526D01*
X197192Y80527D01*
X197263Y80519D01*
X296217Y80519D01*
X296236Y80522D01*
X296256Y80520D01*
X296357Y80542D01*
X296460Y80558D01*
X296477Y80568D01*
X296497Y80572D01*
X296586Y80625D01*
X296677Y80674D01*
X296691Y80688D01*
X296708Y80698D01*
X296775Y80777D01*
X296846Y80852D01*
X296855Y80870D01*
X296868Y80885D01*
X296906Y80981D01*
X296950Y81075D01*
X296952Y81095D01*
X296960Y81113D01*
X296978Y81280D01*
X296978Y170924D01*
X296967Y170990D01*
X296966Y171058D01*
X296947Y171111D01*
X296938Y171166D01*
X296907Y171226D01*
X296884Y171290D01*
X296849Y171334D01*
X296823Y171384D01*
X296774Y171430D01*
X296733Y171484D01*
X296669Y171530D01*
X296645Y171553D01*
X296626Y171562D01*
X296597Y171583D01*
X149381Y256576D01*
X149273Y256617D01*
X149167Y256660D01*
X149157Y256661D01*
X149151Y256663D01*
X149128Y256664D01*
X149000Y256678D01*
X148759Y256678D01*
X148223Y257215D01*
X148210Y257224D01*
X148200Y257236D01*
X148065Y257336D01*
X147408Y257715D01*
X147345Y257948D01*
X147298Y258053D01*
X147253Y258158D01*
X147247Y258166D01*
X147244Y258172D01*
X147229Y258188D01*
X147148Y258289D01*
X146978Y258459D01*
X146978Y259218D01*
X146975Y259234D01*
X146977Y259249D01*
X146952Y259415D01*
X146756Y260148D01*
X146876Y260357D01*
X146916Y260464D01*
X146960Y260571D01*
X146961Y260581D01*
X146963Y260587D01*
X146964Y260609D01*
X146978Y260737D01*
X146978Y310896D01*
X146975Y310916D01*
X146977Y310935D01*
X146955Y311037D01*
X146938Y311139D01*
X146929Y311156D01*
X146925Y311176D01*
X146872Y311265D01*
X146823Y311356D01*
X146809Y311370D01*
X146799Y311387D01*
X146720Y311454D01*
X146645Y311526D01*
X146627Y311534D01*
X146612Y311547D01*
X146515Y311586D01*
X146422Y311629D01*
X146402Y311631D01*
X146383Y311639D01*
X146217Y311657D01*
X110044Y311657D01*
X109998Y311650D01*
X109952Y311652D01*
X109878Y311630D01*
X109801Y311618D01*
X109760Y311596D01*
X109716Y311583D01*
X109652Y311539D01*
X109583Y311502D01*
X109552Y311469D01*
X109514Y311443D01*
X109468Y311380D01*
X109414Y311324D01*
X109395Y311282D01*
X109367Y311246D01*
X109343Y311172D01*
X109310Y311101D01*
X109305Y311055D01*
X109291Y311012D01*
X109292Y310934D01*
X109283Y310857D01*
X109293Y310812D01*
X109294Y310766D01*
X109332Y310635D01*
X109336Y310616D01*
X109338Y310612D01*
X109340Y310605D01*
X109475Y310280D01*
X109475Y307956D01*
X108585Y305808D01*
X106942Y304165D01*
X104794Y303275D01*
X102334Y303275D01*
X102314Y303272D01*
X102295Y303274D01*
X102193Y303252D01*
X102091Y303236D01*
X102074Y303226D01*
X102054Y303222D01*
X101965Y303169D01*
X101874Y303120D01*
X101860Y303106D01*
X101843Y303096D01*
X101776Y303017D01*
X101704Y302942D01*
X101696Y302924D01*
X101683Y302909D01*
X101644Y302813D01*
X101601Y302719D01*
X101599Y302699D01*
X101591Y302681D01*
X101573Y302514D01*
X101573Y302272D01*
X100610Y299948D01*
X98832Y298170D01*
X96508Y297207D01*
X94460Y297207D01*
X94440Y297204D01*
X94421Y297206D01*
X94319Y297184D01*
X94217Y297168D01*
X94200Y297158D01*
X94180Y297154D01*
X94091Y297101D01*
X94000Y297052D01*
X93986Y297038D01*
X93969Y297028D01*
X93902Y296949D01*
X93830Y296874D01*
X93822Y296856D01*
X93809Y296841D01*
X93770Y296745D01*
X93727Y296651D01*
X93725Y296631D01*
X93717Y296613D01*
X93699Y296446D01*
X93699Y295414D01*
X92736Y293090D01*
X90958Y291312D01*
X88634Y290349D01*
X86118Y290349D01*
X83794Y291312D01*
X82016Y293090D01*
X81053Y295414D01*
X81053Y297930D01*
X82016Y300254D01*
X83484Y301722D01*
X83526Y301780D01*
X83575Y301832D01*
X83597Y301879D01*
X83628Y301921D01*
X83649Y301990D01*
X83679Y302055D01*
X83685Y302107D01*
X83700Y302157D01*
X83698Y302228D01*
X83706Y302299D01*
X83695Y302350D01*
X83694Y302402D01*
X83669Y302470D01*
X83654Y302540D01*
X83627Y302585D01*
X83609Y302633D01*
X83564Y302689D01*
X83528Y302751D01*
X83488Y302785D01*
X83455Y302825D01*
X83395Y302864D01*
X83341Y302911D01*
X83292Y302930D01*
X83249Y302958D01*
X83179Y302976D01*
X83112Y303003D01*
X83041Y303011D01*
X83010Y303019D01*
X82987Y303017D01*
X82946Y303021D01*
X81896Y303021D01*
X79748Y303911D01*
X78105Y305554D01*
X77215Y307702D01*
X77215Y310026D01*
X77455Y310605D01*
X77465Y310649D01*
X77485Y310691D01*
X77493Y310768D01*
X77511Y310844D01*
X77507Y310890D01*
X77512Y310935D01*
X77495Y311012D01*
X77488Y311089D01*
X77469Y311131D01*
X77460Y311176D01*
X77420Y311243D01*
X77388Y311314D01*
X77357Y311348D01*
X77333Y311387D01*
X77274Y311438D01*
X77222Y311495D01*
X77181Y311517D01*
X77146Y311547D01*
X77074Y311576D01*
X77006Y311613D01*
X76961Y311622D01*
X76918Y311639D01*
X76782Y311654D01*
X76764Y311657D01*
X76759Y311656D01*
X76752Y311657D01*
X-2223Y311657D01*
X-2319Y311642D01*
X-2416Y311632D01*
X-2440Y311622D01*
X-2466Y311618D01*
X-2552Y311572D01*
X-2641Y311532D01*
X-2660Y311515D01*
X-2683Y311502D01*
X-2750Y311432D01*
X-2822Y311366D01*
X-2835Y311343D01*
X-2853Y311324D01*
X-2894Y311236D01*
X-2941Y311150D01*
X-2945Y311125D01*
X-2956Y311101D01*
X-2967Y311004D01*
X-2984Y310908D01*
X-2980Y310882D01*
X-2983Y310857D01*
X-2963Y310761D01*
X-2948Y310665D01*
X-2937Y310642D01*
X-2931Y310616D01*
X-2881Y310533D01*
X-2837Y310446D01*
X-2818Y310427D01*
X-2805Y310405D01*
X-2731Y310342D01*
X-2661Y310274D01*
X-2633Y310258D01*
X-2618Y310245D01*
X-2587Y310233D01*
X-2514Y310193D01*
X-426Y309328D01*
X1353Y307549D01*
X2315Y305225D01*
X2315Y302710D01*
X1353Y300386D01*
X-426Y298607D01*
X-2750Y297645D01*
X-5265Y297645D01*
X-7589Y298607D01*
X-9368Y300386D01*
X-10330Y302710D01*
X-10330Y305225D01*
X-9368Y307549D01*
X-7589Y309328D01*
X-5501Y310193D01*
X-5418Y310244D01*
X-5332Y310290D01*
X-5314Y310309D01*
X-5292Y310322D01*
X-5230Y310397D01*
X-5162Y310468D01*
X-5151Y310492D01*
X-5135Y310512D01*
X-5100Y310603D01*
X-5059Y310691D01*
X-5056Y310717D01*
X-5047Y310741D01*
X-5042Y310839D01*
X-5032Y310935D01*
X-5037Y310961D01*
X-5036Y310987D01*
X-5063Y311081D01*
X-5084Y311176D01*
X-5097Y311198D01*
X-5105Y311223D01*
X-5160Y311303D01*
X-5210Y311387D01*
X-5230Y311404D01*
X-5245Y311425D01*
X-5323Y311484D01*
X-5397Y311547D01*
X-5421Y311557D01*
X-5442Y311572D01*
X-5535Y311602D01*
X-5625Y311639D01*
X-5658Y311642D01*
X-5676Y311648D01*
X-5709Y311648D01*
X-5792Y311657D01*
X-146171Y311657D01*
X-146191Y311654D01*
X-146211Y311656D01*
X-146312Y311634D01*
X-146414Y311618D01*
X-146432Y311608D01*
X-146451Y311604D01*
X-146540Y311551D01*
X-146631Y311502D01*
X-146645Y311488D01*
X-146662Y311478D01*
X-146730Y311399D01*
X-146801Y311324D01*
X-146809Y311306D01*
X-146822Y311291D01*
X-146861Y311195D01*
X-146904Y311101D01*
X-146907Y311081D01*
X-146914Y311063D01*
X-146933Y310896D01*
X-146933Y260724D01*
X-146914Y260611D01*
X-146898Y260497D01*
X-146894Y260487D01*
X-146893Y260481D01*
X-146882Y260461D01*
X-146831Y260343D01*
X-146718Y260148D01*
X-146907Y259445D01*
X-146908Y259429D01*
X-146914Y259415D01*
X-146933Y259248D01*
X-146933Y258456D01*
X-147115Y258274D01*
X-147182Y258181D01*
X-147251Y258088D01*
X-147255Y258079D01*
X-147258Y258074D01*
X-147265Y258053D01*
X-147312Y257932D01*
X-147370Y257715D01*
X-148001Y257351D01*
X-148013Y257341D01*
X-148027Y257335D01*
X-148158Y257230D01*
X-148718Y256670D01*
X-148976Y256670D01*
X-149090Y256651D01*
X-149203Y256635D01*
X-149213Y256631D01*
X-149219Y256630D01*
X-149239Y256620D01*
X-149357Y256568D01*
X-296560Y171583D01*
X-296612Y171540D01*
X-296670Y171505D01*
X-296707Y171463D01*
X-296750Y171427D01*
X-296786Y171370D01*
X-296830Y171319D01*
X-296851Y171266D01*
X-296881Y171219D01*
X-296897Y171153D01*
X-296922Y171090D01*
X-296931Y171012D01*
X-296938Y170980D01*
X-296937Y170959D01*
X-296941Y170924D01*
X-296941Y2114D01*
X-296930Y2047D01*
X-296929Y1980D01*
X-296910Y1927D01*
X-296901Y1871D01*
X-296869Y1811D01*
X-296847Y1748D01*
X-296812Y1703D01*
X-296786Y1654D01*
X-296737Y1607D01*
X-296695Y1554D01*
X-296631Y1507D01*
X-296607Y1484D01*
X-296588Y1476D01*
X-296560Y1455D01*
X-150362Y-82950D01*
X-150299Y-82974D01*
X-150240Y-83007D01*
X-150184Y-83018D01*
X-150132Y-83037D01*
X-150064Y-83040D01*
X-149998Y-83052D01*
X-149942Y-83044D01*
G37*
G36*
X146648Y314719D02*
X146648Y314719D01*
X146700Y314720D01*
X146768Y314745D01*
X146838Y314760D01*
X146882Y314787D01*
X146931Y314805D01*
X146987Y314850D01*
X147049Y314886D01*
X147083Y314926D01*
X147123Y314958D01*
X147162Y315019D01*
X147209Y315073D01*
X147228Y315121D01*
X147256Y315165D01*
X147274Y315235D01*
X147301Y315301D01*
X147309Y315373D01*
X147317Y315404D01*
X147315Y315427D01*
X147319Y315468D01*
X147319Y431800D01*
X147308Y431866D01*
X147308Y431932D01*
X147289Y431986D01*
X147280Y432043D01*
X147248Y432102D01*
X147226Y432165D01*
X147191Y432210D01*
X147164Y432260D01*
X147116Y432306D01*
X147075Y432359D01*
X147010Y432407D01*
X146986Y432430D01*
X146968Y432438D01*
X146940Y432458D01*
X382Y517548D01*
X318Y517573D01*
X258Y517606D01*
X204Y517616D01*
X152Y517636D01*
X84Y517639D01*
X16Y517651D01*
X-39Y517643D01*
X-93Y517646D01*
X-160Y517626D01*
X-228Y517616D01*
X-298Y517586D01*
X-329Y517576D01*
X-347Y517564D01*
X-381Y517549D01*
X-147447Y432459D01*
X-147499Y432416D01*
X-147557Y432382D01*
X-147594Y432339D01*
X-147637Y432303D01*
X-147673Y432246D01*
X-147717Y432195D01*
X-147738Y432142D01*
X-147768Y432095D01*
X-147784Y432029D01*
X-147809Y431967D01*
X-147818Y431887D01*
X-147825Y431855D01*
X-147823Y431835D01*
X-147827Y431800D01*
X-147827Y316738D01*
X-147813Y316648D01*
X-147805Y316557D01*
X-147793Y316527D01*
X-147788Y316495D01*
X-147745Y316415D01*
X-147709Y316331D01*
X-147683Y316299D01*
X-147672Y316278D01*
X-147649Y316256D01*
X-147604Y316200D01*
X-146588Y315184D01*
X-146514Y315131D01*
X-146445Y315071D01*
X-146415Y315059D01*
X-146389Y315040D01*
X-146302Y315013D01*
X-146217Y314979D01*
X-146176Y314975D01*
X-146153Y314968D01*
X-146121Y314969D01*
X-146050Y314961D01*
X37845Y314961D01*
X37890Y314968D01*
X37936Y314966D01*
X38011Y314988D01*
X38087Y315001D01*
X38128Y315022D01*
X38172Y315035D01*
X38236Y315079D01*
X38305Y315116D01*
X38336Y315149D01*
X38374Y315175D01*
X38420Y315237D01*
X38474Y315294D01*
X38494Y315336D01*
X38521Y315372D01*
X38545Y315446D01*
X38578Y315517D01*
X38583Y315563D01*
X38597Y315606D01*
X38596Y315684D01*
X38605Y315761D01*
X38595Y315806D01*
X38595Y315852D01*
X38557Y315984D01*
X38553Y316002D01*
X38550Y316006D01*
X38548Y316013D01*
X38127Y317029D01*
X38127Y319241D01*
X38974Y321285D01*
X40538Y322849D01*
X42582Y323696D01*
X44794Y323696D01*
X46838Y322849D01*
X48385Y321302D01*
X48443Y321260D01*
X48495Y321211D01*
X48542Y321189D01*
X48584Y321159D01*
X48653Y321138D01*
X48718Y321107D01*
X48770Y321102D01*
X48820Y321086D01*
X48891Y321088D01*
X48962Y321080D01*
X49013Y321091D01*
X49065Y321093D01*
X49133Y321117D01*
X49203Y321133D01*
X49248Y321159D01*
X49296Y321177D01*
X49352Y321222D01*
X49414Y321259D01*
X49448Y321298D01*
X49488Y321331D01*
X49527Y321391D01*
X49574Y321446D01*
X49593Y321494D01*
X49621Y321538D01*
X49639Y321607D01*
X49666Y321674D01*
X49674Y321745D01*
X49680Y321772D01*
X50531Y323825D01*
X52095Y325389D01*
X54139Y326236D01*
X56351Y326236D01*
X58395Y325389D01*
X59959Y323825D01*
X60806Y321781D01*
X60806Y319569D01*
X59959Y317525D01*
X58694Y316260D01*
X58652Y316202D01*
X58603Y316150D01*
X58581Y316103D01*
X58551Y316061D01*
X58530Y315992D01*
X58499Y315927D01*
X58494Y315875D01*
X58478Y315825D01*
X58480Y315754D01*
X58472Y315683D01*
X58483Y315632D01*
X58485Y315580D01*
X58509Y315512D01*
X58525Y315442D01*
X58551Y315398D01*
X58569Y315349D01*
X58614Y315293D01*
X58651Y315231D01*
X58690Y315197D01*
X58723Y315157D01*
X58783Y315118D01*
X58838Y315071D01*
X58886Y315052D01*
X58930Y315024D01*
X58999Y315006D01*
X59066Y314979D01*
X59137Y314971D01*
X59168Y314963D01*
X59192Y314965D01*
X59233Y314961D01*
X145989Y314961D01*
X146020Y314930D01*
X146078Y314888D01*
X146130Y314839D01*
X146177Y314817D01*
X146219Y314786D01*
X146288Y314765D01*
X146353Y314735D01*
X146405Y314729D01*
X146455Y314714D01*
X146526Y314716D01*
X146597Y314708D01*
X146648Y314719D01*
G37*
G36*
X150058Y-83044D02*
X150058Y-83044D01*
X150114Y-83046D01*
X150179Y-83027D01*
X150246Y-83018D01*
X150318Y-82986D01*
X150350Y-82977D01*
X150367Y-82965D01*
X150399Y-82950D01*
X188341Y-61046D01*
X188393Y-61003D01*
X188451Y-60968D01*
X188487Y-60926D01*
X188531Y-60890D01*
X188567Y-60833D01*
X188611Y-60781D01*
X188632Y-60729D01*
X188662Y-60682D01*
X188678Y-60616D01*
X188703Y-60553D01*
X188712Y-60474D01*
X188719Y-60442D01*
X188717Y-60422D01*
X188721Y-60386D01*
X188721Y-21336D01*
X188707Y-21246D01*
X188699Y-21155D01*
X188687Y-21125D01*
X188682Y-21093D01*
X188639Y-21013D01*
X188603Y-20929D01*
X188577Y-20897D01*
X188566Y-20876D01*
X188543Y-20854D01*
X188498Y-20798D01*
X154462Y13238D01*
X154388Y13291D01*
X154319Y13351D01*
X154289Y13363D01*
X154263Y13382D01*
X154176Y13409D01*
X154091Y13443D01*
X154050Y13447D01*
X154027Y13454D01*
X153995Y13453D01*
X153924Y13461D01*
X69149Y13461D01*
X37368Y45242D01*
X37294Y45295D01*
X37225Y45355D01*
X37195Y45367D01*
X37169Y45386D01*
X37082Y45413D01*
X36997Y45447D01*
X36956Y45451D01*
X36933Y45458D01*
X36901Y45457D01*
X36830Y45465D01*
X-43373Y45465D01*
X-59945Y62037D01*
X-59945Y66802D01*
X-59960Y66892D01*
X-59967Y66983D01*
X-59979Y67013D01*
X-59985Y67045D01*
X-60027Y67125D01*
X-60063Y67209D01*
X-60089Y67241D01*
X-60100Y67262D01*
X-60123Y67284D01*
X-60168Y67340D01*
X-67788Y74960D01*
X-67862Y75013D01*
X-67931Y75073D01*
X-67961Y75085D01*
X-67987Y75104D01*
X-68074Y75131D01*
X-68159Y75165D01*
X-68200Y75169D01*
X-68223Y75176D01*
X-68255Y75175D01*
X-68326Y75183D01*
X-93157Y75183D01*
X-96267Y78293D01*
X-96267Y114554D01*
X-96282Y114644D01*
X-96289Y114735D01*
X-96301Y114765D01*
X-96307Y114797D01*
X-96349Y114877D01*
X-96385Y114961D01*
X-96411Y114993D01*
X-96422Y115014D01*
X-96445Y115036D01*
X-96490Y115092D01*
X-102078Y120680D01*
X-102152Y120733D01*
X-102221Y120793D01*
X-102251Y120805D01*
X-102277Y120824D01*
X-102364Y120851D01*
X-102449Y120885D01*
X-102490Y120889D01*
X-102513Y120896D01*
X-102545Y120895D01*
X-102616Y120903D01*
X-124460Y120903D01*
X-124480Y120900D01*
X-124499Y120902D01*
X-124601Y120880D01*
X-124703Y120864D01*
X-124720Y120854D01*
X-124740Y120850D01*
X-124829Y120797D01*
X-124920Y120748D01*
X-124934Y120734D01*
X-124951Y120724D01*
X-125018Y120645D01*
X-125090Y120570D01*
X-125098Y120552D01*
X-125111Y120537D01*
X-125150Y120441D01*
X-125193Y120347D01*
X-125195Y120327D01*
X-125203Y120309D01*
X-125221Y120142D01*
X-125221Y56932D01*
X-125207Y56842D01*
X-125199Y56751D01*
X-125187Y56721D01*
X-125182Y56689D01*
X-125139Y56609D01*
X-125103Y56525D01*
X-125077Y56493D01*
X-125066Y56472D01*
X-125043Y56450D01*
X-124998Y56394D01*
X-90230Y21626D01*
X-90139Y21560D01*
X-90049Y21492D01*
X-90039Y21488D01*
X-90031Y21482D01*
X-89923Y21449D01*
X-89816Y21413D01*
X-89805Y21413D01*
X-89796Y21410D01*
X-89683Y21413D01*
X-89570Y21413D01*
X-89560Y21416D01*
X-89550Y21416D01*
X-89443Y21455D01*
X-89336Y21491D01*
X-89326Y21498D01*
X-89319Y21501D01*
X-89299Y21517D01*
X-89198Y21585D01*
X-87925Y22672D01*
X-86549Y23515D01*
X-85058Y24133D01*
X-83489Y24510D01*
X-81850Y24639D01*
X-79717Y24639D01*
X-76955Y24421D01*
X-74290Y23782D01*
X-71757Y22733D01*
X-70742Y22111D01*
X-70742Y22110D01*
X-69421Y21301D01*
X-67314Y19501D01*
X-63304Y15491D01*
X-52199Y1853D01*
X-52177Y1834D01*
X-52141Y1790D01*
X-34271Y-15724D01*
X-34238Y-15747D01*
X-34211Y-15776D01*
X-34138Y-15817D01*
X-34070Y-15865D01*
X-34031Y-15877D01*
X-33996Y-15896D01*
X-33914Y-15911D01*
X-33834Y-15935D01*
X-33794Y-15934D01*
X-33755Y-15941D01*
X-33672Y-15929D01*
X-33588Y-15926D01*
X-33551Y-15912D01*
X-33511Y-15907D01*
X-33359Y-15840D01*
X-33358Y-15840D01*
X-33357Y-15839D01*
X-2384Y2043D01*
X-2294Y2116D01*
X-2205Y2186D01*
X-2199Y2194D01*
X-2193Y2199D01*
X-2182Y2218D01*
X-2105Y2321D01*
X-1985Y2530D01*
X-1252Y2726D01*
X-1237Y2733D01*
X-1222Y2735D01*
X-1068Y2802D01*
X-411Y3182D01*
X-178Y3120D01*
X-64Y3108D01*
X50Y3094D01*
X60Y3096D01*
X66Y3095D01*
X88Y3100D01*
X216Y3120D01*
X448Y3182D01*
X1106Y2802D01*
X1120Y2797D01*
X1133Y2787D01*
X1289Y2726D01*
X2022Y2530D01*
X2143Y2321D01*
X2216Y2232D01*
X2286Y2142D01*
X2294Y2136D01*
X2298Y2131D01*
X2318Y2119D01*
X2421Y2043D01*
X149638Y-82950D01*
X149701Y-82974D01*
X149760Y-83007D01*
X149816Y-83018D01*
X149868Y-83037D01*
X149936Y-83040D01*
X150002Y-83052D01*
X150058Y-83044D01*
G37*
G36*
X192289Y-58651D02*
X192289Y-58651D01*
X192317Y-58654D01*
X192411Y-58633D01*
X192505Y-58620D01*
X192537Y-58606D01*
X192558Y-58601D01*
X192586Y-58585D01*
X192659Y-58553D01*
X241935Y-30104D01*
X241987Y-30061D01*
X242045Y-30027D01*
X242081Y-29984D01*
X242125Y-29948D01*
X242161Y-29891D01*
X242205Y-29840D01*
X242226Y-29788D01*
X242256Y-29740D01*
X242272Y-29674D01*
X242297Y-29612D01*
X242306Y-29533D01*
X242313Y-29501D01*
X242311Y-29480D01*
X242315Y-29445D01*
X242315Y-2540D01*
X242301Y-2450D01*
X242293Y-2359D01*
X242281Y-2329D01*
X242276Y-2297D01*
X242233Y-2217D01*
X242197Y-2133D01*
X242171Y-2101D01*
X242160Y-2080D01*
X242137Y-2058D01*
X242092Y-2002D01*
X190784Y49306D01*
X190710Y49359D01*
X190641Y49419D01*
X190611Y49431D01*
X190585Y49450D01*
X190498Y49477D01*
X190413Y49511D01*
X190372Y49515D01*
X190349Y49522D01*
X190317Y49521D01*
X190246Y49529D01*
X94549Y49529D01*
X78739Y65339D01*
X78739Y72898D01*
X78725Y72988D01*
X78717Y73079D01*
X78705Y73109D01*
X78700Y73141D01*
X78657Y73221D01*
X78621Y73305D01*
X78595Y73337D01*
X78584Y73358D01*
X78561Y73380D01*
X78516Y73436D01*
X73690Y78262D01*
X73616Y78315D01*
X73547Y78375D01*
X73517Y78387D01*
X73491Y78406D01*
X73404Y78433D01*
X73319Y78467D01*
X73278Y78471D01*
X73255Y78478D01*
X73223Y78477D01*
X73152Y78485D01*
X52385Y78485D01*
X44957Y85913D01*
X44957Y117348D01*
X44943Y117438D01*
X44935Y117529D01*
X44923Y117559D01*
X44918Y117591D01*
X44875Y117671D01*
X44839Y117755D01*
X44813Y117787D01*
X44802Y117808D01*
X44779Y117830D01*
X44734Y117886D01*
X40416Y122204D01*
X40342Y122257D01*
X40273Y122317D01*
X40243Y122329D01*
X40217Y122348D01*
X40130Y122375D01*
X40045Y122409D01*
X40004Y122413D01*
X39981Y122420D01*
X39949Y122419D01*
X39878Y122427D01*
X15240Y122427D01*
X15220Y122424D01*
X15201Y122426D01*
X15099Y122404D01*
X14997Y122388D01*
X14980Y122378D01*
X14960Y122374D01*
X14871Y122321D01*
X14780Y122272D01*
X14766Y122258D01*
X14749Y122248D01*
X14682Y122169D01*
X14611Y122094D01*
X14602Y122076D01*
X14589Y122061D01*
X14550Y121965D01*
X14507Y121871D01*
X14505Y121851D01*
X14497Y121833D01*
X14479Y121666D01*
X14479Y55626D01*
X14494Y55536D01*
X14501Y55445D01*
X14513Y55415D01*
X14519Y55383D01*
X14561Y55303D01*
X14597Y55219D01*
X14623Y55187D01*
X14634Y55166D01*
X14657Y55144D01*
X14702Y55088D01*
X19782Y50008D01*
X19856Y49955D01*
X19925Y49895D01*
X19955Y49883D01*
X19981Y49864D01*
X20068Y49837D01*
X20153Y49803D01*
X20194Y49799D01*
X20217Y49792D01*
X20249Y49793D01*
X20320Y49785D01*
X37531Y49785D01*
X69820Y17496D01*
X69894Y17443D01*
X69963Y17383D01*
X69993Y17371D01*
X70019Y17352D01*
X70106Y17325D01*
X70191Y17291D01*
X70232Y17287D01*
X70255Y17280D01*
X70287Y17281D01*
X70358Y17273D01*
X156403Y17273D01*
X191517Y-17841D01*
X191517Y-57893D01*
X191532Y-57988D01*
X191541Y-58082D01*
X191552Y-58108D01*
X191557Y-58136D01*
X191601Y-58220D01*
X191639Y-58308D01*
X191658Y-58329D01*
X191672Y-58354D01*
X191741Y-58419D01*
X191805Y-58490D01*
X191830Y-58504D01*
X191850Y-58523D01*
X191936Y-58563D01*
X192020Y-58610D01*
X192047Y-58615D01*
X192073Y-58627D01*
X192168Y-58637D01*
X192261Y-58655D01*
X192289Y-58651D01*
G37*
G36*
X245375Y-28002D02*
X245375Y-28002D01*
X245403Y-28005D01*
X245497Y-27985D01*
X245591Y-27972D01*
X245623Y-27958D01*
X245644Y-27953D01*
X245672Y-27936D01*
X245745Y-27904D01*
X296597Y1455D01*
X296650Y1497D01*
X296708Y1532D01*
X296744Y1575D01*
X296788Y1610D01*
X296824Y1668D01*
X296868Y1719D01*
X296889Y1771D01*
X296918Y1819D01*
X296934Y1884D01*
X296960Y1947D01*
X296968Y2026D01*
X296976Y2058D01*
X296974Y2079D01*
X296978Y2114D01*
X296978Y77216D01*
X296975Y77236D01*
X296977Y77255D01*
X296955Y77357D01*
X296938Y77459D01*
X296929Y77476D01*
X296925Y77496D01*
X296872Y77585D01*
X296823Y77676D01*
X296809Y77690D01*
X296799Y77707D01*
X296720Y77774D01*
X296645Y77846D01*
X296627Y77854D01*
X296612Y77867D01*
X296515Y77906D01*
X296422Y77949D01*
X296402Y77951D01*
X296383Y77959D01*
X296217Y77977D01*
X195895Y77977D01*
X181863Y92009D01*
X181863Y117348D01*
X181849Y117438D01*
X181841Y117529D01*
X181829Y117559D01*
X181824Y117591D01*
X181781Y117671D01*
X181745Y117755D01*
X181719Y117787D01*
X181708Y117808D01*
X181685Y117830D01*
X181640Y117886D01*
X176052Y123474D01*
X175978Y123527D01*
X175909Y123587D01*
X175879Y123599D01*
X175853Y123618D01*
X175766Y123645D01*
X175681Y123679D01*
X175640Y123683D01*
X175617Y123690D01*
X175585Y123689D01*
X175514Y123697D01*
X152400Y123697D01*
X152310Y123683D01*
X152219Y123675D01*
X152189Y123663D01*
X152157Y123658D01*
X152077Y123615D01*
X151993Y123579D01*
X151961Y123553D01*
X151940Y123542D01*
X151918Y123519D01*
X151862Y123474D01*
X149830Y121442D01*
X149777Y121368D01*
X149717Y121299D01*
X149705Y121269D01*
X149686Y121243D01*
X149659Y121156D01*
X149625Y121071D01*
X149621Y121030D01*
X149614Y121007D01*
X149615Y120975D01*
X149607Y120904D01*
X149607Y54864D01*
X149622Y54774D01*
X149629Y54683D01*
X149641Y54653D01*
X149647Y54621D01*
X149689Y54541D01*
X149725Y54457D01*
X149751Y54425D01*
X149762Y54404D01*
X149785Y54382D01*
X149830Y54326D01*
X152116Y52040D01*
X152190Y51987D01*
X152259Y51927D01*
X152289Y51915D01*
X152315Y51896D01*
X152402Y51869D01*
X152487Y51835D01*
X152528Y51831D01*
X152551Y51824D01*
X152583Y51825D01*
X152654Y51817D01*
X192217Y51817D01*
X244603Y-569D01*
X244603Y-27245D01*
X244618Y-27339D01*
X244627Y-27434D01*
X244638Y-27460D01*
X244643Y-27488D01*
X244687Y-27572D01*
X244725Y-27659D01*
X244744Y-27680D01*
X244758Y-27705D01*
X244827Y-27771D01*
X244891Y-27841D01*
X244916Y-27855D01*
X244936Y-27875D01*
X245022Y-27915D01*
X245106Y-27961D01*
X245133Y-27966D01*
X245159Y-27978D01*
X245254Y-27989D01*
X245347Y-28006D01*
X245375Y-28002D01*
G37*
%LPC*%
G36*
X-58541Y171322D02*
X-58541Y171322D01*
X-60642Y172192D01*
X-65298Y176848D01*
X-65778Y178009D01*
X-65813Y178065D01*
X-65839Y178125D01*
X-65891Y178190D01*
X-65908Y178218D01*
X-65923Y178231D01*
X-65943Y178256D01*
X-81647Y193959D01*
X-81721Y194012D01*
X-81790Y194072D01*
X-81820Y194084D01*
X-81846Y194103D01*
X-81933Y194130D01*
X-82018Y194164D01*
X-82059Y194168D01*
X-82081Y194175D01*
X-82114Y194174D01*
X-82185Y194182D01*
X-89519Y194182D01*
X-89609Y194168D01*
X-89700Y194160D01*
X-89730Y194148D01*
X-89762Y194143D01*
X-89843Y194100D01*
X-89926Y194064D01*
X-89959Y194038D01*
X-89979Y194027D01*
X-90001Y194004D01*
X-90057Y193959D01*
X-96584Y187432D01*
X-98685Y186562D01*
X-109632Y186562D01*
X-109696Y186552D01*
X-109762Y186551D01*
X-109842Y186528D01*
X-109875Y186523D01*
X-109892Y186513D01*
X-109923Y186504D01*
X-110090Y186435D01*
X-112414Y186435D01*
X-114562Y187325D01*
X-116205Y188968D01*
X-117095Y191116D01*
X-117095Y193440D01*
X-116539Y194781D01*
X-116529Y194825D01*
X-116510Y194867D01*
X-116501Y194944D01*
X-116483Y195020D01*
X-116488Y195066D01*
X-116483Y195111D01*
X-116499Y195188D01*
X-116506Y195265D01*
X-116525Y195307D01*
X-116535Y195352D01*
X-116575Y195419D01*
X-116606Y195490D01*
X-116637Y195524D01*
X-116661Y195563D01*
X-116720Y195614D01*
X-116773Y195671D01*
X-116813Y195693D01*
X-116848Y195723D01*
X-116920Y195752D01*
X-116988Y195789D01*
X-117033Y195798D01*
X-117076Y195815D01*
X-117212Y195830D01*
X-117230Y195833D01*
X-117235Y195832D01*
X-117243Y195833D01*
X-119272Y195833D01*
X-121420Y196723D01*
X-123063Y198366D01*
X-123953Y200514D01*
X-123953Y202838D01*
X-123063Y204986D01*
X-121420Y206629D01*
X-119272Y207519D01*
X-116948Y207519D01*
X-114800Y206629D01*
X-113157Y204986D01*
X-112267Y202838D01*
X-112267Y200514D01*
X-112823Y199173D01*
X-112833Y199129D01*
X-112852Y199087D01*
X-112861Y199010D01*
X-112879Y198934D01*
X-112874Y198888D01*
X-112879Y198843D01*
X-112863Y198766D01*
X-112856Y198689D01*
X-112837Y198647D01*
X-112827Y198602D01*
X-112787Y198535D01*
X-112756Y198464D01*
X-112725Y198430D01*
X-112701Y198391D01*
X-112642Y198340D01*
X-112589Y198283D01*
X-112549Y198261D01*
X-112514Y198231D01*
X-112442Y198202D01*
X-112374Y198165D01*
X-112329Y198156D01*
X-112286Y198139D01*
X-112150Y198124D01*
X-112132Y198121D01*
X-112127Y198122D01*
X-112119Y198121D01*
X-110236Y198121D01*
X-110191Y198128D01*
X-110145Y198126D01*
X-110070Y198148D01*
X-109993Y198160D01*
X-109953Y198182D01*
X-109909Y198195D01*
X-109845Y198239D01*
X-109776Y198276D01*
X-109744Y198309D01*
X-109707Y198335D01*
X-109660Y198397D01*
X-109606Y198454D01*
X-109587Y198496D01*
X-109560Y198532D01*
X-109536Y198606D01*
X-109503Y198677D01*
X-109498Y198723D01*
X-109484Y198766D01*
X-109484Y198844D01*
X-109476Y198921D01*
X-109486Y198966D01*
X-109486Y199012D01*
X-109524Y199144D01*
X-109528Y199162D01*
X-109531Y199166D01*
X-109533Y199173D01*
X-109983Y200260D01*
X-109983Y202584D01*
X-109093Y204732D01*
X-107450Y206375D01*
X-105302Y207265D01*
X-102978Y207265D01*
X-100830Y206375D01*
X-99187Y204732D01*
X-98529Y203143D01*
X-98505Y203104D01*
X-98489Y203061D01*
X-98440Y203000D01*
X-98399Y202934D01*
X-98364Y202905D01*
X-98335Y202869D01*
X-98270Y202827D01*
X-98210Y202777D01*
X-98167Y202761D01*
X-98128Y202736D01*
X-98053Y202717D01*
X-97980Y202689D01*
X-97934Y202687D01*
X-97890Y202676D01*
X-97812Y202682D01*
X-97734Y202679D01*
X-97690Y202691D01*
X-97644Y202695D01*
X-97573Y202725D01*
X-97498Y202747D01*
X-97460Y202773D01*
X-97418Y202791D01*
X-97311Y202877D01*
X-97296Y202887D01*
X-97293Y202891D01*
X-97287Y202896D01*
X-95440Y204744D01*
X-93339Y205614D01*
X-78365Y205614D01*
X-76264Y204744D01*
X-55606Y184086D01*
X-55249Y183224D01*
X-55187Y183123D01*
X-55128Y183024D01*
X-55123Y183020D01*
X-55120Y183015D01*
X-55029Y182940D01*
X-54941Y182864D01*
X-54935Y182862D01*
X-54930Y182858D01*
X-54822Y182816D01*
X-54713Y182772D01*
X-54705Y182771D01*
X-54701Y182770D01*
X-54682Y182769D01*
X-54546Y182754D01*
X-53585Y182754D01*
X-53540Y182761D01*
X-53494Y182759D01*
X-53419Y182781D01*
X-53342Y182793D01*
X-53302Y182815D01*
X-53258Y182828D01*
X-53194Y182872D01*
X-53125Y182909D01*
X-53093Y182942D01*
X-53056Y182968D01*
X-53009Y183030D01*
X-52955Y183087D01*
X-52936Y183129D01*
X-52909Y183165D01*
X-52885Y183239D01*
X-52852Y183310D01*
X-52847Y183356D01*
X-52833Y183399D01*
X-52833Y183477D01*
X-52825Y183554D01*
X-52834Y183599D01*
X-52835Y183645D01*
X-52873Y183777D01*
X-52877Y183795D01*
X-52880Y183799D01*
X-52882Y183806D01*
X-53595Y185528D01*
X-53595Y187852D01*
X-52705Y190000D01*
X-51727Y190978D01*
X-51716Y190994D01*
X-51700Y191006D01*
X-51644Y191094D01*
X-51584Y191177D01*
X-51578Y191196D01*
X-51567Y191213D01*
X-51542Y191314D01*
X-51511Y191413D01*
X-51512Y191432D01*
X-51507Y191452D01*
X-51515Y191555D01*
X-51518Y191658D01*
X-51524Y191677D01*
X-51526Y191697D01*
X-51566Y191792D01*
X-51602Y191889D01*
X-51615Y191905D01*
X-51622Y191923D01*
X-51727Y192054D01*
X-52959Y193286D01*
X-53849Y195434D01*
X-53849Y197758D01*
X-52959Y199906D01*
X-51316Y201549D01*
X-49168Y202439D01*
X-46844Y202439D01*
X-44696Y201549D01*
X-43053Y199906D01*
X-42163Y197758D01*
X-42163Y195434D01*
X-43053Y193286D01*
X-44031Y192308D01*
X-44042Y192292D01*
X-44058Y192280D01*
X-44114Y192192D01*
X-44174Y192109D01*
X-44180Y192090D01*
X-44191Y192073D01*
X-44216Y191972D01*
X-44247Y191873D01*
X-44246Y191854D01*
X-44251Y191834D01*
X-44243Y191731D01*
X-44240Y191628D01*
X-44234Y191609D01*
X-44232Y191589D01*
X-44194Y191499D01*
X-44189Y191479D01*
X-44181Y191465D01*
X-44156Y191397D01*
X-44143Y191381D01*
X-44136Y191363D01*
X-44073Y191285D01*
X-44063Y191268D01*
X-44052Y191259D01*
X-44031Y191232D01*
X-42799Y190000D01*
X-41909Y187852D01*
X-41909Y185528D01*
X-42622Y183806D01*
X-42633Y183762D01*
X-42652Y183720D01*
X-42661Y183643D01*
X-42679Y183567D01*
X-42674Y183521D01*
X-42679Y183476D01*
X-42663Y183399D01*
X-42655Y183322D01*
X-42637Y183280D01*
X-42627Y183235D01*
X-42587Y183168D01*
X-42555Y183097D01*
X-42524Y183063D01*
X-42501Y183024D01*
X-42442Y182973D01*
X-42389Y182916D01*
X-42349Y182894D01*
X-42314Y182864D01*
X-42242Y182835D01*
X-42174Y182798D01*
X-42128Y182789D01*
X-42086Y182772D01*
X-41950Y182757D01*
X-41931Y182754D01*
X-41926Y182755D01*
X-41919Y182754D01*
X-35957Y182754D01*
X-35867Y182768D01*
X-35776Y182776D01*
X-35746Y182788D01*
X-35714Y182793D01*
X-35633Y182836D01*
X-35550Y182872D01*
X-35517Y182898D01*
X-35497Y182909D01*
X-35475Y182932D01*
X-35419Y182977D01*
X-27813Y190583D01*
X-26098Y192298D01*
X-23997Y193168D01*
X1531Y193168D01*
X1627Y193183D01*
X1724Y193193D01*
X1748Y193203D01*
X1774Y193207D01*
X1860Y193253D01*
X1949Y193293D01*
X1968Y193310D01*
X1992Y193323D01*
X2058Y193393D01*
X2130Y193459D01*
X2143Y193482D01*
X2161Y193501D01*
X2202Y193589D01*
X2249Y193675D01*
X2254Y193700D01*
X2265Y193724D01*
X2275Y193821D01*
X2293Y193917D01*
X2289Y193943D01*
X2292Y193968D01*
X2271Y194064D01*
X2257Y194160D01*
X2245Y194183D01*
X2239Y194209D01*
X2189Y194292D01*
X2145Y194379D01*
X2127Y194398D01*
X2113Y194420D01*
X2039Y194483D01*
X1970Y194551D01*
X1941Y194567D01*
X1926Y194580D01*
X1896Y194592D01*
X1823Y194632D01*
X-158Y195453D01*
X-1802Y197096D01*
X-2691Y199244D01*
X-2691Y201716D01*
X-2707Y201812D01*
X-2716Y201909D01*
X-2727Y201933D01*
X-2731Y201958D01*
X-2777Y202044D01*
X-2816Y202133D01*
X-2834Y202153D01*
X-2846Y202176D01*
X-2917Y202243D01*
X-2983Y202314D01*
X-3005Y202327D01*
X-3024Y202345D01*
X-3113Y202386D01*
X-3198Y202433D01*
X-3224Y202438D01*
X-3247Y202449D01*
X-3344Y202459D01*
X-3440Y202477D01*
X-3466Y202473D01*
X-3492Y202476D01*
X-3587Y202455D01*
X-3684Y202441D01*
X-3707Y202429D01*
X-3732Y202424D01*
X-3816Y202374D01*
X-3903Y202329D01*
X-3921Y202311D01*
X-3943Y202297D01*
X-4007Y202223D01*
X-4075Y202154D01*
X-4091Y202125D01*
X-4103Y202110D01*
X-4116Y202080D01*
X-4156Y202007D01*
X-4191Y201922D01*
X-5834Y200279D01*
X-7982Y199389D01*
X-10306Y199389D01*
X-12454Y200279D01*
X-14097Y201922D01*
X-14987Y204070D01*
X-14987Y206394D01*
X-14097Y208542D01*
X-12454Y210185D01*
X-10306Y211075D01*
X-7982Y211075D01*
X-5834Y210185D01*
X-4191Y208542D01*
X-3301Y206394D01*
X-3301Y203922D01*
X-3299Y203909D01*
X-3300Y203899D01*
X-3289Y203848D01*
X-3286Y203826D01*
X-3276Y203729D01*
X-3266Y203705D01*
X-3262Y203680D01*
X-3216Y203594D01*
X-3176Y203505D01*
X-3159Y203485D01*
X-3146Y203462D01*
X-3076Y203395D01*
X-3010Y203324D01*
X-2987Y203311D01*
X-2968Y203293D01*
X-2880Y203252D01*
X-2794Y203205D01*
X-2769Y203200D01*
X-2745Y203189D01*
X-2648Y203179D01*
X-2552Y203161D01*
X-2526Y203165D01*
X-2501Y203162D01*
X-2405Y203183D01*
X-2309Y203197D01*
X-2286Y203209D01*
X-2260Y203214D01*
X-2176Y203264D01*
X-2090Y203309D01*
X-2071Y203327D01*
X-2049Y203341D01*
X-1986Y203415D01*
X-1918Y203484D01*
X-1902Y203513D01*
X-1889Y203528D01*
X-1877Y203558D01*
X-1837Y203631D01*
X-1802Y203716D01*
X-158Y205359D01*
X1989Y206249D01*
X4314Y206249D01*
X6461Y205359D01*
X8105Y203716D01*
X8994Y201568D01*
X8994Y199244D01*
X8105Y197096D01*
X6461Y195453D01*
X4480Y194632D01*
X4397Y194581D01*
X4311Y194535D01*
X4294Y194517D01*
X4271Y194503D01*
X4209Y194427D01*
X4142Y194357D01*
X4131Y194333D01*
X4114Y194313D01*
X4079Y194222D01*
X4038Y194134D01*
X4036Y194108D01*
X4026Y194084D01*
X4022Y193986D01*
X4011Y193890D01*
X4017Y193864D01*
X4016Y193838D01*
X4043Y193744D01*
X4064Y193649D01*
X4077Y193627D01*
X4084Y193602D01*
X4140Y193522D01*
X4190Y193438D01*
X4210Y193421D01*
X4225Y193400D01*
X4303Y193341D01*
X4377Y193278D01*
X4401Y193268D01*
X4422Y193253D01*
X4514Y193223D01*
X4605Y193186D01*
X4637Y193183D01*
X4656Y193177D01*
X4689Y193177D01*
X4772Y193168D01*
X43799Y193168D01*
X43889Y193182D01*
X43980Y193190D01*
X44010Y193202D01*
X44042Y193207D01*
X44123Y193250D01*
X44206Y193286D01*
X44239Y193312D01*
X44259Y193323D01*
X44281Y193346D01*
X44337Y193391D01*
X55640Y204694D01*
X55682Y204752D01*
X55732Y204804D01*
X55754Y204851D01*
X55784Y204893D01*
X55805Y204962D01*
X55835Y205027D01*
X55841Y205079D01*
X55856Y205129D01*
X55855Y205200D01*
X55862Y205271D01*
X55851Y205322D01*
X55850Y205374D01*
X55825Y205442D01*
X55810Y205512D01*
X55783Y205557D01*
X55766Y205605D01*
X55721Y205661D01*
X55684Y205723D01*
X55644Y205757D01*
X55612Y205797D01*
X55552Y205836D01*
X55497Y205883D01*
X55449Y205902D01*
X55405Y205930D01*
X55335Y205948D01*
X55269Y205975D01*
X55198Y205983D01*
X55166Y205991D01*
X55143Y205989D01*
X55102Y205993D01*
X52686Y205993D01*
X50538Y206883D01*
X48895Y208526D01*
X48005Y210674D01*
X48005Y212998D01*
X48350Y213831D01*
X48355Y213850D01*
X48364Y213868D01*
X48383Y213970D01*
X48406Y214070D01*
X48404Y214090D01*
X48408Y214110D01*
X48393Y214212D01*
X48383Y214315D01*
X48375Y214333D01*
X48372Y214353D01*
X48325Y214445D01*
X48283Y214540D01*
X48270Y214554D01*
X48261Y214572D01*
X48187Y214645D01*
X48117Y214721D01*
X48099Y214730D01*
X48085Y214744D01*
X47938Y214825D01*
X47490Y215011D01*
X45847Y216654D01*
X44957Y218802D01*
X44957Y221126D01*
X45847Y223274D01*
X47490Y224917D01*
X49132Y225597D01*
X49171Y225621D01*
X49214Y225637D01*
X49274Y225686D01*
X49341Y225727D01*
X49370Y225762D01*
X49406Y225791D01*
X49448Y225856D01*
X49497Y225916D01*
X49514Y225959D01*
X49539Y225998D01*
X49558Y226073D01*
X49586Y226146D01*
X49588Y226192D01*
X49599Y226236D01*
X49593Y226314D01*
X49596Y226391D01*
X49583Y226436D01*
X49580Y226481D01*
X49549Y226553D01*
X49528Y226628D01*
X49501Y226665D01*
X49483Y226708D01*
X49398Y226814D01*
X49387Y226830D01*
X49383Y226833D01*
X49379Y226839D01*
X48641Y227576D01*
X47751Y229724D01*
X47751Y232048D01*
X48641Y234196D01*
X49365Y234920D01*
X49376Y234936D01*
X49392Y234948D01*
X49448Y235036D01*
X49508Y235119D01*
X49514Y235138D01*
X49525Y235155D01*
X49550Y235256D01*
X49581Y235355D01*
X49580Y235374D01*
X49585Y235394D01*
X49577Y235497D01*
X49574Y235600D01*
X49568Y235619D01*
X49566Y235639D01*
X49526Y235734D01*
X49490Y235831D01*
X49477Y235847D01*
X49470Y235865D01*
X49365Y235996D01*
X48768Y236593D01*
X47878Y238741D01*
X47878Y241065D01*
X48089Y241574D01*
X48093Y241593D01*
X48103Y241611D01*
X48122Y241713D01*
X48145Y241813D01*
X48143Y241833D01*
X48147Y241853D01*
X48132Y241955D01*
X48122Y242058D01*
X48114Y242076D01*
X48111Y242096D01*
X48064Y242188D01*
X48022Y242283D01*
X48009Y242298D01*
X48000Y242315D01*
X47926Y242388D01*
X47856Y242464D01*
X47838Y242474D01*
X47824Y242488D01*
X47677Y242568D01*
X46736Y242958D01*
X45092Y244602D01*
X44203Y246749D01*
X44203Y249074D01*
X45092Y251221D01*
X46736Y252865D01*
X48883Y253754D01*
X51208Y253754D01*
X53355Y252865D01*
X54999Y251221D01*
X55888Y249074D01*
X55888Y246749D01*
X55678Y246241D01*
X55673Y246221D01*
X55663Y246204D01*
X55645Y246102D01*
X55621Y246001D01*
X55623Y245981D01*
X55620Y245962D01*
X55635Y245859D01*
X55644Y245756D01*
X55653Y245738D01*
X55655Y245718D01*
X55702Y245626D01*
X55744Y245532D01*
X55758Y245517D01*
X55767Y245499D01*
X55841Y245427D01*
X55911Y245351D01*
X55928Y245341D01*
X55943Y245327D01*
X56090Y245246D01*
X57031Y244856D01*
X58674Y243213D01*
X59564Y241065D01*
X59564Y238741D01*
X58674Y236593D01*
X57950Y235869D01*
X57939Y235853D01*
X57923Y235841D01*
X57867Y235753D01*
X57807Y235670D01*
X57801Y235651D01*
X57790Y235634D01*
X57765Y235533D01*
X57734Y235434D01*
X57735Y235415D01*
X57730Y235395D01*
X57738Y235292D01*
X57741Y235189D01*
X57747Y235170D01*
X57749Y235150D01*
X57789Y235055D01*
X57825Y234958D01*
X57838Y234942D01*
X57845Y234924D01*
X57950Y234793D01*
X58547Y234196D01*
X59437Y232048D01*
X59437Y229724D01*
X58547Y227576D01*
X56904Y225933D01*
X55262Y225253D01*
X55223Y225229D01*
X55180Y225213D01*
X55120Y225164D01*
X55053Y225123D01*
X55024Y225088D01*
X54988Y225059D01*
X54946Y224994D01*
X54897Y224934D01*
X54880Y224891D01*
X54855Y224852D01*
X54836Y224777D01*
X54808Y224704D01*
X54806Y224658D01*
X54795Y224614D01*
X54801Y224536D01*
X54798Y224459D01*
X54811Y224414D01*
X54814Y224369D01*
X54845Y224297D01*
X54866Y224222D01*
X54893Y224185D01*
X54911Y224142D01*
X54996Y224036D01*
X55007Y224020D01*
X55011Y224017D01*
X55015Y224011D01*
X55753Y223274D01*
X56643Y221126D01*
X56643Y218802D01*
X56298Y217969D01*
X56293Y217950D01*
X56284Y217932D01*
X56265Y217830D01*
X56242Y217730D01*
X56244Y217710D01*
X56240Y217690D01*
X56255Y217588D01*
X56265Y217485D01*
X56273Y217467D01*
X56276Y217447D01*
X56323Y217355D01*
X56365Y217260D01*
X56378Y217246D01*
X56387Y217228D01*
X56461Y217155D01*
X56531Y217079D01*
X56549Y217070D01*
X56563Y217056D01*
X56710Y216975D01*
X57158Y216789D01*
X58801Y215146D01*
X59691Y212998D01*
X59691Y210582D01*
X59702Y210511D01*
X59704Y210439D01*
X59722Y210390D01*
X59730Y210339D01*
X59764Y210276D01*
X59789Y210208D01*
X59821Y210168D01*
X59846Y210122D01*
X59897Y210072D01*
X59942Y210016D01*
X59986Y209988D01*
X60024Y209952D01*
X60089Y209922D01*
X60149Y209883D01*
X60200Y209871D01*
X60247Y209849D01*
X60318Y209841D01*
X60388Y209823D01*
X60440Y209827D01*
X60491Y209822D01*
X60562Y209837D01*
X60633Y209842D01*
X60681Y209863D01*
X60732Y209874D01*
X60793Y209911D01*
X60859Y209939D01*
X60915Y209983D01*
X60943Y210000D01*
X60958Y210018D01*
X60990Y210044D01*
X71755Y220809D01*
X73470Y222524D01*
X75571Y223394D01*
X102535Y223394D01*
X102600Y223404D01*
X102666Y223405D01*
X102746Y223428D01*
X102778Y223433D01*
X102795Y223443D01*
X102827Y223452D01*
X104152Y224001D01*
X106668Y224001D01*
X108992Y223038D01*
X110770Y221260D01*
X111733Y218936D01*
X111733Y216420D01*
X110770Y214096D01*
X108992Y212318D01*
X106668Y211355D01*
X104152Y211355D01*
X102827Y211904D01*
X102763Y211919D01*
X102702Y211944D01*
X102619Y211953D01*
X102587Y211960D01*
X102568Y211959D01*
X102535Y211962D01*
X79391Y211962D01*
X79301Y211948D01*
X79210Y211940D01*
X79180Y211928D01*
X79148Y211923D01*
X79067Y211880D01*
X78984Y211844D01*
X78951Y211818D01*
X78931Y211807D01*
X78909Y211784D01*
X78853Y211739D01*
X49720Y182606D01*
X47619Y181736D01*
X-20177Y181736D01*
X-20267Y181722D01*
X-20358Y181714D01*
X-20388Y181702D01*
X-20420Y181697D01*
X-20501Y181654D01*
X-20584Y181618D01*
X-20617Y181592D01*
X-20637Y181581D01*
X-20659Y181558D01*
X-20715Y181513D01*
X-28321Y173907D01*
X-30036Y172192D01*
X-32137Y171322D01*
X-58541Y171322D01*
G37*
%LPD*%
%LPC*%
G36*
X152412Y143537D02*
X152412Y143537D01*
X150088Y144500D01*
X148310Y146278D01*
X147720Y147703D01*
X147695Y147742D01*
X147680Y147786D01*
X147631Y147846D01*
X147590Y147912D01*
X147555Y147942D01*
X147526Y147978D01*
X147461Y148020D01*
X147401Y148069D01*
X147358Y148086D01*
X147319Y148111D01*
X147244Y148130D01*
X147171Y148157D01*
X147125Y148159D01*
X147081Y148171D01*
X147003Y148165D01*
X146925Y148168D01*
X146881Y148155D01*
X146835Y148151D01*
X146764Y148121D01*
X146689Y148099D01*
X146651Y148073D01*
X146609Y148055D01*
X146502Y147970D01*
X146487Y147959D01*
X146484Y147955D01*
X146478Y147950D01*
X145568Y147040D01*
X143244Y146077D01*
X140728Y146077D01*
X138404Y147040D01*
X136626Y148818D01*
X136541Y149024D01*
X136503Y149085D01*
X136474Y149151D01*
X136438Y149189D01*
X136411Y149233D01*
X136356Y149279D01*
X136307Y149332D01*
X136262Y149357D01*
X136222Y149390D01*
X136155Y149416D01*
X136092Y149450D01*
X136040Y149459D01*
X135992Y149478D01*
X135920Y149481D01*
X135850Y149494D01*
X135798Y149486D01*
X135746Y149489D01*
X135677Y149469D01*
X135606Y149458D01*
X135560Y149435D01*
X135510Y149420D01*
X135451Y149379D01*
X135387Y149346D01*
X135351Y149309D01*
X135308Y149280D01*
X135265Y149222D01*
X135215Y149171D01*
X135180Y149108D01*
X135161Y149082D01*
X135160Y149078D01*
X133376Y147294D01*
X131052Y146331D01*
X128536Y146331D01*
X126212Y147294D01*
X124617Y148889D01*
X124601Y148901D01*
X124589Y148916D01*
X124501Y148972D01*
X124418Y149033D01*
X124399Y149038D01*
X124382Y149049D01*
X124281Y149074D01*
X124182Y149105D01*
X124163Y149104D01*
X124143Y149109D01*
X124040Y149101D01*
X123937Y149099D01*
X123918Y149092D01*
X123898Y149090D01*
X123803Y149050D01*
X123706Y149014D01*
X123690Y149002D01*
X123672Y148994D01*
X123541Y148889D01*
X121692Y147040D01*
X119368Y146077D01*
X116852Y146077D01*
X114528Y147040D01*
X112750Y148818D01*
X111787Y151142D01*
X111787Y153690D01*
X111804Y153733D01*
X111806Y153785D01*
X111818Y153836D01*
X111811Y153907D01*
X111814Y153979D01*
X111800Y154029D01*
X111795Y154080D01*
X111766Y154146D01*
X111746Y154215D01*
X111716Y154258D01*
X111695Y154305D01*
X111646Y154358D01*
X111605Y154417D01*
X111564Y154448D01*
X111528Y154486D01*
X111466Y154521D01*
X111408Y154564D01*
X111359Y154580D01*
X111313Y154605D01*
X111242Y154618D01*
X111174Y154640D01*
X111122Y154639D01*
X111071Y154649D01*
X111000Y154638D01*
X110928Y154637D01*
X110859Y154617D01*
X110828Y154613D01*
X110807Y154602D01*
X110767Y154591D01*
X110382Y154431D01*
X108058Y154431D01*
X105910Y155321D01*
X104267Y156964D01*
X103377Y159112D01*
X103377Y161436D01*
X104267Y163584D01*
X105910Y165227D01*
X108058Y166117D01*
X110382Y166117D01*
X111455Y165672D01*
X111525Y165656D01*
X111591Y165630D01*
X111644Y165628D01*
X111694Y165616D01*
X111766Y165623D01*
X111837Y165620D01*
X111887Y165635D01*
X111939Y165639D01*
X112005Y165669D01*
X112073Y165689D01*
X112116Y165718D01*
X112164Y165739D01*
X112217Y165788D01*
X112276Y165829D01*
X112307Y165870D01*
X112345Y165906D01*
X112380Y165969D01*
X112422Y166026D01*
X112438Y166076D01*
X112464Y166121D01*
X112476Y166192D01*
X112498Y166260D01*
X112498Y166312D01*
X112507Y166363D01*
X112497Y166434D01*
X112496Y166506D01*
X112476Y166575D01*
X112471Y166607D01*
X112461Y166628D01*
X112449Y166667D01*
X112041Y167652D01*
X112041Y170168D01*
X113004Y172492D01*
X114782Y174270D01*
X117106Y175233D01*
X119622Y175233D01*
X121946Y174270D01*
X123414Y172802D01*
X123430Y172790D01*
X123442Y172775D01*
X123530Y172719D01*
X123613Y172658D01*
X123632Y172653D01*
X123649Y172642D01*
X123750Y172617D01*
X123849Y172586D01*
X123868Y172587D01*
X123888Y172582D01*
X123991Y172590D01*
X124094Y172592D01*
X124113Y172599D01*
X124133Y172601D01*
X124228Y172641D01*
X124325Y172677D01*
X124341Y172689D01*
X124359Y172697D01*
X124490Y172802D01*
X125958Y174270D01*
X128282Y175233D01*
X130798Y175233D01*
X133122Y174270D01*
X134907Y172485D01*
X134919Y172464D01*
X134935Y172421D01*
X134984Y172361D01*
X135025Y172294D01*
X135060Y172265D01*
X135089Y172229D01*
X135154Y172187D01*
X135214Y172138D01*
X135257Y172121D01*
X135296Y172096D01*
X135371Y172077D01*
X135444Y172049D01*
X135490Y172047D01*
X135534Y172036D01*
X135612Y172042D01*
X135690Y172039D01*
X135734Y172052D01*
X135780Y172055D01*
X135851Y172086D01*
X135926Y172107D01*
X135964Y172134D01*
X136006Y172152D01*
X136112Y172237D01*
X136128Y172248D01*
X136131Y172252D01*
X136137Y172256D01*
X137896Y174016D01*
X140220Y174979D01*
X142736Y174979D01*
X145060Y174016D01*
X146838Y172238D01*
X147801Y169914D01*
X147801Y167398D01*
X146838Y165074D01*
X145060Y163296D01*
X142736Y162333D01*
X142466Y162333D01*
X142446Y162330D01*
X142427Y162332D01*
X142325Y162310D01*
X142223Y162294D01*
X142206Y162284D01*
X142186Y162280D01*
X142097Y162227D01*
X142006Y162178D01*
X141992Y162164D01*
X141975Y162154D01*
X141908Y162075D01*
X141836Y162000D01*
X141828Y161982D01*
X141815Y161967D01*
X141776Y161871D01*
X141733Y161777D01*
X141731Y161757D01*
X141723Y161739D01*
X141705Y161572D01*
X141705Y159778D01*
X141704Y159775D01*
X141693Y159731D01*
X141674Y159689D01*
X141665Y159612D01*
X141647Y159536D01*
X141652Y159490D01*
X141647Y159445D01*
X141663Y159369D01*
X141670Y159291D01*
X141689Y159249D01*
X141699Y159204D01*
X141739Y159137D01*
X141770Y159066D01*
X141801Y159032D01*
X141825Y158993D01*
X141884Y158942D01*
X141937Y158885D01*
X141977Y158863D01*
X142012Y158833D01*
X142084Y158804D01*
X142152Y158767D01*
X142197Y158758D01*
X142240Y158741D01*
X142376Y158726D01*
X142394Y158723D01*
X142399Y158724D01*
X142407Y158723D01*
X143244Y158723D01*
X145568Y157760D01*
X147346Y155982D01*
X147936Y154557D01*
X147961Y154518D01*
X147976Y154474D01*
X148025Y154414D01*
X148066Y154348D01*
X148101Y154318D01*
X148130Y154282D01*
X148195Y154240D01*
X148255Y154191D01*
X148298Y154174D01*
X148337Y154149D01*
X148412Y154130D01*
X148485Y154103D01*
X148531Y154101D01*
X148575Y154089D01*
X148653Y154095D01*
X148731Y154092D01*
X148775Y154105D01*
X148821Y154109D01*
X148892Y154139D01*
X148967Y154161D01*
X149005Y154187D01*
X149047Y154205D01*
X149154Y154290D01*
X149169Y154301D01*
X149172Y154305D01*
X149178Y154310D01*
X150088Y155220D01*
X152412Y156183D01*
X154928Y156183D01*
X157252Y155220D01*
X159030Y153442D01*
X159993Y151118D01*
X159993Y148602D01*
X159030Y146278D01*
X157252Y144500D01*
X154928Y143537D01*
X152412Y143537D01*
G37*
%LPD*%
%LPC*%
G36*
X-20308Y146331D02*
X-20308Y146331D01*
X-22632Y147294D01*
X-24410Y149072D01*
X-25373Y151396D01*
X-25373Y153912D01*
X-24410Y156236D01*
X-22632Y158014D01*
X-20625Y158845D01*
X-20608Y158856D01*
X-20589Y158861D01*
X-20504Y158920D01*
X-20416Y158975D01*
X-20403Y158990D01*
X-20387Y159002D01*
X-20325Y159084D01*
X-20259Y159164D01*
X-20252Y159183D01*
X-20240Y159199D01*
X-20208Y159297D01*
X-20171Y159394D01*
X-20170Y159414D01*
X-20164Y159433D01*
X-20165Y159536D01*
X-20161Y159640D01*
X-20166Y159659D01*
X-20166Y159679D01*
X-20213Y159840D01*
X-20293Y160032D01*
X-20293Y162432D01*
X-20312Y162546D01*
X-20329Y162663D01*
X-20331Y162668D01*
X-20332Y162674D01*
X-20387Y162777D01*
X-20440Y162882D01*
X-20445Y162886D01*
X-20448Y162892D01*
X-20532Y162972D01*
X-20616Y163054D01*
X-20622Y163058D01*
X-20626Y163061D01*
X-20643Y163069D01*
X-20763Y163135D01*
X-22378Y163804D01*
X-24156Y165582D01*
X-25119Y167906D01*
X-25119Y170422D01*
X-24156Y172746D01*
X-22378Y174524D01*
X-20054Y175487D01*
X-17538Y175487D01*
X-15214Y174524D01*
X-13746Y173056D01*
X-13730Y173044D01*
X-13718Y173029D01*
X-13630Y172973D01*
X-13547Y172912D01*
X-13528Y172907D01*
X-13511Y172896D01*
X-13410Y172871D01*
X-13311Y172840D01*
X-13292Y172841D01*
X-13272Y172836D01*
X-13169Y172844D01*
X-13066Y172846D01*
X-13047Y172853D01*
X-13027Y172855D01*
X-12932Y172895D01*
X-12835Y172931D01*
X-12819Y172943D01*
X-12801Y172951D01*
X-12670Y173056D01*
X-11202Y174524D01*
X-8878Y175487D01*
X-6362Y175487D01*
X-4038Y174524D01*
X-2253Y172739D01*
X-2241Y172718D01*
X-2225Y172675D01*
X-2176Y172615D01*
X-2135Y172548D01*
X-2100Y172519D01*
X-2071Y172483D01*
X-2006Y172441D01*
X-1946Y172392D01*
X-1903Y172375D01*
X-1864Y172350D01*
X-1789Y172331D01*
X-1716Y172303D01*
X-1670Y172301D01*
X-1626Y172290D01*
X-1548Y172296D01*
X-1470Y172293D01*
X-1426Y172306D01*
X-1380Y172309D01*
X-1309Y172340D01*
X-1234Y172361D01*
X-1196Y172388D01*
X-1154Y172406D01*
X-1048Y172491D01*
X-1032Y172502D01*
X-1029Y172506D01*
X-1023Y172510D01*
X736Y174270D01*
X3060Y175233D01*
X5576Y175233D01*
X7900Y174270D01*
X9678Y172492D01*
X10641Y170168D01*
X10641Y167652D01*
X9678Y165328D01*
X7900Y163550D01*
X5576Y162587D01*
X5306Y162587D01*
X5286Y162584D01*
X5267Y162586D01*
X5165Y162564D01*
X5063Y162548D01*
X5046Y162538D01*
X5026Y162534D01*
X4937Y162481D01*
X4846Y162432D01*
X4832Y162418D01*
X4815Y162408D01*
X4748Y162329D01*
X4676Y162254D01*
X4668Y162236D01*
X4655Y162221D01*
X4616Y162125D01*
X4573Y162031D01*
X4571Y162011D01*
X4563Y161993D01*
X4545Y161826D01*
X4545Y160032D01*
X4544Y160029D01*
X4536Y159995D01*
X4534Y159991D01*
X4533Y159984D01*
X4514Y159943D01*
X4505Y159866D01*
X4487Y159790D01*
X4492Y159744D01*
X4487Y159699D01*
X4503Y159623D01*
X4510Y159545D01*
X4529Y159503D01*
X4539Y159458D01*
X4579Y159391D01*
X4610Y159320D01*
X4641Y159286D01*
X4665Y159247D01*
X4724Y159196D01*
X4777Y159139D01*
X4817Y159117D01*
X4852Y159087D01*
X4924Y159058D01*
X4992Y159021D01*
X5037Y159012D01*
X5080Y158995D01*
X5216Y158980D01*
X5234Y158977D01*
X5239Y158978D01*
X5247Y158977D01*
X6084Y158977D01*
X8408Y158014D01*
X10186Y156236D01*
X11149Y153912D01*
X11149Y151396D01*
X10186Y149072D01*
X8408Y147294D01*
X6084Y146331D01*
X3568Y146331D01*
X1244Y147294D01*
X-534Y149072D01*
X-619Y149278D01*
X-657Y149339D01*
X-686Y149405D01*
X-722Y149443D01*
X-749Y149487D01*
X-804Y149533D01*
X-853Y149586D01*
X-898Y149611D01*
X-938Y149644D01*
X-1005Y149670D01*
X-1068Y149704D01*
X-1120Y149713D01*
X-1168Y149732D01*
X-1240Y149735D01*
X-1310Y149748D01*
X-1362Y149740D01*
X-1414Y149743D01*
X-1483Y149723D01*
X-1554Y149712D01*
X-1600Y149689D01*
X-1650Y149674D01*
X-1709Y149633D01*
X-1773Y149600D01*
X-1809Y149563D01*
X-1852Y149534D01*
X-1895Y149476D01*
X-1945Y149425D01*
X-1980Y149362D01*
X-1999Y149336D01*
X-2000Y149332D01*
X-3784Y147548D01*
X-6108Y146585D01*
X-8624Y146585D01*
X-10948Y147548D01*
X-12543Y149143D01*
X-12559Y149155D01*
X-12571Y149170D01*
X-12659Y149226D01*
X-12742Y149287D01*
X-12761Y149292D01*
X-12778Y149303D01*
X-12879Y149329D01*
X-12978Y149359D01*
X-12997Y149358D01*
X-13017Y149363D01*
X-13120Y149355D01*
X-13223Y149353D01*
X-13242Y149346D01*
X-13262Y149344D01*
X-13357Y149304D01*
X-13454Y149268D01*
X-13470Y149256D01*
X-13488Y149248D01*
X-13619Y149143D01*
X-15468Y147294D01*
X-17792Y146331D01*
X-20308Y146331D01*
G37*
%LPD*%
%LPC*%
G36*
X-136894Y143791D02*
X-136894Y143791D01*
X-139218Y144754D01*
X-141067Y146603D01*
X-141083Y146615D01*
X-141095Y146630D01*
X-141183Y146686D01*
X-141266Y146747D01*
X-141285Y146752D01*
X-141302Y146763D01*
X-141403Y146789D01*
X-141502Y146819D01*
X-141521Y146818D01*
X-141541Y146823D01*
X-141644Y146815D01*
X-141747Y146813D01*
X-141766Y146806D01*
X-141786Y146804D01*
X-141881Y146764D01*
X-141978Y146728D01*
X-141994Y146716D01*
X-142012Y146708D01*
X-142143Y146603D01*
X-143484Y145262D01*
X-145808Y144299D01*
X-148324Y144299D01*
X-150648Y145262D01*
X-152243Y146857D01*
X-152259Y146869D01*
X-152271Y146884D01*
X-152359Y146940D01*
X-152442Y147001D01*
X-152461Y147006D01*
X-152478Y147017D01*
X-152579Y147043D01*
X-152678Y147073D01*
X-152697Y147072D01*
X-152717Y147077D01*
X-152820Y147069D01*
X-152923Y147067D01*
X-152942Y147060D01*
X-152962Y147058D01*
X-153057Y147018D01*
X-153154Y146982D01*
X-153170Y146970D01*
X-153188Y146962D01*
X-153319Y146857D01*
X-155168Y145008D01*
X-157492Y144045D01*
X-160008Y144045D01*
X-162332Y145008D01*
X-164110Y146786D01*
X-165073Y149110D01*
X-165073Y151626D01*
X-164110Y153950D01*
X-162332Y155728D01*
X-160325Y156559D01*
X-160308Y156570D01*
X-160289Y156575D01*
X-160204Y156634D01*
X-160116Y156689D01*
X-160103Y156704D01*
X-160087Y156716D01*
X-160025Y156798D01*
X-159959Y156878D01*
X-159952Y156897D01*
X-159940Y156913D01*
X-159908Y157011D01*
X-159871Y157108D01*
X-159870Y157128D01*
X-159864Y157147D01*
X-159865Y157250D01*
X-159861Y157354D01*
X-159866Y157373D01*
X-159866Y157393D01*
X-159913Y157554D01*
X-159993Y157746D01*
X-159993Y160146D01*
X-160012Y160260D01*
X-160029Y160377D01*
X-160031Y160382D01*
X-160032Y160388D01*
X-160087Y160491D01*
X-160140Y160596D01*
X-160145Y160600D01*
X-160148Y160606D01*
X-160232Y160686D01*
X-160316Y160768D01*
X-160322Y160772D01*
X-160326Y160775D01*
X-160343Y160783D01*
X-160463Y160849D01*
X-162078Y161518D01*
X-163856Y163296D01*
X-164819Y165620D01*
X-164819Y168136D01*
X-163856Y170460D01*
X-162078Y172238D01*
X-159754Y173201D01*
X-157238Y173201D01*
X-154914Y172238D01*
X-153446Y170770D01*
X-153430Y170758D01*
X-153418Y170743D01*
X-153330Y170687D01*
X-153247Y170626D01*
X-153228Y170621D01*
X-153211Y170610D01*
X-153110Y170585D01*
X-153011Y170554D01*
X-152992Y170555D01*
X-152972Y170550D01*
X-152869Y170558D01*
X-152766Y170560D01*
X-152747Y170567D01*
X-152727Y170569D01*
X-152632Y170609D01*
X-152535Y170645D01*
X-152519Y170657D01*
X-152501Y170665D01*
X-152370Y170770D01*
X-150902Y172238D01*
X-148578Y173201D01*
X-146062Y173201D01*
X-143738Y172238D01*
X-141953Y170453D01*
X-141941Y170433D01*
X-141925Y170389D01*
X-141876Y170329D01*
X-141835Y170262D01*
X-141800Y170233D01*
X-141771Y170197D01*
X-141706Y170155D01*
X-141646Y170106D01*
X-141603Y170089D01*
X-141564Y170064D01*
X-141489Y170045D01*
X-141416Y170017D01*
X-141370Y170015D01*
X-141326Y170004D01*
X-141248Y170010D01*
X-141170Y170007D01*
X-141126Y170020D01*
X-141080Y170023D01*
X-141009Y170054D01*
X-140934Y170076D01*
X-140896Y170102D01*
X-140854Y170120D01*
X-140747Y170205D01*
X-140732Y170216D01*
X-140729Y170220D01*
X-140723Y170225D01*
X-138964Y171984D01*
X-136640Y172947D01*
X-134124Y172947D01*
X-131800Y171984D01*
X-130022Y170206D01*
X-129059Y167882D01*
X-129059Y165366D01*
X-130022Y163042D01*
X-131800Y161264D01*
X-134124Y160301D01*
X-134394Y160301D01*
X-134414Y160298D01*
X-134433Y160300D01*
X-134535Y160278D01*
X-134637Y160262D01*
X-134654Y160252D01*
X-134674Y160248D01*
X-134763Y160195D01*
X-134854Y160146D01*
X-134868Y160132D01*
X-134885Y160122D01*
X-134952Y160043D01*
X-135024Y159968D01*
X-135032Y159950D01*
X-135045Y159935D01*
X-135084Y159839D01*
X-135127Y159745D01*
X-135129Y159725D01*
X-135137Y159707D01*
X-135155Y159540D01*
X-135155Y157746D01*
X-135262Y157489D01*
X-135272Y157445D01*
X-135292Y157403D01*
X-135300Y157326D01*
X-135318Y157250D01*
X-135314Y157204D01*
X-135319Y157159D01*
X-135302Y157082D01*
X-135295Y157005D01*
X-135276Y156963D01*
X-135266Y156918D01*
X-135226Y156851D01*
X-135195Y156780D01*
X-135164Y156746D01*
X-135140Y156707D01*
X-135081Y156656D01*
X-135028Y156599D01*
X-134988Y156577D01*
X-134953Y156547D01*
X-134881Y156518D01*
X-134813Y156481D01*
X-134768Y156472D01*
X-134725Y156455D01*
X-134589Y156440D01*
X-134571Y156437D01*
X-134566Y156438D01*
X-134558Y156437D01*
X-134378Y156437D01*
X-132054Y155474D01*
X-130276Y153696D01*
X-129313Y151372D01*
X-129313Y148856D01*
X-130276Y146532D01*
X-132054Y144754D01*
X-134378Y143791D01*
X-136894Y143791D01*
G37*
%LPD*%
%LPC*%
G36*
X-43676Y248947D02*
X-43676Y248947D01*
X-46000Y249910D01*
X-47814Y251724D01*
X-47909Y251792D01*
X-48003Y251862D01*
X-48009Y251864D01*
X-48014Y251868D01*
X-48125Y251902D01*
X-48236Y251938D01*
X-48243Y251938D01*
X-48249Y251940D01*
X-48365Y251937D01*
X-48482Y251936D01*
X-48490Y251934D01*
X-48495Y251934D01*
X-48512Y251927D01*
X-48643Y251889D01*
X-50908Y250951D01*
X-53232Y250951D01*
X-55380Y251841D01*
X-57023Y253484D01*
X-57913Y255632D01*
X-57913Y257956D01*
X-57023Y260104D01*
X-55380Y261747D01*
X-54625Y262060D01*
X-54542Y262111D01*
X-54456Y262157D01*
X-54438Y262176D01*
X-54416Y262189D01*
X-54354Y262264D01*
X-54287Y262335D01*
X-54276Y262359D01*
X-54259Y262379D01*
X-54224Y262470D01*
X-54183Y262558D01*
X-54180Y262584D01*
X-54171Y262608D01*
X-54167Y262706D01*
X-54156Y262802D01*
X-54162Y262828D01*
X-54161Y262854D01*
X-54188Y262948D01*
X-54209Y263043D01*
X-54222Y263065D01*
X-54229Y263090D01*
X-54285Y263170D01*
X-54335Y263254D01*
X-54355Y263271D01*
X-54369Y263292D01*
X-54448Y263351D01*
X-54522Y263414D01*
X-54546Y263424D01*
X-54567Y263439D01*
X-54659Y263469D01*
X-54750Y263506D01*
X-54782Y263509D01*
X-54801Y263515D01*
X-54834Y263515D01*
X-54916Y263524D01*
X-55645Y263524D01*
X-57793Y264414D01*
X-59436Y266057D01*
X-60326Y268205D01*
X-60326Y270529D01*
X-59436Y272677D01*
X-58077Y274036D01*
X-58066Y274052D01*
X-58050Y274064D01*
X-57994Y274152D01*
X-57934Y274235D01*
X-57928Y274254D01*
X-57917Y274271D01*
X-57892Y274372D01*
X-57861Y274471D01*
X-57862Y274490D01*
X-57857Y274510D01*
X-57865Y274613D01*
X-57868Y274716D01*
X-57874Y274735D01*
X-57876Y274755D01*
X-57916Y274850D01*
X-57952Y274947D01*
X-57965Y274963D01*
X-57972Y274981D01*
X-58077Y275112D01*
X-59817Y276852D01*
X-60707Y279000D01*
X-60707Y281324D01*
X-59817Y283472D01*
X-58174Y285115D01*
X-56026Y286005D01*
X-54356Y286005D01*
X-54260Y286020D01*
X-54163Y286030D01*
X-54139Y286040D01*
X-54113Y286044D01*
X-54027Y286090D01*
X-53938Y286130D01*
X-53919Y286147D01*
X-53896Y286160D01*
X-53829Y286230D01*
X-53757Y286296D01*
X-53744Y286319D01*
X-53726Y286338D01*
X-53685Y286426D01*
X-53638Y286512D01*
X-53634Y286537D01*
X-53623Y286561D01*
X-53612Y286658D01*
X-53595Y286754D01*
X-53599Y286780D01*
X-53596Y286805D01*
X-53616Y286901D01*
X-53631Y286997D01*
X-53642Y287020D01*
X-53648Y287046D01*
X-53698Y287129D01*
X-53742Y287216D01*
X-53761Y287235D01*
X-53774Y287257D01*
X-53848Y287320D01*
X-53918Y287388D01*
X-53946Y287404D01*
X-53961Y287417D01*
X-53992Y287429D01*
X-54065Y287469D01*
X-55126Y287909D01*
X-56769Y289552D01*
X-57659Y291700D01*
X-57659Y294024D01*
X-56769Y296172D01*
X-55126Y297815D01*
X-52978Y298705D01*
X-50654Y298705D01*
X-48506Y297815D01*
X-46863Y296172D01*
X-45973Y294024D01*
X-45973Y291700D01*
X-46863Y289552D01*
X-48506Y287909D01*
X-50654Y287019D01*
X-52324Y287019D01*
X-52420Y287004D01*
X-52517Y286994D01*
X-52541Y286984D01*
X-52567Y286980D01*
X-52653Y286934D01*
X-52742Y286894D01*
X-52761Y286877D01*
X-52784Y286864D01*
X-52851Y286794D01*
X-52923Y286728D01*
X-52936Y286705D01*
X-52954Y286686D01*
X-52995Y286598D01*
X-53042Y286512D01*
X-53046Y286487D01*
X-53057Y286463D01*
X-53068Y286366D01*
X-53085Y286270D01*
X-53081Y286244D01*
X-53084Y286219D01*
X-53064Y286123D01*
X-53049Y286027D01*
X-53038Y286004D01*
X-53032Y285978D01*
X-52982Y285895D01*
X-52938Y285808D01*
X-52919Y285789D01*
X-52906Y285767D01*
X-52832Y285704D01*
X-52762Y285636D01*
X-52734Y285620D01*
X-52719Y285607D01*
X-52688Y285595D01*
X-52615Y285555D01*
X-51554Y285115D01*
X-49911Y283472D01*
X-49021Y281324D01*
X-49021Y279133D01*
X-49014Y279087D01*
X-49016Y279041D01*
X-48994Y278967D01*
X-48982Y278890D01*
X-48960Y278849D01*
X-48947Y278805D01*
X-48903Y278741D01*
X-48866Y278672D01*
X-48833Y278641D01*
X-48807Y278603D01*
X-48745Y278557D01*
X-48688Y278503D01*
X-48646Y278484D01*
X-48610Y278456D01*
X-48536Y278432D01*
X-48465Y278399D01*
X-48419Y278394D01*
X-48376Y278380D01*
X-48298Y278381D01*
X-48221Y278372D01*
X-48176Y278382D01*
X-48130Y278383D01*
X-47998Y278421D01*
X-47980Y278425D01*
X-47976Y278427D01*
X-47969Y278429D01*
X-46471Y279049D01*
X-44147Y279049D01*
X-42000Y278160D01*
X-40356Y276516D01*
X-39467Y274369D01*
X-39467Y272045D01*
X-40356Y269897D01*
X-42000Y268254D01*
X-44147Y267364D01*
X-46471Y267364D01*
X-47917Y267963D01*
X-47936Y267967D01*
X-47953Y267977D01*
X-48055Y267995D01*
X-48156Y268019D01*
X-48176Y268017D01*
X-48196Y268020D01*
X-48298Y268005D01*
X-48401Y267996D01*
X-48419Y267988D01*
X-48439Y267985D01*
X-48531Y267938D01*
X-48626Y267896D01*
X-48640Y267882D01*
X-48658Y267873D01*
X-48731Y267799D01*
X-48807Y267729D01*
X-48816Y267712D01*
X-48830Y267698D01*
X-48911Y267551D01*
X-49530Y266057D01*
X-51173Y264414D01*
X-51928Y264101D01*
X-52011Y264050D01*
X-52097Y264004D01*
X-52115Y263985D01*
X-52137Y263972D01*
X-52199Y263897D01*
X-52266Y263826D01*
X-52277Y263802D01*
X-52294Y263782D01*
X-52329Y263691D01*
X-52370Y263603D01*
X-52373Y263577D01*
X-52382Y263553D01*
X-52386Y263455D01*
X-52397Y263359D01*
X-52391Y263333D01*
X-52392Y263307D01*
X-52365Y263213D01*
X-52344Y263118D01*
X-52331Y263096D01*
X-52324Y263071D01*
X-52268Y262990D01*
X-52218Y262907D01*
X-52198Y262890D01*
X-52184Y262869D01*
X-52105Y262810D01*
X-52031Y262747D01*
X-52007Y262737D01*
X-51986Y262722D01*
X-51894Y262692D01*
X-51803Y262655D01*
X-51771Y262652D01*
X-51752Y262646D01*
X-51719Y262646D01*
X-51637Y262637D01*
X-50908Y262637D01*
X-48760Y261747D01*
X-47360Y260347D01*
X-47344Y260335D01*
X-47331Y260319D01*
X-47244Y260263D01*
X-47160Y260203D01*
X-47141Y260197D01*
X-47124Y260186D01*
X-47024Y260161D01*
X-46925Y260131D01*
X-46905Y260131D01*
X-46886Y260126D01*
X-46783Y260134D01*
X-46679Y260137D01*
X-46660Y260144D01*
X-46640Y260145D01*
X-46545Y260186D01*
X-46448Y260221D01*
X-46432Y260234D01*
X-46414Y260242D01*
X-46283Y260347D01*
X-46000Y260630D01*
X-43676Y261593D01*
X-41160Y261593D01*
X-38836Y260630D01*
X-37058Y258852D01*
X-36095Y256528D01*
X-36095Y254012D01*
X-37058Y251688D01*
X-38836Y249910D01*
X-41160Y248947D01*
X-43676Y248947D01*
G37*
%LPD*%
%LPC*%
G36*
X-125060Y-28601D02*
X-125060Y-28601D01*
X-129578Y-26730D01*
X-133035Y-23272D01*
X-134906Y-18755D01*
X-134906Y-13865D01*
X-133035Y-9348D01*
X-129578Y-5890D01*
X-125060Y-4019D01*
X-120171Y-4019D01*
X-115653Y-5890D01*
X-112196Y-9348D01*
X-110325Y-13865D01*
X-110325Y-18755D01*
X-112196Y-23272D01*
X-115653Y-26730D01*
X-120171Y-28601D01*
X-125060Y-28601D01*
G37*
%LPD*%
%LPC*%
G36*
X38843Y282066D02*
X38843Y282066D01*
X36695Y282956D01*
X35052Y284599D01*
X34162Y286747D01*
X34162Y289071D01*
X35052Y291219D01*
X36695Y292862D01*
X38179Y293477D01*
X38196Y293487D01*
X38215Y293493D01*
X38300Y293552D01*
X38388Y293606D01*
X38401Y293622D01*
X38417Y293633D01*
X38479Y293716D01*
X38545Y293796D01*
X38552Y293814D01*
X38564Y293830D01*
X38596Y293929D01*
X38633Y294025D01*
X38634Y294045D01*
X38640Y294064D01*
X38639Y294168D01*
X38644Y294271D01*
X38638Y294290D01*
X38638Y294310D01*
X38591Y294471D01*
X37924Y296082D01*
X37913Y296099D01*
X37908Y296119D01*
X37849Y296204D01*
X37794Y296291D01*
X37779Y296304D01*
X37767Y296321D01*
X37684Y296382D01*
X37605Y296448D01*
X37586Y296455D01*
X37570Y296467D01*
X37472Y296499D01*
X37375Y296536D01*
X37355Y296537D01*
X37336Y296544D01*
X37233Y296543D01*
X37129Y296547D01*
X37110Y296541D01*
X37090Y296541D01*
X36929Y296494D01*
X35149Y295757D01*
X32825Y295757D01*
X31718Y296216D01*
X31698Y296221D01*
X31681Y296230D01*
X31579Y296249D01*
X31478Y296272D01*
X31458Y296270D01*
X31439Y296274D01*
X31336Y296259D01*
X31233Y296249D01*
X31215Y296241D01*
X31195Y296238D01*
X31103Y296191D01*
X31009Y296149D01*
X30994Y296136D01*
X30976Y296127D01*
X30904Y296053D01*
X30827Y295983D01*
X30818Y295965D01*
X30804Y295951D01*
X30723Y295804D01*
X30532Y295343D01*
X28888Y293699D01*
X26741Y292810D01*
X24416Y292810D01*
X22269Y293699D01*
X20625Y295343D01*
X19736Y297490D01*
X19736Y299815D01*
X20625Y301962D01*
X22269Y303606D01*
X24416Y304495D01*
X26741Y304495D01*
X27848Y304036D01*
X27868Y304032D01*
X27885Y304022D01*
X27987Y304004D01*
X28088Y303980D01*
X28108Y303982D01*
X28127Y303978D01*
X28230Y303994D01*
X28333Y304003D01*
X28351Y304011D01*
X28371Y304014D01*
X28463Y304061D01*
X28557Y304103D01*
X28572Y304117D01*
X28590Y304126D01*
X28662Y304200D01*
X28739Y304270D01*
X28748Y304287D01*
X28762Y304301D01*
X28843Y304448D01*
X29034Y304910D01*
X30678Y306553D01*
X32825Y307443D01*
X35149Y307443D01*
X37297Y306553D01*
X38940Y304910D01*
X39752Y302952D01*
X39762Y302935D01*
X39768Y302915D01*
X39827Y302830D01*
X39881Y302742D01*
X39897Y302730D01*
X39908Y302713D01*
X39991Y302652D01*
X40071Y302586D01*
X40089Y302578D01*
X40105Y302567D01*
X40204Y302535D01*
X40300Y302497D01*
X40320Y302497D01*
X40339Y302490D01*
X40443Y302491D01*
X40546Y302487D01*
X40565Y302493D01*
X40585Y302493D01*
X40746Y302540D01*
X42526Y303277D01*
X44850Y303277D01*
X46998Y302387D01*
X48641Y300744D01*
X49531Y298596D01*
X49531Y296272D01*
X48641Y294124D01*
X46998Y292481D01*
X45514Y291866D01*
X45497Y291856D01*
X45478Y291850D01*
X45393Y291791D01*
X45305Y291737D01*
X45292Y291721D01*
X45276Y291710D01*
X45214Y291627D01*
X45148Y291547D01*
X45141Y291528D01*
X45129Y291513D01*
X45097Y291414D01*
X45060Y291318D01*
X45059Y291298D01*
X45053Y291279D01*
X45054Y291175D01*
X45049Y291072D01*
X45055Y291053D01*
X45055Y291033D01*
X45102Y290872D01*
X45848Y289071D01*
X45848Y286747D01*
X44958Y284599D01*
X43315Y282956D01*
X41167Y282066D01*
X38843Y282066D01*
G37*
%LPD*%
%LPC*%
G36*
X149110Y183923D02*
X149110Y183923D01*
X146786Y184886D01*
X145008Y186664D01*
X144045Y188988D01*
X144045Y191504D01*
X145008Y193828D01*
X146730Y195550D01*
X146742Y195566D01*
X146757Y195578D01*
X146813Y195666D01*
X146874Y195749D01*
X146879Y195768D01*
X146890Y195785D01*
X146915Y195886D01*
X146946Y195985D01*
X146945Y196004D01*
X146950Y196024D01*
X146942Y196127D01*
X146940Y196230D01*
X146933Y196249D01*
X146931Y196269D01*
X146891Y196364D01*
X146855Y196461D01*
X146843Y196477D01*
X146835Y196495D01*
X146730Y196626D01*
X145008Y198348D01*
X144045Y200672D01*
X144045Y203188D01*
X145008Y205512D01*
X146603Y207107D01*
X146615Y207123D01*
X146630Y207135D01*
X146686Y207223D01*
X146747Y207306D01*
X146752Y207325D01*
X146763Y207342D01*
X146788Y207443D01*
X146819Y207542D01*
X146818Y207561D01*
X146823Y207581D01*
X146815Y207684D01*
X146813Y207787D01*
X146806Y207806D01*
X146804Y207826D01*
X146764Y207921D01*
X146728Y208018D01*
X146716Y208034D01*
X146708Y208052D01*
X146603Y208183D01*
X145008Y209778D01*
X144045Y212102D01*
X144045Y214618D01*
X145008Y216942D01*
X146786Y218720D01*
X149110Y219683D01*
X151626Y219683D01*
X153950Y218720D01*
X155728Y216942D01*
X156691Y214618D01*
X156691Y212102D01*
X155728Y209778D01*
X154133Y208183D01*
X154121Y208167D01*
X154106Y208155D01*
X154050Y208067D01*
X153989Y207984D01*
X153984Y207965D01*
X153973Y207948D01*
X153948Y207847D01*
X153917Y207748D01*
X153918Y207729D01*
X153913Y207709D01*
X153921Y207606D01*
X153923Y207503D01*
X153930Y207484D01*
X153932Y207464D01*
X153972Y207369D01*
X154008Y207272D01*
X154020Y207256D01*
X154028Y207238D01*
X154133Y207107D01*
X155728Y205512D01*
X156691Y203188D01*
X156691Y200672D01*
X155728Y198348D01*
X154006Y196626D01*
X153994Y196610D01*
X153979Y196598D01*
X153923Y196510D01*
X153862Y196427D01*
X153857Y196408D01*
X153846Y196391D01*
X153820Y196290D01*
X153790Y196191D01*
X153791Y196172D01*
X153786Y196152D01*
X153794Y196049D01*
X153796Y195946D01*
X153803Y195927D01*
X153805Y195907D01*
X153845Y195812D01*
X153881Y195715D01*
X153893Y195699D01*
X153901Y195681D01*
X154006Y195550D01*
X155728Y193828D01*
X156691Y191504D01*
X156691Y188988D01*
X155728Y186664D01*
X153950Y184886D01*
X151626Y183923D01*
X149110Y183923D01*
G37*
%LPD*%
%LPC*%
G36*
X74330Y321595D02*
X74330Y321595D01*
X70876Y323026D01*
X68232Y325670D01*
X66801Y329124D01*
X66801Y332066D01*
X66798Y332085D01*
X66800Y332105D01*
X66778Y332206D01*
X66762Y332309D01*
X66752Y332326D01*
X66748Y332346D01*
X66695Y332435D01*
X66646Y332526D01*
X66632Y332540D01*
X66622Y332557D01*
X66543Y332624D01*
X66468Y332695D01*
X66450Y332704D01*
X66435Y332717D01*
X66339Y332755D01*
X66245Y332799D01*
X66225Y332801D01*
X66207Y332809D01*
X66040Y332827D01*
X63849Y332827D01*
X61805Y333674D01*
X60240Y335238D01*
X59394Y337282D01*
X59394Y339494D01*
X60240Y341538D01*
X61805Y343102D01*
X63849Y343948D01*
X66061Y343948D01*
X68105Y343102D01*
X69669Y341538D01*
X70465Y339615D01*
X70476Y339598D01*
X70481Y339579D01*
X70540Y339494D01*
X70595Y339406D01*
X70610Y339394D01*
X70621Y339377D01*
X70704Y339315D01*
X70784Y339249D01*
X70803Y339242D01*
X70819Y339230D01*
X70917Y339198D01*
X71014Y339161D01*
X71034Y339160D01*
X71053Y339154D01*
X71156Y339155D01*
X71259Y339151D01*
X71279Y339156D01*
X71299Y339157D01*
X71460Y339203D01*
X74330Y340392D01*
X78070Y340392D01*
X81524Y338962D01*
X84168Y336318D01*
X85599Y332863D01*
X85599Y329124D01*
X84168Y325670D01*
X81524Y323026D01*
X78070Y321595D01*
X74330Y321595D01*
G37*
%LPD*%
%LPC*%
G36*
X-43580Y218947D02*
X-43580Y218947D01*
X-45728Y219837D01*
X-47371Y221480D01*
X-48261Y223628D01*
X-48261Y225952D01*
X-47371Y228100D01*
X-47234Y228237D01*
X-47207Y228274D01*
X-47173Y228305D01*
X-47136Y228374D01*
X-47090Y228437D01*
X-47077Y228481D01*
X-47055Y228521D01*
X-47041Y228597D01*
X-47018Y228672D01*
X-47019Y228718D01*
X-47011Y228763D01*
X-47022Y228840D01*
X-47024Y228918D01*
X-47040Y228961D01*
X-47047Y229006D01*
X-47082Y229075D01*
X-47109Y229149D01*
X-47138Y229185D01*
X-47158Y229225D01*
X-47214Y229280D01*
X-47263Y229341D01*
X-47301Y229366D01*
X-47334Y229398D01*
X-47453Y229463D01*
X-47469Y229474D01*
X-47474Y229475D01*
X-47481Y229479D01*
X-47506Y229489D01*
X-49149Y231132D01*
X-50039Y233280D01*
X-50039Y235204D01*
X-50042Y235224D01*
X-50040Y235243D01*
X-50062Y235344D01*
X-50078Y235447D01*
X-50088Y235464D01*
X-50092Y235484D01*
X-50145Y235573D01*
X-50194Y235664D01*
X-50208Y235678D01*
X-50218Y235695D01*
X-50297Y235762D01*
X-50372Y235834D01*
X-50390Y235842D01*
X-50405Y235855D01*
X-50501Y235894D01*
X-50595Y235937D01*
X-50615Y235939D01*
X-50633Y235947D01*
X-50653Y235949D01*
X-52840Y236855D01*
X-54483Y238498D01*
X-55373Y240646D01*
X-55373Y242970D01*
X-54483Y245118D01*
X-52840Y246761D01*
X-50692Y247651D01*
X-48368Y247651D01*
X-46220Y246761D01*
X-44577Y245118D01*
X-43687Y242970D01*
X-43687Y241046D01*
X-43684Y241026D01*
X-43686Y241007D01*
X-43664Y240905D01*
X-43648Y240803D01*
X-43638Y240786D01*
X-43634Y240766D01*
X-43581Y240677D01*
X-43532Y240586D01*
X-43518Y240572D01*
X-43508Y240555D01*
X-43429Y240488D01*
X-43354Y240416D01*
X-43336Y240408D01*
X-43321Y240395D01*
X-43225Y240356D01*
X-43131Y240313D01*
X-43111Y240311D01*
X-43093Y240303D01*
X-43073Y240301D01*
X-40886Y239395D01*
X-39243Y237752D01*
X-38353Y235604D01*
X-38353Y233280D01*
X-39243Y231132D01*
X-39380Y230995D01*
X-39407Y230958D01*
X-39441Y230927D01*
X-39478Y230858D01*
X-39524Y230795D01*
X-39537Y230751D01*
X-39559Y230711D01*
X-39573Y230635D01*
X-39596Y230560D01*
X-39595Y230514D01*
X-39603Y230469D01*
X-39592Y230392D01*
X-39590Y230314D01*
X-39574Y230271D01*
X-39567Y230226D01*
X-39532Y230157D01*
X-39505Y230083D01*
X-39476Y230047D01*
X-39456Y230007D01*
X-39400Y229952D01*
X-39351Y229891D01*
X-39313Y229866D01*
X-39280Y229834D01*
X-39161Y229769D01*
X-39145Y229758D01*
X-39140Y229757D01*
X-39133Y229753D01*
X-39108Y229743D01*
X-37465Y228100D01*
X-36575Y225952D01*
X-36575Y223628D01*
X-37465Y221480D01*
X-39108Y219837D01*
X-41256Y218947D01*
X-43580Y218947D01*
G37*
%LPD*%
%LPC*%
G36*
X74330Y372395D02*
X74330Y372395D01*
X70876Y373826D01*
X68232Y376470D01*
X66801Y379924D01*
X66801Y383663D01*
X68232Y387118D01*
X70876Y389762D01*
X74330Y391192D01*
X78070Y391192D01*
X81524Y389762D01*
X84168Y387118D01*
X85599Y383663D01*
X85599Y379924D01*
X84168Y376470D01*
X81524Y373826D01*
X78070Y372395D01*
X74330Y372395D01*
G37*
%LPD*%
%LPC*%
G36*
X74330Y346995D02*
X74330Y346995D01*
X70876Y348426D01*
X68232Y351070D01*
X66801Y354524D01*
X66801Y358263D01*
X68232Y361718D01*
X70876Y364362D01*
X74330Y365792D01*
X78070Y365792D01*
X81524Y364362D01*
X84168Y361718D01*
X85599Y358263D01*
X85599Y354524D01*
X84168Y351070D01*
X81524Y348426D01*
X78070Y346995D01*
X74330Y346995D01*
G37*
%LPD*%
%LPC*%
G36*
X-112995Y383508D02*
X-112995Y383508D01*
X-116449Y384938D01*
X-119093Y387582D01*
X-120524Y391037D01*
X-120524Y394776D01*
X-119093Y398230D01*
X-116449Y400874D01*
X-112995Y402305D01*
X-109255Y402305D01*
X-105801Y400874D01*
X-103157Y398230D01*
X-101726Y394776D01*
X-101726Y391037D01*
X-103157Y387582D01*
X-105801Y384938D01*
X-109255Y383508D01*
X-112995Y383508D01*
G37*
%LPD*%
%LPC*%
G36*
X-228660Y77978D02*
X-228660Y77978D01*
X-231998Y79360D01*
X-234552Y81915D01*
X-235934Y85252D01*
X-235934Y88865D01*
X-234552Y92202D01*
X-231998Y94757D01*
X-228660Y96139D01*
X-225047Y96139D01*
X-221710Y94757D01*
X-219155Y92202D01*
X-217773Y88865D01*
X-217773Y85252D01*
X-219155Y81915D01*
X-221710Y79360D01*
X-225047Y77978D01*
X-228660Y77978D01*
G37*
%LPD*%
%LPC*%
G36*
X-199069Y-7461D02*
X-199069Y-7461D01*
X-202407Y-6079D01*
X-204961Y-3525D01*
X-206343Y-187D01*
X-206343Y3426D01*
X-204961Y6763D01*
X-202407Y9318D01*
X-199069Y10700D01*
X-195456Y10700D01*
X-192119Y9318D01*
X-189564Y6763D01*
X-188182Y3426D01*
X-188182Y-187D01*
X-189564Y-3525D01*
X-192119Y-6079D01*
X-195456Y-7461D01*
X-199069Y-7461D01*
G37*
%LPD*%
%LPC*%
G36*
X212579Y169036D02*
X212579Y169036D01*
X210431Y169926D01*
X208788Y171569D01*
X207898Y173717D01*
X207898Y174340D01*
X207883Y174436D01*
X207873Y174533D01*
X207863Y174557D01*
X207859Y174583D01*
X207813Y174669D01*
X207773Y174758D01*
X207756Y174777D01*
X207743Y174800D01*
X207673Y174867D01*
X207607Y174939D01*
X207584Y174952D01*
X207565Y174970D01*
X207477Y175011D01*
X207391Y175058D01*
X207366Y175062D01*
X207342Y175073D01*
X207245Y175084D01*
X207149Y175101D01*
X207123Y175098D01*
X207098Y175101D01*
X207002Y175080D01*
X206906Y175066D01*
X206883Y175054D01*
X206857Y175048D01*
X206773Y174998D01*
X206687Y174954D01*
X206668Y174936D01*
X206646Y174922D01*
X206583Y174848D01*
X206515Y174779D01*
X206499Y174750D01*
X206486Y174735D01*
X206474Y174704D01*
X206434Y174632D01*
X206375Y174490D01*
X204732Y172847D01*
X202584Y171957D01*
X200260Y171957D01*
X198112Y172847D01*
X196469Y174490D01*
X195579Y176638D01*
X195579Y178962D01*
X196469Y181110D01*
X198112Y182753D01*
X200260Y183643D01*
X202584Y183643D01*
X204732Y182753D01*
X206375Y181110D01*
X207265Y178962D01*
X207265Y178339D01*
X207280Y178243D01*
X207290Y178146D01*
X207300Y178122D01*
X207304Y178096D01*
X207350Y178010D01*
X207390Y177921D01*
X207407Y177902D01*
X207420Y177879D01*
X207490Y177812D01*
X207556Y177740D01*
X207579Y177727D01*
X207598Y177709D01*
X207686Y177668D01*
X207772Y177621D01*
X207797Y177617D01*
X207821Y177606D01*
X207918Y177595D01*
X208014Y177578D01*
X208040Y177581D01*
X208065Y177578D01*
X208161Y177599D01*
X208257Y177613D01*
X208280Y177625D01*
X208306Y177631D01*
X208390Y177681D01*
X208476Y177725D01*
X208495Y177743D01*
X208517Y177757D01*
X208580Y177831D01*
X208648Y177900D01*
X208664Y177929D01*
X208677Y177944D01*
X208689Y177975D01*
X208729Y178047D01*
X208788Y178189D01*
X210431Y179832D01*
X212579Y180722D01*
X214903Y180722D01*
X217051Y179832D01*
X218694Y178189D01*
X219584Y176041D01*
X219584Y173717D01*
X218694Y171569D01*
X217051Y169926D01*
X214903Y169036D01*
X212579Y169036D01*
G37*
%LPD*%
%LPC*%
G36*
X-34944Y197103D02*
X-34944Y197103D01*
X-37092Y197993D01*
X-38735Y199636D01*
X-39625Y201784D01*
X-39625Y204108D01*
X-38735Y206256D01*
X-37092Y207899D01*
X-36348Y208207D01*
X-36310Y208231D01*
X-36266Y208247D01*
X-36206Y208296D01*
X-36139Y208337D01*
X-36110Y208372D01*
X-36074Y208401D01*
X-36032Y208466D01*
X-35983Y208526D01*
X-35966Y208569D01*
X-35941Y208608D01*
X-35922Y208683D01*
X-35894Y208756D01*
X-35892Y208802D01*
X-35881Y208846D01*
X-35887Y208924D01*
X-35884Y209002D01*
X-35897Y209046D01*
X-35900Y209091D01*
X-35931Y209163D01*
X-35953Y209238D01*
X-35979Y209275D01*
X-35997Y209318D01*
X-36082Y209424D01*
X-36093Y209440D01*
X-36097Y209443D01*
X-36102Y209449D01*
X-37592Y210939D01*
X-38482Y213087D01*
X-38482Y215411D01*
X-37592Y217559D01*
X-35949Y219202D01*
X-33801Y220092D01*
X-31477Y220092D01*
X-29329Y219202D01*
X-27686Y217559D01*
X-26796Y215411D01*
X-26796Y213087D01*
X-27686Y210939D01*
X-29329Y209296D01*
X-30073Y208988D01*
X-30111Y208964D01*
X-30155Y208948D01*
X-30215Y208899D01*
X-30282Y208858D01*
X-30311Y208823D01*
X-30347Y208794D01*
X-30389Y208729D01*
X-30438Y208669D01*
X-30455Y208626D01*
X-30480Y208587D01*
X-30499Y208512D01*
X-30527Y208439D01*
X-30529Y208393D01*
X-30540Y208349D01*
X-30534Y208271D01*
X-30537Y208193D01*
X-30524Y208149D01*
X-30521Y208104D01*
X-30490Y208032D01*
X-30468Y207957D01*
X-30442Y207920D01*
X-30424Y207877D01*
X-30339Y207771D01*
X-30328Y207755D01*
X-30324Y207752D01*
X-30319Y207746D01*
X-28829Y206256D01*
X-27939Y204108D01*
X-27939Y201784D01*
X-28829Y199636D01*
X-30472Y197993D01*
X-32620Y197103D01*
X-34944Y197103D01*
G37*
%LPD*%
%LPC*%
G36*
X24564Y197103D02*
X24564Y197103D01*
X22417Y197993D01*
X20773Y199636D01*
X20413Y200506D01*
X20402Y200523D01*
X20397Y200542D01*
X20338Y200627D01*
X20283Y200715D01*
X20268Y200728D01*
X20257Y200744D01*
X20174Y200806D01*
X20094Y200872D01*
X20075Y200879D01*
X20059Y200891D01*
X19961Y200923D01*
X19864Y200960D01*
X19844Y200961D01*
X19825Y200967D01*
X19722Y200966D01*
X19619Y200971D01*
X19599Y200965D01*
X19579Y200965D01*
X19418Y200918D01*
X18180Y200405D01*
X15856Y200405D01*
X13708Y201295D01*
X12065Y202938D01*
X11175Y205086D01*
X11175Y207410D01*
X12065Y209558D01*
X13708Y211201D01*
X15856Y212091D01*
X18180Y212091D01*
X20328Y211201D01*
X21971Y209558D01*
X22331Y208688D01*
X22342Y208671D01*
X22348Y208652D01*
X22407Y208567D01*
X22461Y208479D01*
X22476Y208466D01*
X22488Y208450D01*
X22571Y208388D01*
X22651Y208322D01*
X22669Y208315D01*
X22685Y208303D01*
X22784Y208271D01*
X22880Y208234D01*
X22900Y208233D01*
X22919Y208227D01*
X23023Y208228D01*
X23126Y208223D01*
X23145Y208229D01*
X23165Y208229D01*
X23326Y208276D01*
X24564Y208789D01*
X26889Y208789D01*
X29036Y207899D01*
X30680Y206256D01*
X31569Y204108D01*
X31569Y201784D01*
X30680Y199636D01*
X29036Y197993D01*
X26889Y197103D01*
X24564Y197103D01*
G37*
%LPD*%
%LPC*%
G36*
X35018Y362639D02*
X35018Y362639D01*
X32974Y363486D01*
X31410Y365050D01*
X30563Y367094D01*
X30563Y369306D01*
X31410Y371350D01*
X32974Y372914D01*
X35018Y373761D01*
X37230Y373761D01*
X39274Y372914D01*
X39826Y372362D01*
X39842Y372351D01*
X39854Y372335D01*
X39942Y372279D01*
X40025Y372219D01*
X40044Y372213D01*
X40061Y372202D01*
X40162Y372177D01*
X40261Y372146D01*
X40280Y372147D01*
X40300Y372142D01*
X40403Y372150D01*
X40506Y372153D01*
X40525Y372160D01*
X40545Y372161D01*
X40640Y372202D01*
X40737Y372237D01*
X40753Y372250D01*
X40771Y372258D01*
X40902Y372362D01*
X42316Y373776D01*
X44360Y374623D01*
X46572Y374623D01*
X48616Y373776D01*
X50180Y372212D01*
X51027Y370168D01*
X51027Y367956D01*
X50180Y365912D01*
X48616Y364348D01*
X46572Y363501D01*
X44360Y363501D01*
X42316Y364348D01*
X41764Y364900D01*
X41748Y364911D01*
X41736Y364927D01*
X41649Y364983D01*
X41565Y365043D01*
X41546Y365049D01*
X41529Y365060D01*
X41428Y365085D01*
X41329Y365116D01*
X41310Y365115D01*
X41290Y365120D01*
X41187Y365112D01*
X41084Y365109D01*
X41065Y365102D01*
X41045Y365101D01*
X40950Y365060D01*
X40853Y365025D01*
X40837Y365012D01*
X40819Y365004D01*
X40688Y364900D01*
X39274Y363486D01*
X37230Y362639D01*
X35018Y362639D01*
G37*
%LPD*%
%LPC*%
G36*
X-96593Y352297D02*
X-96593Y352297D01*
X-99569Y355273D01*
X-99569Y359483D01*
X-98656Y360396D01*
X-98644Y360412D01*
X-98628Y360424D01*
X-98572Y360512D01*
X-98512Y360595D01*
X-98506Y360614D01*
X-98495Y360631D01*
X-98470Y360732D01*
X-98440Y360831D01*
X-98440Y360850D01*
X-98435Y360870D01*
X-98443Y360973D01*
X-98446Y361076D01*
X-98453Y361095D01*
X-98454Y361115D01*
X-98495Y361210D01*
X-98530Y361307D01*
X-98543Y361323D01*
X-98551Y361341D01*
X-98656Y361472D01*
X-101347Y364163D01*
X-101347Y368373D01*
X-98371Y371349D01*
X-94161Y371349D01*
X-91185Y368373D01*
X-91185Y364163D01*
X-92098Y363250D01*
X-92110Y363234D01*
X-92126Y363222D01*
X-92182Y363134D01*
X-92242Y363051D01*
X-92248Y363032D01*
X-92259Y363015D01*
X-92284Y362914D01*
X-92314Y362815D01*
X-92314Y362796D01*
X-92319Y362776D01*
X-92311Y362673D01*
X-92308Y362570D01*
X-92301Y362551D01*
X-92300Y362531D01*
X-92259Y362436D01*
X-92224Y362339D01*
X-92211Y362323D01*
X-92203Y362305D01*
X-92098Y362174D01*
X-89407Y359483D01*
X-89407Y355273D01*
X-92383Y352297D01*
X-96593Y352297D01*
G37*
%LPD*%
%LPC*%
G36*
X-209538Y192305D02*
X-209538Y192305D01*
X-211862Y193268D01*
X-213640Y195046D01*
X-214603Y197370D01*
X-214603Y199886D01*
X-213640Y202210D01*
X-211862Y203988D01*
X-209538Y204951D01*
X-207022Y204951D01*
X-204698Y203988D01*
X-202920Y202210D01*
X-201957Y199886D01*
X-201957Y197370D01*
X-202920Y195046D01*
X-204698Y193268D01*
X-207022Y192305D01*
X-209538Y192305D01*
G37*
%LPD*%
%LPC*%
G36*
X19570Y144045D02*
X19570Y144045D01*
X17246Y145008D01*
X15468Y146786D01*
X14505Y149110D01*
X14505Y151626D01*
X15468Y153950D01*
X17246Y155728D01*
X19570Y156691D01*
X22086Y156691D01*
X24410Y155728D01*
X26188Y153950D01*
X27151Y151626D01*
X27151Y149110D01*
X26188Y146786D01*
X24410Y145008D01*
X22086Y144045D01*
X19570Y144045D01*
G37*
%LPD*%
%LPC*%
G36*
X105422Y130583D02*
X105422Y130583D01*
X103098Y131546D01*
X101320Y133324D01*
X100357Y135648D01*
X100357Y138164D01*
X101320Y140488D01*
X103098Y142266D01*
X105422Y143229D01*
X107938Y143229D01*
X110262Y142266D01*
X112040Y140488D01*
X113003Y138164D01*
X113003Y135648D01*
X112040Y133324D01*
X110262Y131546D01*
X107938Y130583D01*
X105422Y130583D01*
G37*
%LPD*%
%LPC*%
G36*
X-169406Y128805D02*
X-169406Y128805D01*
X-171730Y129768D01*
X-173508Y131546D01*
X-174471Y133870D01*
X-174471Y136386D01*
X-173508Y138710D01*
X-171730Y140488D01*
X-169406Y141451D01*
X-166890Y141451D01*
X-164566Y140488D01*
X-162788Y138710D01*
X-161825Y136386D01*
X-161825Y133870D01*
X-162788Y131546D01*
X-164566Y129768D01*
X-166890Y128805D01*
X-169406Y128805D01*
G37*
%LPD*%
%LPC*%
G36*
X-27928Y126519D02*
X-27928Y126519D01*
X-30252Y127482D01*
X-32030Y129260D01*
X-32993Y131584D01*
X-32993Y134100D01*
X-32030Y136424D01*
X-30252Y138202D01*
X-27928Y139165D01*
X-25412Y139165D01*
X-23088Y138202D01*
X-21310Y136424D01*
X-20347Y134100D01*
X-20347Y131584D01*
X-21310Y129260D01*
X-23088Y127482D01*
X-25412Y126519D01*
X-27928Y126519D01*
G37*
%LPD*%
%LPC*%
G36*
X-133338Y39397D02*
X-133338Y39397D01*
X-135662Y40360D01*
X-137440Y42138D01*
X-138403Y44462D01*
X-138403Y46978D01*
X-137440Y49302D01*
X-135662Y51080D01*
X-133338Y52043D01*
X-130822Y52043D01*
X-128498Y51080D01*
X-126720Y49302D01*
X-125757Y46978D01*
X-125757Y44462D01*
X-126720Y42138D01*
X-128498Y40360D01*
X-130822Y39397D01*
X-133338Y39397D01*
G37*
%LPD*%
%LPC*%
G36*
X-121654Y141251D02*
X-121654Y141251D01*
X-123978Y142214D01*
X-125756Y143992D01*
X-126719Y146316D01*
X-126719Y148832D01*
X-125756Y151156D01*
X-123978Y152934D01*
X-121654Y153897D01*
X-119138Y153897D01*
X-116814Y152934D01*
X-115036Y151156D01*
X-114073Y148832D01*
X-114073Y146316D01*
X-115036Y143992D01*
X-116814Y142214D01*
X-119138Y141251D01*
X-121654Y141251D01*
G37*
%LPD*%
%LPC*%
G36*
X-166358Y64797D02*
X-166358Y64797D01*
X-168682Y65760D01*
X-170460Y67538D01*
X-171423Y69862D01*
X-171423Y72378D01*
X-170460Y74702D01*
X-168682Y76480D01*
X-166358Y77443D01*
X-163842Y77443D01*
X-161518Y76480D01*
X-159740Y74702D01*
X-158777Y72378D01*
X-158777Y69862D01*
X-159740Y67538D01*
X-161518Y65760D01*
X-163842Y64797D01*
X-166358Y64797D01*
G37*
%LPD*%
%LPC*%
G36*
X-184138Y64797D02*
X-184138Y64797D01*
X-186462Y65760D01*
X-188240Y67538D01*
X-189203Y69862D01*
X-189203Y72378D01*
X-188240Y74702D01*
X-186462Y76480D01*
X-184138Y77443D01*
X-181622Y77443D01*
X-179298Y76480D01*
X-177520Y74702D01*
X-176557Y72378D01*
X-176557Y69862D01*
X-177520Y67538D01*
X-179298Y65760D01*
X-181622Y64797D01*
X-184138Y64797D01*
G37*
%LPD*%
%LPC*%
G36*
X-148578Y64797D02*
X-148578Y64797D01*
X-150902Y65760D01*
X-152680Y67538D01*
X-153643Y69862D01*
X-153643Y72378D01*
X-152680Y74702D01*
X-150902Y76480D01*
X-148578Y77443D01*
X-146062Y77443D01*
X-143738Y76480D01*
X-141960Y74702D01*
X-140997Y72378D01*
X-140997Y69862D01*
X-141960Y67538D01*
X-143738Y65760D01*
X-146062Y64797D01*
X-148578Y64797D01*
G37*
%LPD*%
%LPC*%
G36*
X-176518Y52097D02*
X-176518Y52097D01*
X-178842Y53060D01*
X-180620Y54838D01*
X-181583Y57162D01*
X-181583Y59678D01*
X-180620Y62002D01*
X-178842Y63780D01*
X-176518Y64743D01*
X-174002Y64743D01*
X-171678Y63780D01*
X-169900Y62002D01*
X-168937Y59678D01*
X-168937Y57162D01*
X-169900Y54838D01*
X-171678Y53060D01*
X-174002Y52097D01*
X-176518Y52097D01*
G37*
%LPD*%
%LPC*%
G36*
X-209792Y122201D02*
X-209792Y122201D01*
X-212116Y123164D01*
X-213894Y124942D01*
X-214857Y127266D01*
X-214857Y129782D01*
X-213894Y132106D01*
X-212116Y133884D01*
X-209792Y134847D01*
X-207276Y134847D01*
X-204952Y133884D01*
X-203174Y132106D01*
X-202211Y129782D01*
X-202211Y127266D01*
X-203174Y124942D01*
X-204952Y123164D01*
X-207276Y122201D01*
X-209792Y122201D01*
G37*
%LPD*%
%LPC*%
G36*
X-158738Y52097D02*
X-158738Y52097D01*
X-161062Y53060D01*
X-162840Y54838D01*
X-163803Y57162D01*
X-163803Y59678D01*
X-162840Y62002D01*
X-161062Y63780D01*
X-158738Y64743D01*
X-156222Y64743D01*
X-153898Y63780D01*
X-152120Y62002D01*
X-151157Y59678D01*
X-151157Y57162D01*
X-152120Y54838D01*
X-153898Y53060D01*
X-156222Y52097D01*
X-158738Y52097D01*
G37*
%LPD*%
%LPC*%
G36*
X-148578Y39397D02*
X-148578Y39397D01*
X-150902Y40360D01*
X-152680Y42138D01*
X-153643Y44462D01*
X-153643Y46978D01*
X-152680Y49302D01*
X-150902Y51080D01*
X-148578Y52043D01*
X-146062Y52043D01*
X-143738Y51080D01*
X-141960Y49302D01*
X-140997Y46978D01*
X-140997Y44462D01*
X-141960Y42138D01*
X-143738Y40360D01*
X-146062Y39397D01*
X-148578Y39397D01*
G37*
%LPD*%
%LPC*%
G36*
X127774Y291619D02*
X127774Y291619D01*
X125450Y292582D01*
X123672Y294360D01*
X122709Y296684D01*
X122709Y299200D01*
X123672Y301524D01*
X125450Y303302D01*
X127774Y304265D01*
X130290Y304265D01*
X132614Y303302D01*
X134392Y301524D01*
X135355Y299200D01*
X135355Y296684D01*
X134392Y294360D01*
X132614Y292582D01*
X130290Y291619D01*
X127774Y291619D01*
G37*
%LPD*%
%LPC*%
G36*
X-166358Y39397D02*
X-166358Y39397D01*
X-168682Y40360D01*
X-170460Y42138D01*
X-171423Y44462D01*
X-171423Y46978D01*
X-170460Y49302D01*
X-168682Y51080D01*
X-166358Y52043D01*
X-163842Y52043D01*
X-161518Y51080D01*
X-159740Y49302D01*
X-158777Y46978D01*
X-158777Y44462D01*
X-159740Y42138D01*
X-161518Y40360D01*
X-163842Y39397D01*
X-166358Y39397D01*
G37*
%LPD*%
%LPC*%
G36*
X-184138Y39397D02*
X-184138Y39397D01*
X-186462Y40360D01*
X-188240Y42138D01*
X-189203Y44462D01*
X-189203Y46978D01*
X-188240Y49302D01*
X-186462Y51080D01*
X-184138Y52043D01*
X-181622Y52043D01*
X-179298Y51080D01*
X-177520Y49302D01*
X-176557Y46978D01*
X-176557Y44462D01*
X-177520Y42138D01*
X-179298Y40360D01*
X-181622Y39397D01*
X-184138Y39397D01*
G37*
%LPD*%
%LPC*%
G36*
X-158738Y26697D02*
X-158738Y26697D01*
X-161062Y27660D01*
X-162840Y29438D01*
X-163803Y31762D01*
X-163803Y34278D01*
X-162840Y36602D01*
X-161062Y38380D01*
X-158738Y39343D01*
X-156222Y39343D01*
X-153898Y38380D01*
X-152120Y36602D01*
X-151157Y34278D01*
X-151157Y31762D01*
X-152120Y29438D01*
X-153898Y27660D01*
X-156222Y26697D01*
X-158738Y26697D01*
G37*
%LPD*%
%LPC*%
G36*
X-176518Y26697D02*
X-176518Y26697D01*
X-178842Y27660D01*
X-180620Y29438D01*
X-181583Y31762D01*
X-181583Y34278D01*
X-180620Y36602D01*
X-178842Y38380D01*
X-176518Y39343D01*
X-174002Y39343D01*
X-171678Y38380D01*
X-169900Y36602D01*
X-168937Y34278D01*
X-168937Y31762D01*
X-169900Y29438D01*
X-171678Y27660D01*
X-174002Y26697D01*
X-176518Y26697D01*
G37*
%LPD*%
%LPC*%
G36*
X137426Y261393D02*
X137426Y261393D01*
X135102Y262356D01*
X133324Y264134D01*
X132361Y266458D01*
X132361Y268974D01*
X133324Y271298D01*
X135102Y273076D01*
X137426Y274039D01*
X139942Y274039D01*
X142266Y273076D01*
X144044Y271298D01*
X145007Y268974D01*
X145007Y266458D01*
X144044Y264134D01*
X142266Y262356D01*
X139942Y261393D01*
X137426Y261393D01*
G37*
%LPD*%
%LPC*%
G36*
X-145022Y22633D02*
X-145022Y22633D01*
X-147346Y23596D01*
X-149124Y25374D01*
X-150087Y27698D01*
X-150087Y30214D01*
X-149124Y32538D01*
X-147346Y34316D01*
X-145022Y35279D01*
X-142506Y35279D01*
X-140182Y34316D01*
X-138404Y32538D01*
X-137441Y30214D01*
X-137441Y27698D01*
X-138404Y25374D01*
X-140182Y23596D01*
X-142506Y22633D01*
X-145022Y22633D01*
G37*
%LPD*%
%LPC*%
G36*
X137680Y235739D02*
X137680Y235739D01*
X135356Y236702D01*
X133578Y238480D01*
X132615Y240804D01*
X132615Y243320D01*
X133578Y245644D01*
X135356Y247422D01*
X137680Y248385D01*
X140196Y248385D01*
X142520Y247422D01*
X144298Y245644D01*
X145261Y243320D01*
X145261Y240804D01*
X144298Y238480D01*
X142520Y236702D01*
X140196Y235739D01*
X137680Y235739D01*
G37*
%LPD*%
%LPC*%
G36*
X81038Y229643D02*
X81038Y229643D01*
X78714Y230606D01*
X76936Y232384D01*
X75973Y234708D01*
X75973Y237224D01*
X76936Y239548D01*
X78714Y241326D01*
X81038Y242289D01*
X83554Y242289D01*
X85878Y241326D01*
X87656Y239548D01*
X88619Y237224D01*
X88619Y234708D01*
X87656Y232384D01*
X85878Y230606D01*
X83554Y229643D01*
X81038Y229643D01*
G37*
%LPD*%
%LPC*%
G36*
X90690Y189003D02*
X90690Y189003D01*
X88366Y189966D01*
X86588Y191744D01*
X85625Y194068D01*
X85625Y196584D01*
X86588Y198908D01*
X88366Y200686D01*
X90690Y201649D01*
X93206Y201649D01*
X95530Y200686D01*
X97308Y198908D01*
X98271Y196584D01*
X98271Y194068D01*
X97308Y191744D01*
X95530Y189966D01*
X93206Y189003D01*
X90690Y189003D01*
G37*
%LPD*%
%LPC*%
G36*
X112534Y182907D02*
X112534Y182907D01*
X110210Y183870D01*
X108432Y185648D01*
X107469Y187972D01*
X107469Y190488D01*
X108432Y192812D01*
X110210Y194590D01*
X112534Y195553D01*
X115050Y195553D01*
X117374Y194590D01*
X119152Y192812D01*
X120115Y190488D01*
X120115Y187972D01*
X119152Y185648D01*
X117374Y183870D01*
X115050Y182907D01*
X112534Y182907D01*
G37*
%LPD*%
%LPC*%
G36*
X-140958Y52097D02*
X-140958Y52097D01*
X-143282Y53060D01*
X-145060Y54838D01*
X-146023Y57162D01*
X-146023Y59678D01*
X-145060Y62002D01*
X-143282Y63780D01*
X-140958Y64743D01*
X-138442Y64743D01*
X-136118Y63780D01*
X-134340Y62002D01*
X-133377Y59678D01*
X-133377Y57162D01*
X-134340Y54838D01*
X-136118Y53060D01*
X-138442Y52097D01*
X-140958Y52097D01*
G37*
%LPD*%
%LPC*%
G36*
X-88030Y255269D02*
X-88030Y255269D01*
X-90178Y256159D01*
X-91821Y257802D01*
X-92711Y259950D01*
X-92711Y262274D01*
X-91821Y264422D01*
X-90178Y266065D01*
X-88030Y266955D01*
X-85706Y266955D01*
X-83558Y266065D01*
X-81915Y264422D01*
X-81025Y262274D01*
X-81025Y259950D01*
X-81915Y257802D01*
X-83558Y256159D01*
X-85706Y255269D01*
X-88030Y255269D01*
G37*
%LPD*%
%LPC*%
G36*
X-88284Y164845D02*
X-88284Y164845D01*
X-90432Y165735D01*
X-92075Y167378D01*
X-92965Y169526D01*
X-92965Y171850D01*
X-92075Y173998D01*
X-90432Y175641D01*
X-88284Y176531D01*
X-85960Y176531D01*
X-83812Y175641D01*
X-82169Y173998D01*
X-81279Y171850D01*
X-81279Y169526D01*
X-82169Y167378D01*
X-83812Y165735D01*
X-85960Y164845D01*
X-88284Y164845D01*
G37*
%LPD*%
%LPC*%
G36*
X-96666Y140969D02*
X-96666Y140969D01*
X-98814Y141859D01*
X-100457Y143502D01*
X-101347Y145650D01*
X-101347Y147974D01*
X-100457Y150122D01*
X-98814Y151765D01*
X-96666Y152655D01*
X-94342Y152655D01*
X-92194Y151765D01*
X-90551Y150122D01*
X-89661Y147974D01*
X-89661Y145650D01*
X-90551Y143502D01*
X-92194Y141859D01*
X-94342Y140969D01*
X-96666Y140969D01*
G37*
%LPD*%
%LPC*%
G36*
X226422Y138429D02*
X226422Y138429D01*
X224274Y139319D01*
X222631Y140962D01*
X221741Y143110D01*
X221741Y145434D01*
X222631Y147582D01*
X224274Y149225D01*
X226422Y150115D01*
X228746Y150115D01*
X230894Y149225D01*
X232537Y147582D01*
X233427Y145434D01*
X233427Y143110D01*
X232537Y140962D01*
X230894Y139319D01*
X228746Y138429D01*
X226422Y138429D01*
G37*
%LPD*%
%LPC*%
G36*
X-164992Y193039D02*
X-164992Y193039D01*
X-167140Y193929D01*
X-168783Y195572D01*
X-169673Y197720D01*
X-169673Y200044D01*
X-168783Y202192D01*
X-167140Y203835D01*
X-164992Y204725D01*
X-162668Y204725D01*
X-160520Y203835D01*
X-158877Y202192D01*
X-157987Y200044D01*
X-157987Y197720D01*
X-158877Y195572D01*
X-160520Y193929D01*
X-162668Y193039D01*
X-164992Y193039D01*
G37*
%LPD*%
%LPC*%
G36*
X-197758Y149351D02*
X-197758Y149351D01*
X-199906Y150241D01*
X-201549Y151884D01*
X-202439Y154032D01*
X-202439Y156356D01*
X-201549Y158504D01*
X-199906Y160147D01*
X-197758Y161037D01*
X-195434Y161037D01*
X-193286Y160147D01*
X-191643Y158504D01*
X-190753Y156356D01*
X-190753Y154032D01*
X-191643Y151884D01*
X-193286Y150241D01*
X-195434Y149351D01*
X-197758Y149351D01*
G37*
%LPD*%
%LPC*%
G36*
X-45739Y128142D02*
X-45739Y128142D01*
X-47887Y129032D01*
X-49530Y130675D01*
X-50420Y132823D01*
X-50420Y135147D01*
X-49530Y137295D01*
X-47887Y138938D01*
X-45739Y139828D01*
X-43415Y139828D01*
X-41267Y138938D01*
X-39624Y137295D01*
X-38734Y135147D01*
X-38734Y132823D01*
X-39624Y130675D01*
X-41267Y129032D01*
X-43415Y128142D01*
X-45739Y128142D01*
G37*
%LPD*%
%LPC*%
G36*
X172320Y145033D02*
X172320Y145033D01*
X170172Y145923D01*
X168529Y147566D01*
X167639Y149714D01*
X167639Y152038D01*
X168529Y154186D01*
X170172Y155829D01*
X172320Y156719D01*
X174644Y156719D01*
X176792Y155829D01*
X178435Y154186D01*
X179325Y152038D01*
X179325Y149714D01*
X178435Y147566D01*
X176792Y145923D01*
X174644Y145033D01*
X172320Y145033D01*
G37*
%LPD*%
%LPC*%
G36*
X-58566Y205231D02*
X-58566Y205231D01*
X-60714Y206121D01*
X-62357Y207764D01*
X-63247Y209912D01*
X-63247Y212236D01*
X-62357Y214384D01*
X-60714Y216027D01*
X-58566Y216917D01*
X-56242Y216917D01*
X-54094Y216027D01*
X-52451Y214384D01*
X-51561Y212236D01*
X-51561Y209912D01*
X-52451Y207764D01*
X-54094Y206121D01*
X-56242Y205231D01*
X-58566Y205231D01*
G37*
%LPD*%
%LPC*%
G36*
X-195218Y122427D02*
X-195218Y122427D01*
X-197366Y123317D01*
X-199009Y124960D01*
X-199899Y127108D01*
X-199899Y129432D01*
X-199009Y131580D01*
X-197366Y133223D01*
X-195218Y134113D01*
X-192894Y134113D01*
X-190746Y133223D01*
X-189103Y131580D01*
X-188213Y129432D01*
X-188213Y127108D01*
X-189103Y124960D01*
X-190746Y123317D01*
X-192894Y122427D01*
X-195218Y122427D01*
G37*
%LPD*%
%LPC*%
G36*
X101454Y172211D02*
X101454Y172211D01*
X99306Y173101D01*
X97663Y174744D01*
X96773Y176892D01*
X96773Y179216D01*
X97663Y181364D01*
X99306Y183007D01*
X101454Y183897D01*
X103778Y183897D01*
X105926Y183007D01*
X107569Y181364D01*
X108459Y179216D01*
X108459Y176892D01*
X107569Y174744D01*
X105926Y173101D01*
X103778Y172211D01*
X101454Y172211D01*
G37*
%LPD*%
%LPC*%
G36*
X-157363Y216407D02*
X-157363Y216407D01*
X-159511Y217297D01*
X-161154Y218940D01*
X-162044Y221088D01*
X-162044Y223412D01*
X-161154Y225560D01*
X-159511Y227203D01*
X-157363Y228093D01*
X-155039Y228093D01*
X-152891Y227203D01*
X-151248Y225560D01*
X-150358Y223412D01*
X-150358Y221088D01*
X-151248Y218940D01*
X-152891Y217297D01*
X-155039Y216407D01*
X-157363Y216407D01*
G37*
%LPD*%
%LPC*%
G36*
X-33674Y294131D02*
X-33674Y294131D01*
X-35822Y295021D01*
X-37465Y296664D01*
X-38355Y298812D01*
X-38355Y301136D01*
X-37465Y303284D01*
X-35822Y304927D01*
X-33674Y305817D01*
X-31350Y305817D01*
X-29202Y304927D01*
X-27559Y303284D01*
X-26669Y301136D01*
X-26669Y298812D01*
X-27559Y296664D01*
X-29202Y295021D01*
X-31350Y294131D01*
X-33674Y294131D01*
G37*
%LPD*%
%LPC*%
G36*
X-112922Y286765D02*
X-112922Y286765D01*
X-115070Y287655D01*
X-116713Y289298D01*
X-117603Y291446D01*
X-117603Y293770D01*
X-116713Y295918D01*
X-115070Y297561D01*
X-112922Y298451D01*
X-110598Y298451D01*
X-108450Y297561D01*
X-106807Y295918D01*
X-105917Y293770D01*
X-105917Y291446D01*
X-106807Y289298D01*
X-108450Y287655D01*
X-110598Y286765D01*
X-112922Y286765D01*
G37*
%LPD*%
%LPC*%
G36*
X83420Y271271D02*
X83420Y271271D01*
X81272Y272161D01*
X79629Y273804D01*
X78739Y275952D01*
X78739Y278276D01*
X79629Y280424D01*
X81272Y282067D01*
X83420Y282957D01*
X85744Y282957D01*
X87892Y282067D01*
X89535Y280424D01*
X90425Y278276D01*
X90425Y275952D01*
X89535Y273804D01*
X87892Y272161D01*
X85744Y271271D01*
X83420Y271271D01*
G37*
%LPD*%
%LPC*%
G36*
X49130Y265556D02*
X49130Y265556D01*
X46982Y266446D01*
X45339Y268089D01*
X44449Y270237D01*
X44449Y272561D01*
X45339Y274709D01*
X46982Y276352D01*
X49130Y277242D01*
X51454Y277242D01*
X53602Y276352D01*
X55245Y274709D01*
X56135Y272561D01*
X56135Y270237D01*
X55245Y268089D01*
X53602Y266446D01*
X51454Y265556D01*
X49130Y265556D01*
G37*
%LPD*%
%LPC*%
G36*
X29826Y263833D02*
X29826Y263833D01*
X27678Y264722D01*
X26035Y266366D01*
X25145Y268513D01*
X25145Y270838D01*
X26035Y272985D01*
X27678Y274629D01*
X29826Y275518D01*
X32150Y275518D01*
X34298Y274629D01*
X35941Y272985D01*
X36831Y270838D01*
X36831Y268513D01*
X35941Y266366D01*
X34298Y264722D01*
X32150Y263833D01*
X29826Y263833D01*
G37*
%LPD*%
%LPC*%
G36*
X11792Y220979D02*
X11792Y220979D01*
X9644Y221869D01*
X8001Y223512D01*
X7111Y225660D01*
X7111Y227984D01*
X8001Y230132D01*
X9644Y231775D01*
X11792Y232665D01*
X14116Y232665D01*
X16264Y231775D01*
X17907Y230132D01*
X18797Y227984D01*
X18797Y225660D01*
X17907Y223512D01*
X16264Y221869D01*
X14116Y220979D01*
X11792Y220979D01*
G37*
%LPD*%
%LPC*%
G36*
X78848Y171449D02*
X78848Y171449D01*
X76700Y172339D01*
X75057Y173982D01*
X74167Y176130D01*
X74167Y178454D01*
X75057Y180602D01*
X76700Y182245D01*
X78848Y183135D01*
X81172Y183135D01*
X83320Y182245D01*
X84963Y180602D01*
X85853Y178454D01*
X85853Y176130D01*
X84963Y173982D01*
X83320Y172339D01*
X81172Y171449D01*
X78848Y171449D01*
G37*
%LPD*%
%LPC*%
G36*
X61830Y178561D02*
X61830Y178561D01*
X59682Y179451D01*
X58039Y181094D01*
X57149Y183242D01*
X57149Y185566D01*
X58039Y187714D01*
X59682Y189357D01*
X61830Y190247D01*
X64154Y190247D01*
X66302Y189357D01*
X67945Y187714D01*
X68835Y185566D01*
X68835Y183242D01*
X67945Y181094D01*
X66302Y179451D01*
X64154Y178561D01*
X61830Y178561D01*
G37*
%LPD*%
%LPC*%
G36*
X36430Y143763D02*
X36430Y143763D01*
X34282Y144653D01*
X32639Y146296D01*
X31749Y148444D01*
X31749Y150768D01*
X32639Y152916D01*
X34282Y154559D01*
X36430Y155449D01*
X38754Y155449D01*
X40902Y154559D01*
X42545Y152916D01*
X43435Y150768D01*
X43435Y148444D01*
X42545Y146296D01*
X40902Y144653D01*
X38754Y143763D01*
X36430Y143763D01*
G37*
%LPD*%
%LPC*%
G36*
X-1416Y221995D02*
X-1416Y221995D01*
X-3564Y222885D01*
X-5207Y224528D01*
X-6097Y226676D01*
X-6097Y229000D01*
X-5207Y231148D01*
X-3564Y232791D01*
X-1416Y233681D01*
X908Y233681D01*
X3056Y232791D01*
X4699Y231148D01*
X5589Y229000D01*
X5589Y226676D01*
X4699Y224528D01*
X3056Y222885D01*
X908Y221995D01*
X-1416Y221995D01*
G37*
%LPD*%
%LPC*%
G36*
X104971Y413031D02*
X104971Y413031D01*
X102927Y413878D01*
X101363Y415442D01*
X100516Y417486D01*
X100516Y419698D01*
X101363Y421742D01*
X102927Y423306D01*
X104971Y424153D01*
X107183Y424153D01*
X109227Y423306D01*
X110791Y421742D01*
X111637Y419698D01*
X111637Y417486D01*
X110791Y415442D01*
X109227Y413878D01*
X107183Y413031D01*
X104971Y413031D01*
G37*
%LPD*%
%LPC*%
G36*
X-67072Y396872D02*
X-67072Y396872D01*
X-69116Y397719D01*
X-70680Y399283D01*
X-71526Y401327D01*
X-71526Y403539D01*
X-70680Y405583D01*
X-69116Y407147D01*
X-67072Y407994D01*
X-64860Y407994D01*
X-62816Y407147D01*
X-61252Y405583D01*
X-60405Y403539D01*
X-60405Y401327D01*
X-61252Y399283D01*
X-62816Y397719D01*
X-64860Y396872D01*
X-67072Y396872D01*
G37*
%LPD*%
%LPC*%
G36*
X61568Y396451D02*
X61568Y396451D01*
X59525Y397298D01*
X57960Y398862D01*
X57114Y400906D01*
X57114Y403118D01*
X57960Y405162D01*
X59525Y406726D01*
X61568Y407572D01*
X63781Y407572D01*
X65824Y406726D01*
X67389Y405162D01*
X68235Y403118D01*
X68235Y400906D01*
X67389Y398862D01*
X65824Y397298D01*
X63781Y396451D01*
X61568Y396451D01*
G37*
%LPD*%
%LPC*%
G36*
X-38254Y357024D02*
X-38254Y357024D01*
X-40297Y357871D01*
X-41862Y359435D01*
X-42708Y361479D01*
X-42708Y363691D01*
X-41862Y365735D01*
X-40297Y367299D01*
X-38254Y368146D01*
X-36041Y368146D01*
X-33998Y367299D01*
X-32433Y365735D01*
X-31587Y363691D01*
X-31587Y361479D01*
X-32433Y359435D01*
X-33998Y357871D01*
X-36041Y357024D01*
X-38254Y357024D01*
G37*
%LPD*%
%LPC*%
G36*
X40169Y471483D02*
X40169Y471483D01*
X38125Y472330D01*
X36561Y473894D01*
X35714Y475938D01*
X35714Y478150D01*
X36561Y480194D01*
X38125Y481758D01*
X40169Y482604D01*
X42381Y482604D01*
X44425Y481758D01*
X45989Y480194D01*
X46836Y478150D01*
X46836Y475938D01*
X45989Y473894D01*
X44425Y472330D01*
X42381Y471483D01*
X40169Y471483D01*
G37*
%LPD*%
%LPC*%
G36*
X-43567Y461897D02*
X-43567Y461897D01*
X-45611Y462744D01*
X-47175Y464308D01*
X-48022Y466352D01*
X-48022Y468564D01*
X-47175Y470608D01*
X-45611Y472172D01*
X-43567Y473019D01*
X-41355Y473019D01*
X-39311Y472172D01*
X-37747Y470608D01*
X-36900Y468564D01*
X-36900Y466352D01*
X-37747Y464308D01*
X-39311Y462744D01*
X-41355Y461897D01*
X-43567Y461897D01*
G37*
%LPD*%
%LPC*%
G36*
X43615Y424433D02*
X43615Y424433D01*
X40639Y427409D01*
X40639Y431619D01*
X43615Y434595D01*
X47825Y434595D01*
X50801Y431619D01*
X50801Y427409D01*
X47825Y424433D01*
X43615Y424433D01*
G37*
%LPD*%
%LPC*%
G36*
X44377Y396769D02*
X44377Y396769D01*
X41401Y399745D01*
X41401Y403955D01*
X44377Y406931D01*
X48587Y406931D01*
X51563Y403955D01*
X51563Y399745D01*
X48587Y396769D01*
X44377Y396769D01*
G37*
%LPD*%
%LPC*%
G36*
X-21409Y366013D02*
X-21409Y366013D01*
X-24385Y368989D01*
X-24385Y373199D01*
X-21409Y376175D01*
X-17199Y376175D01*
X-14223Y373199D01*
X-14223Y368989D01*
X-17199Y366013D01*
X-21409Y366013D01*
G37*
%LPD*%
%LPC*%
G36*
X-113315Y341530D02*
X-113315Y341530D01*
X-116291Y344506D01*
X-116291Y348715D01*
X-113315Y351691D01*
X-109106Y351691D01*
X-106129Y348715D01*
X-106129Y344506D01*
X-109106Y341530D01*
X-113315Y341530D01*
G37*
%LPD*%
%LPC*%
G36*
X-35379Y339089D02*
X-35379Y339089D01*
X-38355Y342065D01*
X-38355Y346275D01*
X-35379Y349251D01*
X-31169Y349251D01*
X-28193Y346275D01*
X-28193Y342065D01*
X-31169Y339089D01*
X-35379Y339089D01*
G37*
%LPD*%
%LPC*%
G36*
X-34363Y373125D02*
X-34363Y373125D01*
X-37339Y376101D01*
X-37339Y380311D01*
X-34363Y383287D01*
X-30153Y383287D01*
X-27177Y380311D01*
X-27177Y376101D01*
X-30153Y373125D01*
X-34363Y373125D01*
G37*
%LPD*%
%LPC*%
G36*
X-1597Y362965D02*
X-1597Y362965D01*
X-4573Y365941D01*
X-4573Y370151D01*
X-1597Y373127D01*
X2613Y373127D01*
X5589Y370151D01*
X5589Y365941D01*
X2613Y362965D01*
X-1597Y362965D01*
G37*
%LPD*%
D10*
X76200Y330994D03*
X76200Y356394D03*
X76200Y381794D03*
X-111125Y392906D03*
D11*
X-197263Y1619D03*
X-232263Y1619D03*
X-226854Y87059D03*
X-261854Y87059D03*
D12*
X204470Y-635D03*
X161169Y-25635D03*
X247771Y24365D03*
X-79314Y8690D03*
X-122616Y-16310D03*
D13*
X-42461Y467458D03*
X-26194Y473075D03*
X-98203Y446913D03*
X107294Y403257D03*
X-66675Y422910D03*
D14*
X106172Y377698D03*
D13*
X20796Y475361D03*
X105124Y442849D03*
X120872Y396875D03*
X-94012Y342011D03*
X-111792Y329565D03*
X-9430Y414909D03*
X7842Y414401D03*
X-286Y393573D03*
X7334Y433197D03*
X62675Y402012D03*
X-37148Y362585D03*
X64955Y338388D03*
X41275Y477044D03*
D14*
X-19304Y371094D03*
X-94488Y357378D03*
X-111210Y346610D03*
X-32258Y378206D03*
X-96266Y366268D03*
D13*
X106077Y418592D03*
X-4008Y303968D03*
X-175260Y33020D03*
X-157480Y33020D03*
X-143764Y28956D03*
X-132080Y45720D03*
X-147320Y45720D03*
X-165100Y45720D03*
X-182880Y45720D03*
X-175260Y58420D03*
X-157480Y58420D03*
X-139700Y58420D03*
X-182880Y71120D03*
X-165100Y71120D03*
X-147320Y71120D03*
X-50800Y86360D03*
X-50800Y71120D03*
X-40640Y78740D03*
X-40640Y66040D03*
X-27940Y71120D03*
X-27940Y55880D03*
X-15240Y66040D03*
X-2540Y71120D03*
X-2540Y55880D03*
X-10160Y81280D03*
X5080Y81280D03*
X-2540Y91440D03*
X-10160Y101600D03*
X5080Y101600D03*
X87122Y85344D03*
X86360Y70358D03*
X95250Y77470D03*
X95250Y64770D03*
X107950Y69850D03*
X107950Y57150D03*
X120650Y64770D03*
X133350Y69850D03*
X134366Y57404D03*
X125730Y80010D03*
X140970Y80010D03*
X133350Y90170D03*
X125730Y100330D03*
X140970Y100330D03*
D14*
X-194056Y128270D03*
D13*
X-141986Y108204D03*
X-134620Y99822D03*
X-141732Y90424D03*
X-208280Y198628D03*
X-208534Y128524D03*
X-158750Y150368D03*
X-147066Y150622D03*
X-135636Y150114D03*
X-153670Y159004D03*
X-141478Y159004D03*
X-158496Y166878D03*
X-147320Y166878D03*
X-135382Y166624D03*
X-120904Y106172D03*
X-120650Y92202D03*
X-112522Y99060D03*
X-112268Y86868D03*
X-101854Y93726D03*
D14*
X25727Y202946D03*
X-44577Y133985D03*
X17018Y206248D03*
X-47752Y186690D03*
D13*
X-19050Y152654D03*
X-7366Y152908D03*
X4826Y152654D03*
X-13970Y161290D03*
X-1778Y161290D03*
X-18796Y169164D03*
X-7620Y169164D03*
X4318Y168910D03*
X18796Y108458D03*
X19050Y94488D03*
X27178Y101346D03*
X27432Y89154D03*
X37846Y96012D03*
D14*
X3152Y200406D03*
X-254Y227838D03*
X12954Y226822D03*
D13*
X118110Y152400D03*
X129794Y152654D03*
X141986Y152400D03*
X123190Y161036D03*
X135382Y161036D03*
X118364Y168910D03*
X129540Y168910D03*
X141478Y168656D03*
X154432Y108204D03*
X154686Y94234D03*
X162814Y101092D03*
X163068Y88900D03*
X173482Y95758D03*
D14*
X-33782Y202946D03*
X-32639Y214249D03*
X109220Y160274D03*
X-9144Y205232D03*
X62992Y184404D03*
D13*
X-120396Y147574D03*
X-168148Y135128D03*
D14*
X-95504Y146812D03*
D13*
X-65966Y402433D03*
X3493Y252254D03*
X15240Y242570D03*
X15240Y262255D03*
X-85344Y90170D03*
X-73152Y90170D03*
X-78994Y81534D03*
X-65532Y81280D03*
X-62992Y94234D03*
X55880Y93472D03*
X69088Y94234D03*
X62738Y86106D03*
X74676Y86106D03*
X194818Y93980D03*
X207264Y94234D03*
X202184Y85344D03*
X216408Y85344D03*
X223012Y94488D03*
X232410Y86360D03*
X-42672Y110744D03*
X-32512Y122428D03*
X-180340Y108966D03*
X-179324Y122174D03*
X93218Y110490D03*
X100076Y121920D03*
X-254000Y172244D03*
X-244602Y186944D03*
X-254508Y158242D03*
X-241300Y139446D03*
X-207010Y213360D03*
X-223266Y204216D03*
X123190Y243840D03*
X111125Y278130D03*
X120142Y306070D03*
X89916Y206756D03*
X222758Y205486D03*
X184658Y226314D03*
D14*
X30480Y259080D03*
X-91694Y185166D03*
X226568Y111506D03*
X242570Y175514D03*
X93472Y159258D03*
X-175260Y154940D03*
X-150876Y203454D03*
X-33274Y344170D03*
X508Y368046D03*
X-75184Y262128D03*
X-48260Y160020D03*
X78359Y283972D03*
X-292100Y86360D03*
X-292100Y68580D03*
X-292100Y50800D03*
X-292100Y30480D03*
X-292100Y10160D03*
X-274320Y-2540D03*
X-259080Y-12700D03*
X-243840Y-22860D03*
X-243840Y-5080D03*
X-261620Y0D03*
X-279400Y20320D03*
X-279400Y60960D03*
X-272288Y73406D03*
X-264160Y50800D03*
X-279400Y43180D03*
X-264160Y30480D03*
X-243840Y30480D03*
D13*
X-71882Y306832D03*
D14*
X-171196Y239522D03*
X-143002Y255524D03*
X241300Y196088D03*
X262382Y184150D03*
X286258Y170942D03*
X287274Y148590D03*
X286004Y128016D03*
X283210Y105918D03*
X288290Y86106D03*
X254762Y116840D03*
X254254Y152654D03*
X63500Y258826D03*
D13*
X43688Y318135D03*
X20828Y150368D03*
X-26670Y132842D03*
X153670Y149860D03*
X106680Y136906D03*
X82296Y235966D03*
X129032Y297942D03*
D14*
X-87122Y170688D03*
X201422Y177800D03*
X-57404Y211074D03*
X-118110Y201676D03*
X83058Y308864D03*
X-111760Y292608D03*
X43688Y297434D03*
X37592Y149606D03*
X173482Y150876D03*
X-44196Y234442D03*
X-49530Y241808D03*
X-54483Y269367D03*
X-42418Y224790D03*
X227584Y144272D03*
X33987Y301600D03*
X30988Y269676D03*
X80010Y177292D03*
X40005Y287909D03*
X-48006Y196596D03*
X-54864Y280162D03*
X25579Y298652D03*
X50292Y271399D03*
X-45309Y273207D03*
X102616Y178054D03*
X213741Y174879D03*
X53594Y230886D03*
X45720Y429514D03*
D13*
X36124Y368200D03*
D14*
X53721Y239903D03*
X46482Y401850D03*
D13*
X45466Y369062D03*
X138684Y267716D03*
D14*
X103632Y309118D03*
X-52070Y256794D03*
D13*
X-42418Y255270D03*
D14*
X84582Y277114D03*
X-32512Y299974D03*
X-51816Y292862D03*
D13*
X138938Y242062D03*
X150368Y213360D03*
X87376Y296672D03*
X113792Y189230D03*
X95250Y303530D03*
X150368Y190246D03*
X91948Y195326D03*
X150368Y201930D03*
D14*
X-86868Y261112D03*
D13*
X105410Y217678D03*
D14*
X-156201Y222250D03*
X-196596Y155194D03*
X-163830Y198882D03*
X-111252Y192278D03*
D15*
X-99822Y192278D01*
X-92202Y199898D02*
X-79502Y199898D01*
X-60452Y180848D01*
X-60452Y180086D01*
X-57404Y177038D01*
X76708Y217678D02*
X105410Y217678D01*
X-92202Y199898D02*
X-99822Y192278D01*
X-57404Y177038D02*
X-33274Y177038D01*
X-22860Y187452D01*
X46482Y187452D01*
X76708Y217678D01*
D13*
X55245Y320675D03*
D14*
X53848Y211836D03*
X50800Y219964D03*
X50045Y247911D03*
X-104140Y201422D03*
M02*
