G04 EAGLE Gerber RS-274X export*
G75*
%MOMM*%
%FSLAX34Y34*%
%LPD*%
%INSoldermask Bottom*%
%IPPOS*%
%AMOC8*
5,1,8,0,0,1.08239X$1,22.5*%
G01*
%ADD10R,1.201600X1.101600*%
%ADD11R,1.401600X1.601600*%
%ADD12R,1.101600X1.201600*%
%ADD13R,1.601600X1.401600*%
%ADD14C,1.625600*%
%ADD15P,1.759533X8X22.500000*%
%ADD16R,0.651600X0.401600*%
%ADD17R,0.401600X0.651600*%
%ADD18R,5.701600X5.701600*%
%ADD19R,1.501597X0.501600*%
%ADD20C,1.101600*%
%ADD21C,0.605878*%
%ADD22R,0.401600X0.751600*%
%ADD23R,1.409600X1.409600*%
%ADD24C,1.409600*%
%ADD25C,2.201600*%
%ADD26R,2.201600X2.201600*%

G36*
X150084Y328125D02*
X150084Y328125D01*
X150155Y328134D01*
X150180Y328148D01*
X150208Y328155D01*
X150266Y328197D01*
X150327Y328232D01*
X150345Y328255D01*
X150369Y328273D01*
X150405Y328334D01*
X150448Y328390D01*
X150455Y328419D01*
X150470Y328444D01*
X150486Y328542D01*
X150497Y328583D01*
X150495Y328594D01*
X150497Y328608D01*
X150475Y362569D01*
X150475Y362572D01*
X150475Y362573D01*
X150471Y362590D01*
X150469Y362598D01*
X150472Y362627D01*
X150449Y362694D01*
X150435Y362764D01*
X150419Y362788D01*
X150410Y362816D01*
X150363Y362869D01*
X150323Y362928D01*
X150298Y362943D01*
X150279Y362965D01*
X150215Y362997D01*
X150155Y363035D01*
X150126Y363040D01*
X150100Y363052D01*
X150001Y363061D01*
X149959Y363068D01*
X149948Y363065D01*
X149934Y363066D01*
X147139Y362833D01*
X147106Y362823D01*
X147058Y362819D01*
X144340Y362129D01*
X144309Y362114D01*
X144262Y362102D01*
X141694Y360974D01*
X141666Y360954D01*
X141622Y360935D01*
X139275Y359399D01*
X139250Y359375D01*
X139210Y359348D01*
X137148Y357448D01*
X137129Y357421D01*
X137115Y357412D01*
X137110Y357403D01*
X137092Y357387D01*
X135371Y355173D01*
X135356Y355142D01*
X135326Y355104D01*
X133993Y352636D01*
X133983Y352603D01*
X133960Y352561D01*
X133051Y349908D01*
X133046Y349873D01*
X133031Y349828D01*
X132571Y347061D01*
X132572Y347026D01*
X132564Y346979D01*
X132566Y344174D01*
X132573Y344140D01*
X132573Y344092D01*
X133036Y341326D01*
X133049Y341294D01*
X133057Y341246D01*
X133969Y338594D01*
X133987Y338565D01*
X134002Y338519D01*
X135339Y336053D01*
X135361Y336027D01*
X135384Y335984D01*
X137108Y333772D01*
X137134Y333750D01*
X137164Y333712D01*
X139228Y331814D01*
X139258Y331796D01*
X139293Y331763D01*
X141642Y330231D01*
X141674Y330218D01*
X141715Y330192D01*
X144284Y329067D01*
X144318Y329059D01*
X144362Y329040D01*
X147081Y328353D01*
X147116Y328352D01*
X147162Y328340D01*
X149957Y328110D01*
X149986Y328113D01*
X150015Y328109D01*
X150084Y328125D01*
G37*
G36*
X-72588Y459043D02*
X-72588Y459043D01*
X-72554Y459051D01*
X-72506Y459053D01*
X-69754Y459592D01*
X-69722Y459605D01*
X-69675Y459615D01*
X-67049Y460600D01*
X-67019Y460618D01*
X-66974Y460635D01*
X-64546Y462039D01*
X-64520Y462062D01*
X-64479Y462086D01*
X-62315Y463870D01*
X-62293Y463897D01*
X-62256Y463928D01*
X-60416Y466044D01*
X-60399Y466074D01*
X-60367Y466110D01*
X-58900Y468500D01*
X-58888Y468533D01*
X-58863Y468574D01*
X-57809Y471173D01*
X-57803Y471207D01*
X-57784Y471252D01*
X-57173Y473989D01*
X-57172Y474023D01*
X-57162Y474070D01*
X-57009Y476871D01*
X-57014Y476905D01*
X-57011Y476953D01*
X-57322Y479740D01*
X-57332Y479773D01*
X-57337Y479821D01*
X-58102Y482519D01*
X-58118Y482550D01*
X-58131Y482597D01*
X-59330Y485132D01*
X-59347Y485156D01*
X-59358Y485183D01*
X-59406Y485234D01*
X-59449Y485291D01*
X-59474Y485306D01*
X-59494Y485327D01*
X-59559Y485356D01*
X-59621Y485392D01*
X-59650Y485395D01*
X-59676Y485407D01*
X-59747Y485408D01*
X-59818Y485417D01*
X-59846Y485409D01*
X-59875Y485409D01*
X-59968Y485374D01*
X-60009Y485363D01*
X-60018Y485356D01*
X-60031Y485351D01*
X-89431Y468351D01*
X-89453Y468332D01*
X-89479Y468319D01*
X-89527Y468266D01*
X-89580Y468219D01*
X-89593Y468193D01*
X-89612Y468171D01*
X-89635Y468104D01*
X-89666Y468040D01*
X-89667Y468011D01*
X-89676Y467983D01*
X-89671Y467912D01*
X-89674Y467841D01*
X-89664Y467814D01*
X-89662Y467785D01*
X-89620Y467694D01*
X-89605Y467655D01*
X-89597Y467647D01*
X-89591Y467634D01*
X-87992Y465330D01*
X-87967Y465306D01*
X-87939Y465267D01*
X-85982Y463258D01*
X-85954Y463238D01*
X-85920Y463204D01*
X-83659Y461544D01*
X-83628Y461530D01*
X-83589Y461501D01*
X-81086Y460237D01*
X-81053Y460227D01*
X-81010Y460206D01*
X-78332Y459370D01*
X-78298Y459367D01*
X-78252Y459352D01*
X-75474Y458969D01*
X-75439Y458971D01*
X-75391Y458964D01*
X-72588Y459043D01*
G37*
G36*
X75963Y458570D02*
X75963Y458570D01*
X76011Y458569D01*
X78789Y458952D01*
X78822Y458964D01*
X78870Y458970D01*
X81547Y459806D01*
X81578Y459822D01*
X81623Y459837D01*
X84127Y461101D01*
X84154Y461123D01*
X84197Y461144D01*
X86458Y462804D01*
X86481Y462829D01*
X86520Y462858D01*
X88477Y464867D01*
X88496Y464896D01*
X88529Y464930D01*
X90129Y467234D01*
X90140Y467261D01*
X90159Y467283D01*
X90179Y467351D01*
X90207Y467417D01*
X90208Y467446D01*
X90216Y467474D01*
X90208Y467545D01*
X90209Y467616D01*
X90197Y467642D01*
X90194Y467671D01*
X90159Y467733D01*
X90132Y467799D01*
X90111Y467819D01*
X90097Y467845D01*
X90020Y467908D01*
X89990Y467938D01*
X89979Y467942D01*
X89969Y467951D01*
X60569Y484951D01*
X60541Y484960D01*
X60517Y484977D01*
X60448Y484992D01*
X60380Y485014D01*
X60351Y485012D01*
X60323Y485018D01*
X60253Y485004D01*
X60182Y484999D01*
X60156Y484985D01*
X60127Y484980D01*
X60069Y484940D01*
X60005Y484907D01*
X59987Y484885D01*
X59963Y484869D01*
X59906Y484787D01*
X59879Y484754D01*
X59875Y484744D01*
X59867Y484732D01*
X58669Y482197D01*
X58661Y482163D01*
X58640Y482119D01*
X57875Y479421D01*
X57872Y479387D01*
X57859Y479340D01*
X57549Y476553D01*
X57551Y476526D01*
X57550Y476521D01*
X57552Y476516D01*
X57546Y476471D01*
X57699Y473670D01*
X57708Y473637D01*
X57710Y473589D01*
X58322Y470852D01*
X58336Y470820D01*
X58346Y470773D01*
X59400Y468174D01*
X59419Y468145D01*
X59437Y468100D01*
X60904Y465710D01*
X60928Y465685D01*
X60953Y465644D01*
X62794Y463528D01*
X62821Y463506D01*
X62853Y463470D01*
X65016Y461686D01*
X65047Y461669D01*
X65084Y461639D01*
X67512Y460235D01*
X67545Y460224D01*
X67586Y460200D01*
X70212Y459215D01*
X70246Y459209D01*
X70291Y459192D01*
X73044Y458653D01*
X73078Y458653D01*
X73126Y458643D01*
X75929Y458564D01*
X75963Y458570D01*
G37*
G36*
X-149658Y328789D02*
X-149658Y328789D01*
X-149644Y328787D01*
X-146850Y329021D01*
X-146816Y329031D01*
X-146768Y329034D01*
X-144050Y329725D01*
X-144019Y329740D01*
X-143972Y329752D01*
X-141405Y330880D01*
X-141376Y330900D01*
X-141332Y330919D01*
X-138985Y332455D01*
X-138961Y332479D01*
X-138920Y332505D01*
X-136858Y334406D01*
X-136847Y334421D01*
X-136835Y334430D01*
X-136824Y334447D01*
X-136802Y334467D01*
X-135081Y336681D01*
X-135066Y336712D01*
X-135036Y336750D01*
X-133703Y339217D01*
X-133693Y339251D01*
X-133670Y339293D01*
X-132761Y341946D01*
X-132757Y341981D01*
X-132741Y342026D01*
X-132281Y344793D01*
X-132282Y344827D01*
X-132274Y344875D01*
X-132276Y347679D01*
X-132283Y347713D01*
X-132283Y347761D01*
X-132746Y350527D01*
X-132759Y350560D01*
X-132767Y350607D01*
X-133679Y353259D01*
X-133697Y353289D01*
X-133712Y353335D01*
X-135049Y355800D01*
X-135071Y355827D01*
X-135094Y355869D01*
X-136818Y358081D01*
X-136844Y358104D01*
X-136874Y358142D01*
X-138938Y360040D01*
X-138968Y360058D01*
X-139003Y360091D01*
X-141352Y361623D01*
X-141384Y361636D01*
X-141425Y361662D01*
X-143994Y362787D01*
X-144028Y362794D01*
X-144072Y362814D01*
X-146791Y363500D01*
X-146826Y363502D01*
X-146872Y363514D01*
X-149667Y363744D01*
X-149696Y363740D01*
X-149725Y363745D01*
X-149794Y363729D01*
X-149865Y363720D01*
X-149890Y363706D01*
X-149919Y363699D01*
X-149976Y363657D01*
X-150037Y363621D01*
X-150055Y363598D01*
X-150079Y363581D01*
X-150115Y363520D01*
X-150158Y363463D01*
X-150165Y363435D01*
X-150180Y363410D01*
X-150196Y363312D01*
X-150207Y363270D01*
X-150205Y363259D01*
X-150208Y363246D01*
X-150185Y329285D01*
X-150179Y329256D01*
X-150182Y329227D01*
X-150160Y329159D01*
X-150145Y329090D01*
X-150129Y329066D01*
X-150120Y329038D01*
X-150073Y328984D01*
X-150033Y328926D01*
X-150008Y328910D01*
X-149989Y328888D01*
X-149925Y328857D01*
X-149865Y328819D01*
X-149836Y328814D01*
X-149810Y328801D01*
X-149711Y328793D01*
X-149669Y328786D01*
X-149658Y328789D01*
G37*
G36*
X150155Y413371D02*
X150155Y413371D01*
X150226Y413380D01*
X150251Y413394D01*
X150279Y413401D01*
X150336Y413443D01*
X150398Y413479D01*
X150416Y413502D01*
X150439Y413519D01*
X150475Y413581D01*
X150519Y413637D01*
X150526Y413665D01*
X150540Y413690D01*
X150557Y413789D01*
X150567Y413830D01*
X150566Y413841D01*
X150568Y413854D01*
X150545Y432894D01*
X150530Y432969D01*
X150521Y433046D01*
X150510Y433066D01*
X150505Y433089D01*
X150462Y433152D01*
X150424Y433219D01*
X150404Y433236D01*
X150393Y433252D01*
X150355Y433276D01*
X150296Y433325D01*
X133819Y442865D01*
X133791Y442874D01*
X133768Y442891D01*
X133698Y442905D01*
X133630Y442928D01*
X133601Y442926D01*
X133573Y442932D01*
X133503Y442918D01*
X133432Y442913D01*
X133406Y442900D01*
X133378Y442894D01*
X133319Y442854D01*
X133255Y442821D01*
X133237Y442799D01*
X133213Y442783D01*
X133156Y442701D01*
X133129Y442668D01*
X133125Y442658D01*
X133118Y442647D01*
X131803Y439877D01*
X131795Y439843D01*
X131775Y439801D01*
X130922Y436856D01*
X130919Y436823D01*
X130906Y436778D01*
X130536Y433734D01*
X130539Y433700D01*
X130533Y433653D01*
X130656Y430590D01*
X130664Y430557D01*
X130666Y430510D01*
X131279Y427506D01*
X131292Y427475D01*
X131302Y427429D01*
X132389Y424562D01*
X132407Y424533D01*
X132423Y424489D01*
X133956Y421834D01*
X133979Y421808D01*
X134002Y421768D01*
X135941Y419392D01*
X135967Y419371D01*
X135997Y419334D01*
X138292Y417301D01*
X138321Y417284D01*
X138356Y417253D01*
X140948Y415614D01*
X140979Y415602D01*
X141019Y415577D01*
X143840Y414375D01*
X143873Y414368D01*
X143916Y414350D01*
X146893Y413616D01*
X146927Y413614D01*
X146972Y413603D01*
X150029Y413356D01*
X150057Y413360D01*
X150086Y413355D01*
X150155Y413371D01*
G37*
G36*
X-149866Y413489D02*
X-149866Y413489D01*
X-149853Y413488D01*
X-146796Y413734D01*
X-146764Y413744D01*
X-146717Y413747D01*
X-143740Y414481D01*
X-143709Y414496D01*
X-143664Y414507D01*
X-140843Y415708D01*
X-140815Y415728D01*
X-140772Y415746D01*
X-138180Y417385D01*
X-138156Y417408D01*
X-138116Y417433D01*
X-135821Y419466D01*
X-135801Y419493D01*
X-135765Y419524D01*
X-133826Y421899D01*
X-133810Y421929D01*
X-133780Y421965D01*
X-132247Y424621D01*
X-132237Y424653D01*
X-132213Y424693D01*
X-131798Y425788D01*
X-131609Y426287D01*
X-131608Y426287D01*
X-131419Y426786D01*
X-131230Y427285D01*
X-131230Y427286D01*
X-131126Y427560D01*
X-131120Y427594D01*
X-131103Y427637D01*
X-130490Y430642D01*
X-130490Y430675D01*
X-130480Y430721D01*
X-130357Y433785D01*
X-130362Y433818D01*
X-130360Y433865D01*
X-130730Y436909D01*
X-130740Y436941D01*
X-130746Y436988D01*
X-131599Y439933D01*
X-131615Y439963D01*
X-131627Y440008D01*
X-132942Y442778D01*
X-132959Y442801D01*
X-132969Y442829D01*
X-133018Y442880D01*
X-133061Y442937D01*
X-133086Y442952D01*
X-133106Y442973D01*
X-133171Y443001D01*
X-133233Y443037D01*
X-133262Y443041D01*
X-133288Y443052D01*
X-133359Y443053D01*
X-133430Y443062D01*
X-133458Y443054D01*
X-133487Y443054D01*
X-133581Y443019D01*
X-133622Y443008D01*
X-133630Y443001D01*
X-133643Y442996D01*
X-150120Y433457D01*
X-150178Y433406D01*
X-150240Y433360D01*
X-150252Y433340D01*
X-150269Y433325D01*
X-150302Y433255D01*
X-150341Y433189D01*
X-150346Y433164D01*
X-150355Y433145D01*
X-150356Y433101D01*
X-150369Y433025D01*
X-150392Y413986D01*
X-150386Y413958D01*
X-150389Y413929D01*
X-150367Y413861D01*
X-150353Y413791D01*
X-150336Y413767D01*
X-150327Y413740D01*
X-150281Y413686D01*
X-150240Y413627D01*
X-150216Y413611D01*
X-150197Y413589D01*
X-150133Y413558D01*
X-150073Y413520D01*
X-150044Y413515D01*
X-150018Y413502D01*
X-149919Y413494D01*
X-149877Y413486D01*
X-149866Y413489D01*
G37*
G36*
X1585Y500062D02*
X1585Y500062D01*
X1632Y500061D01*
X4658Y500553D01*
X4690Y500565D01*
X4736Y500573D01*
X7645Y501544D01*
X7674Y501560D01*
X7719Y501575D01*
X10434Y503000D01*
X10460Y503021D01*
X10502Y503043D01*
X12953Y504885D01*
X12975Y504910D01*
X13013Y504938D01*
X15137Y507149D01*
X15155Y507178D01*
X15188Y507212D01*
X16930Y509735D01*
X16941Y509762D01*
X16959Y509784D01*
X16980Y509852D01*
X17008Y509918D01*
X17008Y509947D01*
X17016Y509975D01*
X17008Y510046D01*
X17008Y510117D01*
X16997Y510143D01*
X16994Y510172D01*
X16959Y510235D01*
X16931Y510300D01*
X16910Y510320D01*
X16896Y510346D01*
X16819Y510409D01*
X16789Y510439D01*
X16778Y510443D01*
X16768Y510451D01*
X268Y519951D01*
X195Y519976D01*
X124Y520007D01*
X101Y520007D01*
X79Y520014D01*
X3Y520008D01*
X-74Y520009D01*
X-99Y520000D01*
X-119Y519999D01*
X-159Y519978D01*
X-230Y519951D01*
X-16730Y510451D01*
X-16752Y510432D01*
X-16778Y510420D01*
X-16826Y510367D01*
X-16879Y510320D01*
X-16892Y510294D01*
X-16911Y510272D01*
X-16935Y510205D01*
X-16965Y510141D01*
X-16967Y510112D01*
X-16976Y510084D01*
X-16971Y510013D01*
X-16975Y509942D01*
X-16965Y509915D01*
X-16963Y509886D01*
X-16920Y509795D01*
X-16905Y509755D01*
X-16898Y509747D01*
X-16892Y509735D01*
X-15150Y507212D01*
X-15126Y507188D01*
X-15100Y507149D01*
X-12976Y504938D01*
X-12948Y504919D01*
X-12915Y504885D01*
X-10464Y503043D01*
X-10433Y503028D01*
X-10396Y503000D01*
X-7681Y501575D01*
X-7649Y501566D01*
X-7607Y501544D01*
X-4699Y500573D01*
X-4665Y500568D01*
X-4621Y500553D01*
X-1594Y500061D01*
X-1561Y500063D01*
X-1514Y500055D01*
X1552Y500055D01*
X1585Y500062D01*
G37*
D10*
X-65088Y376833D03*
X-48088Y376833D03*
D11*
X-48628Y338098D03*
X-67628Y338098D03*
D10*
X-105583Y422633D03*
X-88583Y422633D03*
X-64943Y392153D03*
X-47943Y392153D03*
D11*
X-48628Y358418D03*
X-67628Y358418D03*
D12*
X56896Y427124D03*
X56896Y410124D03*
D13*
X74898Y411219D03*
X74898Y430219D03*
D14*
X76200Y330994D03*
X76200Y356394D03*
X76200Y381794D03*
D15*
X-111125Y392906D03*
D10*
X94456Y419917D03*
X94456Y402917D03*
X94456Y376006D03*
X94456Y359006D03*
X-94338Y319723D03*
X-94338Y302723D03*
D16*
X-30625Y385243D03*
X-30625Y390244D03*
X-30625Y395246D03*
X-30625Y400247D03*
X-30625Y405248D03*
X-30625Y410249D03*
X-30625Y415251D03*
X-30625Y420252D03*
X-30625Y425253D03*
X-30625Y430254D03*
X-30625Y435256D03*
X-30625Y440257D03*
D17*
X-24332Y446550D03*
X-19331Y446550D03*
X-14329Y446550D03*
X-9328Y446550D03*
X-4327Y446550D03*
X674Y446550D03*
X5676Y446550D03*
X10677Y446550D03*
X15678Y446550D03*
X20679Y446550D03*
X25681Y446550D03*
X30682Y446550D03*
D16*
X36975Y440257D03*
X36975Y435256D03*
X36975Y430254D03*
X36975Y425253D03*
X36975Y420252D03*
X36975Y415251D03*
X36975Y410249D03*
X36975Y405248D03*
X36975Y400247D03*
X36975Y395246D03*
X36975Y390244D03*
X36975Y385243D03*
D17*
X30682Y378950D03*
X25681Y378950D03*
X20679Y378950D03*
X15678Y378950D03*
X10677Y378950D03*
X5676Y378950D03*
X674Y378950D03*
X-4327Y378950D03*
X-9328Y378950D03*
X-14329Y378950D03*
X-19331Y378950D03*
X-24332Y378950D03*
D18*
X3175Y412750D03*
D19*
X-53181Y411069D03*
X-53181Y423069D03*
X-53181Y435069D03*
D20*
X19Y511519D03*
X143118Y428893D03*
X-70981Y470419D03*
X71519Y470019D03*
X143041Y345557D03*
X-142942Y429025D03*
X-142751Y346297D03*
D21*
X62847Y239112D02*
X73805Y239112D01*
X73805Y234154D01*
X62847Y234154D01*
X62847Y239112D01*
X63038Y215866D02*
X73996Y215866D01*
X63038Y215866D02*
X63038Y220824D01*
X73996Y220824D01*
X73996Y215866D01*
X73996Y202726D02*
X63038Y202726D01*
X73996Y202726D02*
X73996Y197768D01*
X63038Y197768D01*
X63038Y202726D01*
D22*
X-117837Y132626D03*
X-117837Y119126D03*
D10*
X-99124Y115643D03*
X-99124Y132643D03*
X-155416Y117167D03*
X-155416Y134167D03*
D22*
X-136125Y132626D03*
X-136125Y119126D03*
D11*
X-15900Y315436D03*
X-34900Y315436D03*
D13*
X10954Y318795D03*
X10954Y337795D03*
D10*
X198882Y160202D03*
X198882Y143202D03*
X198723Y111452D03*
X198723Y128452D03*
D12*
X-10868Y251778D03*
X-27868Y251778D03*
X215868Y160202D03*
X215868Y143202D03*
D10*
X215710Y128452D03*
X215710Y111452D03*
D22*
X26689Y133642D03*
X26689Y120142D03*
D10*
X45561Y118818D03*
X45561Y135818D03*
X-10827Y117738D03*
X-10827Y134738D03*
D22*
X8147Y133642D03*
X8147Y120142D03*
X158261Y133642D03*
X158261Y120142D03*
D10*
X176371Y119453D03*
X176371Y136453D03*
X120872Y118373D03*
X120872Y135373D03*
D22*
X140227Y133642D03*
X140227Y120142D03*
D12*
X-11376Y232728D03*
X-28376Y232728D03*
D10*
X67310Y159154D03*
X67310Y142154D03*
X67310Y109928D03*
X67310Y126928D03*
D12*
X83661Y159313D03*
X83661Y142313D03*
D10*
X83979Y126928D03*
X83979Y109928D03*
X-74962Y159408D03*
X-74962Y142408D03*
X-74962Y110182D03*
X-74962Y127182D03*
D12*
X-58611Y159567D03*
X-58611Y142567D03*
D10*
X-58293Y127182D03*
X-58293Y110182D03*
D12*
X-10868Y285591D03*
X-27868Y285591D03*
D10*
X5398Y268043D03*
X5398Y285043D03*
D12*
X-10868Y268129D03*
X-27868Y268129D03*
D10*
X38735Y255978D03*
X38735Y272978D03*
D12*
X-81049Y230505D03*
X-64049Y230505D03*
X-64049Y213201D03*
X-81049Y213201D03*
D10*
X-81049Y247333D03*
X-64049Y247333D03*
X72476Y291783D03*
X55476Y291783D03*
D12*
X55794Y309086D03*
X72794Y309086D03*
D10*
X38894Y240751D03*
X38894Y223751D03*
D12*
X-116895Y230537D03*
X-99895Y230537D03*
X-117053Y212757D03*
X-100053Y212757D03*
D10*
X-117053Y247523D03*
X-100053Y247523D03*
D23*
X-197263Y1619D03*
D24*
X-232263Y1619D03*
D23*
X-226854Y87059D03*
D24*
X-261854Y87059D03*
D21*
X63546Y256892D02*
X74504Y256892D01*
X74504Y251934D01*
X63546Y251934D01*
X63546Y256892D01*
D25*
X204470Y-635D03*
D26*
G36*
X176206Y-29664D02*
X157140Y-40672D01*
X146132Y-21606D01*
X165198Y-10598D01*
X176206Y-29664D01*
G37*
D25*
X247771Y24365D03*
X-79314Y8690D03*
D26*
G36*
X-107579Y-20339D02*
X-126645Y-31347D01*
X-137653Y-12281D01*
X-118587Y-1273D01*
X-107579Y-20339D01*
G37*
D21*
X62847Y274513D02*
X73805Y274513D01*
X73805Y269555D01*
X62847Y269555D01*
X62847Y274513D01*
X36261Y354947D02*
X36261Y365905D01*
X36261Y354947D02*
X31303Y354947D01*
X31303Y365905D01*
X36261Y365905D01*
X36261Y360703D02*
X31303Y360703D01*
X54549Y355455D02*
X54549Y366413D01*
X54549Y355455D02*
X49591Y355455D01*
X49591Y366413D01*
X54549Y366413D01*
X54549Y361211D02*
X49591Y361211D01*
M02*
